<svg width="375" height="101" viewBox="0 0 375 101" fill="none" xmlns="http://www.w3.org/2000/svg">
<path d="M-9.74603 44.0797C37.7993 4.56293 246.897 -30.5153 374.711 45.0823C376.227 44.8103 374.565 100.993 374.565 100.993L-9.89184 99.9901C-9.89184 99.9901 -9.98744 43.2809 -9.74603 44.0797Z" fill="#EC2727" fill-opacity="0.69"/>
<path opacity="0.4" d="M-9.99999 41.376C157.279 -63.9412 208.246 125.913 374.61 74.0399C375.488 76.0361 374.61 258 374.61 258H-5.93247C-5.93247 258 -9.88676 40.3784 -9.99999 41.376Z" fill="white" fill-opacity="0.35"/>
<path opacity="0.4" d="M375 67.1452C251.305 -17.0782 158.534 117.545 -9.60546 86.8391C-10.4932 88.0207 -9.60546 201 -9.60546 201H375C375 201 375 92.1081 375 67.1452Z" fill="#FFEBEB"/>
</svg>
