<svg width="53" height="62" viewBox="0 0 53 62" fill="none" xmlns="http://www.w3.org/2000/svg">
<path d="M45.1278 18.4667L28.1086 1.35205C27.1845 0.478107 25.6443 0.478104 24.7202 1.35204L7.70111 18.4667C-2.61815 28.5898 -2.5411 44.612 7.77821 54.7352C18.0975 64.4214 34.7316 64.4214 45.0508 54.7353C55.3701 44.6121 55.4471 28.5899 45.1278 18.4667ZM43.3566 36.3825C43.3566 44.4665 35.6557 52.1134 27.5697 52.1134C26.2605 52.1134 25.2594 51.1666 25.2594 49.9286C25.1824 48.7633 26.1835 47.8165 27.4156 47.7437C27.4926 47.7437 27.4926 47.7437 27.5697 47.7437C33.1143 47.7437 38.736 41.9903 38.736 36.3825C38.736 35.1444 39.7371 34.1977 41.0463 34.1977C42.2785 34.1248 43.2796 35.0716 43.3566 36.2369C43.3566 36.3097 43.3566 36.3097 43.3566 36.3825Z" fill="#EC2727" fill-opacity="0.77"/>
<path d="M44.7732 18.8193L44.7776 18.8237C54.8938 28.7476 54.8222 44.4452 44.7047 54.3745C34.5788 63.875 18.2502 63.875 8.12435 54.3743C-1.99318 44.445 -2.06487 28.7474 8.05126 18.8236L8.05128 18.8236L8.05565 18.8192L25.069 1.71038C25.7993 1.02533 27.0295 1.02533 27.7598 1.71038L44.7732 18.8193L44.7732 18.8193ZM27.4156 47.2437L27.4009 47.2437L27.3861 47.2446C25.9472 47.3296 24.6706 48.4503 24.7594 49.945C24.7683 51.4768 26.0166 52.6134 27.5697 52.6134C31.7686 52.6134 35.8367 50.6312 38.8481 47.6338C41.8595 44.6365 43.8566 40.5819 43.8566 36.3825L43.8566 36.3821L43.8566 36.3817L43.8566 36.3812L43.8566 36.3808L43.8566 36.3804L43.8566 36.38L43.8566 36.3796L43.8566 36.3792L43.8566 36.3787L43.8566 36.3783L43.8566 36.3779L43.8566 36.3775L43.8566 36.3771L43.8566 36.3767L43.8566 36.3763L43.8566 36.3759L43.8566 36.3755L43.8566 36.3751L43.8566 36.3747L43.8566 36.3743L43.8566 36.3739L43.8566 36.3735L43.8566 36.3731L43.8566 36.3727L43.8566 36.3724L43.8566 36.372L43.8566 36.3716L43.8566 36.3712L43.8566 36.3708L43.8566 36.3704L43.8566 36.3701L43.8566 36.3697L43.8566 36.3693L43.8566 36.3689L43.8566 36.3686L43.8566 36.3682L43.8566 36.3678L43.8566 36.3674L43.8566 36.3671L43.8566 36.3667L43.8566 36.3663L43.8566 36.366L43.8566 36.3656L43.8566 36.3653L43.8566 36.3649L43.8566 36.3645L43.8566 36.3642L43.8566 36.3638L43.8566 36.3635L43.8566 36.3631L43.8566 36.3628L43.8566 36.3624L43.8566 36.3621L43.8566 36.3617L43.8566 36.3614L43.8566 36.361L43.8566 36.3607L43.8566 36.3604L43.8566 36.36L43.8566 36.3597L43.8566 36.3593L43.8566 36.359L43.8566 36.3587L43.8566 36.3583L43.8566 36.358L43.8566 36.3577L43.8566 36.3573L43.8566 36.357L43.8566 36.3567L43.8566 36.3564L43.8566 36.356L43.8566 36.3557L43.8566 36.3554L43.8566 36.3551L43.8566 36.3547L43.8566 36.3544L43.8566 36.3541L43.8566 36.3538L43.8566 36.3535L43.8566 36.3532L43.8566 36.3528L43.8566 36.3525L43.8566 36.3522L43.8566 36.3519L43.8566 36.3516L43.8566 36.3513L43.8566 36.351L43.8566 36.3507L43.8566 36.3504L43.8566 36.3501L43.8566 36.3498L43.8566 36.3495L43.8566 36.3492L43.8566 36.3489L43.8566 36.3486L43.8566 36.3483L43.8566 36.348L43.8566 36.3477L43.8566 36.3474L43.8566 36.3471L43.8566 36.3468L43.8566 36.3465L43.8566 36.3462L43.8566 36.3459L43.8566 36.3456L43.8566 36.3454L43.8566 36.3451L43.8566 36.3448L43.8566 36.3445L43.8566 36.3442L43.8566 36.3439L43.8566 36.3437L43.8566 36.3434L43.8566 36.3431L43.8566 36.3428L43.8566 36.3425L43.8566 36.3423L43.8566 36.342L43.8566 36.3417L43.8566 36.3414L43.8566 36.3412L43.8566 36.3409L43.8566 36.3406L43.8566 36.3404L43.8566 36.3401L43.8566 36.3398L43.8566 36.3395L43.8566 36.3393L43.8566 36.339L43.8566 36.3387L43.8566 36.3385L43.8566 36.3382L43.8566 36.338L43.8566 36.3377L43.8566 36.3374L43.8566 36.3372L43.8566 36.3369L43.8566 36.3367L43.8566 36.3364L43.8566 36.3361L43.8566 36.3359L43.8566 36.3356L43.8566 36.3354L43.8566 36.3351L43.8566 36.3349L43.8566 36.3346L43.8566 36.3344L43.8566 36.3341L43.8566 36.3339L43.8566 36.3336L43.8566 36.3334L43.8566 36.3331L43.8566 36.3329L43.8566 36.3326L43.8566 36.3324L43.8566 36.3321L43.8566 36.3319L43.8566 36.3316L43.8566 36.3314L43.8566 36.3311L43.8566 36.3309L43.8566 36.3306L43.8566 36.3304L43.8566 36.3302L43.8566 36.3299L43.8566 36.3297L43.8566 36.3294L43.8566 36.3292L43.8566 36.329L43.8566 36.3287L43.8566 36.3285L43.8566 36.3283L43.8566 36.328L43.8566 36.3278L43.8566 36.3275L43.8566 36.3273L43.8566 36.3271L43.8566 36.3268L43.8566 36.3266L43.8566 36.3264L43.8566 36.3261L43.8566 36.3259L43.8566 36.3257L43.8566 36.3255L43.8566 36.3252L43.8566 36.325L43.8566 36.3248L43.8566 36.3245L43.8566 36.3243L43.8566 36.3241L43.8566 36.3239L43.8566 36.3236L43.8566 36.3234L43.8566 36.3232L43.8566 36.323L43.8566 36.3227L43.8566 36.3225L43.8566 36.3223L43.8566 36.3221L43.8566 36.3218L43.8566 36.3216L43.8566 36.3214L43.8566 36.3212L43.8566 36.3209L43.8566 36.3207L43.8566 36.3205L43.8566 36.3203L43.8566 36.3201L43.8566 36.3198L43.8566 36.3196L43.8566 36.3194L43.8566 36.3192L43.8566 36.319L43.8566 36.3187L43.8566 36.3185L43.8566 36.3183L43.8566 36.3181L43.8566 36.3179L43.8566 36.3176L43.8566 36.3174L43.8566 36.3172L43.8566 36.317L43.8566 36.3168L43.8566 36.3166L43.8566 36.3163L43.8566 36.3161L43.8566 36.3159L43.8566 36.3157L43.8566 36.3155L43.8566 36.3153L43.8566 36.315L43.8566 36.3148L43.8566 36.3146L43.8566 36.3144L43.8566 36.3142L43.8566 36.314L43.8566 36.3138L43.8566 36.3135L43.8566 36.3133L43.8566 36.3131L43.8566 36.3129L43.8566 36.3127L43.8566 36.3125L43.8566 36.3123L43.8566 36.312L43.8566 36.3118L43.8566 36.3116L43.8566 36.3114L43.8566 36.3112L43.8566 36.311L43.8566 36.3108L43.8566 36.3105L43.8566 36.3103L43.8566 36.3101L43.8566 36.3099L43.8566 36.3097L43.8566 36.3095L43.8566 36.3093L43.8566 36.3091L43.8566 36.3088L43.8566 36.3086L43.8566 36.3084L43.8566 36.3082L43.8566 36.308L43.8566 36.3078L43.8566 36.3076L43.8566 36.3073L43.8566 36.3071L43.8566 36.3069L43.8566 36.3067L43.8566 36.3065L43.8566 36.3063L43.8566 36.3061L43.8566 36.3058L43.8566 36.3056L43.8566 36.3054L43.8566 36.3052L43.8566 36.305L43.8566 36.3048L43.8566 36.3046L43.8566 36.3043L43.8566 36.3041L43.8566 36.3039L43.8566 36.3037L43.8566 36.3035L43.8566 36.3033L43.8566 36.303L43.8566 36.3028L43.8566 36.3026L43.8566 36.3024L43.8566 36.3022L43.8566 36.302L43.8566 36.3017L43.8566 36.3015L43.8566 36.3013L43.8566 36.3011L43.8566 36.3009L43.8566 36.3006L43.8566 36.3004L43.8566 36.3002L43.8566 36.3L43.8566 36.2998L43.8566 36.2995L43.8566 36.2993L43.8566 36.2991L43.8566 36.2989L43.8566 36.2987L43.8566 36.2984L43.8566 36.2982L43.8566 36.298L43.8566 36.2978L43.8566 36.2976L43.8566 36.2973L43.8566 36.2971L43.8566 36.2969L43.8566 36.2967L43.8566 36.2964L43.8566 36.2962L43.8566 36.296L43.8566 36.2958L43.8566 36.2955L43.8566 36.2953L43.8566 36.2951L43.8566 36.2948L43.8566 36.2946L43.8566 36.2944L43.8566 36.2942L43.8566 36.2939L43.8566 36.2937L43.8566 36.2935L43.8566 36.2932L43.8566 36.293L43.8566 36.2928L43.8566 36.2925L43.8566 36.2923L43.8566 36.2921L43.8566 36.2918L43.8566 36.2916L43.8566 36.2914L43.8566 36.2911L43.8566 36.2909L43.8566 36.2907L43.8566 36.2904L43.8566 36.2902L43.8566 36.2899L43.8566 36.2897L43.8566 36.2895L43.8566 36.2892L43.8566 36.289L43.8566 36.2887L43.8566 36.2885L43.8566 36.2882L43.8566 36.288L43.8566 36.2878L43.8566 36.2875L43.8566 36.2873L43.8566 36.287L43.8566 36.2868L43.8566 36.2865L43.8566 36.2863L43.8566 36.286L43.8566 36.2858L43.8566 36.2855L43.8566 36.2853L43.8566 36.285L43.8566 36.2848L43.8566 36.2845L43.8566 36.2843L43.8566 36.284L43.8566 36.2838L43.8566 36.2835L43.8566 36.2832L43.8566 36.283L43.8566 36.2827L43.8566 36.2825L43.8566 36.2822L43.8566 36.282L43.8566 36.2817L43.8566 36.2814L43.8566 36.2812L43.8566 36.2809L43.8566 36.2806L43.8566 36.2804L43.8566 36.2801L43.8566 36.2798L43.8566 36.2796L43.8566 36.2793L43.8566 36.279L43.8566 36.2788L43.8566 36.2785L43.8566 36.2782L43.8566 36.2779L43.8566 36.2777L43.8566 36.2774L43.8566 36.2771L43.8566 36.2768L43.8566 36.2766L43.8566 36.2763L43.8566 36.276L43.8566 36.2757L43.8566 36.2754L43.8566 36.2752L43.8566 36.2749L43.8566 36.2746L43.8566 36.2743L43.8566 36.274L43.8566 36.2737L43.8566 36.2734L43.8566 36.2732L43.8566 36.2729L43.8566 36.2726L43.8566 36.2723L43.8566 36.272L43.8566 36.2717L43.8566 36.2714L43.8566 36.2711L43.8566 36.2708L43.8566 36.2705L43.8566 36.2702L43.8566 36.2699L43.8566 36.2696L43.8566 36.2693L43.8566 36.269L43.8566 36.2687L43.8566 36.2684L43.8566 36.2681L43.8566 36.2678L43.8566 36.2675L43.8566 36.2672L43.8566 36.2668L43.8566 36.2665L43.8566 36.2662L43.8566 36.2659L43.8566 36.2656L43.8566 36.2653L43.8566 36.265L43.8566 36.2646L43.8566 36.2643L43.8566 36.264L43.8566 36.2637L43.8566 36.2633L43.8566 36.263L43.8566 36.2627L43.8566 36.2624L43.8566 36.262L43.8566 36.2617L43.8566 36.2614L43.8566 36.261L43.8566 36.2607L43.8566 36.2604L43.8566 36.26L43.8566 36.2597L43.8566 36.2594L43.8566 36.259L43.8566 36.2587L43.8566 36.2583L43.8566 36.258L43.8566 36.2576L43.8566 36.2573L43.8566 36.257L43.8566 36.2566L43.8566 36.2563L43.8566 36.2559L43.8566 36.2555L43.8566 36.2552L43.8566 36.2548L43.8566 36.2545L43.8566 36.2541L43.8566 36.2538L43.8566 36.2534L43.8566 36.253L43.8566 36.2527L43.8566 36.2523L43.8566 36.2519L43.8566 36.2516L43.8566 36.2512L43.8566 36.2508L43.8566 36.2505L43.8566 36.2501L43.8566 36.2497L43.8566 36.2493L43.8566 36.2489L43.8566 36.2486L43.8566 36.2482L43.8566 36.2478L43.8566 36.2474L43.8566 36.247L43.8566 36.2466L43.8566 36.2463L43.8566 36.2459L43.8566 36.2455L43.8566 36.2451L43.8566 36.2447L43.8566 36.2443L43.8566 36.2439L43.8566 36.2435L43.8566 36.2431L43.8566 36.2427L43.8566 36.2423L43.8566 36.2419L43.8566 36.2415L43.8566 36.2411L43.8566 36.2406L43.8566 36.2402L43.8566 36.2398L43.8566 36.2394L43.8566 36.239L43.8566 36.2386L43.8566 36.2381L43.8566 36.2377L43.8566 36.2373L43.8566 36.2369L43.8566 36.2204L43.8555 36.2039C43.7614 34.7794 42.5414 33.6165 41.0316 33.6977C39.4798 33.7049 38.236 34.8472 38.236 36.3825C38.236 39.0248 36.9059 41.7456 34.8752 43.8159C32.844 45.8866 30.1738 47.2437 27.5697 47.2437L27.5692 47.2437L27.5688 47.2437L27.5683 47.2437L27.5679 47.2437L27.5674 47.2437L27.567 47.2437L27.5665 47.2437L27.5661 47.2437L27.5657 47.2437L27.5652 47.2437L27.5648 47.2437L27.5644 47.2437L27.5639 47.2437L27.5635 47.2437L27.5631 47.2437L27.5627 47.2437L27.5622 47.2437L27.5618 47.2437L27.5614 47.2437L27.561 47.2437L27.5606 47.2437L27.5601 47.2437L27.5597 47.2437L27.5593 47.2437L27.5589 47.2437L27.5585 47.2437L27.5581 47.2437L27.5577 47.2437L27.5573 47.2437L27.5569 47.2437L27.5565 47.2437L27.5561 47.2437L27.5557 47.2437L27.5553 47.2437L27.5549 47.2437L27.5545 47.2437L27.5541 47.2437L27.5537 47.2437L27.5533 47.2437L27.5529 47.2437L27.5526 47.2437L27.5522 47.2437L27.5518 47.2437L27.5514 47.2437L27.551 47.2437L27.5507 47.2437L27.5503 47.2437L27.5499 47.2437L27.5495 47.2437L27.5492 47.2437L27.5488 47.2437L27.5484 47.2437L27.548 47.2437L27.5477 47.2437L27.5473 47.2437L27.5469 47.2437L27.5466 47.2437L27.5462 47.2437L27.5459 47.2437L27.5455 47.2437L27.5452 47.2437L27.5448 47.2437L27.5444 47.2437L27.5441 47.2437L27.5437 47.2437L27.5434 47.2437L27.543 47.2437L27.5427 47.2437L27.5423 47.2437L27.542 47.2437L27.5417 47.2437L27.5413 47.2437L27.541 47.2437L27.5406 47.2437L27.5403 47.2437L27.5399 47.2437L27.5396 47.2437L27.5393 47.2437L27.5389 47.2437L27.5386 47.2437L27.5383 47.2437L27.5379 47.2437L27.5376 47.2437L27.5373 47.2437L27.537 47.2437L27.5366 47.2437L27.5363 47.2437L27.536 47.2437L27.5357 47.2437L27.5353 47.2437L27.535 47.2437L27.5347 47.2437L27.5344 47.2437L27.5341 47.2437L27.5338 47.2437L27.5334 47.2437L27.5331 47.2437L27.5328 47.2437L27.5325 47.2437L27.5322 47.2437L27.5319 47.2437L27.5316 47.2437L27.5313 47.2437L27.531 47.2437L27.5307 47.2437L27.5304 47.2437L27.5301 47.2437L27.5298 47.2437L27.5295 47.2437L27.5292 47.2437L27.5289 47.2437L27.5286 47.2437L27.5283 47.2437L27.528 47.2437L27.5277 47.2437L27.5274 47.2437L27.5271 47.2437L27.5268 47.2437L27.5265 47.2437L27.5262 47.2437L27.5259 47.2437L27.5256 47.2437L27.5254 47.2437L27.5251 47.2437L27.5248 47.2437L27.5245 47.2437L27.5242 47.2437L27.5239 47.2437L27.5237 47.2437L27.5234 47.2437L27.5231 47.2437L27.5228 47.2437L27.5225 47.2437L27.5223 47.2437L27.522 47.2437L27.5217 47.2437L27.5214 47.2437L27.5212 47.2437L27.5209 47.2437L27.5206 47.2437L27.5203 47.2437L27.5201 47.2437L27.5198 47.2437L27.5195 47.2437L27.5193 47.2437L27.519 47.2437L27.5187 47.2437L27.5185 47.2437L27.5182 47.2437L27.5179 47.2437L27.5177 47.2437L27.5174 47.2437L27.5171 47.2437L27.5169 47.2437L27.5166 47.2437L27.5164 47.2437L27.5161 47.2437L27.5158 47.2437L27.5156 47.2437L27.5153 47.2437L27.5151 47.2437L27.5148 47.2437L27.5146 47.2437L27.5143 47.2437L27.514 47.2437L27.5138 47.2437L27.5135 47.2437L27.5133 47.2437L27.513 47.2437L27.5128 47.2437L27.5125 47.2437L27.5123 47.2437L27.512 47.2437L27.5118 47.2437L27.5115 47.2437L27.5113 47.2437L27.511 47.2437L27.5108 47.2437L27.5105 47.2437L27.5103 47.2437L27.5101 47.2437L27.5098 47.2437L27.5096 47.2437L27.5093 47.2437L27.5091 47.2437L27.5088 47.2437L27.5086 47.2437L27.5084 47.2437L27.5081 47.2437L27.5079 47.2437L27.5076 47.2437L27.5074 47.2437L27.5071 47.2437L27.5069 47.2437L27.5067 47.2437L27.5064 47.2437L27.5062 47.2437L27.506 47.2437L27.5057 47.2437L27.5055 47.2437L27.5052 47.2437L27.505 47.2437L27.5048 47.2437L27.5045 47.2437L27.5043 47.2437L27.5041 47.2437L27.5038 47.2437L27.5036 47.2437L27.5034 47.2437L27.5031 47.2437L27.5029 47.2437L27.5027 47.2437L27.5024 47.2437L27.5022 47.2437L27.502 47.2437L27.5017 47.2437L27.5015 47.2437L27.5013 47.2437L27.5011 47.2437L27.5008 47.2437L27.5006 47.2437L27.5004 47.2437L27.5001 47.2437L27.4999 47.2437L27.4997 47.2437L27.4994 47.2437L27.4992 47.2437L27.499 47.2437L27.4988 47.2437L27.4985 47.2437L27.4983 47.2437L27.4981 47.2437L27.4979 47.2437L27.4976 47.2437L27.4974 47.2437L27.4972 47.2437L27.4969 47.2437L27.4967 47.2437L27.4965 47.2437L27.4963 47.2437L27.496 47.2437L27.4958 47.2437L27.4956 47.2437L27.4954 47.2437L27.4951 47.2437L27.4949 47.2437L27.4947 47.2437L27.4945 47.2437L27.4942 47.2437L27.494 47.2437L27.4938 47.2437L27.4935 47.2437L27.4933 47.2437L27.4931 47.2437L27.4929 47.2437L27.4926 47.2437L27.4924 47.2437L27.4922 47.2437L27.492 47.2437L27.4917 47.2437L27.4915 47.2437L27.4913 47.2437L27.4911 47.2437L27.4908 47.2437L27.4906 47.2437L27.4904 47.2437L27.4902 47.2437L27.4899 47.2437L27.4897 47.2437L27.4895 47.2437L27.4893 47.2437L27.489 47.2437L27.4888 47.2437L27.4886 47.2437L27.4884 47.2437L27.4881 47.2437L27.4879 47.2437L27.4877 47.2437L27.4874 47.2437L27.4872 47.2437L27.487 47.2437L27.4868 47.2437L27.4865 47.2437L27.4863 47.2437L27.4861 47.2437L27.4858 47.2437L27.4856 47.2437L27.4854 47.2437L27.4852 47.2437L27.4849 47.2437L27.4847 47.2437L27.4845 47.2437L27.4842 47.2437L27.484 47.2437L27.4838 47.2437L27.4835 47.2437L27.4833 47.2437L27.4831 47.2437L27.4829 47.2437L27.4826 47.2437L27.4824 47.2437L27.4822 47.2437L27.4819 47.2437L27.4817 47.2437L27.4815 47.2437L27.4812 47.2437L27.481 47.2437L27.4808 47.2437L27.4805 47.2437L27.4803 47.2437L27.48 47.2437L27.4798 47.2437L27.4796 47.2437L27.4793 47.2437L27.4791 47.2437L27.4789 47.2437L27.4786 47.2437L27.4784 47.2437L27.4781 47.2437L27.4779 47.2437L27.4777 47.2437L27.4774 47.2437L27.4772 47.2437L27.4769 47.2437L27.4767 47.2437L27.4765 47.2437L27.4762 47.2437L27.476 47.2437L27.4757 47.2437L27.4755 47.2437L27.4752 47.2437L27.475 47.2437L27.4748 47.2437L27.4745 47.2437L27.4743 47.2437L27.474 47.2437L27.4738 47.2437L27.4735 47.2437L27.4733 47.2437L27.473 47.2437L27.4728 47.2437L27.4725 47.2437L27.4723 47.2437L27.472 47.2437L27.4718 47.2437L27.4715 47.2437L27.4713 47.2437L27.471 47.2437L27.4707 47.2437L27.4705 47.2437L27.4702 47.2437L27.47 47.2437L27.4697 47.2437L27.4695 47.2437L27.4692 47.2437L27.4689 47.2437L27.4687 47.2437L27.4684 47.2437L27.4682 47.2437L27.4679 47.2437L27.4676 47.2437L27.4674 47.2437L27.4671 47.2437L27.4668 47.2437L27.4666 47.2437L27.4663 47.2437L27.466 47.2437L27.4658 47.2437L27.4655 47.2437L27.4652 47.2437L27.465 47.2437L27.4647 47.2437L27.4644 47.2437L27.4641 47.2437L27.4639 47.2437L27.4636 47.2437L27.4633 47.2437L27.463 47.2437L27.4628 47.2437L27.4625 47.2437L27.4622 47.2437L27.4619 47.2437L27.4616 47.2437L27.4614 47.2437L27.4611 47.2437L27.4608 47.2437L27.4605 47.2437L27.4602 47.2437L27.4599 47.2437L27.4597 47.2437L27.4594 47.2437L27.4591 47.2437L27.4588 47.2437L27.4585 47.2437L27.4582 47.2437L27.4579 47.2437L27.4576 47.2437L27.4573 47.2437L27.457 47.2437L27.4567 47.2437L27.4564 47.2437L27.4561 47.2437L27.4558 47.2437L27.4555 47.2437L27.4552 47.2437L27.4549 47.2437L27.4546 47.2437L27.4543 47.2437L27.454 47.2437L27.4537 47.2437L27.4534 47.2437L27.4531 47.2437L27.4528 47.2437L27.4525 47.2437L27.4522 47.2437L27.4518 47.2437L27.4515 47.2437L27.4512 47.2437L27.4509 47.2437L27.4506 47.2437L27.4503 47.2437L27.4499 47.2437L27.4496 47.2437L27.4493 47.2437L27.449 47.2437L27.4487 47.2437L27.4483 47.2437L27.448 47.2437L27.4477 47.2437L27.4473 47.2437L27.447 47.2437L27.4467 47.2437L27.4464 47.2437L27.446 47.2437L27.4457 47.2437L27.4453 47.2437L27.445 47.2437L27.4447 47.2437L27.4443 47.2437L27.444 47.2437L27.4436 47.2437L27.4433 47.2437L27.443 47.2437L27.4426 47.2437L27.4423 47.2437L27.4419 47.2437L27.4416 47.2437L27.4412 47.2437L27.4409 47.2437L27.4405 47.2437L27.4401 47.2437L27.4398 47.2437L27.4394 47.2437L27.4391 47.2437L27.4387 47.2437L27.4383 47.2437L27.438 47.2437L27.4376 47.2437L27.4372 47.2437L27.4369 47.2437L27.4365 47.2437L27.4361 47.2437L27.4358 47.2437L27.4354 47.2437L27.435 47.2437L27.4346 47.2437L27.4343 47.2437L27.4339 47.2437L27.4335 47.2437L27.4331 47.2437L27.4327 47.2437L27.4324 47.2437L27.432 47.2437L27.4316 47.2437L27.4312 47.2437L27.4308 47.2437L27.4304 47.2437L27.43 47.2437L27.4296 47.2437L27.4292 47.2437L27.4288 47.2437L27.4284 47.2437L27.428 47.2437L27.4276 47.2437L27.4272 47.2437L27.4268 47.2437L27.4264 47.2437L27.426 47.2437L27.4256 47.2437L27.4251 47.2437L27.4247 47.2437L27.4243 47.2437L27.4239 47.2437L27.4235 47.2437L27.4231 47.2437L27.4226 47.2437L27.4222 47.2437L27.4218 47.2437L27.4214 47.2437L27.4209 47.2437L27.4205 47.2437L27.4201 47.2437L27.4196 47.2437L27.4192 47.2437L27.4188 47.2437L27.4183 47.2437L27.4179 47.2437L27.4174 47.2437L27.417 47.2437L27.4165 47.2437L27.4161 47.2437L27.4156 47.2437Z" stroke="#928D8D" stroke-opacity="0.62"/>
</svg>
