<svg width="272" height="340" viewBox="0 0 272 340" fill="none" xmlns="http://www.w3.org/2000/svg">
<path d="M64.5694 29.144C63.3574 29.144 62.3014 28.88 61.4014 28.352C60.5134 27.812 59.8234 27.05 59.3314 26.066C58.8514 25.082 58.6114 23.924 58.6114 22.592C58.6114 21.248 58.8514 20.084 59.3314 19.1C59.8114 18.116 60.5014 17.36 61.4014 16.832C62.3014 16.304 63.3574 16.04 64.5694 16.04C65.7934 16.04 66.8494 16.304 67.7374 16.832C68.6374 17.36 69.3274 18.116 69.8074 19.1C70.2874 20.084 70.5274 21.242 70.5274 22.574C70.5274 23.918 70.2874 25.082 69.8074 26.066C69.3274 27.05 68.6374 27.812 67.7374 28.352C66.8374 28.88 65.7814 29.144 64.5694 29.144ZM64.5694 27.632C65.8534 27.632 66.8494 27.194 67.5574 26.318C68.2774 25.442 68.6374 24.194 68.6374 22.574C68.6374 20.966 68.2774 19.73 67.5574 18.866C66.8494 17.99 65.8534 17.552 64.5694 17.552C63.2854 17.552 62.2894 17.99 61.5814 18.866C60.8734 19.73 60.5194 20.966 60.5194 22.574C60.5194 24.194 60.8734 25.442 61.5814 26.318C62.3014 27.194 63.2974 27.632 64.5694 27.632ZM80.8107 19.928V29H79.0467V27.488C78.7587 28.016 78.3627 28.424 77.8587 28.712C77.3547 28.988 76.7847 29.126 76.1487 29.126C73.9647 29.126 72.8727 27.914 72.8727 25.49V19.928H74.6727V25.472C74.6727 26.216 74.8227 26.768 75.1227 27.128C75.4347 27.476 75.9027 27.65 76.5267 27.65C77.2707 27.65 77.8647 27.41 78.3087 26.93C78.7647 26.45 78.9927 25.814 78.9927 25.022V19.928H80.8107ZM87.9916 19.712C88.2676 19.712 88.5556 19.754 88.8556 19.838L88.8196 21.494C88.4956 21.374 88.1416 21.314 87.7576 21.314C86.9296 21.314 86.3056 21.566 85.8856 22.07C85.4776 22.562 85.2736 23.186 85.2736 23.942V29H83.4736V22.484C83.4736 21.536 83.4256 20.684 83.3296 19.928H85.0216L85.1836 21.566C85.4236 20.966 85.7956 20.51 86.2996 20.198C86.8036 19.874 87.3676 19.712 87.9916 19.712ZM99.396 29.144C98.4 29.144 97.488 29.012 96.66 28.748C95.844 28.484 95.136 28.088 94.536 27.56L95.202 26.192C95.826 26.696 96.474 27.062 97.146 27.29C97.818 27.518 98.574 27.632 99.414 27.632C100.374 27.632 101.118 27.452 101.646 27.092C102.174 26.732 102.438 26.222 102.438 25.562C102.438 25.01 102.192 24.596 101.7 24.32C101.208 24.032 100.428 23.768 99.36 23.528C98.34 23.312 97.506 23.066 96.858 22.79C96.21 22.502 95.7 22.124 95.328 21.656C94.956 21.176 94.77 20.564 94.77 19.82C94.77 19.076 94.968 18.422 95.364 17.858C95.76 17.282 96.318 16.838 97.038 16.526C97.77 16.202 98.61 16.04 99.558 16.04C100.458 16.04 101.298 16.178 102.078 16.454C102.87 16.73 103.53 17.12 104.058 17.624L103.392 18.992C102.804 18.5 102.198 18.14 101.574 17.912C100.95 17.672 100.284 17.552 99.576 17.552C98.652 17.552 97.926 17.75 97.398 18.146C96.87 18.53 96.606 19.058 96.606 19.73C96.606 20.306 96.834 20.744 97.29 21.044C97.758 21.344 98.502 21.614 99.522 21.854C100.59 22.094 101.454 22.346 102.114 22.61C102.774 22.874 103.302 23.234 103.698 23.69C104.094 24.146 104.292 24.734 104.292 25.454C104.292 26.198 104.094 26.846 103.698 27.398C103.302 27.95 102.732 28.382 101.988 28.694C101.256 28.994 100.392 29.144 99.396 29.144ZM114.171 24.5H107.691C107.751 26.624 108.717 27.686 110.589 27.686C111.633 27.686 112.587 27.344 113.451 26.66L114.009 27.956C113.601 28.316 113.079 28.604 112.443 28.82C111.819 29.024 111.189 29.126 110.553 29.126C109.101 29.126 107.961 28.712 107.133 27.884C106.305 27.044 105.891 25.898 105.891 24.446C105.891 23.522 106.071 22.7 106.431 21.98C106.803 21.26 107.319 20.702 107.979 20.306C108.639 19.91 109.389 19.712 110.229 19.712C111.453 19.712 112.413 20.108 113.109 20.9C113.817 21.692 114.171 22.79 114.171 24.194V24.5ZM110.265 21.062C109.581 21.062 109.023 21.266 108.591 21.674C108.159 22.082 107.883 22.664 107.763 23.42H112.569C112.497 22.652 112.263 22.07 111.867 21.674C111.471 21.266 110.937 21.062 110.265 21.062ZM120.775 19.712C121.051 19.712 121.339 19.754 121.639 19.838L121.603 21.494C121.279 21.374 120.925 21.314 120.541 21.314C119.713 21.314 119.089 21.566 118.669 22.07C118.261 22.562 118.057 23.186 118.057 23.942V29H116.257V22.484C116.257 21.536 116.209 20.684 116.113 19.928H117.805L117.967 21.566C118.207 20.966 118.579 20.51 119.083 20.198C119.587 19.874 120.151 19.712 120.775 19.712ZM131.813 19.946L127.871 29H126.233L122.327 19.946H124.253L127.097 26.948L129.995 19.946H131.813ZM133.22 19.928H135.02V29H133.22V19.928ZM135.164 15.968V17.876H133.058V15.968H135.164ZM141.627 29.126C140.715 29.126 139.917 28.934 139.233 28.55C138.561 28.166 138.045 27.626 137.685 26.93C137.325 26.222 137.145 25.4 137.145 24.464C137.145 23.528 137.331 22.7 137.703 21.98C138.087 21.26 138.621 20.702 139.305 20.306C139.989 19.91 140.787 19.712 141.699 19.712C142.335 19.712 142.947 19.82 143.535 20.036C144.123 20.24 144.597 20.522 144.957 20.882L144.399 22.196C143.547 21.524 142.689 21.188 141.825 21.188C140.949 21.188 140.265 21.476 139.773 22.052C139.281 22.616 139.035 23.414 139.035 24.446C139.035 25.478 139.281 26.276 139.773 26.84C140.265 27.392 140.949 27.668 141.825 27.668C142.713 27.668 143.571 27.332 144.399 26.66L144.957 27.974C144.573 28.334 144.081 28.616 143.481 28.82C142.893 29.024 142.275 29.126 141.627 29.126ZM154.407 24.5H147.927C147.987 26.624 148.953 27.686 150.825 27.686C151.869 27.686 152.823 27.344 153.687 26.66L154.245 27.956C153.837 28.316 153.315 28.604 152.679 28.82C152.055 29.024 151.425 29.126 150.789 29.126C149.337 29.126 148.197 28.712 147.369 27.884C146.541 27.044 146.127 25.898 146.127 24.446C146.127 23.522 146.307 22.7 146.667 21.98C147.039 21.26 147.555 20.702 148.215 20.306C148.875 19.91 149.625 19.712 150.465 19.712C151.689 19.712 152.649 20.108 153.345 20.9C154.053 21.692 154.407 22.79 154.407 24.194V24.5ZM150.501 21.062C149.817 21.062 149.259 21.266 148.827 21.674C148.395 22.082 148.119 22.664 147.999 23.42H152.805C152.733 22.652 152.499 22.07 152.103 21.674C151.707 21.266 151.173 21.062 150.501 21.062ZM161.454 16.184H163.308V29H161.454V16.184ZM169.294 29.126C167.71 29.126 166.462 28.742 165.55 27.974L166.09 26.66C167.038 27.38 168.124 27.74 169.348 27.74C169.972 27.74 170.446 27.638 170.77 27.434C171.094 27.218 171.256 26.918 171.256 26.534C171.256 26.21 171.142 25.958 170.914 25.778C170.698 25.586 170.326 25.424 169.798 25.292L168.286 24.932C167.494 24.764 166.888 24.47 166.468 24.05C166.06 23.618 165.856 23.084 165.856 22.448C165.856 21.632 166.18 20.972 166.828 20.468C167.488 19.964 168.358 19.712 169.438 19.712C170.086 19.712 170.698 19.814 171.274 20.018C171.862 20.222 172.36 20.51 172.768 20.882L172.21 22.16C171.334 21.464 170.41 21.116 169.438 21.116C168.85 21.116 168.394 21.23 168.07 21.458C167.746 21.674 167.584 21.98 167.584 22.376C167.584 22.688 167.686 22.94 167.89 23.132C168.094 23.324 168.418 23.474 168.862 23.582L170.41 23.96C171.274 24.152 171.91 24.458 172.318 24.878C172.738 25.286 172.948 25.82 172.948 26.48C172.948 27.296 172.618 27.944 171.958 28.424C171.31 28.892 170.422 29.126 169.294 29.126ZM188.476 25.832H181.996L180.628 29H178.738L184.444 16.184H186.01L191.734 29H189.844L188.476 25.832ZM187.846 24.356L185.236 18.254L182.626 24.356H187.846ZM196.276 29.126C194.692 29.126 193.444 28.742 192.532 27.974L193.072 26.66C194.02 27.38 195.106 27.74 196.33 27.74C196.954 27.74 197.428 27.638 197.752 27.434C198.076 27.218 198.238 26.918 198.238 26.534C198.238 26.21 198.124 25.958 197.896 25.778C197.68 25.586 197.308 25.424 196.78 25.292L195.268 24.932C194.476 24.764 193.87 24.47 193.45 24.05C193.042 23.618 192.838 23.084 192.838 22.448C192.838 21.632 193.162 20.972 193.81 20.468C194.47 19.964 195.34 19.712 196.42 19.712C197.068 19.712 197.68 19.814 198.256 20.018C198.844 20.222 199.342 20.51 199.75 20.882L199.192 22.16C198.316 21.464 197.392 21.116 196.42 21.116C195.832 21.116 195.376 21.23 195.052 21.458C194.728 21.674 194.566 21.98 194.566 22.376C194.566 22.688 194.668 22.94 194.872 23.132C195.076 23.324 195.4 23.474 195.844 23.582L197.392 23.96C198.256 24.152 198.892 24.458 199.3 24.878C199.72 25.286 199.93 25.82 199.93 26.48C199.93 27.296 199.6 27.944 198.94 28.424C198.292 28.892 197.404 29.126 196.276 29.126ZM211.228 29.144C210.232 29.144 209.32 29.012 208.492 28.748C207.676 28.484 206.968 28.088 206.368 27.56L207.034 26.192C207.658 26.696 208.306 27.062 208.978 27.29C209.65 27.518 210.406 27.632 211.246 27.632C212.206 27.632 212.95 27.452 213.478 27.092C214.006 26.732 214.27 26.222 214.27 25.562C214.27 25.01 214.024 24.596 213.532 24.32C213.04 24.032 212.26 23.768 211.192 23.528C210.172 23.312 209.338 23.066 208.69 22.79C208.042 22.502 207.532 22.124 207.16 21.656C206.788 21.176 206.602 20.564 206.602 19.82C206.602 19.076 206.8 18.422 207.196 17.858C207.592 17.282 208.15 16.838 208.87 16.526C209.602 16.202 210.442 16.04 211.39 16.04C212.29 16.04 213.13 16.178 213.91 16.454C214.702 16.73 215.362 17.12 215.89 17.624L215.224 18.992C214.636 18.5 214.03 18.14 213.406 17.912C212.782 17.672 212.116 17.552 211.408 17.552C210.484 17.552 209.758 17.75 209.23 18.146C208.702 18.53 208.438 19.058 208.438 19.73C208.438 20.306 208.666 20.744 209.122 21.044C209.59 21.344 210.334 21.614 211.354 21.854C212.422 22.094 213.286 22.346 213.946 22.61C214.606 22.874 215.134 23.234 215.53 23.69C215.926 24.146 216.124 24.734 216.124 25.454C216.124 26.198 215.926 26.846 215.53 27.398C215.134 27.95 214.564 28.382 213.82 28.694C213.088 28.994 212.224 29.144 211.228 29.144ZM218.263 19.928H220.063V29H218.263V19.928ZM220.207 15.968V17.876H218.101V15.968H220.207ZM233.078 19.712C235.094 19.712 236.102 20.924 236.102 23.348V29H234.284V23.438C234.284 22.658 234.146 22.088 233.87 21.728C233.606 21.368 233.174 21.188 232.574 21.188C231.878 21.188 231.326 21.428 230.918 21.908C230.522 22.388 230.324 23.042 230.324 23.87V29H228.506V23.438C228.506 22.658 228.368 22.088 228.092 21.728C227.828 21.368 227.396 21.188 226.796 21.188C226.1 21.188 225.548 21.428 225.14 21.908C224.732 22.388 224.528 23.042 224.528 23.87V29H222.728V22.484C222.728 21.536 222.68 20.684 222.584 19.928H224.276L224.438 21.44C224.702 20.888 225.08 20.462 225.572 20.162C226.064 19.862 226.64 19.712 227.3 19.712C228.704 19.712 229.622 20.294 230.054 21.458C230.33 20.918 230.732 20.492 231.26 20.18C231.8 19.868 232.406 19.712 233.078 19.712ZM243.512 19.712C244.292 19.712 244.988 19.91 245.6 20.306C246.212 20.702 246.686 21.26 247.022 21.98C247.37 22.7 247.544 23.528 247.544 24.464C247.544 25.4 247.376 26.222 247.04 26.93C246.704 27.626 246.23 28.166 245.618 28.55C245.006 28.934 244.304 29.126 243.512 29.126C242.816 29.126 242.204 28.982 241.676 28.694C241.16 28.394 240.77 27.968 240.506 27.416V32.888H238.706V22.484C238.706 21.536 238.658 20.684 238.562 19.928H240.254L240.434 21.602C240.674 21.002 241.064 20.54 241.604 20.216C242.144 19.88 242.78 19.712 243.512 19.712ZM243.098 27.686C243.914 27.686 244.55 27.404 245.006 26.84C245.462 26.276 245.69 25.484 245.69 24.464C245.69 23.432 245.462 22.628 245.006 22.052C244.55 21.464 243.914 21.17 243.098 21.17C242.258 21.17 241.616 21.452 241.172 22.016C240.728 22.58 240.506 23.384 240.506 24.428C240.506 25.472 240.728 26.276 241.172 26.84C241.628 27.404 242.27 27.686 243.098 27.686ZM249.675 15.752H251.475V29H249.675V15.752ZM261.88 24.5H255.4C255.46 26.624 256.426 27.686 258.298 27.686C259.342 27.686 260.296 27.344 261.16 26.66L261.718 27.956C261.31 28.316 260.788 28.604 260.152 28.82C259.528 29.024 258.898 29.126 258.262 29.126C256.81 29.126 255.67 28.712 254.842 27.884C254.014 27.044 253.6 25.898 253.6 24.446C253.6 23.522 253.78 22.7 254.14 21.98C254.512 21.26 255.028 20.702 255.688 20.306C256.348 19.91 257.098 19.712 257.938 19.712C259.162 19.712 260.122 20.108 260.818 20.9C261.526 21.692 261.88 22.79 261.88 24.194V24.5ZM257.974 21.062C257.29 21.062 256.732 21.266 256.3 21.674C255.868 22.082 255.592 22.664 255.472 23.42H260.278C260.206 22.652 259.972 22.07 259.576 21.674C259.18 21.266 258.646 21.062 257.974 21.062ZM103.74 51.832H97.2603L95.8923 55H94.0023L99.7083 42.184H101.274L106.998 55H105.108L103.74 51.832ZM103.11 50.356L100.5 44.254L97.8903 50.356H103.11ZM111.541 55.126C109.957 55.126 108.709 54.742 107.797 53.974L108.337 52.66C109.285 53.38 110.371 53.74 111.595 53.74C112.219 53.74 112.693 53.638 113.017 53.434C113.341 53.218 113.503 52.918 113.503 52.534C113.503 52.21 113.389 51.958 113.161 51.778C112.945 51.586 112.573 51.424 112.045 51.292L110.533 50.932C109.741 50.764 109.135 50.47 108.715 50.05C108.307 49.618 108.103 49.084 108.103 48.448C108.103 47.632 108.427 46.972 109.075 46.468C109.735 45.964 110.605 45.712 111.685 45.712C112.333 45.712 112.945 45.814 113.521 46.018C114.109 46.222 114.607 46.51 115.015 46.882L114.457 48.16C113.581 47.464 112.657 47.116 111.685 47.116C111.097 47.116 110.641 47.23 110.317 47.458C109.993 47.674 109.831 47.98 109.831 48.376C109.831 48.688 109.933 48.94 110.137 49.132C110.341 49.324 110.665 49.474 111.109 49.582L112.657 49.96C113.521 50.152 114.157 50.458 114.565 50.878C114.985 51.286 115.195 51.82 115.195 52.48C115.195 53.296 114.865 53.944 114.205 54.424C113.557 54.892 112.669 55.126 111.541 55.126ZM126.493 55.144C125.497 55.144 124.585 55.012 123.757 54.748C122.941 54.484 122.233 54.088 121.633 53.56L122.299 52.192C122.923 52.696 123.571 53.062 124.243 53.29C124.915 53.518 125.671 53.632 126.511 53.632C127.471 53.632 128.215 53.452 128.743 53.092C129.271 52.732 129.535 52.222 129.535 51.562C129.535 51.01 129.289 50.596 128.797 50.32C128.305 50.032 127.525 49.768 126.457 49.528C125.437 49.312 124.603 49.066 123.955 48.79C123.307 48.502 122.797 48.124 122.425 47.656C122.053 47.176 121.867 46.564 121.867 45.82C121.867 45.076 122.065 44.422 122.461 43.858C122.857 43.282 123.415 42.838 124.135 42.526C124.867 42.202 125.707 42.04 126.655 42.04C127.555 42.04 128.395 42.178 129.175 42.454C129.967 42.73 130.627 43.12 131.155 43.624L130.489 44.992C129.901 44.5 129.295 44.14 128.671 43.912C128.047 43.672 127.381 43.552 126.673 43.552C125.749 43.552 125.023 43.75 124.495 44.146C123.967 44.53 123.703 45.058 123.703 45.73C123.703 46.306 123.931 46.744 124.387 47.044C124.855 47.344 125.599 47.614 126.619 47.854C127.687 48.094 128.551 48.346 129.211 48.61C129.871 48.874 130.399 49.234 130.795 49.69C131.191 50.146 131.389 50.734 131.389 51.454C131.389 52.198 131.191 52.846 130.795 53.398C130.399 53.95 129.829 54.382 129.085 54.694C128.353 54.994 127.489 55.144 126.493 55.144ZM141.825 45.928V55H140.025V53.452C139.761 53.992 139.365 54.406 138.837 54.694C138.321 54.982 137.715 55.126 137.019 55.126C136.215 55.126 135.507 54.934 134.895 54.55C134.295 54.166 133.827 53.626 133.491 52.93C133.155 52.222 132.987 51.4 132.987 50.464C132.987 49.528 133.155 48.7 133.491 47.98C133.839 47.26 134.319 46.702 134.931 46.306C135.543 45.91 136.239 45.712 137.019 45.712C137.715 45.712 138.321 45.862 138.837 46.162C139.353 46.45 139.749 46.864 140.025 47.404V45.928H141.825ZM137.451 53.686C138.267 53.686 138.897 53.404 139.341 52.84C139.797 52.264 140.025 51.46 140.025 50.428C140.025 49.384 139.797 48.58 139.341 48.016C138.897 47.452 138.261 47.17 137.433 47.17C136.617 47.17 135.975 47.464 135.507 48.052C135.051 48.628 134.823 49.432 134.823 50.464C134.823 51.484 135.051 52.276 135.507 52.84C135.975 53.404 136.623 53.686 137.451 53.686ZM152.74 45.928L148.51 55.738C148.042 56.806 147.454 57.586 146.746 58.078C146.05 58.582 145.186 58.918 144.154 59.086L143.758 57.682C144.61 57.49 145.252 57.238 145.684 56.926C146.128 56.626 146.482 56.17 146.746 55.558L147.07 54.802L143.254 45.928H145.18L148.024 52.948L150.922 45.928H152.74ZM154.146 45.928H155.946V55H154.146V45.928ZM156.09 41.968V43.876H153.984V41.968H156.09ZM163.435 45.712C165.607 45.712 166.693 46.924 166.693 49.348V55H164.875V49.456C164.875 48.664 164.719 48.088 164.407 47.728C164.107 47.368 163.621 47.188 162.949 47.188C162.181 47.188 161.563 47.428 161.095 47.908C160.639 48.388 160.411 49.03 160.411 49.834V55H158.611V48.484C158.611 47.536 158.563 46.684 158.467 45.928H160.159L160.321 47.494C160.609 46.918 161.023 46.48 161.563 46.18C162.115 45.868 162.739 45.712 163.435 45.712ZM177.651 45.928V54.838C177.651 56.218 177.285 57.256 176.553 57.952C175.833 58.66 174.759 59.014 173.331 59.014C171.951 59.014 170.745 58.714 169.713 58.114L170.019 56.692C170.583 56.992 171.123 57.214 171.639 57.358C172.167 57.502 172.725 57.574 173.313 57.574C175.005 57.574 175.851 56.71 175.851 54.982V53.02C175.575 53.548 175.173 53.968 174.645 54.28C174.117 54.58 173.505 54.73 172.809 54.73C172.017 54.73 171.309 54.544 170.685 54.172C170.073 53.8 169.593 53.272 169.245 52.588C168.909 51.904 168.741 51.118 168.741 50.23C168.741 49.342 168.909 48.556 169.245 47.872C169.593 47.188 170.073 46.66 170.685 46.288C171.309 45.904 172.017 45.712 172.809 45.712C173.505 45.712 174.117 45.862 174.645 46.162C175.173 46.45 175.575 46.864 175.851 47.404V45.928H177.651ZM173.223 53.272C174.039 53.272 174.681 53.002 175.149 52.462C175.617 51.922 175.851 51.178 175.851 50.23C175.851 49.282 175.617 48.538 175.149 47.998C174.693 47.446 174.051 47.17 173.223 47.17C172.407 47.17 171.759 47.446 171.279 47.998C170.811 48.538 170.577 49.282 170.577 50.23C170.577 51.166 170.811 51.91 171.279 52.462C171.759 53.002 172.407 53.272 173.223 53.272ZM196.153 42.184V55H194.299V49.258H187.117V55H185.281V42.184H187.117V47.728H194.299V42.184H196.153ZM206.711 50.5H200.231C200.291 52.624 201.257 53.686 203.129 53.686C204.173 53.686 205.127 53.344 205.991 52.66L206.549 53.956C206.141 54.316 205.619 54.604 204.983 54.82C204.359 55.024 203.729 55.126 203.093 55.126C201.641 55.126 200.501 54.712 199.673 53.884C198.845 53.044 198.431 51.898 198.431 50.446C198.431 49.522 198.611 48.7 198.971 47.98C199.343 47.26 199.859 46.702 200.519 46.306C201.179 45.91 201.929 45.712 202.769 45.712C203.993 45.712 204.953 46.108 205.649 46.9C206.357 47.692 206.711 48.79 206.711 50.194V50.5ZM202.805 47.062C202.121 47.062 201.563 47.266 201.131 47.674C200.699 48.082 200.423 48.664 200.303 49.42H205.109C205.037 48.652 204.803 48.07 204.407 47.674C204.011 47.266 203.477 47.062 202.805 47.062ZM208.797 41.752H210.597V55H208.797V41.752ZM213.262 41.752H215.062V55H213.262V41.752ZM221.633 55.126C220.745 55.126 219.965 54.934 219.293 54.55C218.621 54.166 218.099 53.62 217.727 52.912C217.367 52.204 217.187 51.376 217.187 50.428C217.187 49.48 217.367 48.652 217.727 47.944C218.099 47.224 218.621 46.672 219.293 46.288C219.965 45.904 220.745 45.712 221.633 45.712C222.509 45.712 223.283 45.904 223.955 46.288C224.627 46.672 225.143 47.224 225.503 47.944C225.875 48.652 226.061 49.48 226.061 50.428C226.061 51.376 225.875 52.204 225.503 52.912C225.143 53.62 224.627 54.166 223.955 54.55C223.283 54.934 222.509 55.126 221.633 55.126ZM221.615 53.686C222.455 53.686 223.097 53.41 223.541 52.858C223.985 52.306 224.207 51.496 224.207 50.428C224.207 49.384 223.979 48.58 223.523 48.016C223.079 47.452 222.449 47.17 221.633 47.17C220.805 47.17 220.163 47.452 219.707 48.016C219.251 48.58 219.023 49.384 219.023 50.428C219.023 51.496 219.245 52.306 219.689 52.858C220.145 53.41 220.787 53.686 221.615 53.686ZM227.88 42.184H230.13L229.572 51.418H228.456L227.88 42.184ZM230.094 52.84V55H227.934V52.84H230.094Z" fill="#5E5959" fill-opacity="0.87"/>
<path d="M199.358 65.813C198.069 71.6501 153.407 101.031 142.289 105.226C112.565 116.44 108.797 162.78 108.284 200.784C107.771 238.789 19.617 272.497 13.0631 301.021" stroke="#676666" stroke-width="2" stroke-linecap="round" stroke-linejoin="round" stroke-dasharray="2 5"/>
<path d="M76.0214 255.422C71.219 255.656 67.0028 251.782 66.7928 246.558C66.5828 241.335 70.4716 237.066 75.274 236.831C80.0764 236.597 84.2926 240.471 84.5026 245.694C84.7126 250.918 80.8238 255.187 76.0214 255.422Z" fill="#F9FBFF" stroke="#A8A2A2" stroke-width="5"/>
<path d="M137.878 118.795C133.075 119.03 128.859 115.156 128.649 109.932C128.439 104.709 132.328 100.44 137.13 100.205C141.933 99.9709 146.149 103.845 146.359 109.068C146.569 114.292 142.68 118.561 137.878 118.795Z" fill="#F9FBFF" stroke="#A8A2A2" stroke-width="5"/>
<path d="M107.867 187.803C104.991 187.46 102.842 184.727 103.218 181.577C103.594 178.427 106.326 176.276 109.202 176.619C112.077 176.963 114.226 179.696 113.85 182.846C113.474 185.996 110.742 188.147 107.867 187.803Z" fill="#FFF9F9" stroke="#9D9B9B" stroke-width="3.36864"/>
</svg>
