<svg width="375" height="221" viewBox="0 0 375 221" fill="none" xmlns="http://www.w3.org/2000/svg">
<path d="M414 3.88192C414 129.707 319.982 201.557 185.004 221C47.8446 203.454 -43 129.707 -43 3.88187C-43 -121.943 52.5111 -6.97199 185.004 -6.97199C317.498 -6.97199 414 -121.943 414 3.88192Z" fill="#EC2727" fill-opacity="0.77"/>
<path opacity="0.19" d="M-4.04001 15.2171C164.109 9.40595 207.528 141.311 380.604 17.0323C381.484 18.6431 379.644 211.998 379.644 211.998L-5.00002 210.183C-5.00002 210.183 -3.92175 14.4178 -4.04001 15.2171Z" fill="white"/>
<path opacity="0.19" d="M378.413 143.543C194.561 154.815 155.704 44.0914 -3.51387 141.74C-4.38965 140.552 -2.8061 -1.99821 -2.8061 -1.99821L379.121 -0.195811C379.121 -0.195811 378.296 144.132 378.413 143.543Z" fill="white"/>
</svg>
