<svg width="87" height="97" viewBox="0 0 87 97" fill="none" xmlns="http://www.w3.org/2000/svg">
<g clip-path="url(#clip0)">
<path d="M49.9479 52.169L36.8446 78.156C34.3103 83.2705 29.268 85.9603 25.5824 84.1638C21.8969 82.3674 20.9637 76.765 23.4981 71.6505C23.5277 71.5907 23.5578 71.5311 23.5882 71.4718L35.2099 48.4231C36.8527 47.7241 39.3337 47.4196 41.5557 50.1225C41.7719 50.3803 41.9812 50.6704 42.191 50.9857C44.759 54.914 48.0466 53.5258 49.9479 52.169Z" fill="#EC2727" fill-opacity="0.69"/>
<path d="M64.298 23.7094L49.9478 52.1692C48.0465 53.526 44.7595 54.9145 42.1896 50.9885C41.9853 50.6685 41.7716 50.3793 41.5543 50.1253C39.3314 47.4207 36.8517 47.726 35.2085 48.4259L51.0415 17.0251L64.298 23.7094Z" fill="#EEEFEE"/>
<path d="M27.474 84.9779C27.3422 84.93 27.1972 84.8665 27.0648 84.7998C23.4047 82.9561 22.5192 77.3307 25.0872 72.2352C25.0882 72.2332 25.0892 72.2312 25.0903 72.2292L52.5436 17.7825L53.3393 18.1837L25.8854 72.6314C23.421 77.5122 24.1178 82.9279 27.4741 84.9792L27.474 84.9779Z" fill="white"/>
<path d="M54.124 9.43047L68.574 16.7165C68.8669 16.8642 68.9376 17.3144 68.732 17.7222L65.3334 24.4626C65.1278 24.8703 64.7237 25.0811 64.4308 24.9335L49.9808 17.6475C49.688 17.4998 49.6172 17.0495 49.8228 16.6418L53.2215 9.9014C53.4271 9.49365 53.8312 9.2828 54.124 9.43047V9.43047Z" fill="#69B0EE"/>
<path d="M67.4347 17.2437L67.9817 17.5195L64.7244 23.9795L64.1774 23.7037L67.4347 17.2437Z" fill="#419BE9"/>
<path d="M65.923 16.4814L66.47 16.7573L63.2127 23.2173L62.6657 22.9415L65.923 16.4814Z" fill="#419BE9"/>
<path d="M64.4111 15.7192L64.9582 15.9951L61.7009 22.4551L61.1538 22.1793L64.4111 15.7192Z" fill="#419BE9"/>
<path d="M62.8999 14.9573L63.4469 15.2331L60.1896 21.6932L59.6426 21.4173L62.8999 14.9573Z" fill="#419BE9"/>
<path d="M61.3881 14.1948L61.9351 14.4707L58.6778 20.9307L58.1308 20.6549L61.3881 14.1948Z" fill="#419BE9"/>
<path d="M59.8762 13.4326L60.4233 13.7084L57.1659 20.1685L56.6189 19.8927L59.8762 13.4326Z" fill="#419BE9"/>
<path d="M58.3651 12.6707L58.9121 12.9465L55.6548 19.4065L55.1078 19.1307L58.3651 12.6707Z" fill="#419BE9"/>
<path d="M56.8533 11.9082L57.4003 12.184L54.143 18.6441L53.596 18.3682L56.8533 11.9082Z" fill="#419BE9"/>
<path d="M55.3414 11.146L55.8885 11.4218L52.6312 17.8819L52.0841 17.606L55.3414 11.146Z" fill="#419BE9"/>
<path d="M53.8302 10.384L54.3772 10.6599L51.1199 17.1199L50.5729 16.8441L53.8302 10.384Z" fill="#419BE9"/>
</g>
<defs>
<clipPath id="clip0">
<rect width="57.1596" height="79.5813" fill="white" transform="translate(35.8297 0.206055) rotate(26.7583)"/>
</clipPath>
</defs>
</svg>
