<svg width="58" height="58" viewBox="0 0 58 58" fill="none" xmlns="http://www.w3.org/2000/svg">
<path d="M17.418 32.9643C23.8783 33.8532 25.7618 35.4513 28.1639 38.5969C30.5661 41.7426 26.2448 47.9528 23.0931 48.2494C23.0931 48.2494 16.3148 47.5492 12.554 41.43C9.81512 37.287 10.9577 32.0754 17.418 32.9643Z" fill="#FD7973"/>
<path d="M23.0931 48.2494C23.0931 48.2494 16.3148 47.5492 12.554 41.43C9.81512 37.287 10.9577 32.0754 17.418 32.9643C23.8783 33.8532 25.7618 35.4513 28.1639 38.5969C30.5661 41.7426 26.2448 47.9528 23.0931 48.2494ZM23.0931 48.2494C25.0331 48.5471 19.9415 48.546 23.0931 48.2494Z" stroke="#FD7973"/>
<path d="M22.9465 27.7858C21.7074 32.0361 16.6994 31.7291 13.9788 29.9687C11.2582 28.2083 8.86592 21.8154 11.0417 18.4529C13.2174 15.0904 17.2144 14.6245 19.9351 16.3849C22.6557 18.1453 25.1223 24.4233 22.9465 27.7858Z" fill="#FD7973"/>
<path d="M41.3265 26.2256C36.5614 29.4986 30.9881 23.838 30.9881 23.838C30.9881 23.838 18.6911 13.3774 23.1606 8.77091C25.9096 5.95944 32.3716 7.22605 36.273 10.8638C40.1743 14.5015 46.0916 22.9526 41.3265 26.2256Z" fill="#FD7973"/>
<g filter="url(#filter0_d)">
<path d="M44.9579 36.8553C43.9324 37.0747 45.7943 40.6625 35.3813 42.0711C29.5724 42.5785 28.797 36.6009 28.797 36.6009C28.797 36.6009 27.8893 33.3541 34.534 30.9083C41.1788 28.4625 44.3439 32.8114 44.9579 36.8553Z" fill="#FD7973"/>
<path d="M29.7869 36.4635L29.7739 36.417C29.7731 36.4119 29.7719 36.4042 29.7706 36.3941C29.7656 36.3544 29.7591 36.2773 29.765 36.1695C29.7766 35.9573 29.8367 35.6105 30.0697 35.1793C30.5336 34.3206 31.7484 33.0144 34.9368 31.8408C38.0256 30.7039 40.0863 31.2067 41.425 32.221C42.6987 33.186 43.5194 34.7627 43.8702 36.4355C43.8391 36.4806 43.8118 36.5252 43.788 36.5683C43.6836 36.7564 43.6062 36.9881 43.555 37.1412C43.5481 37.1617 43.5418 37.1808 43.5358 37.1981C43.4168 37.5482 43.2747 37.9266 42.9101 38.3426C42.1677 39.1898 40.3142 40.3907 35.2082 41.0844C33.9491 41.1904 33.0308 40.9447 32.3505 40.5707C31.6573 40.1896 31.14 39.6358 30.7525 39.033C30.3629 38.427 30.12 37.7947 29.9749 37.3043C29.9031 37.0616 29.8571 36.8602 29.8297 36.7231C29.816 36.6547 29.807 36.6029 29.8017 36.5705C29.7991 36.5543 29.7974 36.543 29.7965 36.537L29.7959 36.5326L29.7959 36.5326L29.7958 36.5321L29.7869 36.4635Z" stroke="#FD7973" stroke-width="2"/>
</g>
<path d="M14.6668 27.1369C15.8939 27.1003 12.8936 25.0432 12.6512 22.4026C12.4088 19.762 15.0162 17.5378 13.7891 17.5744C12.562 17.611 11.7638 19.7813 12.0061 22.4219C12.2485 25.0625 13.4397 27.1735 14.6668 27.1369Z" fill="#E5E5E5"/>
<path d="M29.2429 9.77833C28.2706 10.4581 32.4574 11.4725 34.8815 14.6399C37.3057 17.8073 37.0492 21.9283 38.0215 21.2485C38.9937 20.5687 37.8167 17.4499 35.3926 14.2825C32.9685 11.1151 30.2151 9.09853 29.2429 9.77833Z" fill="#E5E5E5"/>
<path d="M41.1571 37.2461C40.6477 36.3086 39.9581 38.9142 37.6716 39.4858C35.3851 40.0575 32.3677 38.3786 32.8771 39.3161C33.3864 40.2537 35.6529 40.5503 37.9393 39.9787C40.2258 39.407 41.6664 38.1836 41.1571 37.2461Z" fill="#E5E5E5"/>
<path d="M18.6872 35.0012C17.701 35.6624 21.2725 35.9387 22.8983 38.1431C24.524 40.3476 23.5884 43.6455 24.5747 42.9843C25.5609 42.3231 25.0425 40 23.4167 37.7956C21.7909 35.5911 19.6735 34.34 18.6872 35.0012Z" fill="#E5E5E5"/>
<defs>
<filter id="filter0_d" x="24.7552" y="30.1992" width="24.2027" height="19.9023" filterUnits="userSpaceOnUse" color-interpolation-filters="sRGB">
<feFlood flood-opacity="0" result="BackgroundImageFix"/>
<feColorMatrix in="SourceAlpha" type="matrix" values="0 0 0 0 0 0 0 0 0 0 0 0 0 0 0 0 0 0 127 0"/>
<feOffset dy="4"/>
<feGaussianBlur stdDeviation="2"/>
<feColorMatrix type="matrix" values="0 0 0 0 0 0 0 0 0 0 0 0 0 0 0 0 0 0 0.25 0"/>
<feBlend mode="normal" in2="BackgroundImageFix" result="effect1_dropShadow"/>
<feBlend mode="normal" in="SourceGraphic" in2="effect1_dropShadow" result="shape"/>
</filter>
</defs>
</svg>
