<svg width="76" height="77" viewBox="0 0 76 77" fill="none" xmlns="http://www.w3.org/2000/svg">
<path d="M22.7128 44.029C31.1233 45.1449 33.5653 47.2237 36.6715 51.3253C39.7778 55.4269 34.1013 63.592 29.9928 64.004C29.9928 64.004 21.1666 63.1375 16.3124 55.1519C12.7748 49.7468 14.3024 42.9132 22.7128 44.029Z" fill="#FD7973"/>
<path d="M29.9928 64.004C29.9928 64.004 21.1666 63.1375 16.3124 55.1519C12.7748 49.7468 14.3024 42.9132 22.7128 44.029C31.1233 45.1449 33.5653 47.2237 36.6715 51.3253C39.7778 55.4269 34.1013 63.592 29.9928 64.004ZM29.9928 64.004C32.5181 64.3793 25.8843 64.4159 29.9928 64.004Z" stroke="#FD7973"/>
<path d="M29.9545 37.2063C28.3083 42.7817 21.7858 42.417 18.2543 40.1319C14.7227 37.8468 11.6536 29.4926 14.5134 25.0729C17.3733 20.6531 22.5845 20.0131 26.116 22.2982C29.6475 24.5834 32.8144 32.7866 29.9545 37.2063Z" fill="#FD7973"/>
<path d="M53.9133 35.0257C47.6805 39.3476 40.4613 31.9761 40.4613 31.9761C40.4613 31.9761 24.5178 18.3686 30.3754 12.3027C33.978 8.6003 42.3878 10.2108 47.4437 14.9456C52.4996 19.6804 60.146 30.7038 53.9133 35.0257Z" fill="#FD7973"/>
<g filter="url(#filter0_d)">
<path d="M58.5652 48.9196C57.2274 49.2145 59.6266 53.8992 46.049 55.8216C38.477 56.5294 37.5113 48.7069 37.5113 48.7069C37.5113 48.7069 36.3529 44.4618 45.0285 41.2092C53.7041 37.9566 57.7954 43.6282 58.5652 48.9196Z" fill="#FD7973"/>
<path d="M38.501 48.5636L38.4866 48.5109C38.4848 48.5015 38.4811 48.4808 38.4774 48.4496C38.4691 48.3809 38.4605 48.2617 38.4701 48.1008C38.4892 47.7824 38.5809 47.2858 38.9089 46.68C39.5629 45.4723 41.2224 43.7166 45.4257 42.1408C49.529 40.6024 52.3285 41.2364 54.174 42.6374C55.9418 43.9794 57.0382 46.1763 57.4771 48.4641C57.4116 48.5462 57.3575 48.6303 57.3127 48.7109C57.1893 48.933 57.096 49.2085 57.0267 49.413C57.0174 49.4405 57.0086 49.4667 57.0001 49.4913C56.8382 49.9629 56.6357 50.501 56.1215 51.0898C55.0801 52.2826 52.5701 53.8842 45.8819 54.8341C44.1823 54.989 42.9215 54.6645 41.9748 54.1451C41.015 53.6186 40.3074 52.8526 39.7849 52.0313C39.2604 51.2069 38.9378 50.3501 38.7469 49.6897C38.6521 49.362 38.5916 49.0892 38.5554 48.902C38.5372 48.8086 38.5253 48.737 38.5181 48.6912C38.5145 48.6683 38.5121 48.6518 38.5108 48.6423L38.5097 48.6338L38.5096 48.6334L38.5096 48.6334L38.5096 48.633L38.5095 48.6328L38.501 48.5636Z" stroke="#FD7973" stroke-width="2"/>
</g>
<path d="M19.1718 36.418C20.7709 36.3609 16.8771 33.6894 16.581 30.2331C16.2849 26.7768 19.6987 23.8445 18.0996 23.9016C16.5006 23.9586 15.4444 26.8068 15.7404 30.2631C16.0365 33.7194 17.5728 36.475 19.1718 36.418Z" fill="#E5E5E5"/>
<path d="M38.2923 13.5766C37.0205 14.4741 42.4678 15.7713 45.6026 19.9012C48.7374 24.0311 48.3725 29.4298 49.6443 28.5323C50.9161 27.6348 49.4059 23.5593 46.2712 19.4294C43.1364 15.2995 39.5642 12.6791 38.2923 13.5766Z" fill="#E5E5E5"/>
<path d="M53.6103 49.4594C52.9537 48.2354 52.0357 51.6528 49.0524 52.4185C46.0691 53.1841 42.1503 51.0081 42.8069 52.2321C43.4635 53.456 46.4143 53.8276 49.3976 53.0619C52.3808 52.2962 54.267 50.6833 53.6103 49.4594Z" fill="#E5E5E5"/>
<path d="M24.3513 46.6871C23.0614 47.5604 27.7126 47.8955 29.8144 50.7703C31.9161 53.6451 30.6725 57.9711 31.9624 57.0978C33.2523 56.2245 32.5942 53.1861 30.4924 50.3113C28.3907 47.4364 25.6412 45.8138 24.3513 46.6871Z" fill="#E5E5E5"/>
<defs>
<filter id="filter0_d" x="33.4598" y="40.2539" width="29.1054" height="23.6131" filterUnits="userSpaceOnUse" color-interpolation-filters="sRGB">
<feFlood flood-opacity="0" result="BackgroundImageFix"/>
<feColorMatrix in="SourceAlpha" type="matrix" values="0 0 0 0 0 0 0 0 0 0 0 0 0 0 0 0 0 0 127 0"/>
<feOffset dy="4"/>
<feGaussianBlur stdDeviation="2"/>
<feColorMatrix type="matrix" values="0 0 0 0 0 0 0 0 0 0 0 0 0 0 0 0 0 0 0.25 0"/>
<feBlend mode="normal" in2="BackgroundImageFix" result="effect1_dropShadow"/>
<feBlend mode="normal" in="SourceGraphic" in2="effect1_dropShadow" result="shape"/>
</filter>
</defs>
</svg>
