<svg width="44" height="49" viewBox="0 0 44 49" fill="none" xmlns="http://www.w3.org/2000/svg">
<path d="M19.8554 48.9999C22.6545 48.997 25.3381 48.0355 27.3173 46.3262C29.2966 44.6169 30.41 42.2995 30.4133 39.8822V38.052C30.4133 37.9505 30.3666 37.8531 30.2835 37.7814C30.2004 37.7096 30.0876 37.6692 29.9701 37.6692C29.8525 37.6692 29.7398 37.7096 29.6566 37.7814C29.5735 37.8531 29.5268 37.9505 29.5268 38.052V39.8822C29.5268 42.0973 28.5078 44.2218 26.694 45.7881C24.8803 47.3545 22.4202 48.2345 19.8551 48.2345C17.2901 48.2345 14.83 47.3545 13.0162 45.7881C11.2025 44.2218 10.1835 42.0973 10.1835 39.8822V19.8131C10.1835 18.647 9.64703 17.5285 8.69215 16.7039C7.73727 15.8793 6.44218 15.416 5.09177 15.416C3.74137 15.416 2.44628 15.8793 1.4914 16.7039C0.536516 17.5285 6.67572e-05 18.647 6.67572e-05 19.8131V43.7759C6.67572e-05 43.8774 0.0467739 43.9748 0.1299 44.0466C0.213028 44.1184 0.325766 44.1587 0.443325 44.1587C0.560884 44.1587 0.67363 44.1184 0.756756 44.0466C0.839884 43.9748 0.886583 43.8774 0.886583 43.7759V19.8131C0.886583 18.85 1.32963 17.9263 2.11826 17.2453C2.90688 16.5642 3.97649 16.1816 5.09177 16.1816C6.20706 16.1816 7.27667 16.5642 8.06529 17.2453C8.85392 17.9263 9.29696 18.85 9.29696 19.8131V39.8822C9.30025 42.2995 10.4137 44.6171 12.3931 46.3264C14.3725 48.0357 17.0562 48.9971 19.8554 48.9999Z" fill="#2F3A5A"/>
<path d="M20.5109 4.89048H27.0219V2.81039C27.0219 2.16669 27.318 1.54935 27.8451 1.09418C28.3721 0.639011 29.087 0.383301 29.8324 0.383301C30.5778 0.383301 31.2926 0.639011 31.8197 1.09418C32.3468 1.54935 32.6429 2.16669 32.6429 2.81039V4.89087H39.4296C39.9713 4.89031 40.5079 4.98199 41.0086 5.16064C41.5093 5.3393 41.9643 5.60144 42.3476 5.93207C42.731 6.26269 43.035 6.65533 43.2425 7.08752C43.45 7.51971 43.5568 7.98297 43.5568 8.45083V34.4876C43.5565 35.4328 43.1216 36.3393 42.3477 37.0077C41.5738 37.6762 40.5242 38.0518 39.4296 38.0521H20.5109C19.4163 38.0519 18.3667 37.6764 17.5926 37.008C16.8186 36.3396 16.3836 35.4332 16.3833 34.4879V8.45045C16.3833 7.98256 16.4901 7.51926 16.6976 7.08705C16.9051 6.65483 17.2092 6.26218 17.5925 5.93155C17.9759 5.60091 18.431 5.33878 18.9317 5.16015C19.4325 4.98151 19.9691 4.88988 20.5109 4.89048ZM29.7989 1.96672C29.5533 1.96611 29.313 2.02846 29.1084 2.14586C28.9039 2.26327 28.7442 2.43045 28.6497 2.62624C28.5553 2.82204 28.5302 3.03764 28.5777 3.24575C28.6252 3.45387 28.7431 3.64513 28.9165 3.79534C29.0899 3.94554 29.3111 4.04792 29.5519 4.08953C29.7928 4.13113 30.0425 4.11009 30.2695 4.02906C30.4965 3.94802 30.6905 3.81065 30.8271 3.63432C30.9636 3.458 31.0365 3.25065 31.0365 3.03854C31.0357 2.75502 30.9051 2.48327 30.6733 2.2825C30.4415 2.08174 30.1272 1.96823 29.7989 1.96672Z" fill="#D9E2E9"/>
<path d="M20.5113 38.4348H39.4296C40.6414 38.4336 41.8031 38.0173 42.66 37.2773C43.5168 36.5372 43.9987 35.5339 44 34.4874V8.45032C43.998 7.40444 43.5157 6.40194 42.6589 5.66279C41.802 4.92363 40.6407 4.50817 39.4296 4.50756H33.0861V2.80988C33.0861 2.06466 32.7433 1.34995 32.1331 0.822996C31.5229 0.29604 30.6953 0 29.8324 0C28.9694 0 28.1418 0.29604 27.5316 0.822996C26.9214 1.34995 26.5786 2.06466 26.5786 2.80988V4.50756H20.5113C19.3002 4.50817 18.1388 4.92362 17.2819 5.66276C16.425 6.40191 15.9426 7.4044 15.9404 8.45032V34.4874C15.9419 35.534 16.4239 36.5373 17.2808 37.2773C18.1377 38.0173 19.2995 38.4336 20.5113 38.4348ZM39.4296 5.27315C40.4056 5.27355 41.3416 5.60828 42.0322 6.20391C42.7229 6.79954 43.1117 7.60742 43.1135 8.45032V34.4874C43.1124 35.3309 42.724 36.1396 42.0334 36.7361C41.3427 37.3326 40.4063 37.6682 39.4296 37.6692H20.5113C19.5345 37.6683 18.598 37.3328 17.9072 36.7363C17.2165 36.1398 16.828 35.331 16.827 34.4874V8.45032C16.8287 7.60735 17.2176 6.79941 17.9083 6.20378C18.5991 5.60814 19.5352 5.27345 20.5113 5.27315H27.0219C27.1395 5.27315 27.2522 5.23282 27.3353 5.16103C27.4184 5.08924 27.4651 4.99188 27.4651 4.89036V2.80988C27.4651 2.2677 27.7146 1.74773 28.1585 1.36434C28.6024 0.980964 29.2045 0.765584 29.8324 0.765584C30.4602 0.765584 31.0623 0.980964 31.5062 1.36434C31.9502 1.74773 32.1996 2.2677 32.1996 2.80988V4.89036C32.1996 4.99188 32.2463 5.08924 32.3294 5.16103C32.4125 5.23282 32.5253 5.27315 32.6428 5.27315H39.4296ZM29.7985 4.49149C30.1317 4.49149 30.4575 4.4061 30.7346 4.24613C31.0117 4.08616 31.2276 3.8588 31.355 3.59282C31.4823 3.32685 31.5155 3.03422 31.4502 2.75197C31.3849 2.46972 31.2242 2.21054 30.9882 2.00723C30.7523 1.80392 30.4519 1.66563 30.1249 1.60985C29.7979 1.55407 29.4591 1.58331 29.1514 1.69388C28.8437 1.80444 28.5809 1.99136 28.3962 2.23097C28.2116 2.47058 28.1134 2.75212 28.1141 3.03994C28.115 3.42526 28.293 3.79452 28.6088 4.06666C28.9247 4.3388 29.3527 4.49159 29.7989 4.49149H29.7985ZM29.7985 2.34785C29.9563 2.34785 30.1105 2.38826 30.2417 2.46397C30.3729 2.53969 30.4752 2.6473 30.5356 2.7732C30.596 2.8991 30.6118 3.03764 30.581 3.1713C30.5502 3.30496 30.4742 3.42773 30.3626 3.52409C30.2511 3.62045 30.1089 3.68608 29.9541 3.71266C29.7993 3.73925 29.6389 3.72561 29.4931 3.67345C29.3473 3.6213 29.2227 3.53299 29.1351 3.41968C29.0474 3.30637 29.0006 3.17315 29.0006 3.03688C29.0011 2.85434 29.0854 2.67942 29.2351 2.55052C29.3847 2.42162 29.5875 2.34928 29.7989 2.34938L29.7985 2.34785Z" fill="#2F3A5A"/>
<path d="M39.7212 7.10596H20.2179C20.0741 7.10596 19.9316 7.13042 19.7987 7.17796C19.6658 7.22549 19.5451 7.29517 19.4434 7.383C19.3417 7.47083 19.261 7.5751 19.206 7.68986C19.1509 7.80462 19.1226 7.92762 19.1226 8.05184V34.8855C19.1226 35.1364 19.238 35.3771 19.4434 35.5545C19.6488 35.732 19.9274 35.8317 20.2179 35.8318H39.7212C40.0117 35.8318 40.2903 35.7321 40.4957 35.5548C40.7011 35.3774 40.8165 35.1368 40.8165 34.8859V8.05222C40.8165 7.80132 40.7011 7.56069 40.4958 7.38325C40.2904 7.2058 40.0118 7.10606 39.7212 7.10596Z" fill="#C1CDD3"/>
<path d="M20.2179 36.2147H39.7213C40.1292 36.2144 40.5204 36.0743 40.8089 35.8252C41.0975 35.5761 41.2598 35.2383 41.2603 34.886V8.0523C41.2598 7.69998 41.0975 7.3622 40.8089 7.1131C40.5204 6.86401 40.1292 6.72394 39.7213 6.72363H20.2179C19.8099 6.72394 19.4188 6.86401 19.1302 7.1131C18.8417 7.3622 18.6794 7.69998 18.6789 8.0523V34.886C18.6794 35.2383 18.8417 35.5761 19.1302 35.8252C19.4188 36.0743 19.8099 36.2144 20.2179 36.2147ZM39.7213 7.48769C39.8942 7.48779 40.06 7.54713 40.1823 7.6527C40.3047 7.75826 40.3735 7.90143 40.3737 8.05077V34.8845C40.3739 34.9586 40.3571 35.0319 40.3243 35.1004C40.2916 35.1689 40.2436 35.2311 40.183 35.2835C40.1224 35.336 40.0504 35.3776 39.9712 35.406C39.892 35.4344 39.807 35.449 39.7213 35.4491H20.2179C20.045 35.449 19.8792 35.3897 19.7568 35.2841C19.6345 35.1785 19.5657 35.0354 19.5654 34.886V8.0523C19.5657 7.90296 19.6345 7.7598 19.7568 7.65423C19.8792 7.54866 20.045 7.48932 20.2179 7.48922L39.7213 7.48769Z" fill="#2F3A5A"/>
<path d="M32.1743 16.3711H40.8179V34.8871C40.8172 35.1379 40.7013 35.3782 40.4957 35.5553C40.2902 35.7324 40.0116 35.8318 39.7213 35.8318H31.6837V38.052H28.7896V35.8318H20.2179C19.9274 35.8316 19.6489 35.7319 19.4435 35.5546C19.2381 35.3773 19.1225 35.1368 19.1222 34.886V16.3711H26.7644" fill="#EC2727" fill-opacity="0.69"/>
<path d="M28.3459 38.4348H32.1269V36.2146H39.7213C40.1292 36.2143 40.5204 36.0742 40.8089 35.8251C41.0975 35.576 41.2598 35.2383 41.2603 34.8859V15.9883H32.1735C32.0559 15.9883 31.9432 16.0286 31.86 16.1004C31.7769 16.1722 31.7302 16.2696 31.7302 16.3711C31.7302 16.4726 31.7769 16.57 31.86 16.6417C31.9432 16.7135 32.0559 16.7539 32.1735 16.7539H40.3737V34.8871C40.3732 35.0362 40.3042 35.1791 40.1819 35.2844C40.0596 35.3897 39.894 35.4489 39.7213 35.449H31.2404V37.6692H29.2329V35.449H20.2179C20.045 35.4489 19.8792 35.3896 19.7568 35.284C19.6345 35.1785 19.5657 35.0353 19.5654 34.8859V16.7539H26.7644C26.8819 16.7539 26.9947 16.7135 27.0778 16.6417C27.1609 16.57 27.2076 16.4726 27.2076 16.3711C27.2076 16.2696 27.1609 16.1722 27.0778 16.1004C26.9947 16.0286 26.8819 15.9883 26.7644 15.9883H18.6794V34.8871C18.6802 35.2392 18.8426 35.5766 19.131 35.8254C19.4194 36.0743 19.8102 36.2142 20.2179 36.2146H28.3459V38.4348Z" fill="#2F3A5A"/>
<path d="M28.7754 16.7539H29.6242C29.7418 16.7539 29.8546 16.7135 29.9377 16.6417C30.0208 16.57 30.0675 16.4726 30.0675 16.3711C30.0675 16.2696 30.0208 16.1722 29.9377 16.1004C29.8546 16.0286 29.7418 15.9883 29.6242 15.9883H28.775C28.6574 15.9883 28.5447 16.0286 28.4615 16.1004C28.3784 16.1722 28.3317 16.2696 28.3317 16.3711C28.3317 16.4726 28.3784 16.57 28.4615 16.6417C28.5447 16.7135 28.6574 16.7539 28.775 16.7539H28.7754Z" fill="#2F3A5A"/>
<g opacity="0.35">
<path opacity="0.35" d="M39.309 9.23389H37.6654V33.8352H39.309V9.23389Z" fill="white"/>
</g>
</svg>
