<svg width="58" height="58" viewBox="0 0 58 58" fill="none" xmlns="http://www.w3.org/2000/svg">
<path d="M17.418 32.9638C23.8783 33.8527 25.7618 35.4508 28.1639 38.5964C30.5661 41.7421 26.2448 47.9523 23.0931 48.2489C23.0931 48.2489 16.3148 47.5487 12.554 41.4295C9.81512 37.2865 10.9577 32.0749 17.418 32.9638Z" fill="#FD7973"/>
<path d="M23.0931 48.2489C23.0931 48.2489 16.3148 47.5487 12.554 41.4295C9.81512 37.2865 10.9577 32.0749 17.418 32.9638C23.8783 33.8527 25.7618 35.4508 28.1639 38.5964C30.5661 41.7421 26.2448 47.9523 23.0931 48.2489ZM23.0931 48.2489C25.0331 48.5466 19.9415 48.5455 23.0931 48.2489Z" stroke="#FD7973"/>
<path d="M22.9465 27.7853C21.7074 32.0356 16.6994 31.7286 13.9788 29.9682C11.2581 28.2078 8.86589 21.8149 11.0416 18.4524C13.2174 15.0899 17.2144 14.624 19.935 16.3844C22.6557 18.1448 25.1222 24.4228 22.9465 27.7853Z" fill="#FD7973"/>
<path d="M41.3265 26.2251C36.5614 29.4981 30.9881 23.8375 30.9881 23.8375C30.9881 23.8375 18.6911 13.3769 23.1606 8.77042C25.9096 5.95895 32.3716 7.22556 36.2729 10.8633C40.1743 14.501 46.0915 22.9521 41.3265 26.2251Z" fill="#FD7973"/>
<g filter="url(#filter0_d)">
<path d="M44.9579 36.8548C43.9324 37.0742 45.7944 40.662 35.3813 42.0706C29.5725 42.578 28.7971 36.6004 28.7971 36.6004C28.7971 36.6004 27.8894 33.3536 34.5341 30.9078C41.1788 28.462 44.344 32.8109 44.9579 36.8548Z" fill="#FD7973"/>
<path d="M29.787 36.463L29.774 36.4166C29.7731 36.4114 29.772 36.4037 29.7707 36.3936C29.7656 36.3539 29.7592 36.2769 29.7651 36.169C29.7767 35.9568 29.8368 35.61 30.0697 35.1788C30.5336 34.3201 31.7485 33.0139 34.9369 31.8403C38.0257 30.7034 40.0863 31.2062 41.425 32.2205C42.6987 33.1855 43.5195 34.7622 43.8702 36.435C43.8392 36.4801 43.8119 36.5247 43.788 36.5678C43.6837 36.7559 43.6062 36.9876 43.555 37.1407C43.5482 37.1612 43.5418 37.1803 43.5359 37.1976C43.4169 37.5477 43.2747 37.9261 42.9102 38.3421C42.1678 39.1893 40.3143 40.3902 35.2083 41.0839C33.9491 41.19 33.0308 40.9442 32.3505 40.5702C31.6574 40.1892 31.1401 39.6353 30.7526 39.0325C30.363 38.4265 30.1201 37.7943 29.975 37.3038C29.9031 37.0611 29.8572 36.8597 29.8297 36.7226C29.816 36.6542 29.807 36.6024 29.8018 36.57C29.7991 36.5538 29.7975 36.5425 29.7966 36.5365L29.796 36.5321L29.796 36.5321L29.7959 36.5316L29.787 36.463Z" stroke="#FD7973" stroke-width="2"/>
</g>
<path d="M14.6668 27.1364C15.8939 27.0998 12.8935 25.0428 12.6512 22.4021C12.4088 19.7615 15.0162 17.5374 13.7891 17.5739C12.562 17.6105 11.7637 19.7808 12.0061 22.4214C12.2485 25.062 13.4397 27.173 14.6668 27.1364Z" fill="#E5E5E5"/>
<path d="M29.2428 9.77784C28.2705 10.4576 32.4573 11.472 34.8815 14.6394C37.3056 17.8068 37.0491 21.9278 38.0214 21.248C38.9937 20.5682 37.8167 17.4494 35.3926 14.282C32.9684 11.1146 30.2151 9.09804 29.2428 9.77784Z" fill="#E5E5E5"/>
<path d="M41.1571 37.2456C40.6477 36.3081 39.9581 38.9137 37.6716 39.4853C35.3851 40.057 32.3677 38.3781 32.8771 39.3157C33.3864 40.2532 35.6529 40.5498 37.9393 39.9782C40.2258 39.4065 41.6664 38.1831 41.1571 37.2456Z" fill="#E5E5E5"/>
<path d="M18.6872 35.0007C17.7009 35.6619 21.2724 35.9382 22.8982 38.1426C24.524 40.3471 23.5884 43.645 24.5746 42.9838C25.5608 42.3226 25.0424 39.9995 23.4166 37.7951C21.7909 35.5906 19.6734 34.3395 18.6872 35.0007Z" fill="#E5E5E5"/>
<defs>
<filter id="filter0_d" x="24.7552" y="30.1987" width="24.2027" height="19.9023" filterUnits="userSpaceOnUse" color-interpolation-filters="sRGB">
<feFlood flood-opacity="0" result="BackgroundImageFix"/>
<feColorMatrix in="SourceAlpha" type="matrix" values="0 0 0 0 0 0 0 0 0 0 0 0 0 0 0 0 0 0 127 0"/>
<feOffset dy="4"/>
<feGaussianBlur stdDeviation="2"/>
<feColorMatrix type="matrix" values="0 0 0 0 0 0 0 0 0 0 0 0 0 0 0 0 0 0 0.25 0"/>
<feBlend mode="normal" in2="BackgroundImageFix" result="effect1_dropShadow"/>
<feBlend mode="normal" in="SourceGraphic" in2="effect1_dropShadow" result="shape"/>
</filter>
</defs>
</svg>
