<svg width="59" height="66" viewBox="0 0 59 66" fill="none" xmlns="http://www.w3.org/2000/svg">
<g clip-path="url(#clip0)">
<path d="M33.5757 35.3705L24.5521 53.2664C22.8059 56.7881 19.4086 58.6782 16.964 57.4882C14.5194 56.2982 13.9533 52.4787 15.6995 48.9571C15.7199 48.9159 15.7406 48.8749 15.7616 48.834L23.7648 32.9616C24.8699 32.467 26.531 32.2334 27.9882 34.0579C28.1301 34.2319 28.267 34.428 28.4039 34.6414C30.0798 37.2999 32.2911 36.3174 33.5757 35.3705Z" fill="#EC2727" fill-opacity="0.69"/>
<path d="M43.4579 15.7718L33.5757 35.3706C32.2912 36.3175 30.0802 37.3002 28.4031 34.6433C28.2698 34.4266 28.13 34.2312 27.9874 34.0598C26.5296 32.2341 24.8693 32.4682 23.764 32.9635L34.6674 11.3394L43.4579 15.7718Z" fill="#EEEFEE"/>
<path d="M18.2198 58.0249C18.1322 57.9936 18.036 57.9517 17.9482 57.9074C15.521 56.6848 14.9871 52.8491 16.7555 49.3402C16.7562 49.3388 16.7569 49.3374 16.7576 49.336L35.6633 11.8413L36.191 12.1074L17.2849 49.6027C15.5879 52.9639 15.9979 56.6582 18.2198 58.0258L18.2198 58.0249Z" fill="white"/>
<path d="M36.8053 6.11676L46.3872 10.9482C46.5814 11.0461 46.6241 11.3532 46.4825 11.634L44.142 16.2757C44.0004 16.5565 43.7282 16.7048 43.534 16.6068L33.952 11.7754C33.7578 11.6775 33.7152 11.3704 33.8568 11.0896L36.1972 6.44789C36.3388 6.1671 36.6111 6.01884 36.8053 6.11676V6.11676Z" fill="#69B0EE"/>
<path d="M45.6205 11.3203L45.9832 11.5032L43.7401 15.9519L43.3773 15.769L45.6205 11.3203Z" fill="#419BE9"/>
<path d="M44.618 10.8149L44.9808 10.9978L42.7376 15.4466L42.3749 15.2636L44.618 10.8149Z" fill="#419BE9"/>
<path d="M43.6155 10.3091L43.9782 10.492L41.7351 14.9407L41.3723 14.7578L43.6155 10.3091Z" fill="#419BE9"/>
<path d="M42.6134 9.8042L42.9762 9.98711L40.733 14.4358L40.3703 14.2529L42.6134 9.8042Z" fill="#419BE9"/>
<path d="M41.6108 9.29834L41.9736 9.48125L39.7305 13.93L39.3677 13.747L41.6108 9.29834Z" fill="#419BE9"/>
<path d="M40.6084 8.79297L40.9711 8.97587L38.728 13.4246L38.3653 13.2417L40.6084 8.79297Z" fill="#419BE9"/>
<path d="M39.6063 8.2876L39.9691 8.4705L37.7259 12.9192L37.3632 12.7363L39.6063 8.2876Z" fill="#419BE9"/>
<path d="M38.6038 7.78223L38.9665 7.96514L36.7234 12.4138L36.3606 12.2309L38.6038 7.78223Z" fill="#419BE9"/>
<path d="M37.6012 7.27686L37.9639 7.45976L35.7208 11.9085L35.3581 11.7256L37.6012 7.27686Z" fill="#419BE9"/>
<path d="M36.5991 6.77148L36.9619 6.95439L34.7187 11.4031L34.356 11.2202L36.5991 6.77148Z" fill="#419BE9"/>
</g>
<defs>
<clipPath id="clip0">
<rect width="37.9033" height="54.8036" fill="white" transform="translate(24.6741) rotate(26.7583)"/>
</clipPath>
</defs>
</svg>
