<svg width="47" height="47" viewBox="0 0 47 47" fill="none" xmlns="http://www.w3.org/2000/svg">
<path d="M31.3562 18.2784L22.1005 36.6347C20.302 40.2432 17.4305 42.4911 15.6867 41.6556C13.943 40.8201 13.9875 37.2175 15.786 33.609C15.807 33.5669 15.8282 33.5248 15.8496 33.4828L24.0588 17.2021C24.9776 16.5865 26.2943 16.1517 27.1927 17.7225C27.2806 17.8719 27.3619 18.0432 27.441 18.2312C28.4033 20.5766 30.2411 19.3517 31.3562 18.2784Z" fill="#EC2727" fill-opacity="0.69"/>
<path d="M34.5261 11.9914L29.0407 22.8704C28.2273 23.3454 26.7867 23.7833 25.4804 22.1193C25.3763 21.9838 25.2691 21.8604 25.1614 21.7509C24.0564 20.5883 22.943 20.6216 22.223 20.8428L28.2753 8.8396L34.5261 11.9914Z" fill="#EEEFEE"/>
<path d="M16.5796 42.0375C16.5174 42.0152 16.4489 41.9854 16.3865 41.954C14.6606 41.0846 14.2809 38.3571 15.5384 35.8619C15.5389 35.8609 15.5394 35.8599 15.5399 35.8589L28.9836 9.19678L29.3588 9.38596L15.9149 36.0486C14.7081 38.4387 14.9996 41.0651 16.5796 42.0375Z" fill="white"/>
<path d="M29.7956 5.12608L36.6092 8.56169C36.7473 8.63132 36.7777 8.84965 36.677 9.04932L35.0127 12.35C34.912 12.5497 34.7184 12.6551 34.5803 12.5855L27.7667 9.14988C27.6286 9.08025 27.5983 8.86192 27.6989 8.66225L29.3632 5.36155C29.4639 5.16188 29.6575 5.05645 29.7956 5.12608V5.12608Z" fill="#7EBEF5"/>
<path d="M36.064 8.82617L36.322 8.95623L34.7269 12.1197L34.4689 11.9896L36.064 8.82617Z" fill="#419BE9"/>
<path d="M35.3511 8.4668L35.6091 8.59686L34.014 11.7603L33.7561 11.6302L35.3511 8.4668Z" fill="#419BE9"/>
<path d="M34.6382 8.10742L34.8962 8.23749L33.3011 11.4009L33.0432 11.2709L34.6382 8.10742Z" fill="#419BE9"/>
<path d="M33.9257 7.74805L34.1837 7.87811L32.5886 11.0415L32.3306 10.9115L33.9257 7.74805Z" fill="#419BE9"/>
<path d="M33.2128 7.38867L33.4708 7.51874L31.8757 10.6822L31.6178 10.5521L33.2128 7.38867Z" fill="#419BE9"/>
<path d="M32.4999 7.02905L32.7579 7.15912L31.1628 10.3225L30.9049 10.1925L32.4999 7.02905Z" fill="#419BE9"/>
<path d="M31.7874 6.66992L32.0454 6.79999L30.4503 9.96342L30.1923 9.83335L31.7874 6.66992Z" fill="#419BE9"/>
<path d="M31.0744 6.3103L31.3324 6.44037L29.7373 9.6038L29.4793 9.47374L31.0744 6.3103Z" fill="#419BE9"/>
<path d="M30.3615 5.95093L30.6195 6.08099L29.0244 9.24442L28.7664 9.11436L30.3615 5.95093Z" fill="#419BE9"/>
<path d="M29.6487 5.59204L29.9067 5.7221L28.3116 8.88554L28.0537 8.75547L29.6487 5.59204Z" fill="#419BE9"/>
<path d="M0.5 23.5C0.5 10.7975 10.7975 0.5 23.5 0.5C36.2025 0.5 46.5 10.7975 46.5 23.5C46.5 36.2025 36.2025 46.5 23.5 46.5C10.7975 46.5 0.5 36.2025 0.5 23.5Z" fill="#D3CECE" fill-opacity="0.15" stroke="#D3CECE"/>
</svg>
