<svg width="47" height="44" viewBox="0 0 47 44" fill="none" xmlns="http://www.w3.org/2000/svg">
<path fill-rule="evenodd" clip-rule="evenodd" d="M5.52579 0.223881C5.40591 0.0847529 5.21323 0 5.00924 0C4.80275 0 4.60943 0.0826607 4.49018 0.223881C3.21041 1.71349 0 5.62896 0 7.47685C0 9.78188 2.24258 11.6496 5.00736 11.6496C7.77591 11.6496 10.0166 9.78241 10.0166 7.47685C10.0185 5.62896 6.80556 1.71349 5.52579 0.223881ZM2.83884 9.1584C2.75223 9.24732 2.62795 9.29022 2.50305 9.29022C2.40514 9.29022 2.30409 9.2604 2.22186 9.20338C0.979753 8.33043 1.40655 7.04431 1.42789 6.99043C1.49317 6.79639 1.73544 6.68495 1.96767 6.74092C2.1999 6.79584 2.33422 6.9972 2.26643 7.18916C2.25388 7.22995 1.98713 8.08407 2.78737 8.64529C2.96814 8.7771 2.99387 9.00568 2.83884 9.1584Z" fill="#E48888"/>
<path fill-rule="evenodd" clip-rule="evenodd" d="M16.8385 9.95717C16.4908 9.54659 15.9227 9.30127 15.319 9.30127C14.7108 9.30127 14.1471 9.5424 13.7925 9.95717C10.0279 14.3334 0.59375 25.8486 0.59375 31.2783C0.59375 38.0553 7.18843 43.543 15.312 43.543C23.4495 43.543 30.0372 38.0553 30.0372 31.2783C30.0423 25.8486 20.6031 14.3334 16.8385 9.95717ZM8.9383 36.2215C8.68725 36.4757 8.3207 36.6028 7.95478 36.6028C7.66293 36.6028 7.36981 36.5191 7.12566 36.3507C3.47841 33.7899 4.73433 30.0078 4.79333 29.8452C4.98853 29.2761 5.69714 28.9492 6.38064 29.1119C7.06415 29.2761 7.45643 29.8666 7.26123 30.4325C7.22357 30.556 6.43462 33.065 8.78578 34.7131C9.32368 35.0954 9.39397 35.7707 8.9383 36.2215Z" fill="#E48888"/>
<path fill-rule="evenodd" clip-rule="evenodd" d="M37.6824 1.65026C37.4495 1.37462 37.0673 1.20776 36.6631 1.20776C36.252 1.20776 35.871 1.37043 35.6363 1.65026C33.1025 4.59444 26.752 12.3443 26.752 15.9988C26.752 20.557 31.1882 24.2518 36.6556 24.2518C42.1324 24.2518 46.5642 20.557 46.5642 15.9988C46.5692 12.3443 40.2187 4.59444 37.6824 1.65026ZM32.3675 19.3237C32.198 19.4963 31.9514 19.58 31.7047 19.58C31.5076 19.58 31.3099 19.5251 31.1455 19.4116C28.6914 17.6871 29.5368 15.1436 29.577 15.0343C29.7082 14.6504 30.1852 14.4307 30.6452 14.5389C31.1053 14.6504 31.3683 15.0479 31.2396 15.4276C31.2133 15.5113 30.6804 17.2002 32.2633 18.3085C32.628 18.5669 32.675 19.0224 32.3675 19.3237Z" fill="#E48888"/>
</svg>
