<svg width="124" height="171" viewBox="0 0 124 171" fill="none" xmlns="http://www.w3.org/2000/svg">
<path d="M51.5384 54.4314L46.6934 89.3097L33.4569 47.5394L51.5384 54.4314Z" fill="url(#paint0_linear)"/>
<path d="M70.4659 61.0698L46.9558 89.3285L52.1615 54.7793L70.4659 61.0698Z" fill="url(#paint1_linear)"/>
<path d="M76.4724 80.5202L70.8666 61.2118L47.3687 89.7428L76.4724 80.5202Z" fill="url(#paint2_linear)"/>
<path d="M64.2142 38.6001L52.3659 53.8058L70.6574 60.5513L64.2142 38.6001Z" fill="url(#paint3_linear)"/>
<path d="M34.9455 47.036L51.5174 53.2433L62.7306 37.9863L34.9455 47.036Z" fill="url(#paint4_linear)"/>
<path d="M39.4781 30.5808L42.3011 22.1805L52.3069 25.2546L39.4781 30.5808Z" fill="url(#paint5_linear)"/>
<path d="M52.64 26.1933L51.7569 33.9255L40.2832 31.3084L52.64 26.1933Z" fill="url(#paint6_linear)"/>
<path d="M74.94 30.2146L63.661 36.6975L54.7658 26.4286L74.94 30.2146Z" fill="url(#paint7_linear)"/>
<path d="M52.9203 24.6505L42.6475 21.3623L54.283 12.7675L52.9203 24.6505Z" fill="url(#paint8_linear)"/>
<path d="M28.4776 31.6689L11.1384 31.1653L24.7089 19.776L28.4776 31.6689Z" fill="url(#paint9_linear)"/>
<path d="M32.513 46.0219L11.4524 32.1562L28.6869 32.3296L32.513 46.0219Z" fill="url(#paint10_linear)"/>
<path d="M10.782 33.2774L31.4003 46.5562L13.4853 44.2355L10.782 33.2774Z" fill="url(#paint11_linear)"/>
<path d="M74.0907 15.3968L53.9047 24.5201L55.448 12.3981L74.0907 15.3968Z" fill="url(#paint12_linear)"/>
<path d="M74.8184 16.0752L75.482 29.4974L55.1508 25.2159L74.8184 16.0752Z" fill="url(#paint13_linear)"/>
<path d="M53.7592 27.0857L61.9487 36.1488L52.9543 33.8021L53.7592 27.0857Z" fill="url(#paint14_linear)"/>
<path d="M64.8088 97.7698L59.9637 132.648L46.7273 90.8778L64.8088 97.7698Z" fill="url(#paint15_linear)"/>
<path d="M83.7363 104.408L60.2261 132.667L65.4318 98.1177L83.7363 104.408Z" fill="url(#paint16_linear)"/>
<path d="M89.8475 124.189L84.2417 104.881L60.5114 132.758L89.8475 124.189Z" fill="url(#paint17_linear)"/>
<path d="M88.088 125.11L60.9281 132.98L66.1628 141.691L88.088 125.11Z" fill="url(#paint18_linear)"/>
<path d="M89.1959 125.525L66.7937 142.037L82.7264 148.621L89.1959 125.525Z" fill="url(#paint19_linear)"/>
<path d="M77.4844 81.9385L65.6362 97.1442L83.9276 103.89L77.4844 81.9385Z" fill="url(#paint20_linear)"/>
<path d="M48.4648 90.3292L65.0367 96.5365L76.2499 81.2796L48.4648 90.3292Z" fill="url(#paint21_linear)"/>
<path d="M62.1515 37.357L39.0256 31.7799L34.1205 46.2396L62.1515 37.357Z" fill="url(#paint22_linear)"/>
<path d="M33.131 44.7354L40.7074 22.5222L26.031 19.9023L33.131 44.7354Z" fill="url(#paint23_linear)"/>
<path d="M83.3415 148.971L87.0394 137.984L98.945 149.661L83.3415 148.971Z" fill="url(#paint24_linear)"/>
<path d="M73.9839 156.663L54.1913 158.936L60.3358 134.631L73.9839 156.663Z" fill="url(#paint25_linear)"/>
<path d="M82.1765 149.341L74.8636 156.202L66.8146 142.939L82.1765 149.341Z" fill="url(#paint26_linear)"/>
<path d="M53.5919 157.853L46.2935 147.811L55.868 148.044L53.5919 157.853Z" fill="url(#paint27_linear)"/>
<path d="M59.5321 134.523L46.3101 146.791L56.41 147.327L59.5321 134.523Z" fill="url(#paint28_linear)"/>
<path d="M111.835 136.125L100.395 149.384L88.3852 137.376L111.835 136.125Z" fill="url(#paint29_linear)"/>
<path d="M105.847 124.442L112.481 134.812L88.5637 136.321L105.847 124.442Z" fill="url(#paint30_linear)"/>
<path d="M91.0412 124.719L104.49 124.275L87.5241 135.468L91.0412 124.719Z" fill="url(#paint31_linear)"/>
<defs>
<linearGradient id="paint0_linear" x1="54.522" y1="63.8466" x2="40.0751" y2="68.4246" gradientUnits="userSpaceOnUse">
<stop offset="0.566498" stop-color="#F6DDB9"/>
<stop offset="1" stop-color="#D8C09D"/>
</linearGradient>
<linearGradient id="paint1_linear" x1="67.1563" y1="72.3824" x2="48.5998" y2="66.9535" gradientUnits="userSpaceOnUse">
<stop offset="0.566498" stop-color="#F6DDB9"/>
<stop offset="1" stop-color="#D8C09D"/>
</linearGradient>
<linearGradient id="paint2_linear" x1="73.9025" y1="70.7922" x2="44.3328" y2="80.1625" gradientUnits="userSpaceOnUse">
<stop offset="0.566498" stop-color="#F6DDB9"/>
<stop offset="1" stop-color="#D8C09D"/>
</linearGradient>
<linearGradient id="paint3_linear" x1="73.5481" y1="41.76" x2="67.5434" y2="59.4971" gradientUnits="userSpaceOnUse">
<stop offset="0.566498" stop-color="#F6DDB9"/>
<stop offset="1" stop-color="#D8C09D"/>
</linearGradient>
<linearGradient id="paint4_linear" x1="39.6979" y1="40.4516" x2="53.6717" y2="50.5374" gradientUnits="userSpaceOnUse">
<stop offset="0.566498" stop-color="#F6DDB9"/>
<stop offset="1" stop-color="#D8C09D"/>
</linearGradient>
<linearGradient id="paint5_linear" x1="42.925" y1="31.2706" x2="44.6499" y2="22.6505" gradientUnits="userSpaceOnUse">
<stop offset="0.566498" stop-color="#F6DDB9"/>
<stop offset="1" stop-color="#D8C09D"/>
</linearGradient>
<linearGradient id="paint6_linear" x1="50.3375" y1="25.6687" x2="48.6193" y2="33.2107" gradientUnits="userSpaceOnUse">
<stop offset="0.566498" stop-color="#F6DDB9"/>
<stop offset="1" stop-color="#D8C09D"/>
</linearGradient>
<linearGradient id="paint7_linear" x1="65.0734" y1="27.9668" x2="63.1128" y2="36.5726" gradientUnits="userSpaceOnUse">
<stop offset="0.566498" stop-color="#F6DDB9"/>
<stop offset="1" stop-color="#D8C09D"/>
</linearGradient>
<linearGradient id="paint8_linear" x1="54.1631" y1="12.7402" x2="51.5222" y2="24.332" gradientUnits="userSpaceOnUse">
<stop offset="0.566498" stop-color="#F6DDB9"/>
<stop offset="1" stop-color="#D8C09D"/>
</linearGradient>
<linearGradient id="paint9_linear" x1="22.1216" y1="19.8696" x2="22.5561" y2="31.8831" gradientUnits="userSpaceOnUse">
<stop offset="0.566498" stop-color="#F6DDB9"/>
<stop offset="1" stop-color="#D8C09D"/>
</linearGradient>
<linearGradient id="paint10_linear" x1="23.4588" y1="31.7221" x2="23.987" y2="46.3303" gradientUnits="userSpaceOnUse">
<stop offset="0.566498" stop-color="#F6DDB9"/>
<stop offset="1" stop-color="#D8C09D"/>
</linearGradient>
<linearGradient id="paint11_linear" x1="18.7996" y1="45.2661" x2="19.9311" y2="34.214" gradientUnits="userSpaceOnUse">
<stop offset="0.566498" stop-color="#F6DDB9"/>
<stop offset="1" stop-color="#D8C09D"/>
</linearGradient>
<linearGradient id="paint12_linear" x1="65.1092" y1="13.3506" x2="62.1372" y2="26.3957" gradientUnits="userSpaceOnUse">
<stop offset="0.566498" stop-color="#F6DDB9"/>
<stop offset="1" stop-color="#D8C09D"/>
</linearGradient>
<linearGradient id="paint13_linear" x1="72.6354" y1="15.5779" x2="69.6853" y2="28.5272" gradientUnits="userSpaceOnUse">
<stop offset="0.566498" stop-color="#F6DDB9"/>
<stop offset="1" stop-color="#D8C09D"/>
</linearGradient>
<linearGradient id="paint14_linear" x1="59.8128" y1="28.4648" x2="58.254" y2="35.3071" gradientUnits="userSpaceOnUse">
<stop offset="0.566498" stop-color="#F6DDB9"/>
<stop offset="1" stop-color="#D8C09D"/>
</linearGradient>
<linearGradient id="paint15_linear" x1="67.7923" y1="107.185" x2="53.3455" y2="111.763" gradientUnits="userSpaceOnUse">
<stop offset="0.566498" stop-color="#F6DDB9"/>
<stop offset="1" stop-color="#D8C09D"/>
</linearGradient>
<linearGradient id="paint16_linear" x1="80.4266" y1="115.721" x2="61.8701" y2="110.292" gradientUnits="userSpaceOnUse">
<stop offset="0.566498" stop-color="#F6DDB9"/>
<stop offset="1" stop-color="#D8C09D"/>
</linearGradient>
<linearGradient id="paint17_linear" x1="87.2776" y1="114.461" x2="57.6849" y2="123.839" gradientUnits="userSpaceOnUse">
<stop offset="0.566498" stop-color="#F6DDB9"/>
<stop offset="1" stop-color="#D8C09D"/>
</linearGradient>
<linearGradient id="paint18_linear" x1="88.5859" y1="125.935" x2="65.1803" y2="140.064" gradientUnits="userSpaceOnUse">
<stop offset="0.566498" stop-color="#F6DDB9"/>
<stop offset="1" stop-color="#D8C09D"/>
</linearGradient>
<linearGradient id="paint19_linear" x1="90.0279" y1="125.806" x2="82.3477" y2="148.493" gradientUnits="userSpaceOnUse">
<stop offset="0.566498" stop-color="#F6DDB9"/>
<stop offset="1" stop-color="#D8C09D"/>
</linearGradient>
<linearGradient id="paint20_linear" x1="86.8184" y1="85.0984" x2="80.8137" y2="102.835" gradientUnits="userSpaceOnUse">
<stop offset="0.566498" stop-color="#F6DDB9"/>
<stop offset="1" stop-color="#D8C09D"/>
</linearGradient>
<linearGradient id="paint21_linear" x1="53.2172" y1="83.7448" x2="67.1909" y2="93.8306" gradientUnits="userSpaceOnUse">
<stop offset="0.566498" stop-color="#F6DDB9"/>
<stop offset="1" stop-color="#D8C09D"/>
</linearGradient>
<linearGradient id="paint22_linear" x1="57.778" y1="44.1442" x2="38.8977" y2="31.9784" gradientUnits="userSpaceOnUse">
<stop offset="0.566498" stop-color="#F6DDB9"/>
<stop offset="1" stop-color="#D8C09D"/>
</linearGradient>
<linearGradient id="paint23_linear" x1="22.9451" y1="41.9454" x2="29.1338" y2="19.352" gradientUnits="userSpaceOnUse">
<stop offset="0.566498" stop-color="#F6DDB9"/>
<stop offset="1" stop-color="#D8C09D"/>
</linearGradient>
<linearGradient id="paint24_linear" x1="84.3349" y1="149.83" x2="91.351" y2="141.71" gradientUnits="userSpaceOnUse">
<stop offset="0.566498" stop-color="#F6DDB9"/>
<stop offset="1" stop-color="#D8C09D"/>
</linearGradient>
<linearGradient id="paint25_linear" x1="74.8906" y1="155.769" x2="57.1495" y2="137.773" gradientUnits="userSpaceOnUse">
<stop offset="0.566498" stop-color="#F6DDB9"/>
<stop offset="1" stop-color="#D8C09D"/>
</linearGradient>
<linearGradient id="paint26_linear" x1="82.1985" y1="147.966" x2="66.7381" y2="147.719" gradientUnits="userSpaceOnUse">
<stop offset="0.566498" stop-color="#F6DDB9"/>
<stop offset="1" stop-color="#D8C09D"/>
</linearGradient>
<linearGradient id="paint27_linear" x1="48.3877" y1="157.664" x2="48.7474" y2="147.784" gradientUnits="userSpaceOnUse">
<stop offset="0.566498" stop-color="#F6DDB9"/>
<stop offset="1" stop-color="#D8C09D"/>
</linearGradient>
<linearGradient id="paint28_linear" x1="54.2146" y1="134.666" x2="54.5579" y2="147.377" gradientUnits="userSpaceOnUse">
<stop offset="0.566498" stop-color="#F6DDB9"/>
<stop offset="1" stop-color="#D8C09D"/>
</linearGradient>
<linearGradient id="paint29_linear" x1="112.359" y1="137.942" x2="90.3789" y2="144.285" gradientUnits="userSpaceOnUse">
<stop offset="0.566498" stop-color="#F6DDB9"/>
<stop offset="1" stop-color="#D8C09D"/>
</linearGradient>
<linearGradient id="paint30_linear" x1="105.724" y1="124.426" x2="103.968" y2="138.274" gradientUnits="userSpaceOnUse">
<stop offset="0.566498" stop-color="#F6DDB9"/>
<stop offset="1" stop-color="#D8C09D"/>
</linearGradient>
<linearGradient id="paint31_linear" x1="91.8065" y1="124.318" x2="95.4693" y2="131.299" gradientUnits="userSpaceOnUse">
<stop offset="0.566498" stop-color="#F6DDB9"/>
<stop offset="1" stop-color="#D8C09D"/>
</linearGradient>
</defs>
</svg>
