<svg width="375" height="165" viewBox="0 0 375 165" fill="none" xmlns="http://www.w3.org/2000/svg">
<path d="M91.9012 26.7503C83.6274 28.3512 75.5761 33.3689 72.6944 41.0824C70.4829 47.0015 71.2782 54.2426 66.889 58.8714C64.1457 61.7643 60.017 62.8765 56.216 64.2248C42.5673 69.0648 30.5111 78.9071 24.8273 91.9137C19.1436 104.92 20.5543 121.03 29.7578 131.965C37.9194 141.662 51.1888 146.421 64.0716 146.433C76.4714 146.445 88.737 142.497 101.086 143.592C115.352 144.858 128.299 152.729 142.544 154.197C163.321 156.337 184.685 142.753 191.011 123.38C192.666 118.311 193.37 112.816 192.022 107.662C189.718 98.8473 181.836 92.4051 173.48 88.3266C165.125 84.2482 155.953 81.9166 147.651 77.7378C145.335 76.572 143.013 75.1924 141.585 73.0698C138.515 68.507 140.566 62.5272 141.481 57.1469C142.458 51.4025 141.932 45.2771 139.089 40.1533C135.506 33.6944 128.118 29.6393 120.864 28.4436C111.371 26.8788 101.501 24.893 91.9012 26.7503Z" fill="url(#paint0_linear)"/>
<path d="M167.887 61.055C167.3 64.8198 166.45 68.5833 164.856 72.0516C164.752 72.2769 164.65 72.5017 164.539 72.7216C164.371 73.0648 164.193 73.407 164.008 73.7392L164.003 73.7431C162.054 77.3038 159.343 80.4347 156.507 83.3919C153.197 86.8457 149.633 90.1574 145.388 92.4467C145.307 92.4881 145.224 92.4982 145.136 92.4687C144.919 92.4098 144.68 92.1458 144.437 91.7402C142.929 89.2617 141.036 81.3643 140.943 80.0749C140.608 75.3409 141.242 70.3879 142.223 65.7568C142.968 62.2445 144.021 58.7951 145.363 55.4548L145.363 55.4504C145.534 55.0281 145.705 54.6058 145.884 54.1887C148.058 49.0844 150.902 44.251 154.339 39.8588C155.675 38.148 157.099 36.5066 158.612 34.9396L158.707 34.8464L159.488 34.0585C161.526 32.0208 163.724 30.1208 166.051 28.387C166.095 28.351 166.144 28.3202 166.188 28.2845C166.329 28.7737 166.46 29.2669 166.586 29.7596C167.842 34.6013 168.565 39.5641 168.803 44.5541C168.821 44.9003 168.833 45.2505 168.846 45.6002C169.023 50.7657 168.685 55.9484 167.887 61.055Z" fill="url(#paint1_linear)"/>
<path d="M145.363 55.4485L145.363 55.4529C147.328 61.4525 149.023 67.5256 150.443 73.6761C150.468 73.7887 150.534 73.8652 150.606 73.9202C149.521 77.0802 148.428 80.2348 147.33 83.389C147.22 83.4542 147.109 83.5241 146.994 83.5892C146.648 83.7924 146.729 84.246 146.982 84.3965C146.132 86.8437 145.282 89.291 144.436 91.7387C144.68 92.1443 144.918 92.4083 145.136 92.4672C146.117 89.6341 147.103 86.8015 148.09 83.964C153.541 80.7654 158.844 77.3595 164.002 73.7421L164.008 73.7381C164.193 73.4055 164.37 73.0633 164.538 72.7206C164.649 72.5006 164.752 72.2758 164.855 72.0506C159.578 75.8167 154.136 79.3559 148.541 82.6746C150.913 75.8383 153.276 68.9971 155.555 62.1304C156.705 58.6581 157.784 55.1709 158.854 51.6788C158.899 51.6388 158.943 51.6027 158.983 51.5622C159.062 51.4984 159.096 51.4219 159.117 51.344C162.488 49.6226 165.735 47.7094 168.847 45.5987C168.834 45.2485 168.821 44.8983 168.803 44.5526C165.762 46.6431 162.588 48.5453 159.291 50.2552C159.831 48.5048 160.372 46.7504 160.925 44.9969C162.545 39.8481 164.994 34.9091 166.587 29.7576L166.189 28.2826C164.653 33.6905 161.905 38.9168 160.207 44.2842C159.905 45.234 159.612 46.1842 159.314 47.1344C159.638 42.781 159.614 38.4188 159.489 34.057L158.707 34.8449L158.612 34.9381C158.751 40.1274 158.721 45.3193 158.088 50.4937C158.072 50.6248 158.112 50.7255 158.182 50.8025C158.177 50.8152 158.171 50.828 158.17 50.8412C158.165 50.8452 158.156 50.8487 158.151 50.8482C157.903 50.9723 157.825 51.2789 157.969 51.4901C156.906 54.9434 155.845 58.3924 154.708 61.8216C153.522 65.392 152.313 68.9562 151.092 72.5147C149.63 66.3294 147.897 60.2225 145.885 54.1877L145.363 55.4485Z" fill="#FFE6E8"/>
<path d="M140.384 59.5706C141.982 62.0416 143.427 64.6398 144.288 67.4298C144.344 67.6106 144.401 67.7914 144.449 67.9731C144.528 68.2542 144.602 68.5392 144.666 68.8225L144.665 68.8274C145.368 71.8435 145.407 74.9827 145.284 78.0811C145.142 81.699 144.78 85.3582 143.496 88.7561C143.47 88.8199 143.427 88.8661 143.361 88.8916C143.204 88.9633 142.93 88.9264 142.579 88.8098C140.428 88.1064 135.262 84.4467 134.544 83.7437C131.911 81.1601 129.728 77.9764 127.912 74.8107C126.536 72.4092 125.37 69.8942 124.428 67.3017L124.426 67.2991C124.308 66.9705 124.19 66.6423 124.079 66.3128C122.712 62.2906 121.872 58.1 121.604 53.875C121.498 52.231 121.479 50.5844 121.55 48.9373L121.557 48.837L121.605 47.9985C121.738 45.8227 122.035 43.6486 122.492 41.508C122.5 41.4657 122.511 41.4244 122.519 41.3817C122.852 41.5973 123.183 41.8194 123.51 42.0438C126.732 44.2412 129.707 46.7685 132.416 49.5484C132.604 49.7406 132.792 49.9377 132.98 50.1348C135.744 53.0457 138.217 56.2175 140.384 59.5706Z" fill="url(#paint2_linear)"/>
<path d="M124.427 67.2981L124.428 67.3008C128.659 69.8241 132.771 72.5222 136.762 75.3992C136.835 75.452 136.913 75.4643 136.982 75.4613C137.981 77.8236 138.971 80.1873 139.959 82.5528C139.928 82.6443 139.9 82.7388 139.866 82.833C139.771 83.1198 140.051 83.3437 140.276 83.3072C141.043 85.1417 141.81 86.9766 142.58 88.8093C142.93 88.9259 143.205 88.9628 143.361 88.8911C142.471 86.7685 141.585 84.6441 140.696 82.5167C142.212 78.0031 143.534 73.4412 144.665 68.8268L144.666 68.822C144.602 68.5387 144.528 68.2536 144.449 67.9725C144.401 67.7908 144.344 67.61 144.288 67.4292C143.165 72.1874 141.83 76.895 140.293 81.548C138.149 76.4247 135.996 71.3023 133.782 66.2067C132.661 63.6314 131.491 61.0816 130.313 58.5332C130.318 58.4879 130.326 58.4456 130.328 58.4025C130.341 58.3273 130.321 58.2661 130.294 58.2107C131.362 55.5686 132.262 52.8754 132.98 50.1334C132.792 49.9367 132.605 49.7396 132.416 49.5474C131.728 52.2432 130.866 54.8946 129.833 57.4941C129.245 56.2152 128.655 54.9338 128.073 53.6461C126.361 49.8685 125.238 45.8085 123.51 42.0428L122.519 41.3807C124.414 45.2674 125.511 49.6398 127.289 53.5828C127.603 54.2809 127.922 54.9756 128.239 55.6715C126.185 52.9871 123.924 50.4681 121.605 47.9976L121.558 48.836L121.55 48.9363C124.304 51.8803 126.96 54.9078 129.259 58.2186C129.316 58.3027 129.391 58.3414 129.472 58.3519C129.476 58.3621 129.479 58.3722 129.484 58.3805C129.484 58.3854 129.48 58.392 129.477 58.3937C129.397 58.5864 129.509 58.8028 129.702 58.8552C130.864 61.3768 132.025 63.8958 133.131 66.4398C134.282 69.0904 135.416 71.7475 136.54 74.4081C132.506 71.5315 128.355 68.8321 124.079 66.311L124.427 67.2981Z" fill="#FFE6E8"/>
<path d="M206.999 57.6952C205.96 58.5134 205.005 59.4144 204.112 60.369C201.672 62.972 199.722 66.0114 197.991 69.145C197.806 69.4775 197.625 69.8106 197.448 70.144C197.251 70.5109 197.058 70.8782 196.865 71.2451C195.477 73.9058 194.171 76.6218 192.736 79.2517C192.576 79.5512 192.412 79.846 192.244 80.1359C191.106 82.1644 189.874 84.1365 188.444 85.9846C188.134 86.3858 187.811 86.7857 187.479 87.1759L187.475 87.1755C187.092 87.6277 186.693 88.065 186.284 88.4974L186.28 88.497C183.062 91.8483 179.008 94.468 174.393 95.178C171.932 95.5616 169.406 95.3879 166.945 94.9981C164.614 94.629 162.284 94.0567 160.254 92.8927C159.073 92.2143 158.079 91.477 157.262 90.6983C157.042 90.4845 156.835 90.2716 156.637 90.0512C150.009 82.7345 157.387 72.0198 165.693 66.4408C166.347 65.9995 167.012 65.5895 167.673 65.2196C169.197 64.36 170.713 63.6944 172.15 63.2734C174.643 62.5391 177.21 62.1696 179.807 61.9791L179.812 61.9796C180.489 61.9246 181.169 61.8872 181.853 61.859C181.854 61.8546 181.858 61.8551 181.858 61.8551C184.52 61.7367 187.203 61.7438 189.861 61.669C189.893 61.6672 189.921 61.6655 189.952 61.6681L189.953 61.6637C190.376 61.6523 190.804 61.6417 191.233 61.6175C196.064 61.4209 200.994 60.7957 205.231 58.6872C205.241 58.6837 205.246 58.6753 205.256 58.6714C205.85 58.3801 206.435 58.052 206.999 57.6952Z" fill="url(#paint3_linear)"/>
<path d="M156.637 90.0515C157.457 89.0507 158.306 88.0785 159.188 87.1406C159.14 80.643 160.898 74.2558 164.277 68.6442C164.707 67.9267 165.18 67.1867 165.694 66.4415L167.674 65.2203C166.507 66.7384 165.499 68.2971 164.659 69.7514C161.761 74.7832 160.221 80.4428 160.094 86.1917C161.815 84.4399 163.638 82.7985 165.557 81.254C165.549 81.1999 165.546 81.1379 165.561 81.0732C167.489 73.0979 172.736 66.2061 179.808 61.9803L179.813 61.9807C180.49 61.9257 181.17 61.8883 181.854 61.8602C174.471 65.7099 168.901 72.4187 166.676 80.372C169.894 77.8952 173.36 75.6789 177.022 73.6562C179.736 72.1552 182.474 70.7008 185.223 69.2605C185.225 69.2385 185.223 69.2205 185.234 69.1954C186.34 66.3817 187.935 63.8455 189.954 61.6697L189.954 61.6653L191.234 61.6191C189.226 63.6286 187.607 65.9901 186.45 68.6182C188.775 67.401 191.104 66.1885 193.429 64.9669C197.301 62.923 201.463 61.0463 205.233 58.6892C205.242 58.6857 206.991 57.7003 207 57.6968L204.113 60.3706C201.245 62.0084 198.229 63.4338 195.345 64.955C192.513 66.4454 189.679 67.9267 186.843 69.4171C187.986 70.2068 189.9 69.9872 191.161 69.9525C192.844 69.9111 194.526 69.7506 196.185 69.4813C196.794 69.385 197.395 69.2702 197.991 69.1461L197.449 70.1452C196.302 70.3708 195.147 70.5385 193.978 70.6515C191.77 70.8675 187.791 71.6163 185.978 69.8751C183.82 71.01 181.672 72.1455 179.525 73.2989C177.886 74.1788 176.285 75.0934 174.721 76.0418C180.507 78.2621 186.613 79.3399 192.737 79.2528L192.245 80.137C186.041 80.1639 179.855 79.0214 174.021 76.7268C173.933 76.6925 173.875 76.6388 173.83 76.5777C170.067 78.9092 166.546 81.47 163.33 84.362C165.816 84.7228 168.011 85.8177 170.365 86.7187C172.793 87.6531 175.353 88.2544 177.959 88.4445C181.225 88.6798 184.481 88.2821 187.476 87.1771L187.48 87.1775L187.333 87.3412L186.286 88.499L186.281 88.4986C184.219 89.0942 182.062 89.3855 179.865 89.3899C177.281 89.396 174.697 89.0089 172.226 88.2874C168.921 87.3156 165.959 85.4284 162.466 85.1512C160.621 86.8744 158.883 88.7133 157.264 90.6995L156.637 90.0515Z" fill="#FFE6E8"/>
<path d="M32.5961 116.53C35.0785 118.019 37.484 119.683 39.4636 121.759C39.5925 121.893 39.7209 122.027 39.8434 122.165C40.0361 122.377 40.2255 122.596 40.4064 122.816L40.4078 122.82C42.3498 125.158 43.7665 127.881 45.0235 130.635C46.493 133.85 47.789 137.193 48.1652 140.693C48.1706 140.759 48.1539 140.817 48.1073 140.867C48.0024 140.995 47.7469 141.077 47.3897 141.121C45.203 141.405 39.0842 140.365 38.1483 140.052C34.7136 138.895 31.4069 137.028 28.4284 135.023C26.1698 133.503 24.0451 131.794 22.0813 129.925L22.0786 129.924C21.8308 129.687 21.583 129.45 21.3416 129.208C18.3771 126.27 15.7989 122.964 13.7049 119.39C12.8878 118 12.1463 116.571 11.4825 115.105L11.4445 115.015L11.1171 114.263C10.2747 112.31 9.57612 110.289 9.03262 108.231C9.02041 108.191 9.01227 108.15 9.00006 108.11C9.38621 108.159 9.77191 108.215 10.1563 108.274C13.935 108.848 17.6437 109.813 21.2312 111.108C21.4804 111.197 21.7309 111.291 21.9814 111.384C25.6747 112.772 29.2292 114.508 32.5961 116.53Z" fill="url(#paint4_linear)"/>
<path d="M22.079 129.924L22.0818 129.925C26.8838 130.363 31.6587 131.002 36.4083 131.848C36.4951 131.864 36.5684 131.842 36.628 131.81C38.5394 133.455 40.4439 135.104 42.3475 136.756C42.3611 136.849 42.3783 136.943 42.3905 137.039C42.433 137.329 42.7762 137.407 42.9562 137.282C44.4334 138.562 45.9106 139.843 47.3897 141.121C47.7469 141.077 48.0024 140.995 48.1073 140.867C46.3963 139.386 44.6871 137.903 42.9742 136.417C42.3086 131.848 41.4536 127.317 40.4073 122.82L40.4059 122.816C40.2255 122.595 40.0361 122.377 39.843 122.165C39.7204 122.027 39.5916 121.893 39.4631 121.758C40.5796 126.377 41.488 131.04 42.1965 135.74C38.0691 132.165 33.9354 128.594 29.7596 125.071C27.6475 123.292 25.5038 121.556 23.3537 119.824C23.3383 119.782 23.3257 119.742 23.3089 119.704C23.2872 119.633 23.2429 119.587 23.1945 119.551C22.9635 116.8 22.562 114.076 21.9809 111.384C21.7304 111.291 21.4799 111.197 21.2308 111.108C21.8177 113.747 22.2332 116.419 22.4779 119.117C21.4017 118.247 20.3224 117.375 19.2476 116.494C16.0905 113.913 13.3228 110.839 10.1558 108.274L9.0326 108.231C12.3972 110.831 15.2477 114.068 18.5358 116.765C19.1173 117.244 19.702 117.716 20.2848 118.192C17.3105 116.706 14.2285 115.451 11.1176 114.263L11.4454 115.014L11.4834 115.104C15.1817 116.525 18.8325 118.058 22.2956 119.989C22.3829 120.038 22.4661 120.04 22.5407 120.016C22.5484 120.024 22.5556 120.031 22.5642 120.036C22.5656 120.041 22.5651 120.048 22.5638 120.051C22.5791 120.252 22.7722 120.393 22.963 120.36C25.0878 122.074 27.2094 123.788 29.2952 125.547C31.4661 127.379 33.6265 129.224 35.7784 131.076C30.9927 130.249 26.182 129.625 21.342 129.208L22.079 129.924Z" fill="#FFE6E8"/>
<path d="M55.7277 70.7523C57.2705 73.1604 58.6636 75.6921 59.488 78.4069C59.5418 78.5824 59.596 78.7584 59.6421 78.9356C59.7177 79.2093 59.7877 79.486 59.8488 79.7618L59.8483 79.7662C60.5184 82.7005 60.5429 85.7513 60.4099 88.7626C60.2566 92.278 59.8881 95.8334 58.6248 99.1306C58.5994 99.1922 58.5578 99.237 58.4932 99.2617C58.3413 99.3307 58.0745 99.2938 57.7344 99.179C55.6463 98.487 50.6417 94.9082 49.9467 94.2219C47.3992 91.6999 45.2912 88.5967 43.5404 85.5124C42.2128 83.1729 41.091 80.7235 40.1866 78.1997L40.1848 78.197C40.0713 77.8772 39.9578 77.5578 39.852 77.2367C38.5408 73.3223 37.7427 69.2451 37.5017 65.138C37.4058 63.5398 37.3945 61.9394 37.4705 60.3389L37.4777 60.2413L37.5279 59.4266C37.6667 57.3123 37.9647 55.2007 38.4187 53.1216C38.4259 53.0807 38.4377 53.0403 38.4449 52.9989C38.7682 53.2096 39.0879 53.4274 39.4048 53.6465C42.5271 55.7955 45.4078 58.2643 48.0282 60.9773C48.2108 61.1647 48.3922 61.3569 48.5739 61.5492C51.2467 64.3915 53.6364 67.485 55.7277 70.7523Z" fill="url(#paint5_linear)"/>
<path d="M40.1842 78.1969L40.186 78.1995C44.2867 80.6697 48.2708 83.3092 52.1382 86.1216C52.2087 86.1735 52.2842 86.1858 52.3521 86.1827C53.312 88.4831 54.2643 90.7843 55.2138 93.0877C55.184 93.1766 55.156 93.2685 55.123 93.3591C55.0285 93.6376 55.2998 93.8562 55.5186 93.8219C56.2561 95.6084 56.9936 97.3945 57.7338 99.1788C58.0738 99.2941 58.3406 99.331 58.4925 99.2615C57.637 97.1952 56.7847 95.1267 55.9301 93.0551C57.4231 88.6744 58.7286 84.2467 59.8481 79.7661L59.8486 79.7617C59.788 79.4858 59.7179 79.2087 59.6419 78.9355C59.5954 78.7587 59.5416 78.5827 59.4878 78.4067C58.3759 83.0268 57.0573 87.5962 55.5435 92.112C53.4811 87.1237 51.4116 82.1364 49.2818 77.1745C48.2039 74.6665 47.0775 72.1841 45.9439 69.7025C45.9494 69.6585 45.9561 69.6176 45.9588 69.5754C45.9715 69.5023 45.953 69.4425 45.9258 69.3888C46.9767 66.8254 47.8625 64.211 48.5728 61.5495C48.3915 61.3572 48.2097 61.165 48.0271 60.9776C47.3466 63.5951 46.4969 66.1677 45.4823 68.6902C44.9166 67.4448 44.3487 66.1968 43.7889 64.943C42.1412 61.2644 41.0677 57.3139 39.4037 53.6468L38.4176 53.1219C40.2421 56.9075 41.3155 61.0392 43.0265 64.8783C43.3286 65.5585 43.6361 66.2346 43.9408 66.9125C41.9562 64.295 39.7696 61.8372 37.5263 59.4264L37.4762 60.2412L37.4689 60.3388C40.1317 63.2115 42.7005 66.1651 44.9198 69.3924C44.9758 69.4746 45.0486 69.512 45.1269 69.5226C45.13 69.5327 45.1332 69.5424 45.1391 69.5503C45.1382 69.5547 45.1345 69.5613 45.1318 69.563C45.0532 69.75 45.1617 69.9607 45.3484 70.0126C46.4671 72.4683 47.5839 74.9212 48.6484 77.3989C49.7548 79.9794 50.8459 82.567 51.9266 85.1573C48.0185 82.3449 43.9955 79.7041 39.8509 77.2361L40.1842 78.1969Z" fill="#FFE6E8"/>
<path d="M16.431 59.1163C17.1617 60.3952 18.0023 61.6006 18.917 62.7487C21.4089 65.8854 24.4936 68.5777 27.7275 71.0527C28.0703 71.317 28.4148 71.5766 28.7603 71.8317C29.1401 72.1159 29.5208 72.3957 29.9016 72.6751C32.6634 74.6877 35.5044 76.6238 38.2219 78.6813C38.5326 78.9114 38.8364 79.1454 39.1344 79.3825C41.2248 81.0036 43.2324 82.7153 45.0601 84.6158C45.4571 85.028 45.85 85.4538 46.2303 85.8872L46.2289 85.892C46.6698 86.3922 47.0903 86.9082 47.5036 87.4317L47.5022 87.4366C50.6959 91.5577 52.8939 96.4369 52.8075 101.552C52.7673 104.28 52.0782 106.97 51.1571 109.548C50.284 111.991 49.1798 114.393 47.4597 116.356C46.4577 117.498 45.425 118.426 44.3791 119.156C44.0929 119.353 43.8103 119.535 43.5209 119.705C33.8987 125.433 23.1235 115.397 18.3789 105.357C18.0027 104.565 17.6654 103.769 17.3719 102.984C16.6887 101.174 16.2239 99.4111 16.0236 97.779C15.6709 94.9482 15.7482 92.1072 16.0349 89.2701L16.0362 89.2653C16.105 88.5245 16.1945 87.7837 16.2953 87.0411C16.2903 87.0397 16.2917 87.0349 16.2917 87.0349C16.6733 84.1407 17.2019 81.2491 17.6328 78.3676C17.6374 78.3329 17.6405 78.303 17.6496 78.2695L17.6446 78.2682C17.7138 77.8098 17.7848 77.3461 17.8404 76.8789C18.5539 71.6311 18.7985 66.1933 17.2182 61.2147C17.2159 61.2038 17.2078 61.1963 17.2055 61.1857C16.988 60.488 16.7276 59.7942 16.431 59.1163Z" fill="url(#paint6_linear)"/>
<path d="M43.5214 119.705C42.5397 118.627 41.5974 117.523 40.6994 116.39C33.2874 115.181 26.3521 112.046 20.614 107.313C19.8802 106.71 19.1287 106.057 18.3794 105.357L17.3724 102.985C18.8755 104.538 20.4558 105.928 21.9498 107.115C27.1199 111.217 33.2689 113.976 39.7937 115.229C38.1315 113.033 36.6154 110.748 35.2282 108.379C35.1653 108.378 35.0939 108.369 35.0229 108.34C26.3109 104.713 19.4773 97.7179 16.0349 89.2706L16.0363 89.2657C16.105 88.5249 16.1945 87.7841 16.2954 87.0415C19.2485 95.7501 25.8108 103.058 34.44 107.002C32.2429 103.051 30.3904 98.8824 28.797 94.5413C27.6136 91.3228 26.4877 88.089 25.3799 84.8446C25.3555 84.838 25.3342 84.8375 25.3076 84.8204C22.3169 83.0809 19.7368 80.8699 17.6492 78.2704L17.6442 78.2691L17.84 76.8798C19.7396 79.4353 22.1162 81.6389 24.8852 83.3972C23.9497 80.6543 23.02 77.9075 22.0795 75.1633C20.5028 70.5903 19.1721 65.7389 17.2183 61.2152C17.216 61.2042 17.2074 61.1967 17.2051 61.1862L18.9166 62.7483C20.2261 66.1586 21.2647 69.6876 22.4385 73.093C23.5875 76.4355 24.7247 79.7802 25.8723 83.1276C26.9942 82.048 27.1153 79.9417 27.3206 78.5753C27.6001 76.7514 27.7434 74.9072 27.7592 73.0657C27.7674 72.3909 27.7529 71.7205 27.7276 71.0522L28.7603 71.8313C28.7951 73.1119 28.7617 74.3903 28.664 75.6722C28.4813 78.0958 28.5623 82.5319 26.2268 84.149C27.1009 86.6966 27.9776 89.2345 28.8752 91.7728C29.5598 93.7111 30.2905 95.616 31.0677 97.4865C34.7199 91.6778 37.1327 85.3021 38.222 78.6813L39.1345 79.3825C37.9611 86.0785 35.4592 92.5282 31.7125 98.3738C31.6565 98.4618 31.5841 98.5146 31.5055 98.5502C33.4317 103.061 35.6654 107.355 38.3364 111.385C39.2299 108.774 40.9033 106.619 42.3869 104.255C43.9225 101.818 45.104 99.1745 45.8266 96.4008C46.7282 92.9254 46.9072 89.337 46.2294 85.8924L46.2308 85.8876L46.3886 86.0781L47.5041 87.4326L47.5028 87.4374C47.7808 89.7769 47.694 92.1591 47.2735 94.5303C46.7788 97.318 45.8365 100.029 44.5352 102.553C42.7866 105.929 40.0618 108.757 39.0684 112.47C40.6741 114.794 42.4317 117.025 44.3801 119.157L43.5214 119.705Z" fill="#FFE6E8"/>
<path d="M189.818 97.3375C188.891 102.027 187.562 106.642 185.857 111.12C185.401 112.33 184.903 113.54 184.153 114.6C183.162 115.999 181.761 117.081 180.775 118.48C179.911 119.712 179.4 121.137 178.758 122.492C175.032 130.323 167.015 135.47 162.665 142.983C161.114 145.667 160.034 148.636 158.044 151.03C157.447 151.751 156.742 152.429 155.856 152.759C154.187 153.388 152.36 152.671 150.741 151.865C150.601 151.8 150.461 151.729 150.325 151.659C147.589 150.255 144.858 148.852 142.123 147.449C138.261 145.469 134.395 143.485 130.534 141.505C129.683 141.07 128.824 140.626 128.132 139.983C127.522 139.416 127.06 138.716 126.486 138.122C125.423 137.023 124.008 136.319 122.625 135.637C115.942 132.347 109.254 129.056 102.571 125.766C98.8315 123.927 93.1659 121.525 91.321 117.548C90.4483 115.656 91.2622 113.941 92.3022 112.295C93.8306 109.871 95.481 107.513 97.0726 105.125C98.818 102.498 100.568 99.8675 102.318 97.2412C104.086 94.5797 105.858 91.9182 107.626 89.2567C110.778 84.5187 113.947 79.75 116.163 74.5326C117.357 71.7259 118.37 68.6597 120.757 66.702C122.453 69.9618 124.429 73.4724 127.91 74.8361C129.244 75.3552 130.705 75.5136 132.011 76.0899C133.485 76.741 134.666 77.8716 135.877 78.9186C142.366 84.5275 150.46 88.0865 158.663 90.8536C166.363 93.4579 174.475 95.4507 182.582 95.266C183.934 95.2356 185.282 95.1432 186.629 94.9844C187.823 94.8436 189.383 94.8436 189.821 95.9346C189.999 96.3785 189.913 96.8717 189.818 97.3375Z" fill="#D8E7EC"/>
<path d="M108.661 106.528C108.244 106.717 107.388 106.823 106.512 106.893C105.927 106.941 107.632 108.401 107.852 108.93C107.968 109.21 108.059 109.503 108.234 109.752C108.41 109.999 108.697 110.2 109.005 110.178C109.27 110.16 109.493 109.987 109.697 109.822C110.306 109.328 110.914 108.836 111.524 108.343C112.464 107.582 113.18 106.101 111.831 105.231C110.795 104.563 109.602 106.102 108.661 106.528Z" fill="#E54C4C"/>
<path d="M103.024 107.245C100.634 107.61 98.3302 108.399 95.9409 108.766C92.8187 109.246 89.6055 108.995 86.5037 109.585C85.7504 109.728 84.8763 110.044 84.7108 110.773C84.5688 111.397 85.0319 111.984 85.4646 112.466C86.316 113.413 87.1675 114.361 88.0189 115.308C88.41 115.743 88.812 116.198 88.9748 116.754C89.0679 117.072 89.1208 117.469 89.4342 117.599C89.5612 117.652 89.7046 117.645 89.8425 117.635C95.335 117.266 100.493 115.05 105.521 112.867C106.599 112.398 107.678 111.929 108.758 111.461C109.347 111.205 109.995 110.887 110.199 110.292C110.554 109.252 109.201 107.629 108.249 107.211C106.848 106.597 104.481 107.023 103.024 107.245Z" fill="#FE6361"/>
<path d="M95.869 151.095C93.6995 151.576 91.4653 151.702 89.2425 151.789C85.5324 151.935 81.7875 151.973 78.1412 151.292C75.0511 150.714 71.956 149.618 68.8424 150.061C68.2193 141.41 70.9572 132.902 73.6625 124.639C73.7611 124.338 73.8746 124.017 74.1377 123.833C74.4054 123.646 74.7617 123.647 75.0905 123.668C77.4019 123.814 79.6244 124.547 81.873 125.088C85.9733 126.072 90.2341 126.422 94.446 126.121C95.3901 126.054 96.3632 125.956 97.2644 126.238C98.19 126.526 98.9397 127.183 99.6338 127.845C101.825 129.935 103.773 132.265 105.436 134.774C106.864 136.927 109.032 139.952 109.418 142.535C109.792 145.039 106.113 146.468 104.224 147.583C101.621 149.119 98.8515 150.435 95.869 151.095Z" fill="#1E1240"/>
<path d="M162.999 104.333C163.058 107.06 161.344 109.484 159.699 111.692C158.581 113.197 157.465 114.701 156.343 116.206C155.742 117.016 155.041 117.891 154.028 118.063C153.219 116.193 150.601 115.647 148.652 116.356C146.699 117.068 145.26 118.665 143.863 120.17C140.11 124.226 136.104 128.049 132.102 131.867C132.034 131.933 131.967 131.999 131.899 132.06C129.502 134.348 127.097 136.632 124.515 138.725C121.074 141.519 117.325 143.965 113.31 145.909C111.8 146.644 110.1 147.317 108.463 146.899C107.364 146.617 106.46 145.874 105.61 145.139C102.906 142.794 100.301 140.216 98.0132 137.427C98.0132 137.423 98.0132 137.423 98.0132 137.423C93.5096 131.942 90.2268 125.655 89.7701 118.735C96.8149 115.849 103.593 112.352 109.995 108.3C110.551 107.948 111.157 107.517 111.257 106.88C111.262 106.862 111.262 106.84 111.262 106.823C111.316 106.356 111.09 105.903 110.986 105.441C110.597 103.721 111.94 102.053 113.477 101.121C115.019 100.193 116.819 99.7004 118.279 98.6534C121.169 96.5813 122.132 92.82 124.424 90.1321C125.514 88.852 126.88 87.8577 128.376 87.0791C129.036 86.736 129.719 86.4324 130.416 86.1641C132.514 85.359 134.739 85.0731 136.854 84.3692C138.916 83.6829 140.228 83.7093 142.412 84.246C147.349 85.4558 151.894 87.783 156.37 90.0793C157.256 90.5325 158.161 90.9988 158.857 91.6982C159.951 92.8029 160.412 94.3426 160.838 95.8159C161.353 97.6196 161.873 99.4232 162.389 101.222C162.683 102.243 162.977 103.277 162.999 104.333Z" fill="url(#paint7_linear)"/>
<path d="M148.023 99.5415C147.243 99.121 146.242 99.3198 145.484 99.776C144.725 100.232 144.14 100.908 143.504 101.516C142.868 102.124 142.126 102.691 141.246 102.832C140.387 102.969 139.518 102.681 138.647 102.672C137.266 102.657 135.972 103.343 134.902 104.191C133.831 105.04 132.915 106.062 131.836 106.9C130.902 107.627 129.853 108.21 128.943 108.965C128.034 109.721 127.245 110.707 127.079 111.859C126.999 112.407 127.075 112.996 127.403 113.449C127.827 114.034 128.609 114.296 129.345 114.273C130.081 114.251 130.784 113.985 131.458 113.698C134.264 112.502 136.865 110.855 139.132 108.852C140.15 107.953 141.03 107.03 141.791 105.923C142.515 104.869 143.686 104.294 144.654 103.47C145.977 102.342 147.121 101.013 148.023 99.5415Z" fill="#11B5FB"/>
<path d="M128.377 87.0791C127.576 89.3711 126.152 91.4211 124.746 93.4315C124.018 94.4785 123.286 95.5211 122.557 96.5681C121.92 97.4788 121.282 98.3894 120.577 99.2521C118.827 101.39 116.684 103.185 114.441 104.821C113.55 105.468 112.321 106.458 111.263 106.823C111.317 106.356 111.091 105.903 110.987 105.441C110.598 103.721 111.941 102.054 113.478 101.122C115.02 100.194 116.82 99.7008 118.28 98.6538C121.17 96.5818 122.133 92.8205 124.425 90.1326C125.514 88.852 126.88 87.8578 128.377 87.0791Z" fill="#11B5FB"/>
<path d="M133.952 127.842V157.418C133.952 158.843 132.767 160 131.302 160C129.838 160 128.648 158.843 128.648 157.418V127.842C128.648 126.421 129.838 125.264 131.302 125.264C132.035 125.264 132.7 125.554 133.179 126.021C133.658 126.487 133.952 127.129 133.952 127.842Z" fill="#2E215E"/>
<path d="M133.952 133.389V143.094C133.721 143.028 133.49 142.954 133.264 142.879C131.669 142.333 130.122 141.656 128.648 140.855V132.681C130.466 132.721 132.699 133.169 133.952 133.389Z" fill="#03010C"/>
<path d="M165.007 123.469C164.935 123.689 164.732 123.839 164.537 123.971C160.553 126.725 155.986 128.603 151.976 131.322C148.662 133.566 145.551 136.46 141.581 137.164C139.143 137.594 136.647 137.142 134.219 136.689C129.594 135.831 124.968 134.969 120.343 134.111C114.722 133.064 109.066 132.008 103.757 129.936C103.558 129.857 103.345 129.764 103.237 129.584C102.974 129.144 103.512 128.669 103.969 128.431C110.648 124.943 117.756 122.383 123.874 117.944C124.678 117.363 125.488 116.743 126.446 116.457C127.152 116.246 127.907 116.224 128.644 116.215C134.761 116.153 140.888 116.923 146.789 118.494C146.92 118.529 147.051 118.564 147.182 118.599C151.144 119.681 155.055 121.094 159.066 121.881C160.544 122.167 162.036 122.374 163.547 122.444C164.243 122.479 165.22 122.822 165.007 123.469Z" fill="#AFCCD2"/>
<path d="M165.394 123.145C165.264 123.136 165.134 123.134 165.005 123.126C165.043 123.229 165.048 123.344 165.006 123.47C164.934 123.69 164.732 123.84 164.539 123.973C160.551 126.725 155.986 128.603 151.974 131.322C148.659 133.567 145.552 136.46 141.578 137.162C139.145 137.593 136.648 137.14 134.219 136.689C129.593 135.829 124.966 134.969 120.34 134.109C114.722 133.065 109.064 132.009 103.757 129.934C103.618 129.88 103.474 129.817 103.361 129.723C102.69 130.74 103.979 132.222 104.835 132.763C106.052 133.534 107.548 133.731 108.987 133.928C115.096 134.766 121.152 135.956 127.117 137.492C132.459 138.867 138.113 140.521 143.396 138.942C145.199 138.403 146.868 137.504 148.456 136.515C152.811 133.805 156.7 130.356 161.364 128.188C162.471 127.673 163.643 127.216 164.524 126.386C165.405 125.557 165.927 124.22 165.394 123.145Z" fill="#659296"/>
<path d="M159.066 121.881C158.889 122.149 158.65 122.391 158.41 122.602C157.071 123.795 155.53 124.745 153.997 125.687C152.107 126.852 150.217 128.014 148.327 129.175C145.975 130.618 143.601 132.074 140.988 133.011C138.379 133.944 135.476 134.327 132.804 133.579C130.828 133.025 129.082 131.885 127.197 131.089C125.935 130.552 122.115 130.702 121.685 129.334C121.197 127.777 124.326 126.184 125.402 125.572C127.468 124.398 129.571 123.28 131.696 122.221C133.197 121.468 134.721 120.746 136.326 120.245C138.361 119.612 140.499 119.348 142.621 119.088C144.126 118.904 145.655 118.719 147.183 118.6C151.143 119.681 155.055 121.094 159.066 121.881Z" fill="#9ABCC1"/>
<path d="M114.236 124.627C113.847 124.875 113.427 125.188 113.383 125.638C113.312 126.378 114.241 126.775 114.985 126.941C121.034 128.289 127.084 129.637 133.133 130.985C134.083 131.197 135.036 131.409 136.006 131.502C138.183 131.709 140.392 131.302 142.433 130.537C144.74 129.672 146.839 128.366 148.921 127.069C150.739 125.935 152.565 124.796 154.189 123.412C155.286 122.475 156.301 121.421 157.568 120.717C158.402 120.253 159.476 119.749 159.487 118.814C156.874 117.562 154.018 116.885 151.188 116.217C149.911 115.915 148.635 115.614 147.358 115.313C145.855 114.957 144.351 114.603 142.848 114.248C139.948 113.563 137.037 112.877 134.067 112.604C132.41 112.451 130.678 112.44 129.153 113.089C126.207 114.343 124.923 117.582 122.535 119.523C120.013 121.574 116.974 122.887 114.236 124.627Z" fill="white"/>
<path d="M154.363 117.975C154.327 118.282 154.209 118.564 153.965 118.766C153.49 119.158 152.78 119.052 152.166 118.951C150.859 118.731 149.525 118.652 148.196 118.701C147.653 118.723 147.088 118.776 146.627 119.048C146.098 119.365 145.781 119.919 145.338 120.346C144.605 121.054 143.624 121.327 142.594 121.52C141.395 121.753 140.125 121.89 139.098 122.501C137.715 123.324 137 124.855 136.118 126.175C135.232 127.494 133.83 128.775 132.225 128.559C130.878 128.374 129.635 127.482 128.314 127.002C128.898 126.791 129.476 126.575 130.059 126.364C131.547 125.823 133.062 125.264 134.319 124.319C135.481 123.443 136.372 122.277 137.461 121.318C138.474 120.421 139.659 119.709 140.935 119.22C140.962 119.211 140.966 119.185 140.962 119.145C141.07 119.167 141.201 119.163 141.369 119.118C142.011 118.943 142.969 118.287 143.475 117.861C144.366 117.117 145.628 117.003 146.799 116.936C146.826 116.936 146.853 116.932 146.881 116.932C147.093 116.919 147.301 116.91 147.514 116.901C148.083 116.866 148.653 116.84 149.222 116.814C150.416 116.761 151.619 116.721 152.817 116.694C152.817 116.514 154.395 116.899 154.712 117.095C154.829 117.078 154.533 117.557 154.363 117.975Z" fill="#F4F2F2"/>
<path d="M152.839 116.694C151.631 116.721 150.424 116.76 149.221 116.814C148.44 116.849 147.662 116.888 146.879 116.932C146.852 116.932 146.825 116.937 146.798 116.937C145.627 117.003 144.365 117.117 143.474 117.861C142.968 118.288 142.009 118.943 141.367 119.119C140.734 119.291 140.635 118.916 140.196 118.441C139.753 117.966 139.481 117.368 139.129 116.827C137.559 114.421 134.43 113.308 131.501 113.382C131.139 113.392 130.673 113.347 130.583 113.004C130.534 112.832 130.619 112.652 130.705 112.494C131.926 110.277 134.295 108.926 136.588 107.765C138.071 107.017 139.568 106.291 141.087 105.618C141.232 105.552 141.377 105.486 141.521 105.425C141.707 105.345 141.879 105.279 142.05 105.231C143.199 104.884 144.044 105.183 145.234 105.834C147.648 107.158 149.394 109.406 150.967 111.566C152.075 113.092 153.21 114.86 152.839 116.694Z" fill="#E54C4C"/>
<path d="M121.819 120.945C121.543 121.537 121.299 122.163 120.838 122.633C120.453 123.026 119.947 123.28 119.45 123.526C118.798 123.849 118.145 124.174 117.493 124.498C115.726 125.375 113.805 126.419 113.162 128.245C113.037 128.599 112.951 128.995 112.658 129.237C112.404 129.448 112.052 129.491 111.727 129.567C110.412 129.874 109.298 130.867 108.828 132.101C108.445 133.103 108.471 134.215 108.673 135.266C110.03 135.7 111.386 136.135 112.743 136.57C113.56 136.832 114.412 137.097 115.264 136.98C115.768 136.911 116.246 136.709 116.75 136.636C117.43 136.535 118.138 136.669 118.805 136.505C120.606 136.061 121.141 133.863 122.369 132.506C122.913 131.904 123.626 131.447 124.074 130.775C124.523 130.105 124.595 129.073 123.925 128.607C125.969 127.86 128.013 127.113 130.057 126.365C131.547 125.821 133.061 125.263 134.321 124.316C135.482 123.443 136.373 122.278 137.46 121.318C138.474 120.421 139.658 119.707 140.935 119.221C141.29 119.086 138.425 115.729 138.132 115.48C136.845 114.388 135.311 113.612 133.667 113.17C130.66 112.363 127.358 114.469 125.217 116.396C123.792 117.676 122.62 119.226 121.819 120.945Z" fill="#FE6361"/>
<path d="M156.574 84.8311C156.579 86.6788 156.678 88.5308 156.872 90.3697C154.941 91.1044 152.925 91.5927 150.872 91.9138C149.809 92.081 148.733 92.2042 147.657 92.2965C146.884 92.3625 145.789 92.2041 145.618 91.2803C145.5 90.6292 146.124 89.9958 146.436 89.4767C147.472 87.7786 148.245 86.0101 149.624 84.5276C150.854 83.2034 152.401 82.1652 154.105 81.5141C154.413 81.3997 154.729 81.2942 155.05 81.215C155.688 81.0566 156.343 80.9994 156.981 81.1446C156.619 82.3324 156.574 83.5905 156.574 84.8311Z" fill="#DB4646"/>
<path d="M154.019 83.3882C152.256 85.7769 151.157 88.632 150.899 91.5663C150.89 91.6806 150.882 91.7955 150.872 91.9138C149.81 92.081 148.734 92.2041 147.657 92.2965C146.884 92.3625 145.79 92.2041 145.618 91.2803C145.5 90.6292 146.124 89.9957 146.437 89.4766C147.472 87.7786 148.246 86.0101 149.625 84.5276C150.855 83.2034 152.401 82.1652 154.106 81.5141C154.413 81.3997 154.73 81.2942 155.051 81.215C155.43 81.7649 154.711 82.4511 154.019 83.3882Z" fill="#C13636"/>
<path d="M160.463 75.518C160.282 77.59 159.382 79.596 157.949 81.1314C157.659 81.4437 157.325 81.7472 156.904 81.822C156.465 81.9056 155.995 81.7253 155.575 81.866C155.29 81.9672 155.077 82.196 154.878 82.4203C153.658 83.8193 152.545 85.3062 151.564 86.8723C151.058 87.6818 150.569 88.5264 149.841 89.1511C148.652 90.1673 146.997 90.4576 145.437 90.7128C144.786 90.8184 144.116 90.9196 143.466 90.8888C143.095 90.8712 142.733 90.814 142.385 90.6908C141.372 90.3345 140.64 89.4942 139.952 88.6848C139.369 87.9985 138.781 87.2946 138.401 86.4808C138.093 85.8253 137.935 85.1126 137.781 84.4044C137.09 81.2369 136.412 78.0343 136.429 74.7965C136.439 72.9709 136.669 71.1452 137.117 69.3679C137.375 68.3297 138.551 66.6976 137.361 66.0201C139.604 65.9234 141.77 65.6946 143.959 65.3647C144.804 65.2415 145.65 65.0963 146.509 64.9423C149.556 64.3924 152.717 63.9261 155.778 64.6388C156.217 64.74 156.66 64.872 156.991 65.1667C157.574 65.6858 157.637 66.5392 157.659 67.3047C157.705 68.7124 157.745 70.1246 157.592 71.5235C157.469 72.6189 157.243 73.7935 157.777 74.7657C158.206 74.515 158.659 74.2554 159.161 74.207C159.663 74.1586 160.228 74.3786 160.409 74.8361C160.49 75.0517 160.481 75.2892 160.463 75.518Z" fill="#DB4646"/>
<path d="M160.463 75.518C160.282 77.59 159.382 79.596 157.949 81.1314C157.659 81.4437 157.325 81.7472 156.904 81.822C156.465 81.9056 155.995 81.7253 155.575 81.866C155.29 81.9672 155.077 82.196 154.878 82.4203C153.658 83.8193 152.545 85.3062 151.564 86.8723C151.058 87.6818 150.569 88.5264 149.841 89.1511C148.652 90.1673 146.997 90.4576 145.437 90.7128C144.786 90.8184 144.116 90.9196 143.466 90.8888C143.375 90.2157 143.904 89.5426 144.533 89.1951C145.22 88.8123 146.029 88.6936 146.766 88.3988C148.683 87.629 149.959 85.5657 149.755 83.5553C149.628 82.2795 148.995 80.9114 149.642 79.7984C150.143 78.9274 151.274 78.5534 151.821 77.7088C152.414 76.7894 152.165 75.6016 151.893 74.5458C151.644 73.5648 151.36 72.5266 150.604 71.8271C149.333 70.6569 147.304 70.9076 145.613 71.352C144.487 71.6511 142.262 72.5573 141.307 71.5059C140.399 70.5073 141.344 68.9764 141.922 68.0922C142.542 67.1507 143.22 66.2313 143.957 65.3647C144.803 65.2415 145.648 65.0963 146.507 64.9423C149.555 64.3924 152.716 63.9261 155.777 64.6388C156.216 64.74 156.659 64.872 156.989 65.1667C157.572 65.6858 157.636 66.5392 157.658 67.3047C157.704 68.7124 157.744 70.1246 157.59 71.5235C157.468 72.6189 157.242 73.7935 157.776 74.7657C158.205 74.515 158.657 74.2554 159.16 74.207C159.661 74.1586 160.227 74.3786 160.407 74.8361C160.49 75.0517 160.481 75.2892 160.463 75.518Z" fill="#DB4646"/>
<path d="M152.774 58.2274C151.087 57.5662 149.22 57.5311 147.4 57.5297C146.422 57.5289 145.441 57.5346 144.472 57.6679C142.424 57.9494 140.454 58.8174 138.934 60.1816C137.413 61.5458 136.358 63.4088 136.055 65.3994C135.963 66.0052 135.934 66.636 135.663 67.189C135.445 67.6355 135.079 68.0046 134.883 68.4613C134.459 69.4511 134.968 70.6499 135.843 71.3014C136.719 71.9529 137.87 72.1469 138.972 72.1443C141.162 72.1386 143.297 71.4395 145.259 70.4941C147.221 69.5483 149.045 68.3553 150.932 67.2753C151.451 66.9783 152.026 66.6796 152.623 66.7605C153.279 66.8498 153.781 67.3822 154.096 67.9496C154.911 69.4194 154.809 71.1844 154.803 72.8543C154.801 73.5023 154.831 74.1939 155.217 74.7218C155.85 75.5875 157.407 75.5506 157.996 74.6558C158.111 74.4802 158.194 74.281 158.34 74.1279C158.469 73.9919 158.64 73.9017 158.792 73.79C159.491 73.2771 159.732 72.3744 159.884 71.5354C160.301 69.2228 160.376 66.852 160.106 64.5187C159.88 62.5716 159.04 61.69 157.285 60.8599C155.7 60.1099 154.424 58.8741 152.774 58.2274Z" fill="url(#paint8_linear)"/>
<path d="M40.244 139.394C38.0117 143.439 36.2812 148.002 36.9463 152.547C50.9749 152.548 65.0039 153.123 78.9832 154.269C80.4527 149.303 80.4315 143.929 78.923 138.974C78.7996 138.569 78.6427 138.134 78.2792 137.901C78.0029 137.724 77.6565 137.697 77.326 137.675C70.3648 137.215 63.4037 136.756 56.443 136.296C52.9622 136.066 49.4818 135.836 46.0015 135.607C45.1898 135.553 41.9704 134.898 41.421 135.454C41.2293 135.648 41.2772 137.037 41.1954 137.345C41.0037 138.064 40.6021 138.745 40.244 139.394Z" fill="url(#paint9_linear)"/>
<path d="M89.0154 98.3048C89.6946 101.752 89.8836 105.292 89.5761 108.789C89.4898 109.771 89.3654 110.771 89.5834 111.733C89.9813 113.494 91.4599 114.84 93.0443 115.775C94.6287 116.711 96.3885 117.357 97.9064 118.391C96.2289 119.619 95.0591 121.411 94.2809 123.308C93.5028 125.205 93.0868 127.221 92.6748 129.223C88.4606 128.224 84.4341 126.479 80.8524 124.098C81.3381 119.105 81.8232 114.112 82.3089 109.119C82.535 106.795 82.761 104.47 82.9867 102.146C83.2295 99.651 83.4718 97.1566 83.7142 94.6619C83.839 93.3742 83.9643 92.0866 84.0895 90.7994C84.1664 90.0102 83.9751 88.1585 84.5005 87.5642C85.9674 85.9053 86.8699 90.623 87.1159 91.3735C87.8629 93.6527 88.5524 95.9539 89.0154 98.3048Z" fill="#BECFD3"/>
<path d="M86.8677 99.4276C86.836 100.884 86.5873 102.332 86.3387 103.77C84.7606 112.916 83.1735 122.097 80.2796 130.935C80.1213 131.41 79.945 131.911 79.5516 132.237C79.0994 132.606 78.4709 132.668 77.8831 132.703C70.2821 133.196 62.6314 132.976 55.0757 132.056C54.2618 131.956 53.4162 131.85 52.6339 132.096C51.6075 132.417 50.875 133.284 50.242 134.138C48.4604 136.548 46.9954 139.184 45.9102 141.959C41.5965 140.67 38.6529 136.9 36.0122 133.341C35.7093 132.936 35.4018 132.514 35.2526 132.034C35.0807 131.471 35.144 130.873 35.2073 130.288C36.3965 119.717 38.7433 109.269 42.1934 99.1764C42.5008 98.279 42.8219 97.3688 43.3961 96.6029C44.1015 95.6703 45.1234 95.0236 46.082 94.3373C47.027 93.6647 47.9359 92.9384 48.795 92.1553C50.034 91.0423 51.1734 89.8193 52.1999 88.5172C52.738 87.8265 53.1268 86.9423 53.7192 86.3088C54.3884 85.5873 55.4238 85.3674 56.3417 85.077C58.9236 84.2632 61.5643 83.6385 64.2276 83.1326C64.2637 83.1238 64.2999 83.1194 64.3361 83.1106C69.6536 82.112 75.057 81.6105 80.4469 81.109C81.193 81.043 81.9662 80.977 82.6625 81.2409C84.2225 81.8304 84.6928 83.7133 84.946 85.319C85.4162 88.2576 85.882 91.1919 86.3477 94.1262C86.628 95.8819 86.9084 97.6503 86.8677 99.4276Z" fill="url(#paint10_linear)"/>
<path d="M85.4709 110.036C85.4704 110.032 85.4682 110.029 85.4677 110.026C85.4804 110.009 85.4944 109.995 85.5071 109.978C85.6744 109.764 85.5699 109.538 85.385 109.406C86.684 108.079 87.9845 106.526 88.0066 104.994C88.0103 104.759 87.7417 104.625 87.5386 104.733C87.4595 104.776 87.3827 104.823 87.3058 104.871C87.3198 104.788 87.337 104.707 87.3478 104.625C87.3962 104.254 86.8007 104.015 86.5638 104.309C84.9938 106.257 83.9362 108.497 82.256 110.408C80.6263 112.262 78.9063 114.918 76.5894 115.933C76.5785 115.938 76.5862 115.956 76.5975 115.952C77.2201 115.744 77.8315 115.476 78.4256 115.162C79.3802 114.867 80.2103 114.364 80.9695 113.757C80.9732 113.76 80.9786 113.764 80.9795 113.758C80.9804 113.754 80.9822 113.75 80.9836 113.746C81.5623 113.281 82.1013 112.759 82.6218 112.221C83.0794 112.025 83.5523 111.911 83.9272 111.91C84.803 111.908 85.6621 112.482 86.5045 112.67C87.1552 112.815 87.4564 112.021 86.9422 111.66C86.297 111.206 85.6133 110.876 85.4709 110.036Z" fill="#BECFD3"/>
<path d="M57.0814 130.947C56.9096 129.053 54.9775 128.325 53.9113 126.981C52.6339 125.37 52.803 123.119 53.0336 121.097L53.8783 113.684C54.1084 111.666 54.311 109.521 53.7105 107.62C53.6748 106.643 53.5654 105.705 53.4437 104.917C53.4112 104.706 53.37 104.499 53.3243 104.291C53.1543 103.102 52.7523 102.186 52.1455 101.387C51.6115 100.551 50.9229 99.816 50.0769 99.2362C49.5921 98.8279 48.9618 98.5059 48.0923 98.2693C48.067 98.2622 48.0534 98.2965 48.0747 98.3097C50.0687 99.5437 50.8424 102.274 51.4447 104.432C51.8005 105.706 51.6283 106.812 51.4221 107.946C51.2566 108.274 51.116 108.617 50.9966 108.954C49.4538 113.303 49.0373 117.942 48.6322 122.527C48.5467 123.494 48.4617 124.471 48.5951 125.433C48.9745 128.163 51.7603 132.507 54.7794 133.091C56.2924 133.385 57.2184 132.456 57.0814 130.947Z" fill="#BECFD3"/>
<path d="M109.622 119.087C109.693 120.141 110.03 121.158 110.365 122.162C110.669 123.078 111.131 124.137 112.102 124.327C112.443 124.394 112.795 124.335 113.138 124.276C113.908 124.145 114.679 124.013 115.449 123.881C117.26 123.57 119.167 123.218 120.561 122.051C121.714 121.087 122.365 119.688 123.253 118.486C124.922 116.224 127.408 114.686 129.831 113.204C130.613 112.726 131.443 112.233 132.365 112.205C132.96 112.187 133.735 112.275 133.976 111.745C134.034 111.618 134.05 111.465 134.155 111.371C134.25 111.286 134.391 111.274 134.508 111.222C134.814 111.086 134.912 110.679 134.784 110.377C134.656 110.075 134.361 109.87 134.057 109.733C133.879 109.653 133.681 109.582 133.572 109.424C133.498 109.315 133.476 109.179 133.405 109.068C133.242 108.812 132.887 108.765 132.578 108.744C131.151 108.646 129.723 108.549 128.296 108.452C127.71 108.412 127.108 108.374 126.549 108.548C124.947 109.043 124.261 111.048 122.676 111.591C122.168 111.765 121.608 111.769 121.108 111.966C120.109 112.36 119.587 113.398 118.984 114.267C117.9 115.83 116.279 117.011 114.466 117.661C113.551 117.988 112.584 118.182 111.61 118.221C110.786 118.253 109.538 117.837 109.622 119.087Z" fill="#4CB4D5"/>
<path d="M132.272 112.247C132.163 111.898 131.784 111.703 131.426 111.807C128.41 112.698 125.316 113.48 122.23 114.131C121.863 114.209 121.631 114.56 121.711 114.916C121.78 115.225 122.06 115.436 122.373 115.436C122.42 115.436 122.469 115.431 122.518 115.421C125.64 114.762 128.77 113.971 131.82 113.07C132.178 112.964 132.38 112.596 132.272 112.247Z" fill="#AE273E"/>
<path d="M66.095 132.879C66.1085 134.788 65.4981 136.645 64.8425 138.44C64.7113 138.8 64.5621 139.179 64.2501 139.403C63.9607 139.61 63.5854 139.649 63.2327 139.685C60.4881 139.94 57.7208 140.195 54.9671 140.142C53.7824 140.12 52.5977 140.041 51.4221 139.878C49.9254 139.667 48.4197 139.324 46.9139 139.5C47.9268 137.855 48.9397 136.214 49.957 134.568C50.6534 133.438 51.3407 132.386 52.6113 132.078C52.7831 132.039 52.964 132.013 53.1539 131.999C57.4766 131.726 61.7677 133.055 66.095 132.879Z" fill="#FE6361"/>
<path d="M69.6581 93.7791C68.9482 93.8275 68.3197 93.3787 67.7274 92.996C63.2057 90.0486 56.9838 89.7802 52.218 92.3273C51.6347 92.6397 51.0468 92.996 50.3867 93.0704C49.7265 93.1407 48.9623 92.82 48.7996 92.1905C48.795 92.1778 48.795 92.1685 48.795 92.1553C50.034 91.0423 51.1734 89.8194 52.1999 88.5172C52.7379 87.8265 53.1268 86.9423 53.7192 86.3088C54.3884 85.5873 55.4238 85.3674 56.3417 85.077C58.9236 84.2632 61.5643 83.6385 64.2276 83.1326C64.2637 83.1238 64.2999 83.1194 64.3361 83.1106C65.2585 83.9684 66.0362 84.9759 66.7371 86.0185C67.6098 87.3074 68.383 88.6624 69.0522 90.0613C69.6084 91.2275 70.1013 92.5649 69.6581 93.7791Z" fill="url(#paint11_linear)"/>
<path d="M81.2472 81.6065C81.2336 82.2004 80.7317 82.6711 80.2343 83.023C78.914 83.9689 77.2455 84.8311 76.9199 86.3928C76.8385 86.7799 76.8521 87.1803 76.8611 87.5762C76.9289 90.1189 76.834 92.666 76.5808 95.1956C76.4451 96.5461 76.2643 97.8923 76.0382 99.2296C76.0201 99.3488 75.9884 99.4848 75.8754 99.5332C75.7307 99.5987 75.577 99.4804 75.4684 99.3704C74.1933 98.0507 73.3116 96.423 72.1947 94.9756C68.9301 90.748 63.8432 88.2933 59.638 84.9411C59.43 84.7739 59.2175 84.5979 59.1044 84.3604C58.8829 83.8809 59.1361 83.3222 59.439 82.8867C60.6192 81.1754 62.5047 80.08 64.223 78.879C66.4657 77.3085 68.5096 75.4696 70.3001 73.4196C70.9739 72.6453 71.6883 71.1892 72.8911 71.6291C73.7547 71.9459 74.6907 72.9709 75.4956 73.8155C75.785 74.1147 76.0517 74.3962 76.2959 74.6118C77.2138 75.43 78.1362 76.2571 78.8959 77.2205C79.7234 78.2675 80.3293 79.4597 80.9352 80.6387C81.0934 80.9422 81.2517 81.2633 81.2472 81.6065Z" fill="#DB4646"/>
<path d="M81.2472 81.6064C81.2336 82.2003 80.7317 82.671 80.2343 83.0229C78.914 83.9688 77.2455 84.831 76.9199 86.3927C76.8385 86.7798 76.8521 87.1802 76.8611 87.5761C76.9289 90.1188 76.834 92.666 76.5808 95.1955C76.1648 94.7908 75.8573 94.2717 75.6719 93.7262C75.369 92.8419 75.3373 91.8917 75.3056 90.9591C75.2514 89.3842 75.2017 87.8049 75.1474 86.2255C75.1248 85.5041 75.0977 84.7606 74.8173 84.0919C74.2837 82.7898 72.8594 81.8088 72.882 80.4098C72.8956 79.442 73.6191 78.6369 74.0215 77.7483C74.4646 76.7717 74.225 75.9754 74.2973 74.99C74.3471 74.2949 74.8761 73.9738 75.4956 73.8154C75.7849 74.1146 76.0517 74.3961 76.2959 74.6117C77.2138 75.4299 78.1362 76.257 78.8959 77.2204C79.7233 78.2674 80.3293 79.4596 80.9352 80.6386C81.0934 80.9421 81.2517 81.2633 81.2472 81.6064Z" fill="#C13636"/>
<path d="M94.9163 76.8554C94.6178 77.4229 93.8491 77.5813 93.198 77.5197C92.5424 77.4581 91.8958 77.247 91.2446 77.3349C91.3532 78.14 91.4255 79.0638 90.8512 79.6489C90.6885 79.8117 90.4805 79.9437 90.3855 80.146C90.2951 80.3352 90.3132 80.5508 90.2499 80.7487C90.0238 81.4438 88.9657 81.545 88.622 82.196C88.509 82.416 88.4909 82.6668 88.3914 82.8955C88.2241 83.2826 87.876 83.5026 87.4645 83.6082C86.9581 83.7402 86.3476 83.705 85.8276 83.6038C83.6753 83.1947 81.6044 82.4864 79.5606 81.7077C79.1355 81.5494 78.715 81.3822 78.2945 81.2194C77.3495 80.8543 76.323 80.5463 75.4639 80.0096C75.0118 79.7281 74.6138 79.341 74.4149 78.8571C74.1617 78.228 74.2657 77.5241 74.3651 76.8554C74.4058 76.5827 74.442 76.2835 74.3018 76.0416C74.0532 75.6061 73.61 75.87 73.2438 75.9404C72.8052 76.024 72.3666 75.9008 72.0365 75.6017C70.9377 74.5898 71.1367 72.861 71.3356 71.5676C71.4034 71.1277 71.4803 70.6878 71.7109 70.2962C72.3168 69.258 73.7095 69.2844 74.7133 69.654C75.0886 69.7947 75.4594 69.9311 75.8302 70.0851C76.1015 70.1995 76.3728 70.3226 76.6441 70.4458C77.0013 69.7771 77.3992 69.1085 77.8333 68.4574C78.7828 67.0144 79.8861 65.6331 81.0301 64.4013C81.7174 63.6579 82.4545 62.9452 83.3226 62.4173C84.8012 61.5199 86.5647 61.2075 88.2784 60.9128C89.3953 60.7192 90.5347 60.5256 91.6561 60.6884C92.7775 60.8556 93.8989 61.4451 94.3872 62.4393C94.6314 62.9408 94.7037 63.5083 94.7399 64.0626C94.9298 66.8605 93.0895 69.2272 93.2342 72.0295C93.2794 72.8874 93.5643 73.732 94.0526 74.4447C94.5681 75.1925 95.3323 76.0548 94.9163 76.8554Z" fill="#DB4646"/>
<path d="M87.4645 83.6081C86.9581 83.7401 86.3476 83.7049 85.8276 83.6037C83.6753 83.1946 81.6044 82.4863 79.5606 81.7076C79.1355 81.5493 78.715 81.3821 78.2945 81.2193C77.3495 80.8542 76.323 80.5462 75.4639 80.0095C75.0118 79.728 74.6138 79.3409 74.4149 78.857C74.1617 78.2279 74.2657 77.524 74.3651 76.8553C74.4058 76.5826 74.442 76.2834 74.3018 76.0415C74.0531 75.606 73.61 75.8699 73.2438 75.9403C72.8052 76.0239 72.3666 75.9007 72.0365 75.6016C70.9377 74.5897 71.1367 72.8609 71.3356 71.5675C71.4034 71.1276 71.4803 70.6877 71.7109 70.2961C72.3168 69.2579 73.7095 69.2843 74.7133 69.6539C75.0886 69.7946 75.4594 69.931 75.8302 70.085C76.1015 70.1994 76.3728 70.3225 76.6441 70.4457C77.0013 69.777 77.3992 69.1084 77.8333 68.4573C78.8416 68.5409 80.3835 68.3561 80.7633 69.1787C81.2969 70.3313 80.076 72.3814 79.6646 73.4328C79.1174 74.8273 78.7874 76.5034 79.6646 77.7264C80.2117 78.4918 81.1251 78.9141 81.9978 79.3013C83.0332 79.7632 84.0687 80.2295 85.1042 80.6914C86.1713 81.1665 87.3876 81.8308 87.5188 82.9658C87.5459 83.1858 87.5233 83.4013 87.4645 83.6081Z" fill="#DB4646"/>
<path d="M87.2343 70.5482C88.6238 69.9702 90.021 69.3103 91.0665 68.2479C92.8647 66.4205 93.3246 63.7467 94.427 61.4556C94.6431 61.0064 94.89 60.5546 94.9307 60.0606C94.989 59.3519 94.6137 58.6792 94.1919 58.0985C92.8747 56.287 91.0185 54.9254 89.194 53.5942C86.982 51.981 84.6258 50.3098 81.8784 50.0128C78.1059 49.6055 74.6333 51.8583 71.5459 54.0064C70.3164 54.8616 69.0874 55.7168 67.858 56.5725C66.8899 57.246 65.844 58.0356 65.6432 59.1768C65.4276 60.4015 66.2731 61.584 66.2668 62.8268C66.2632 63.5373 65.9815 64.2143 65.7486 64.8878C65.159 66.5925 64.8633 68.4534 65.338 70.1919C65.8133 71.9305 67.1797 73.5107 68.9857 73.8965C69.8986 74.0914 71.0394 73.86 71.4066 73.0246C71.776 72.1834 71.2714 70.9732 72.0315 70.4347C72.8015 69.8888 74.9747 69.9126 75.7515 70.4281C76.7187 71.0695 76.9411 71.8469 78.2529 72.1421C81.2399 72.8143 84.5213 71.6771 87.2343 70.5482Z" fill="url(#paint12_linear)"/>
<path d="M64.7665 57.2538C64.2967 57.5068 63.9951 57.9898 63.8531 58.4935C63.7112 58.9972 63.7089 59.5264 63.708 60.0486C63.7075 60.4023 63.7112 60.7745 63.8911 61.082C64.2334 61.6675 65.0437 61.7771 65.736 61.7757C65.9648 61.7753 66.199 61.7691 66.4133 61.6904C67.0699 61.448 67.2806 60.6566 67.3529 59.9769C67.4284 59.2673 67.7825 57.6691 67.1115 57.1803C66.6435 56.8394 65.2115 57.0145 64.7665 57.2538Z" fill="#FE6361"/>
<path d="M60.0146 56.2698C59.2473 56.404 58.5256 56.7198 57.8451 57.0898C54.75 58.7712 52.3721 61.6615 51.3633 64.9674C50.7727 66.9035 50.6398 68.9386 50.4309 70.9477C49.9674 75.4036 48.96 80.1143 45.7134 83.2896C45.2368 83.7555 44.7096 84.1915 44.3804 84.7656C43.9043 85.5952 43.9047 86.6097 44.0838 87.5441C44.2217 88.2611 44.4677 88.98 44.9547 89.5347C45.8337 90.5355 47.3778 90.8109 48.6792 90.4506C49.9805 90.0903 51.0612 89.1929 51.9212 88.1767C52.2952 87.7346 52.6447 87.2581 53.129 86.9326C53.6133 86.6071 54.2807 86.4623 54.7912 86.7469C55.3035 87.0325 55.5047 87.6387 55.8542 88.1019C56.3982 88.8225 57.3274 89.196 58.2435 89.2668C59.1596 89.3376 60.0739 89.141 60.9624 88.9118C61.8622 88.6795 62.7697 88.4046 63.533 87.8855C65.0952 86.8231 65.8123 84.8777 65.8453 83.0239C65.8788 81.1701 65.3294 79.3598 64.8253 77.5716C64.3211 75.7833 63.8531 73.9383 64.0529 72.0941C64.3116 69.7067 65.6762 67.3496 65.0427 65.0295C64.7814 64.0722 64.1832 63.1339 64.3934 62.1647C64.7023 60.7411 65.5994 58.9243 64.6684 57.4919C63.84 56.2196 61.3463 56.0366 60.0146 56.2698Z" fill="url(#paint13_linear)"/>
<path d="M91.3667 145.263C90.3539 145.267 89.35 145.496 88.4095 145.861C88.3733 145.874 88.3417 145.888 88.3055 145.905C87.0349 146.411 85.8502 147.163 84.5073 147.44C82.0972 147.938 79.5922 146.846 77.1505 147.176C76.3004 147.29 75.482 147.576 74.6726 147.863C74.7631 146.05 77.0872 144.973 77.3133 143.168C77.4444 142.109 76.7797 141.079 75.9025 140.432C75.0253 139.79 73.9582 139.447 72.9318 139.073C71.9008 138.699 70.8563 138.259 70.1102 137.471C69.7168 137.054 69.4229 136.552 69.0657 136.103C68.5548 135.457 67.9172 134.907 67.1983 134.498C67.2163 133.623 68.2789 133.205 69.1381 132.94C70.8066 132.43 72.2806 131.427 73.9491 130.956C75.7533 130.451 77.6388 130.416 79.4385 129.817C80.0806 129.606 80.9035 129.395 81.3557 129.887C81.523 130.072 81.5953 130.31 81.6225 130.56C81.6451 130.736 81.6451 130.921 81.6496 131.097C81.7039 133.252 82.6353 135.32 83.8924 137.101C84.2677 137.634 84.6791 138.153 85.0861 138.668C85.5835 139.288 86.0763 139.913 86.5737 140.533C87.9709 142.298 89.4133 144.097 91.3667 145.263Z" fill="#AE273E"/>
<path d="M91.3667 145.263C90.3539 145.267 89.3501 145.496 88.4095 145.861C88.3734 145.874 88.3417 145.887 88.3056 145.905C87.9845 145.751 87.677 145.57 87.3831 145.382C86.1171 144.581 84.8826 143.459 84.7153 141.999C84.6746 141.616 84.6972 141.194 84.444 140.894C84.2134 140.622 83.8246 140.542 83.49 140.393C82.9609 140.155 82.5359 139.693 82.3505 139.152C82.1651 138.612 82.2148 138 81.9481 137.49C81.5547 136.72 80.6096 136.42 79.7776 136.13C78.9411 135.845 78.0232 135.365 77.874 134.52C77.761 133.873 78.1589 133.24 78.6563 132.796C79.2893 132.224 80.0806 131.872 80.7543 131.353C81.0663 131.111 81.3376 130.825 81.6225 130.561C81.6451 130.737 81.6451 130.921 81.6496 131.098C81.7039 133.253 82.6353 135.321 83.8924 137.102C84.2677 137.635 84.6792 138.154 85.0861 138.669C85.5835 139.289 86.0764 139.914 86.5737 140.534C87.9709 142.298 89.4134 144.097 91.3667 145.263Z" fill="#9B1E39"/>
<path d="M85.8322 135.107C85.6839 134.905 85.5225 134.71 85.4171 134.485C85.3312 134.302 85.2846 134.103 85.1996 133.92C85.0911 133.685 84.9224 133.481 84.733 133.302C83.9168 132.528 82.6715 132.212 81.5714 132.5C81.0871 132.627 80.5653 132.97 80.5938 133.458C80.6151 133.82 80.9447 134.098 81.2915 134.232C81.3797 134.266 81.4778 134.3 81.5239 134.381C81.561 134.447 81.5533 134.526 81.5497 134.601C81.5217 135.165 81.802 135.735 82.2709 136.068C82.7678 136.42 83.4692 136.536 83.7911 137.046C83.9028 137.223 83.9539 137.429 84.0439 137.618C84.3152 138.188 84.9672 138.562 85.6111 138.52C87.9298 138.371 86.5724 136.112 85.8322 135.107Z" fill="#2F88C0"/>
<path d="M64.3871 132.336C64.4441 133.497 64.1054 134.673 63.4362 135.636C63.0876 136.138 62.6445 136.6 62.4785 137.184C62.2809 137.88 62.5156 138.616 62.7476 139.301C62.951 139.902 63.197 140.556 63.7618 140.868C64.0996 141.056 64.5015 141.089 64.889 141.118C66.1271 141.212 67.3904 141.304 68.5955 141.013C69.1001 140.892 69.6264 140.703 70.1247 140.847C71.0557 141.117 71.3573 142.373 72.2698 142.695C72.6465 142.829 73.0665 142.776 73.4563 142.869C74.5216 143.12 75.2482 144.404 76.3353 144.265C77.089 144.168 77.5728 143.343 77.4942 142.608C77.4155 141.872 76.9163 141.241 76.3529 140.745C75.8424 140.295 75.2636 139.919 74.6414 139.633C73.0805 138.914 71.1638 138.697 70.0659 137.4C69.4171 136.634 69.1218 135.548 68.2423 135.044C67.8675 134.83 67.3461 134.652 67.324 134.23C67.3109 133.974 67.5139 133.749 67.749 133.635C67.9846 133.521 68.2514 133.491 68.5078 133.434C68.7895 133.372 69.8191 133.112 69.8842 132.762C69.971 132.295 68.8026 132.521 68.5019 132.523C67.1282 132.534 65.754 132.472 64.3871 132.336Z" fill="#4CB4D5"/>
<path d="M88.4579 140.9C88.3901 140.011 88.2513 139.1 87.8 138.324C87.3488 137.547 86.5254 136.922 85.6084 136.915C85.3538 136.913 85.0811 136.967 84.9066 137.147C84.6805 137.379 84.6855 137.74 84.7289 138.057C84.8125 138.671 85.0002 139.298 85.437 139.748C85.8684 140.193 86.5322 140.46 86.7519 141.033C86.8188 141.208 86.8369 141.397 86.8971 141.575C87.0295 141.966 87.6684 142.723 88.174 142.622C88.7871 142.499 88.4928 141.359 88.4579 140.9Z" fill="#4CB4D5"/>
<path d="M111.859 124.045C109.806 124.565 107.749 125.088 105.669 125.484C102.762 126.039 99.8182 126.355 96.8791 126.65C96.644 126.672 96.4088 126.698 96.1737 126.72C95.2106 126.817 94.2475 126.914 93.2889 127.01C93.1894 126.355 93.4019 125.7 93.6054 125.066C93.9626 123.979 94.3198 122.88 94.8669 121.867C95.3734 120.93 96.0335 120.099 96.7073 119.272C96.9062 119.022 97.0961 118.656 97.4081 118.533C97.8196 118.37 98.5431 118.55 98.9772 118.568C99.8137 118.603 100.65 118.63 101.487 118.656C102.997 118.696 104.512 118.722 106.026 118.731C106.411 118.731 109.852 118.524 109.929 118.709C110.652 120.461 111.298 122.242 111.859 124.045Z" fill="#FE6361"/>
<path d="M54.9671 140.142C53.7824 140.12 52.5977 140.041 51.4221 139.878C49.9254 139.667 48.4197 139.324 46.9139 139.5C47.9268 137.855 48.9397 136.214 49.957 134.568C50.6534 133.438 51.3407 132.386 52.6113 132.078C52.9097 132.162 53.172 132.312 53.3619 132.541C53.6829 132.919 53.7327 133.447 53.7327 133.94C53.7236 134.727 53.6106 135.519 53.3935 136.276C53.2398 136.83 53.0273 137.406 53.19 137.956C53.3754 138.576 53.9859 138.968 54.438 139.439C54.646 139.649 54.8224 139.887 54.9671 140.142Z" fill="#F45B5B"/>
<path d="M189.818 97.3375C188.891 102.027 187.562 106.642 185.857 111.12C185.401 112.33 184.903 113.54 184.153 114.6C183.163 115.999 181.761 117.081 180.775 118.48C179.911 119.712 179.4 121.137 178.758 122.492C175.032 130.323 167.015 135.47 162.665 142.983C161.114 145.667 160.034 148.636 158.044 151.03C157.447 151.751 156.742 152.429 155.856 152.759C154.187 153.388 152.36 152.671 150.741 151.865C151.247 150.123 152.419 148.373 152.333 146.542C152.306 145.922 152.13 145.293 152.261 144.686C152.473 143.727 153.369 143.084 154.065 142.381C155.914 140.516 156.593 137.841 158.116 135.72C160.105 132.953 163.348 131.343 165.952 129.108C168.281 127.102 170.094 124.604 171.88 122.122C172.576 121.155 173.3 120.12 173.377 118.942C173.459 117.75 172.861 116.553 173.101 115.383C173.4 113.926 174.838 113.025 175.887 111.947C177.673 110.117 178.428 107.57 178.907 105.093C179.391 102.612 179.667 100.056 180.734 97.755C181.196 96.7608 181.828 95.9337 182.583 95.2651C183.935 95.2347 185.283 95.1423 186.63 94.9835C187.824 94.8427 189.384 94.8427 189.823 95.9337C189.999 96.3785 189.913 96.8716 189.818 97.3375Z" fill="#B6CBD1"/>
<path d="M121.905 114.533C116.492 115.638 113.12 119.575 111.901 124.646C111.395 126.749 110.427 128.054 108.37 128.998C107.228 129.522 106.158 130.03 105.31 130.96C103.582 132.857 103.412 135.377 103.079 137.762C102.713 140.38 101.24 141.275 98.8506 142.006C97.4506 142.435 96.11 142.924 94.9642 143.857C92.8557 145.574 92.409 148.052 91.7755 150.52C91.2654 152.506 90.0152 156.301 87.1529 155.881C84.5995 155.506 84.1085 153.229 83.7431 151.167C83.328 148.823 82.7999 146.479 80.2239 145.658C79.6695 145.481 79.4322 146.33 79.9833 146.506C83.7228 147.699 82.2157 152.766 84.2595 155.312C85.6545 157.05 88.0089 157.118 89.7886 155.871C92.1725 154.201 92.4465 151.165 93.1614 148.631C93.7673 146.482 94.819 144.729 96.9112 143.668C98.3351 142.945 99.9602 142.78 101.383 142.075C103.691 140.931 103.844 138.778 104.119 136.522C104.351 134.611 104.864 132.493 106.389 131.14C107.674 129.998 109.481 129.738 110.805 128.666C113.02 126.871 112.699 123.664 113.957 121.321C115.63 118.208 118.639 116.099 122.146 115.383C122.715 115.266 122.474 114.417 121.905 114.533Z" fill="#FF605D"/>
<path d="M152.839 116.694C151.631 116.721 150.424 116.76 149.221 116.814C149.226 116.681 149.235 116.549 149.244 116.426C149.376 114.609 148.71 112.802 147.675 111.284C146.635 109.771 145.242 108.521 143.795 107.369C143.266 106.956 141.589 106.212 141.087 105.618C141.232 105.552 141.377 105.486 141.521 105.425C141.707 105.345 141.879 105.279 142.05 105.231C143.199 104.884 144.044 105.183 145.234 105.834C147.648 107.158 149.394 109.406 150.967 111.566C152.075 113.092 153.21 114.86 152.839 116.694Z" fill="#6B6565"/>
<path d="M101.486 118.656C101.455 119.501 100.962 120.381 100.478 121.129C99.2751 122.968 98.0814 124.811 96.8786 126.65C96.6435 126.672 96.4084 126.698 96.1732 126.72C95.2101 126.817 94.247 126.914 93.2884 127.01C93.1889 126.355 93.4014 125.7 93.6049 125.066C93.9621 123.979 94.3193 122.88 94.8665 121.867C95.3729 120.93 96.0331 120.099 96.7068 119.272C96.9057 119.022 97.0957 118.656 97.4077 118.533C97.8191 118.37 98.5426 118.55 98.9767 118.568C99.8132 118.604 100.65 118.63 101.486 118.656Z" fill="#DB4646"/>
<path opacity="0.4" d="M0 47.2753C155.697 -90.7462 222.09 123.7 394.595 60.7461C395.506 63.1687 394.595 284 394.595 284H0.00439453C0.00439453 284 0.117401 46.0647 0 47.2753Z" fill="white" fill-opacity="0.35"/>
<defs>
<linearGradient id="paint0_linear" x1="107.094" y1="21.1538" x2="107.094" y2="129.674" gradientUnits="userSpaceOnUse">
<stop offset="0.1333" stop-color="#FFE7E7"/>
<stop offset="0.3135" stop-color="#FEE3E3"/>
<stop offset="0.4763" stop-color="#FBD8D8"/>
<stop offset="0.6324" stop-color="#F6C6C6"/>
<stop offset="0.7834" stop-color="#EFACAC"/>
<stop offset="0.8787" stop-color="#EA9898"/>
</linearGradient>
<linearGradient id="paint1_linear" x1="146.156" y1="57.3105" x2="166.501" y2="64.2415" gradientUnits="userSpaceOnUse">
<stop stop-color="#FFC7C8"/>
<stop offset="0.4789" stop-color="#FFE6E8"/>
<stop offset="0.48" stop-color="#FFB3B3"/>
<stop offset="0.9993" stop-color="#FFB3B3"/>
</linearGradient>
<linearGradient id="paint2_linear" x1="125.844" y1="67.9923" x2="140.989" y2="61.5521" gradientUnits="userSpaceOnUse">
<stop stop-color="#FFC7C8"/>
<stop offset="0.4789" stop-color="#FFE6E8"/>
<stop offset="0.48" stop-color="#FFB3B3"/>
<stop offset="0.9993" stop-color="#FFB3B3"/>
</linearGradient>
<linearGradient id="paint3_linear" x1="181.482" y1="65.7034" x2="175.095" y2="96.394" gradientUnits="userSpaceOnUse">
<stop stop-color="#FFE6E8"/>
<stop offset="0.9993" stop-color="#FFB3B3"/>
</linearGradient>
<linearGradient id="paint4_linear" x1="22.0066" y1="131.758" x2="34.9751" y2="116.547" gradientUnits="userSpaceOnUse">
<stop stop-color="#FFC7C8"/>
<stop offset="0.4789" stop-color="#FFE6E8"/>
<stop offset="0.48" stop-color="#FFB3B3"/>
<stop offset="0.9993" stop-color="#FFB3B3"/>
</linearGradient>
<linearGradient id="paint5_linear" x1="39.2816" y1="79.8074" x2="57.9081" y2="71.9326" gradientUnits="userSpaceOnUse">
<stop stop-color="#FFC7C8"/>
<stop offset="0.4789" stop-color="#FFE6E8"/>
<stop offset="0.48" stop-color="#FFB3B3"/>
<stop offset="0.9993" stop-color="#FFB3B3"/>
</linearGradient>
<linearGradient id="paint6_linear" x1="13.3338" y1="81.1524" x2="54.2404" y2="116.328" gradientUnits="userSpaceOnUse">
<stop stop-color="#FFE6E8"/>
<stop offset="0.9993" stop-color="#FFB3B3"/>
</linearGradient>
<linearGradient id="paint7_linear" x1="140.217" y1="94.7269" x2="107.509" y2="140.527" gradientUnits="userSpaceOnUse">
<stop stop-color="#44BCEF"/>
<stop offset="0.9993" stop-color="#AFD3F4"/>
</linearGradient>
<linearGradient id="paint8_linear" x1="142.9" y1="61.0651" x2="153.649" y2="75.1923" gradientUnits="userSpaceOnUse">
<stop stop-color="#151516"/>
<stop offset="0.4128" stop-color="#08021F"/>
<stop offset="0.7067" stop-color="#2C2A33"/>
<stop offset="0.9634" stop-color="#3B2B6D"/>
<stop offset="0.9927" stop-color="#0C0B0F"/>
</linearGradient>
<linearGradient id="paint9_linear" x1="82.0676" y1="151.106" x2="30.9318" y2="138.044" gradientUnits="userSpaceOnUse">
<stop stop-color="white"/>
<stop offset="0.9985" stop-color="#D8E7EC"/>
</linearGradient>
<linearGradient id="paint10_linear" x1="74.1169" y1="92.7954" x2="41.6391" y2="151.647" gradientUnits="userSpaceOnUse">
<stop stop-color="white"/>
<stop offset="0.9985" stop-color="#D8E7EC"/>
</linearGradient>
<linearGradient id="paint11_linear" x1="72.5811" y1="94.9249" x2="56.1422" y2="87.2736" gradientUnits="userSpaceOnUse">
<stop stop-color="white"/>
<stop offset="0.9985" stop-color="#D8E7EC"/>
</linearGradient>
<linearGradient id="paint12_linear" x1="87.0085" y1="53.7716" x2="76.2289" y2="66.4861" gradientUnits="userSpaceOnUse">
<stop stop-color="#141316" stop-opacity="0.7"/>
<stop offset="0.9924" stop-color="#09090A"/>
</linearGradient>
<linearGradient id="paint13_linear" x1="48.6529" y1="91.4391" x2="62.5038" y2="66.6041" gradientUnits="userSpaceOnUse">
<stop stop-color="#151516"/>
<stop offset="0.9924" stop-color="#04010C"/>
</linearGradient>
</defs>
</svg>
