<svg width="10" height="10" viewBox="0 0 10 10" fill="none" xmlns="http://www.w3.org/2000/svg">
<path d="M8.3375 6.40833C7.825 6.40833 7.32917 6.325 6.86667 6.175C6.72083 6.125 6.55833 6.1625 6.44583 6.275L5.79167 7.09583C4.6125 6.53333 3.50833 5.47083 2.92083 4.25L3.73333 3.55833C3.84583 3.44167 3.87917 3.27917 3.83333 3.13333C3.67917 2.67083 3.6 2.175 3.6 1.6625C3.6 1.4375 3.4125 1.25 3.1875 1.25H1.74583C1.52083 1.25 1.25 1.35 1.25 1.6625C1.25 5.53333 4.47083 8.75 8.3375 8.75C8.63333 8.75 8.75 8.4875 8.75 8.25833V6.82083C8.75 6.59583 8.5625 6.40833 8.3375 6.40833Z" fill="#F39494"/>
</svg>
