<svg width="30" height="32" viewBox="0 0 30 32" fill="none" xmlns="http://www.w3.org/2000/svg">
<ellipse cx="15" cy="16" rx="15" ry="16" fill="#FFF2F2"/>
<path d="M29 16C29 24.346 22.6722 31 15 31C7.32783 31 1 24.346 1 16C1 7.65395 7.32783 1 15 1C22.6722 1 29 7.65395 29 16Z" stroke="#C2B9B9" stroke-opacity="0.81" stroke-width="2"/>
<path d="M22 12.25V20.6071C22 21.3761 21.4121 22 20.6875 22H9.3125C8.58789 22 8 21.3761 8 20.6071V12.25C8 11.481 8.58789 10.8571 9.3125 10.8571H11.7188L12.0551 9.90246C12.2465 9.35982 12.7359 9 13.2828 9H16.7145C17.2613 9 17.7508 9.35982 17.9422 9.90246L18.2812 10.8571H20.6875C21.4121 10.8571 22 11.481 22 12.25ZM18.2812 16.4286C18.2812 14.5076 16.8102 12.9464 15 12.9464C13.1898 12.9464 11.7188 14.5076 11.7188 16.4286C11.7188 18.3496 13.1898 19.9107 15 19.9107C16.8102 19.9107 18.2812 18.3496 18.2812 16.4286ZM17.4062 16.4286C17.4062 17.8359 16.3262 18.9821 15 18.9821C13.6738 18.9821 12.5938 17.8359 12.5938 16.4286C12.5938 15.0212 13.6738 13.875 15 13.875C16.3262 13.875 17.4062 15.0212 17.4062 16.4286Z" fill="#B9B1B1"/>
</svg>
