<svg width="14" height="10" viewBox="0 0 14 10" fill="none" xmlns="http://www.w3.org/2000/svg">
<path d="M13.9739 3.83742C14.3055 6.52239 11.4522 9.21944 7.60076 9.8617C6.2594 10.0854 4.97378 10.0303 3.85437 9.75031L3.85375 9.74979C1.75804 9.22532 0.242439 7.91287 0.0263334 6.16323C-0.305298 3.47826 2.54852 0.780431 6.39993 0.138242C10.2513 -0.503946 13.6423 1.15245 13.9739 3.83742Z" fill="#EC2727" fill-opacity="0.69"/>
<path d="M6.98428 4.87152C4.87969 5.22245 2.98829 4.5106 2.32615 3.23288C2.26681 3.49528 2.25063 3.76231 2.28361 4.02922C2.49781 5.76338 4.68786 6.83295 7.17527 6.41816C9.66267 6.00338 11.5055 4.26139 11.2913 2.52716C11.2584 2.26026 11.1783 2.00929 11.0577 1.77686C10.7317 3.2195 9.08892 4.52059 6.98428 4.87152Z" fill="#FCC1C1" fill-opacity="0.72"/>
<path d="M4.18639 4.68724L3.98152 6.07843C3.98152 6.07843 1.95683 8.09771 3.85363 9.74973C1.75792 9.22526 0.242317 7.91281 0.0262114 6.16318C-0.30542 3.47821 2.5484 0.780372 6.39981 0.138184C6.39981 0.138184 2.72354 2.88498 4.18639 4.68724Z" fill="#FCC1C1" fill-opacity="0.72"/>
</svg>
