<svg width="15" height="15" viewBox="0 0 15 15" fill="none" xmlns="http://www.w3.org/2000/svg">
<path d="M7.08333 0C6.15314 0 5.23205 0.186086 4.37266 0.547632C3.51327 0.909178 2.73241 1.43911 2.07466 2.10716C0.746278 3.45635 0 5.28624 0 7.19428C0 9.10232 0.746278 10.9322 2.07466 12.2814C2.73241 12.9495 3.51327 13.4794 4.37266 13.8409C5.23205 14.2025 6.15314 14.3886 7.08333 14.3886C8.96195 14.3886 10.7636 13.6306 12.092 12.2814C13.4204 10.9322 14.1667 9.10232 14.1667 7.19428C14.1667 6.24951 13.9834 5.314 13.6275 4.44115C13.2715 3.5683 12.7498 2.77521 12.092 2.10716C11.4343 1.43911 10.6534 0.909178 9.79401 0.547632C8.93462 0.186086 8.01353 0 7.08333 0V0ZM10.0583 10.2159L6.375 7.91371V3.59714H7.4375V7.33817L10.625 9.28062L10.0583 10.2159Z" fill="#BCB6B6"/>
</svg>
