<svg width="22" height="22" viewBox="0 0 22 22" fill="none" xmlns="http://www.w3.org/2000/svg">
<path d="M22 10.9995C22 4.92484 17.0751 0 11 0C4.92486 0 0 4.92484 0 10.9995C0 17.0752 4.92486 22 11 22C17.0751 22 22 17.0752 22 10.9995Z" fill="#E0E0E0"/>
<path fill-rule="evenodd" clip-rule="evenodd" d="M18.48 10.5593C18.48 14.448 15.3281 17.6 11.44 17.6C7.55192 17.6 4.40002 14.448 4.40002 10.5593C4.40002 6.67207 7.55192 3.52002 11.44 3.52002C15.3281 3.52002 18.48 6.67207 18.48 10.5593ZM17.072 10.5593C17.072 13.6705 14.5505 16.193 11.44 16.193C8.32959 16.193 5.80803 13.6705 5.80803 10.5593C5.80803 7.44952 8.32959 4.92702 11.44 4.92702C14.5505 4.92702 17.072 7.44952 17.072 10.5593Z" fill="#A1A1A1"/>
<path d="M11.4399 11.311H15.3401V11.82H10.1801V7.54004H10.9399V10.811V11.311H11.4399Z" fill="#A1A1A1" stroke="#A1A1A1"/>
</svg>
