<svg width="375" height="379" viewBox="0 0 375 379" fill="none" xmlns="http://www.w3.org/2000/svg">
<path fill-rule="evenodd" clip-rule="evenodd" d="M-1.62222 268.645L-4 0C10.3273 0 25.7684 96.9095 45.2694 128.062C82.3866 187.356 158.216 189.027 182.299 203.78C236.796 237.164 238.507 304.78 296.626 308.194C350.208 311.342 379.469 370.572 393 378.36L353.376 377.678H327.905H314.374C300.843 377.678 272.984 377.678 245.921 377.678C218.063 377.678 191 377.678 163.142 377.678C136.079 377.678 108.22 377.678 81.1577 377.678C53.2991 377.678 26.2364 377.678 11.9091 377.678H-1.62222V268.645Z" fill="#EC7676"/>
<ellipse cx="5.5" cy="278" rx="48.5" ry="55" fill="#F3B4B4" fill-opacity="0.25"/>
<ellipse cx="18" cy="219.5" rx="61" ry="61.5" fill="#E85555" fill-opacity="0.24"/>
<path d="M26.33 200.904C27.2393 201.168 27.936 201.63 28.42 202.29C28.9187 202.95 29.168 203.764 29.168 204.732C29.168 206.067 28.6913 207.115 27.738 207.878C26.7993 208.626 25.4867 209 23.8 209H16.694V193.336H23.58C25.1933 193.336 26.462 193.703 27.386 194.436C28.31 195.155 28.772 196.152 28.772 197.428C28.772 198.249 28.552 198.968 28.112 199.584C27.6867 200.185 27.0927 200.625 26.33 200.904ZM19.466 199.936H23.118C25.0833 199.936 26.066 199.203 26.066 197.736C26.066 197.003 25.824 196.453 25.34 196.086C24.856 195.719 24.1153 195.536 23.118 195.536H19.466V199.936ZM23.492 206.8C24.5187 206.8 25.2667 206.617 25.736 206.25C26.22 205.883 26.462 205.304 26.462 204.512C26.462 203.705 26.22 203.111 25.736 202.73C25.2667 202.349 24.5187 202.158 23.492 202.158H19.466V206.8H23.492ZM31.6855 192.808H34.4135V209H31.6855V192.808ZM42.4598 209.176C41.3304 209.176 40.3331 208.941 39.4678 208.472C38.6171 208.003 37.9571 207.335 37.4878 206.47C37.0331 205.59 36.8058 204.563 36.8058 203.39C36.8058 202.217 37.0331 201.197 37.4878 200.332C37.9571 199.452 38.6171 198.777 39.4678 198.308C40.3331 197.839 41.3304 197.604 42.4598 197.604C43.5744 197.604 44.5571 197.839 45.4078 198.308C46.2584 198.777 46.9111 199.452 47.3658 200.332C47.8351 201.197 48.0698 202.217 48.0698 203.39C48.0698 204.563 47.8351 205.59 47.3658 206.47C46.9111 207.335 46.2584 208.003 45.4078 208.472C44.5571 208.941 43.5744 209.176 42.4598 209.176ZM42.4378 207.02C43.3764 207.02 44.0878 206.719 44.5718 206.118C45.0704 205.502 45.3198 204.593 45.3198 203.39C45.3198 202.202 45.0704 201.3 44.5718 200.684C44.0731 200.053 43.3691 199.738 42.4598 199.738C41.5358 199.738 40.8244 200.053 40.3258 200.684C39.8271 201.3 39.5778 202.202 39.5778 203.39C39.5778 204.593 39.8198 205.502 40.3038 206.118C40.8024 206.719 41.5138 207.02 42.4378 207.02ZM55.4793 209.176C54.35 209.176 53.3526 208.941 52.4873 208.472C51.6366 208.003 50.9766 207.335 50.5073 206.47C50.0526 205.59 49.8253 204.563 49.8253 203.39C49.8253 202.217 50.0526 201.197 50.5073 200.332C50.9766 199.452 51.6366 198.777 52.4873 198.308C53.3526 197.839 54.35 197.604 55.4793 197.604C56.594 197.604 57.5766 197.839 58.4273 198.308C59.278 198.777 59.9306 199.452 60.3853 200.332C60.8546 201.197 61.0893 202.217 61.0893 203.39C61.0893 204.563 60.8546 205.59 60.3853 206.47C59.9306 207.335 59.278 208.003 58.4273 208.472C57.5766 208.941 56.594 209.176 55.4793 209.176ZM55.4573 207.02C56.396 207.02 57.1073 206.719 57.5913 206.118C58.09 205.502 58.3393 204.593 58.3393 203.39C58.3393 202.202 58.09 201.3 57.5913 200.684C57.0926 200.053 56.3886 199.738 55.4793 199.738C54.5553 199.738 53.844 200.053 53.3453 200.684C52.8466 201.3 52.5973 202.202 52.5973 203.39C52.5973 204.593 52.8393 205.502 53.3233 206.118C53.822 206.719 54.5333 207.02 55.4573 207.02ZM74.0868 192.808V209H71.3808V207.218C71.0435 207.834 70.5595 208.318 69.9288 208.67C69.2982 209.007 68.5795 209.176 67.7728 209.176C66.8195 209.176 65.9688 208.934 65.2208 208.45C64.4728 207.966 63.8862 207.284 63.4608 206.404C63.0502 205.509 62.8448 204.49 62.8448 203.346C62.8448 202.202 63.0502 201.197 63.4608 200.332C63.8715 199.467 64.4508 198.799 65.1988 198.33C65.9468 197.846 66.8048 197.604 67.7728 197.604C68.5648 197.604 69.2688 197.773 69.8848 198.11C70.5155 198.433 70.9995 198.895 71.3368 199.496V192.808H74.0868ZM68.4988 207.02C69.4082 207.02 70.1122 206.705 70.6108 206.074C71.1242 205.443 71.3808 204.549 71.3808 203.39C71.3808 202.231 71.1315 201.337 70.6328 200.706C70.1342 200.075 69.4302 199.76 68.5208 199.76C67.5968 199.76 66.8782 200.075 66.3648 200.706C65.8662 201.322 65.6168 202.202 65.6168 203.346C65.6168 204.505 65.8662 205.407 66.3648 206.052C66.8782 206.697 67.5895 207.02 68.4988 207.02ZM35.8742 236.198C34.3342 236.198 32.9849 235.868 31.8262 235.208C30.6822 234.548 29.8022 233.617 29.1862 232.414C28.5702 231.197 28.2622 229.774 28.2622 228.146C28.2622 226.533 28.5702 225.125 29.1862 223.922C29.8022 222.705 30.6822 221.773 31.8262 221.128C32.9849 220.468 34.3342 220.138 35.8742 220.138C36.9302 220.138 37.9202 220.307 38.8442 220.644C39.7829 220.967 40.5602 221.421 41.1762 222.008L40.2522 224.076C39.5482 223.504 38.8442 223.093 38.1402 222.844C37.4509 222.58 36.7102 222.448 35.9182 222.448C34.4076 222.448 33.2342 222.939 32.3982 223.922C31.5769 224.905 31.1662 226.313 31.1662 228.146C31.1662 229.994 31.5769 231.417 32.3982 232.414C33.2196 233.397 34.3929 233.888 35.9182 233.888C36.7102 233.888 37.4509 233.763 38.1402 233.514C38.8442 233.25 39.5482 232.832 40.2522 232.26L41.1762 234.328C40.5602 234.915 39.7829 235.377 38.8442 235.714C37.9202 236.037 36.9302 236.198 35.8742 236.198ZM53.1399 230.588H45.4839C45.5426 231.776 45.8359 232.656 46.3639 233.228C46.9066 233.785 47.7059 234.064 48.7619 234.064C49.9793 234.064 51.1086 233.668 52.1499 232.876L52.9419 234.768C52.4139 235.193 51.7613 235.538 50.9839 235.802C50.2213 236.051 49.4439 236.176 48.6519 236.176C46.8333 236.176 45.4033 235.663 44.3619 234.636C43.3206 233.609 42.7999 232.201 42.7999 230.412C42.7999 229.283 43.0273 228.278 43.4819 227.398C43.9366 226.518 44.5746 225.836 45.3959 225.352C46.2173 224.853 47.1486 224.604 48.1899 224.604C49.7153 224.604 50.9179 225.103 51.7979 226.1C52.6926 227.083 53.1399 228.439 53.1399 230.17V230.588ZM48.2559 226.584C47.5226 226.584 46.9213 226.804 46.4519 227.244C45.9973 227.669 45.7039 228.293 45.5719 229.114H50.7419C50.6539 228.278 50.3973 227.647 49.9719 227.222C49.5613 226.797 48.9893 226.584 48.2559 226.584ZM61.8267 224.604C64.4813 224.604 65.8087 226.129 65.8087 229.18V236H63.0587V229.312C63.0587 228.432 62.89 227.794 62.5527 227.398C62.2153 226.987 61.6947 226.782 60.9907 226.782C60.1547 226.782 59.48 227.053 58.9667 227.596C58.4533 228.124 58.1967 228.828 58.1967 229.708V236H55.4687V228.036C55.4687 226.863 55.41 225.814 55.2927 224.89H57.8667L58.0647 226.716C58.446 226.041 58.9593 225.521 59.6047 225.154C60.2647 224.787 61.0053 224.604 61.8267 224.604ZM72.2225 226.958V231.93C72.2225 233.235 72.8312 233.888 74.0485 233.888C74.3858 233.888 74.7525 233.829 75.1485 233.712V235.89C74.6645 236.066 74.0778 236.154 73.3885 236.154C72.1272 236.154 71.1592 235.802 70.4845 235.098C69.8098 234.394 69.4725 233.382 69.4725 232.062V226.958H67.3385V224.89H69.4725V222.184L72.2225 221.26V224.89H75.1705V226.958H72.2225ZM83.0445 224.626C83.4698 224.626 83.8365 224.685 84.1445 224.802L84.1225 227.31C83.6531 227.119 83.1691 227.024 82.6705 227.024C81.7318 227.024 81.0131 227.295 80.5145 227.838C80.0305 228.381 79.7885 229.099 79.7885 229.994V236H77.0605V228.036C77.0605 226.863 77.0018 225.814 76.8845 224.89H79.4585L79.6785 226.848C79.9571 226.129 80.3971 225.579 80.9985 225.198C81.5998 224.817 82.2818 224.626 83.0445 224.626ZM95.1848 230.588H87.5288C87.5875 231.776 87.8808 232.656 88.4088 233.228C88.9515 233.785 89.7508 234.064 90.8068 234.064C92.0242 234.064 93.1535 233.668 94.1948 232.876L94.9868 234.768C94.4588 235.193 93.8062 235.538 93.0288 235.802C92.2662 236.051 91.4888 236.176 90.6968 236.176C88.8782 236.176 87.4482 235.663 86.4068 234.636C85.3655 233.609 84.8448 232.201 84.8448 230.412C84.8448 229.283 85.0722 228.278 85.5268 227.398C85.9815 226.518 86.6195 225.836 87.4408 225.352C88.2622 224.853 89.1935 224.604 90.2348 224.604C91.7602 224.604 92.9628 225.103 93.8428 226.1C94.7375 227.083 95.1848 228.439 95.1848 230.17V230.588ZM90.3008 226.584C89.5675 226.584 88.9662 226.804 88.4968 227.244C88.0422 227.669 87.7488 228.293 87.6168 229.114H92.7868C92.6988 228.278 92.4422 227.647 92.0168 227.222C91.6062 226.797 91.0342 226.584 90.3008 226.584Z" fill="#FFF9F9"/>
</svg>
