<svg width="393" height="110" viewBox="0 0 393 110" fill="none" xmlns="http://www.w3.org/2000/svg">
<path d="M2.25513 44.4213C49.8013 4.59734 258.899 -30.7569 386.712 45.4239C388.228 45.1497 386.565 101.767 386.565 101.767L2.1082 100.765C2.1082 100.765 2.01374 43.6162 2.25513 44.4213Z" fill="#EC2727" fill-opacity="0.69"/>
<path opacity="0.4" d="M1.47632 38.1999C198.795 -62.5438 162.498 125.338 385.896 90.9979C385.91 110.613 391.172 108.599 391.172 108.599L1.5241 101.727C1.5241 101.727 1.6008 37.8182 1.47632 38.1999Z" fill="white" fill-opacity="0.35"/>
<path opacity="0.4" d="M388 65.9468C252.128 -2.15443 191.912 112.015 2.39557 89.9825C1.50554 90.3455 2.39556 102 2.39556 102H388C388 102 388 73.6153 388 65.9468Z" fill="#FFEBEB"/>
</svg>
