<svg width="526" height="307" viewBox="0 0 526 307" fill="none" xmlns="http://www.w3.org/2000/svg">
<path d="M526 56.6528C526 177.714 414.927 240 262.43 240C109.932 240 0 177.714 0 56.6528C0 -64.4089 109.932 46.2098 262.43 46.2098C414.927 46.2098 526 -64.4088 526 56.6528Z" fill="#EC2727" fill-opacity="0.77"/>
<path opacity="0.4" d="M460 124.455C308.639 18.0231 244.095 183.388 76.3935 134.843C75.5081 136.711 76.3935 307 76.3935 307H459.996C459.996 307 459.886 123.522 460 124.455Z" fill="white" fill-opacity="0.35"/>
<path opacity="0.19" d="M73.0046 34.7491C238.056 17.1475 158.165 152.212 454.641 36.5888C455.513 38.3105 453.636 244.998 453.636 244.998L72 243.158C72 243.158 73.1222 33.8947 73.0046 34.7491Z" fill="white"/>
</svg>
