<svg width="20" height="20" viewBox="0 0 20 20" fill="none" xmlns="http://www.w3.org/2000/svg">
<g filter="url(#filter0_d)">
<path d="M9.89547 0C8.33238 0.00129011 6.83376 0.50846 5.72849 1.41021C4.62322 2.31196 4.00158 3.53463 4 4.8099C3.99965 5.11302 4.03498 5.41546 4.10552 5.71307C4.10552 5.73094 4.12145 5.78292 4.14534 5.87551C4.23657 6.20234 4.37005 6.52034 4.54355 6.82417C5.70008 8.84179 7.45127 10.5942 9.64062 11.9248C9.71486 11.9735 9.80722 12 9.90244 12C9.99766 12 10.09 11.9735 10.1643 11.9248C12.3527 10.5935 14.1037 8.84125 15.2613 6.82417C15.4353 6.52049 15.5688 6.20245 15.6595 5.87551C15.6834 5.78455 15.6974 5.73256 15.6994 5.71307C15.7684 5.41529 15.8037 5.11296 15.8049 4.8099C15.8007 3.53332 15.1763 2.31018 14.0686 1.40857C12.9608 0.506956 11.4602 0.000425336 9.89547 0ZM14.8731 5.59449C14.8731 5.59449 14.8731 5.60424 14.8731 5.60911C14.8731 5.61398 14.8611 5.65947 14.8452 5.71794C14.7672 5.99794 14.6523 6.27025 14.5027 6.53015C14.5027 6.53015 14.5027 6.53015 14.5027 6.5399C13.4549 8.37478 11.8799 9.97629 9.9114 11.2085C7.94289 9.97629 6.36787 8.37478 5.32006 6.5399C5.32006 6.5399 5.32006 6.5399 5.32006 6.53015C5.17265 6.26952 5.05792 5.9974 4.97761 5.71794C4.95969 5.65947 4.95371 5.6221 4.94972 5.60911C4.94574 5.59611 4.94972 5.59936 4.94972 5.59124C4.80847 4.99371 4.83084 4.37809 5.01523 3.78844C5.19962 3.19879 5.54148 2.64967 6.01634 2.18039C6.4912 1.7111 7.08733 1.33325 7.76207 1.07387C8.43681 0.814482 9.17347 0.679977 9.91936 0.679977C10.6652 0.679977 11.4019 0.814482 12.0767 1.07387C12.7514 1.33325 13.3475 1.7111 13.8224 2.18039C14.2972 2.64967 14.6391 3.19879 14.8235 3.78844C15.0079 4.37809 15.0303 4.99371 14.889 5.59124L14.8731 5.59449Z" fill="white"/>
<path d="M9.89546 1.80811C9.15514 1.80811 8.43144 1.98721 7.81588 2.32277C7.20032 2.65834 6.72055 3.1353 6.43724 3.69333C6.15393 4.25135 6.07981 4.86539 6.22424 5.45779C6.36867 6.05019 6.72516 6.59434 7.24865 7.02144C7.77214 7.44853 8.43911 7.7394 9.16521 7.85723C9.89131 7.97507 10.6439 7.91458 11.3279 7.68344C12.0119 7.4523 12.5965 7.06087 13.0078 6.55866C13.4191 6.05645 13.6386 5.46601 13.6386 4.862C13.637 4.05245 13.2422 3.27643 12.5405 2.70399C11.8389 2.13155 10.8877 1.80939 9.89546 1.80811ZM9.89546 7.23527C9.31974 7.23527 8.75695 7.09599 8.27826 6.83503C7.79956 6.57407 7.42647 6.20317 7.20615 5.76922C6.98583 5.33526 6.92818 4.85774 7.0405 4.39706C7.15282 3.93637 7.43005 3.51321 7.83714 3.18107C8.24424 2.84894 8.76292 2.62275 9.32758 2.53112C9.89224 2.43948 10.4775 2.48652 11.0094 2.66627C11.5413 2.84602 11.9959 3.15041 12.3158 3.54096C12.6357 3.93151 12.8064 4.39067 12.8064 4.86038C12.8064 5.49039 12.4997 6.09462 11.9539 6.54026C11.4081 6.98589 10.6677 7.23647 9.89546 7.2369V7.23527Z" fill="white"/>
</g>
<defs>
<filter id="filter0_d" x="0" y="0" width="19.8049" height="20" filterUnits="userSpaceOnUse" color-interpolation-filters="sRGB">
<feFlood flood-opacity="0" result="BackgroundImageFix"/>
<feColorMatrix in="SourceAlpha" type="matrix" values="0 0 0 0 0 0 0 0 0 0 0 0 0 0 0 0 0 0 127 0"/>
<feOffset dy="4"/>
<feGaussianBlur stdDeviation="2"/>
<feColorMatrix type="matrix" values="0 0 0 0 0 0 0 0 0 0 0 0 0 0 0 0 0 0 0.25 0"/>
<feBlend mode="normal" in2="BackgroundImageFix" result="effect1_dropShadow"/>
<feBlend mode="normal" in="SourceGraphic" in2="effect1_dropShadow" result="shape"/>
</filter>
</defs>
</svg>
