<svg width="17" height="14" viewBox="0 0 17 14" fill="none" xmlns="http://www.w3.org/2000/svg">
<path fill-rule="evenodd" clip-rule="evenodd" d="M0 0.99999C0 0.44771 0.447711 0 0.99999 0H16C16.5523 0 17 0.44771 17 0.99999C17 1.55227 16.5523 1.99998 16 1.99998H0.999991C0.447712 1.99998 0 1.55227 0 0.99999ZM0 6.99977C0 6.44749 0.447711 5.99978 0.99999 5.99978H16C16.5523 5.99978 17 6.44749 17 6.99977C17 7.55205 16.5523 7.99976 16 7.99976H0.999991C0.447712 7.99976 0 7.55205 0 6.99977ZM0.99999 12.0002C0.447711 12.0002 0 12.4479 0 13.0002C0 13.5524 0.447712 14.0002 0.999991 14.0002H16C16.5523 14.0002 17 13.5524 17 13.0002C17 12.4479 16.5523 12.0002 16 12.0002H0.99999Z" fill="#716A6A" fill-opacity="0.74"/>
</svg>
