<svg width="39" height="45" viewBox="0 0 39 45" fill="none" xmlns="http://www.w3.org/2000/svg">
<g filter="url(#filter0_d)">
<path d="M30.2562 11.0206L20.3541 0.806967C19.8164 0.285421 18.9203 0.285419 18.3827 0.806962L8.48065 11.0205C2.47671 17.0617 2.52154 26.6234 8.5255 32.6646C14.5295 38.4451 24.2075 38.4451 30.2114 32.6647C36.2153 26.6235 36.2601 17.0618 30.2562 11.0206ZM29.2257 21.7122C29.2257 26.5365 24.7451 31.1 20.0405 31.1C19.2788 31.1 18.6964 30.535 18.6964 29.7962C18.6516 29.1008 19.234 28.5358 19.9509 28.4923C19.9957 28.4923 19.9957 28.4923 20.0405 28.4923C23.2665 28.4923 26.5373 25.0588 26.5373 21.7122C26.5373 20.9734 27.1198 20.4084 27.8815 20.4084C28.5984 20.3649 29.1808 20.9299 29.2257 21.6253C29.2257 21.6688 29.2257 21.6688 29.2257 21.7122Z" fill="#E10108"/>
</g>
<path d="M30.2562 11.0206L20.3541 0.806967C19.8164 0.285421 18.9203 0.285419 18.3827 0.806962L8.48065 11.0205C2.47671 17.0617 2.52154 26.6234 8.5255 32.6646C14.5295 38.4451 24.2075 38.4451 30.2114 32.6647C36.2153 26.6235 36.2601 17.0618 30.2562 11.0206ZM29.2257 21.7122C29.2257 26.5365 24.7451 31.1 20.0405 31.1C19.2788 31.1 18.6964 30.535 18.6964 29.7962C18.6516 29.1008 19.234 28.5358 19.9509 28.4923C19.9957 28.4923 19.9957 28.4923 20.0405 28.4923C23.2665 28.4923 26.5373 25.0588 26.5373 21.7122C26.5373 20.9734 27.1198 20.4084 27.8815 20.4084C28.5984 20.3649 29.1808 20.9299 29.2257 21.6253C29.2257 21.6688 29.2257 21.6688 29.2257 21.7122Z" fill="#FCF7F7" fill-opacity="0.96"/>
<path d="M35 8.93824C35 13.1041 31.6662 16.4607 27.5789 16.4607C23.4917 16.4607 20.1579 13.1041 20.1579 8.93824C20.1579 4.77238 23.4917 1.41577 27.5789 1.41577C31.6662 1.41577 35 4.77238 35 8.93824Z" fill="#979191" fill-opacity="0.94" stroke="#FFF9F9" stroke-width="2"/>
<path d="M11.6944 24.146V12.771H15.5928C16.8793 12.771 17.8585 13.0288 18.5303 13.5444C19.2022 14.0601 19.5381 14.8283 19.5381 15.8491C19.5381 16.37 19.3975 16.8387 19.1163 17.2554C18.835 17.672 18.4236 17.995 17.8819 18.2241C18.4965 18.3908 18.9704 18.7059 19.3038 19.1694C19.6423 19.6278 19.8116 20.1799 19.8116 20.8257C19.8116 21.8934 19.4678 22.7137 18.7803 23.2866C18.098 23.8595 17.1189 24.146 15.8428 24.146H11.6944ZM13.671 19.0132V22.5679H15.8663C16.4861 22.5679 16.9704 22.4142 17.3194 22.1069C17.6684 21.7996 17.8428 21.3726 17.8428 20.8257C17.8428 19.6434 17.2387 19.0392 16.0303 19.0132H13.671ZM13.671 17.5601H15.6085C16.223 17.5601 16.7022 17.422 17.046 17.146C17.3949 16.8647 17.5694 16.4689 17.5694 15.9585C17.5694 15.396 17.4079 14.9897 17.085 14.7397C16.7673 14.4897 16.2699 14.3647 15.5928 14.3647H13.671V17.5601Z" fill="#6A6868"/>
<path d="M28.2138 7.04053H30.5927V8.06592H28.2138V10.7612H27.124V8.06592H24.745V7.04053H27.124V4.55029H28.2138V7.04053Z" fill="#F7F9FB"/>
<defs>
<filter id="filter0_d" x="6.10352e-05" y="0.415771" width="38.7368" height="44.5842" filterUnits="userSpaceOnUse" color-interpolation-filters="sRGB">
<feFlood flood-opacity="0" result="BackgroundImageFix"/>
<feColorMatrix in="SourceAlpha" type="matrix" values="0 0 0 0 0 0 0 0 0 0 0 0 0 0 0 0 0 0 127 0"/>
<feOffset dy="4"/>
<feGaussianBlur stdDeviation="2"/>
<feColorMatrix type="matrix" values="0 0 0 0 0 0 0 0 0 0 0 0 0 0 0 0 0 0 0.25 0"/>
<feBlend mode="normal" in2="BackgroundImageFix" result="effect1_dropShadow"/>
<feBlend mode="normal" in="SourceGraphic" in2="effect1_dropShadow" result="shape"/>
</filter>
</defs>
</svg>
