<svg width="39" height="45" viewBox="0 0 39 45" fill="none" xmlns="http://www.w3.org/2000/svg">
<g filter="url(#filter0_d)">
<path d="M30.2562 11.0206L20.3541 0.806967C19.8164 0.285421 18.9203 0.285419 18.3827 0.806962L8.48065 11.0205C2.47671 17.0617 2.52154 26.6234 8.5255 32.6646C14.5295 38.4451 24.2075 38.4451 30.2114 32.6647C36.2153 26.6235 36.2601 17.0618 30.2562 11.0206ZM29.2257 21.7122C29.2257 26.5365 24.7451 31.1 20.0405 31.1C19.2788 31.1 18.6964 30.535 18.6964 29.7962C18.6516 29.1008 19.234 28.5358 19.9509 28.4923C19.9957 28.4923 19.9957 28.4923 20.0405 28.4923C23.2665 28.4923 26.5373 25.0588 26.5373 21.7122C26.5373 20.9734 27.1198 20.4084 27.8815 20.4084C28.5984 20.3649 29.1808 20.9299 29.2257 21.6253C29.2257 21.6688 29.2257 21.6688 29.2257 21.7122Z" fill="#E10108"/>
</g>
<path d="M30.2562 11.0206L20.3541 0.806967C19.8164 0.285421 18.9203 0.285419 18.3827 0.806962L8.48065 11.0205C2.47671 17.0617 2.52154 26.6234 8.5255 32.6646C14.5295 38.4451 24.2075 38.4451 30.2114 32.6647C36.2153 26.6235 36.2601 17.0618 30.2562 11.0206ZM29.2257 21.7122C29.2257 26.5365 24.7451 31.1 20.0405 31.1C19.2788 31.1 18.6964 30.535 18.6964 29.7962C18.6516 29.1008 19.234 28.5358 19.9509 28.4923C19.9957 28.4923 19.9957 28.4923 20.0405 28.4923C23.2665 28.4923 26.5373 25.0588 26.5373 21.7122C26.5373 20.9734 27.1198 20.4084 27.8815 20.4084C28.5984 20.3649 29.1808 20.9299 29.2257 21.6253C29.2257 21.6688 29.2257 21.6688 29.2257 21.7122Z" fill="#FCF7F7" fill-opacity="0.96"/>
<path d="M35 8.93824C35 13.1041 31.6662 16.4607 27.5789 16.4607C23.4917 16.4607 20.1579 13.1041 20.1579 8.93824C20.1579 4.77238 23.4917 1.41577 27.5789 1.41577C31.6662 1.41577 35 4.77238 35 8.93824Z" fill="#979191" fill-opacity="0.94" stroke="#FFF9F9" stroke-width="2"/>
<path d="M19.796 18.7554C19.796 19.87 19.6033 20.8491 19.2178 21.6929C18.8324 22.5314 18.2803 23.1772 17.5616 23.6304C16.848 24.0783 16.0251 24.3022 15.0928 24.3022C14.171 24.3022 13.348 24.0783 12.6241 23.6304C11.9053 23.1772 11.348 22.534 10.9522 21.7007C10.5616 20.8674 10.3637 19.9064 10.3585 18.8179V18.1772C10.3585 17.0679 10.5538 16.0887 10.9444 15.2397C11.3402 14.3908 11.8949 13.7424 12.6085 13.2944C13.3272 12.8413 14.1501 12.6147 15.0772 12.6147C16.0043 12.6147 16.8246 12.8387 17.5381 13.2866C18.2569 13.7293 18.8116 14.37 19.2022 15.2085C19.5928 16.0418 19.7908 17.0132 19.796 18.1226V18.7554ZM17.8194 18.1616C17.8194 16.9012 17.5798 15.9351 17.1006 15.2632C16.6267 14.5913 15.9522 14.2554 15.0772 14.2554C14.223 14.2554 13.5538 14.5913 13.0694 15.2632C12.5902 15.9299 12.3454 16.8752 12.335 18.0991V18.7554C12.335 20.0054 12.5772 20.9715 13.0616 21.6538C13.5512 22.3361 14.2283 22.6772 15.0928 22.6772C15.9678 22.6772 16.6397 22.3439 17.1085 21.6772C17.5824 21.0106 17.8194 20.0366 17.8194 18.7554V18.1616Z" fill="#6A6868"/>
<path d="M29.1103 8.43506H26.2509V7.55029H29.1103V8.43506Z" fill="#F7F9FB"/>
<defs>
<filter id="filter0_d" x="6.10352e-05" y="0.415771" width="38.7368" height="44.5842" filterUnits="userSpaceOnUse" color-interpolation-filters="sRGB">
<feFlood flood-opacity="0" result="BackgroundImageFix"/>
<feColorMatrix in="SourceAlpha" type="matrix" values="0 0 0 0 0 0 0 0 0 0 0 0 0 0 0 0 0 0 127 0"/>
<feOffset dy="4"/>
<feGaussianBlur stdDeviation="2"/>
<feColorMatrix type="matrix" values="0 0 0 0 0 0 0 0 0 0 0 0 0 0 0 0 0 0 0.25 0"/>
<feBlend mode="normal" in2="BackgroundImageFix" result="effect1_dropShadow"/>
<feBlend mode="normal" in="SourceGraphic" in2="effect1_dropShadow" result="shape"/>
</filter>
</defs>
</svg>
