<svg width="19" height="17" viewBox="0 0 19 17" fill="none" xmlns="http://www.w3.org/2000/svg">
<path d="M13.1538 16.2916H4.38462V14.089C4.38462 13.243 4.572 12.4072 4.9335 11.641C5.295 10.8748 5.82177 10.1968 6.47651 9.65519L6.80103 9.38672C6.93198 9.27839 7.03733 9.1428 7.10963 8.98956C7.18193 8.83632 7.21941 8.66917 7.21941 8.49995C7.21941 8.33073 7.18193 8.16358 7.10963 8.01034C7.03733 7.8571 6.93198 7.72151 6.80103 7.61318L6.47651 7.34471C5.82177 6.80305 5.295 6.12511 4.9335 5.3589C4.572 4.59269 4.38462 3.75695 4.38462 2.91086V0.708252H13.1538V2.91086C13.1538 3.75695 12.9665 4.59269 12.605 5.3589C12.2435 6.12511 11.7167 6.80305 11.062 7.34471L10.7374 7.61318C10.6065 7.72151 10.5011 7.8571 10.4288 8.01034C10.3565 8.16358 10.3191 8.33073 10.3191 8.49995C10.3191 8.66917 10.3565 8.83632 10.4288 8.98956C10.5011 9.1428 10.6065 9.27839 10.7374 9.38672L11.062 9.65519C11.7167 10.1968 12.2435 10.8748 12.605 11.641C12.9665 12.4072 13.1538 13.243 13.1538 14.089V16.2916Z" fill="#C9CED0"/>
<path d="M14 0H3.53846C3.19859 0 2.92308 0.158566 2.92308 0.354167C2.92308 0.549768 3.19859 0.708333 3.53846 0.708333H14C14.3399 0.708333 14.6154 0.549768 14.6154 0.354167C14.6154 0.158566 14.3399 0 14 0Z" fill="#5B5855"/>
<path d="M14 16.2917H3.53846C3.19859 16.2917 2.92308 16.4503 2.92308 16.6459C2.92308 16.8415 3.19859 17.0001 3.53846 17.0001H14C14.3399 17.0001 14.6154 16.8415 14.6154 16.6459C14.6154 16.4503 14.3399 16.2917 14 16.2917Z" fill="#7D7B79"/>
<path d="M4.82763 16.2916L7.91347 14.1027C8.16391 13.925 8.46282 13.8297 8.76924 13.8297C9.07565 13.8297 9.37456 13.925 9.62501 14.1027L12.7108 16.2916H4.82763ZM4.38462 2.83325H13.1538C13.14 3.60115 12.9757 4.35875 12.6704 5.06263C12.365 5.76651 11.9246 6.40283 11.3744 6.93512L8.76923 8.6847L6.16405 6.93512C5.61384 6.40283 5.17343 5.76651 4.86808 5.06263C4.56273 4.35875 4.39844 3.60115 4.38462 2.83325Z" fill="#FD838A"/>
</svg>
