<svg width="17" height="16" viewBox="0 0 17 16" fill="none" xmlns="http://www.w3.org/2000/svg">
<path d="M1.24047 1.47574C1.67646 0.973466 2.22346 0.579656 2.83811 0.325534C3.45276 0.0714123 4.11815 -0.0360352 4.78154 0.0117105C5.44494 0.0594562 6.08809 0.261081 6.66001 0.600602C7.23193 0.940124 7.7169 1.40821 8.07647 1.96774C8.23149 2.18746 8.37276 2.41657 8.49947 2.65374C8.62617 2.41656 8.76744 2.18746 8.92247 1.96774C9.28201 1.40802 9.76702 0.939774 10.339 0.600131C10.911 0.260488 11.5543 0.0587936 12.2179 0.0110448C12.8814 -0.036704 13.5469 0.0708061 14.1617 0.325048C14.7764 0.57929 15.3235 0.97327 15.7595 1.47574C16.5759 2.42771 17.0171 3.64475 17.0005 4.89874C16.9483 6.44516 16.3298 7.91851 15.2625 9.03874C13.919 10.5031 12.4647 11.8618 10.9125 13.1027C10.2545 13.6637 9.57447 14.2427 8.85047 14.8767L8.82847 14.8957C8.73749 14.9748 8.62101 15.0184 8.50047 15.0184C8.37993 15.0184 8.26345 14.9748 8.17247 14.8957L8.15047 14.8767C7.42647 14.2427 6.75047 13.6637 6.08747 13.1027C4.53524 11.8618 3.08094 10.5031 1.73747 9.03874C0.670506 7.91836 0.0523463 6.44502 0.000470042 4.89874C-0.016459 3.64487 0.424411 2.42786 1.24047 1.47574ZM6.73447 12.3447C7.30147 12.8277 7.88547 13.3257 8.50047 13.8607C9.11547 13.3257 9.70047 12.8287 10.2665 12.3447C13.7215 9.40074 16.0005 7.45574 16.0005 4.89874C16.0169 3.88744 15.6642 2.9048 15.0085 2.13474C14.6718 1.74511 14.2484 1.44001 13.7722 1.24404C13.2961 1.04807 12.7805 0.966703 12.2672 1.0065C11.7538 1.0463 11.2569 1.20614 10.8167 1.47316C10.3764 1.74017 10.005 2.10689 9.73247 2.54374C9.40773 3.01151 9.15241 3.52382 8.97447 4.06474C8.9409 4.1637 8.87718 4.24965 8.79225 4.31052C8.70733 4.37139 8.60546 4.40413 8.50097 4.40413C8.39648 4.40413 8.29461 4.37139 8.20969 4.31052C8.12476 4.24965 8.06104 4.1637 8.02747 4.06474C7.84777 3.52536 7.59113 3.01476 7.26547 2.54874C6.96909 2.0856 6.56351 1.70233 6.08436 1.4326C5.60522 1.16286 5.06717 1.01491 4.51747 1.00174C4.03925 0.997609 3.56576 1.09669 3.12931 1.29222C2.69286 1.48775 2.30373 1.77512 1.98847 2.13474C1.33415 2.90538 0.98293 3.88795 1.00047 4.89874C1.00047 7.45574 3.27947 9.40074 6.73447 12.3447Z" fill="#ED5F67"/>
</svg>
