<svg width="54" height="77" viewBox="0 0 54 77" fill="none" xmlns="http://www.w3.org/2000/svg">
<g filter="url(#filter0_i)">
<path d="M39.8085 67.713C38.7055 69.4938 38.7348 71.5753 39.8918 73.4323C40.5095 74.4408 41.4068 75.2797 42.4917 75.8633C43.5767 76.4468 44.8103 76.7539 46.0662 76.7531C47.3222 76.7523 48.5554 76.4437 49.6395 75.8589C50.7236 75.274 51.6196 74.4339 52.2359 73.4246C53.3858 71.574 53.4136 69.5047 52.3127 67.739L46.0589 59.7034L39.8085 67.713Z" fill="#F46666"/>
</g>
<path d="M14.9414 41.6189H12.4805V44.699H14.9414V41.6189Z" fill="#B5A9A9"/>
<path d="M22.0605 70.9362C18.1673 70.9362 14.9414 68.0153 14.9414 64.4249V55.8845H12.4805V64.4249C12.4805 69.2666 16.8103 73.2057 22.0605 73.2057C27.3108 73.2057 31.6406 69.2664 31.6406 64.4249V48.0457C31.6406 46.4334 32.3351 44.8871 33.5713 43.7471C34.8075 42.607 36.4842 41.9666 38.2324 41.9666C39.9807 41.9666 41.6573 42.607 42.8935 43.7471C44.1297 44.8871 44.8242 46.4334 44.8242 48.0457V53.9391H47.2852V48.0457C47.2852 45.8315 46.3314 43.708 44.6337 42.1423C42.936 40.5766 40.6334 39.697 38.2324 39.697C35.8315 39.697 33.5289 40.5766 31.8312 42.1423C30.1335 43.708 29.1797 45.8315 29.1797 48.0457V64.4249C29.1797 68.0153 25.9538 70.9362 22.0605 70.9362Z" fill="#969090" fill-opacity="0.76"/>
<path d="M16.3477 53.7771H11.0742V54.7498H16.3477V53.7771Z" fill="#A49F9F"/>
<path d="M16.3477 45.8337H11.0742V51.5076H16.3477V45.8337Z" fill="#959090"/>
<path d="M10.9225 38.7009C11.1501 39.2229 11.5419 39.6703 12.0475 39.9853C12.553 40.3004 13.1492 40.4687 13.7594 40.4687C14.3695 40.4687 14.9657 40.3004 15.4713 39.9853C15.9768 39.6703 16.3686 39.2229 16.5962 38.7009H10.9225ZM5.92154 36.4313H21.6761C22.4537 36.4313 23.2238 36.2901 23.9422 36.0156C24.6606 35.7412 25.3134 35.3389 25.8633 34.8318C26.4131 34.3247 26.8493 33.7227 27.1469 33.0602C27.4445 32.3976 27.5977 31.6875 27.5977 30.9703V10.7673C27.5977 9.31896 26.9738 7.92994 25.8633 6.90581C24.7528 5.88168 23.2466 5.30633 21.6761 5.30633H5.92154C4.35105 5.30633 2.84488 5.88168 1.73438 6.90581C0.623875 7.92994 0 9.31896 0 10.7673V30.9703C0 31.6875 0.153165 32.3976 0.450751 33.0602C0.748336 33.7227 1.18451 34.3247 1.73438 34.8318C2.28425 35.3389 2.93703 35.7412 3.65547 36.0156C4.3739 36.2901 5.14391 36.4313 5.92154 36.4313V36.4313ZM9.84375 18.5993H12.4805V15.8434C12.4805 15.5425 12.6101 15.2538 12.8409 15.041C13.0716 14.8282 13.3846 14.7087 13.7109 14.7087C14.0373 14.7087 14.3503 14.8282 14.581 15.041C14.8118 15.2538 14.9414 15.5425 14.9414 15.8434V18.5993H17.9297C18.256 18.5993 18.569 18.7188 18.7998 18.9317C19.0305 19.1445 19.1602 19.4331 19.1602 19.7341C19.1602 20.035 19.0305 20.3237 18.7998 20.5365C18.569 20.7493 18.256 20.8688 17.9297 20.8688H14.9414V23.3005C14.9414 23.6014 14.8118 23.8901 14.581 24.1029C14.3503 24.3157 14.0373 24.4352 13.7109 24.4352C13.3846 24.4352 13.0716 24.3157 12.8409 24.1029C12.6101 23.8901 12.4805 23.6014 12.4805 23.3005V20.8688H9.84375C9.51741 20.8688 9.20443 20.7493 8.97368 20.5365C8.74292 20.3237 8.61328 20.035 8.61328 19.7341C8.61328 19.4331 8.74292 19.1445 8.97368 18.9317C9.20443 18.7188 9.51741 18.5993 9.84375 18.5993V18.5993ZM13.7595 3.00713C14.0819 3.0071 14.3971 2.91888 14.6652 2.75364C14.9333 2.5884 15.1422 2.35356 15.2656 2.0788C15.389 1.80405 15.4212 1.50173 15.3583 1.21008C15.2953 0.918418 15.14 0.650525 14.912 0.44027C14.684 0.230015 14.3934 0.0868435 14.0772 0.0288596C13.7609 -0.0291243 13.4331 0.000683997 13.1352 0.114515C12.8373 0.228346 12.5827 0.421087 12.4036 0.668364C12.2245 0.915642 12.1289 1.20635 12.1289 1.50373C12.1294 1.90237 12.3014 2.28454 12.6071 2.56639C12.9128 2.84824 13.3272 3.00674 13.7595 3.00713Z" fill="#44BCEF" fill-opacity="0.85"/>
<defs>
<filter id="filter0_i" x="39.0021" y="59.7034" width="14.1167" height="21.0498" filterUnits="userSpaceOnUse" color-interpolation-filters="sRGB">
<feFlood flood-opacity="0" result="BackgroundImageFix"/>
<feBlend mode="normal" in="SourceGraphic" in2="BackgroundImageFix" result="shape"/>
<feColorMatrix in="SourceAlpha" type="matrix" values="0 0 0 0 0 0 0 0 0 0 0 0 0 0 0 0 0 0 127 0" result="hardAlpha"/>
<feOffset dy="4"/>
<feGaussianBlur stdDeviation="2"/>
<feComposite in2="hardAlpha" operator="arithmetic" k2="-1" k3="1"/>
<feColorMatrix type="matrix" values="0 0 0 0 0 0 0 0 0 0 0 0 0 0 0 0 0 0 0.25 0"/>
<feBlend mode="normal" in2="shape" result="effect1_innerShadow"/>
</filter>
</defs>
</svg>
