<svg width="20" height="22" viewBox="0 0 20 22" fill="none" xmlns="http://www.w3.org/2000/svg">
<path d="M19.1667 2.75H3.05556C2.59531 2.75 2.22222 3.2117 2.22222 3.78125V4.125H0.833333C0.37309 4.125 0 4.5867 0 5.15625V16.8438C0 18.1727 0.870556 19.25 1.94444 19.25H18.3333C19.2538 19.25 20 18.3266 20 17.1875V3.78125C20 3.2117 19.6269 2.75 19.1667 2.75ZM1.94444 17.1875C1.87077 17.1875 1.80012 17.1513 1.74803 17.0868C1.69593 17.0224 1.66667 16.9349 1.66667 16.8438V6.1875H2.22222V16.8438C2.22222 16.9349 2.19296 17.0224 2.14086 17.0868C2.08877 17.1513 2.01812 17.1875 1.94444 17.1875ZM10.1389 16.5H4.86111C4.63101 16.5 4.44444 16.2691 4.44444 15.9844V15.6406C4.44444 15.3559 4.63101 15.125 4.86111 15.125H10.1389C10.369 15.125 10.5556 15.3559 10.5556 15.6406V15.9844C10.5556 16.2691 10.369 16.5 10.1389 16.5ZM17.3611 16.5H12.0833C11.8532 16.5 11.6667 16.2691 11.6667 15.9844V15.6406C11.6667 15.3559 11.8532 15.125 12.0833 15.125H17.3611C17.5912 15.125 17.7778 15.3559 17.7778 15.6406V15.9844C17.7778 16.2691 17.5912 16.5 17.3611 16.5ZM10.1389 12.375H4.86111C4.63101 12.375 4.44444 12.1441 4.44444 11.8594V11.5156C4.44444 11.2309 4.63101 11 4.86111 11H10.1389C10.369 11 10.5556 11.2309 10.5556 11.5156V11.8594C10.5556 12.1441 10.369 12.375 10.1389 12.375ZM17.3611 12.375H12.0833C11.8532 12.375 11.6667 12.1441 11.6667 11.8594V11.5156C11.6667 11.2309 11.8532 11 12.0833 11H17.3611C17.5912 11 17.7778 11.2309 17.7778 11.5156V11.8594C17.7778 12.1441 17.5912 12.375 17.3611 12.375ZM17.3611 8.25H4.86111C4.63101 8.25 4.44444 8.01913 4.44444 7.73438V6.01562C4.44444 5.73087 4.63101 5.5 4.86111 5.5H17.3611C17.5912 5.5 17.7778 5.73087 17.7778 6.01562V7.73438C17.7778 8.01913 17.5912 8.25 17.3611 8.25Z" fill="#716A6A" fill-opacity="0.68"/>
</svg>
