<svg width="39" height="45" viewBox="0 0 39 45" fill="none" xmlns="http://www.w3.org/2000/svg">
<g filter="url(#filter0_d)">
<path d="M30.2562 11.0206L20.3541 0.806967C19.8164 0.285421 18.9203 0.285419 18.3827 0.806962L8.48065 11.0205C2.47671 17.0617 2.52154 26.6234 8.5255 32.6646C14.5295 38.4451 24.2075 38.4451 30.2114 32.6647C36.2153 26.6235 36.2601 17.0618 30.2562 11.0206ZM29.2257 21.7122C29.2257 26.5365 24.7451 31.1 20.0405 31.1C19.2788 31.1 18.6964 30.535 18.6964 29.7962C18.6516 29.1008 19.234 28.5358 19.9509 28.4923C19.9957 28.4923 19.9957 28.4923 20.0405 28.4923C23.2665 28.4923 26.5373 25.0588 26.5373 21.7122C26.5373 20.9734 27.1198 20.4084 27.8815 20.4084C28.5984 20.3649 29.1808 20.9299 29.2257 21.6253C29.2257 21.6688 29.2257 21.6688 29.2257 21.7122Z" fill="#E10108"/>
</g>
<path d="M30.2562 11.0206L20.3541 0.806967C19.8164 0.285421 18.9203 0.285419 18.3827 0.806962L8.48065 11.0205C2.47671 17.0617 2.52154 26.6234 8.5255 32.6646C14.5295 38.4451 24.2075 38.4451 30.2114 32.6647C36.2153 26.6235 36.2601 17.0618 30.2562 11.0206ZM29.2257 21.7122C29.2257 26.5365 24.7451 31.1 20.0405 31.1C19.2788 31.1 18.6964 30.535 18.6964 29.7962C18.6516 29.1008 19.234 28.5358 19.9509 28.4923C19.9957 28.4923 19.9957 28.4923 20.0405 28.4923C23.2665 28.4923 26.5373 25.0588 26.5373 21.7122C26.5373 20.9734 27.1198 20.4084 27.8815 20.4084C28.5984 20.3649 29.1808 20.9299 29.2257 21.6253C29.2257 21.6688 29.2257 21.6688 29.2257 21.7122Z" fill="#FCF7F7" fill-opacity="0.96"/>
<path d="M35 8.93824C35 13.1041 31.6662 16.4607 27.5789 16.4607C23.4917 16.4607 20.1579 13.1041 20.1579 8.93824C20.1579 4.77238 23.4917 1.41577 27.5789 1.41577C31.6662 1.41577 35 4.77238 35 8.93824Z" fill="#979191" fill-opacity="0.94" stroke="#FFF9F9" stroke-width="2"/>
<path d="M13.0899 19.8286H9.23444L8.4278 22.146H6.62994L10.3897 12.1929H11.9415L15.7081 22.146H13.9034L13.0899 19.8286ZM9.71979 18.4341H12.6046L11.1622 14.3052L9.71979 18.4341ZM16.8428 22.146V12.1929H20.254C21.3796 12.1929 22.2364 12.4185 22.8243 12.8696C23.4122 13.3208 23.7061 13.993 23.7061 14.8862C23.7061 15.342 23.5831 15.7521 23.337 16.1167C23.0909 16.4813 22.7309 16.7638 22.2569 16.9644C22.7947 17.1102 23.2094 17.3859 23.501 17.7915C23.7973 18.1925 23.9454 18.6756 23.9454 19.2407C23.9454 20.175 23.6446 20.8927 23.043 21.394C22.446 21.8953 21.5893 22.146 20.4727 22.146H16.8428ZM18.5723 17.6548V20.7651H20.4932C21.0355 20.7651 21.4594 20.6307 21.7647 20.3618C22.07 20.0929 22.2227 19.7192 22.2227 19.2407C22.2227 18.2062 21.6941 17.6776 20.6368 17.6548H18.5723ZM18.5723 16.3833H20.2676C20.8054 16.3833 21.2247 16.2625 21.5255 16.021C21.8308 15.7749 21.9835 15.4285 21.9835 14.9819C21.9835 14.4897 21.8422 14.1343 21.5596 13.9155C21.2816 13.6968 20.8464 13.5874 20.254 13.5874H18.5723V16.3833Z" fill="#6A6868"/>
<path d="M28.2138 7.04053H30.5927V8.06592H28.2138V10.7612H27.124V8.06592H24.745V7.04053H27.124V4.55029H28.2138V7.04053Z" fill="#F7F9FB"/>
<defs>
<filter id="filter0_d" x="6.10352e-05" y="0.415771" width="38.7368" height="44.5842" filterUnits="userSpaceOnUse" color-interpolation-filters="sRGB">
<feFlood flood-opacity="0" result="BackgroundImageFix"/>
<feColorMatrix in="SourceAlpha" type="matrix" values="0 0 0 0 0 0 0 0 0 0 0 0 0 0 0 0 0 0 127 0"/>
<feOffset dy="4"/>
<feGaussianBlur stdDeviation="2"/>
<feColorMatrix type="matrix" values="0 0 0 0 0 0 0 0 0 0 0 0 0 0 0 0 0 0 0.25 0"/>
<feBlend mode="normal" in2="BackgroundImageFix" result="effect1_dropShadow"/>
<feBlend mode="normal" in="SourceGraphic" in2="effect1_dropShadow" result="shape"/>
</filter>
</defs>
</svg>
