<svg width="375" height="307" viewBox="0 0 375 307" fill="none" xmlns="http://www.w3.org/2000/svg">
<path d="M447 56.6528C447 177.714 335.927 240 183.43 240C30.9318 240 -79 177.714 -79 56.6528C-79 -64.4089 30.9318 46.2098 183.43 46.2098C335.927 46.2098 447 -64.4088 447 56.6528Z" fill="#EC2727" fill-opacity="0.77"/>
<path opacity="0.4" d="M381 124.455C229.639 18.0231 165.095 183.388 -2.60649 134.843C-3.49189 136.711 -2.60649 307 -2.60649 307H380.996C380.996 307 380.886 123.522 381 124.455Z" fill="white" fill-opacity="0.35"/>
<path opacity="0.19" d="M-5.99537 34.7491C159.056 17.1475 79.1654 152.212 375.641 36.5888C376.513 38.3105 374.636 244.998 374.636 244.998L-7.00001 243.158C-7.00001 243.158 -5.87782 33.8947 -5.99537 34.7491Z" fill="white"/>
</svg>
