<svg width="15" height="14" viewBox="0 0 15 14" fill="none" xmlns="http://www.w3.org/2000/svg">
<path d="M0.341714 5.30151C0.398714 5.32451 0.851723 4.85962 0.851723 4.85962L4.9307 4.07764L6.39567 0.869629L7.07169 0.269531L8.04569 1.22046L9.51872 4.38257L13.7817 4.9375V5.97949L10.7427 8.69849L11.5867 12.3396L11.2177 13.2876L7.07072 11.2476L2.88969 13.2876L3.29765 8.69849C3.29765 8.69849 0.285714 5.27851 0.341714 5.30151Z" fill="url(#paint0_linear)"/>
<path d="M13.8996 6.17148C14.0358 6.03874 14.132 5.87056 14.1776 5.68596C14.2231 5.50136 14.2161 5.3077 14.1573 5.12688C14.0985 4.94606 13.9903 4.78529 13.8449 4.66275C13.6996 4.54022 13.5228 4.4608 13.3346 4.43348L9.89963 3.93248C9.82738 3.92212 9.75875 3.8943 9.69968 3.85143C9.64061 3.80857 9.59288 3.75195 9.56063 3.68648L8.01963 0.568484C7.93552 0.397859 7.80534 0.254182 7.64381 0.153715C7.48228 0.053247 7.29585 0 7.10563 0C6.9154 0 6.72897 0.053247 6.56744 0.153715C6.40591 0.254182 6.27573 0.397859 6.19163 0.568484L4.65263 3.68648C4.6203 3.7519 4.57255 3.80847 4.51349 3.85133C4.45443 3.89418 4.38584 3.92204 4.31363 3.93248L0.872626 4.43248C0.68434 4.45981 0.507466 4.53931 0.362028 4.66197C0.216591 4.78464 0.1084 4.94557 0.049704 5.12655C-0.00899183 5.30753 -0.0158479 5.50133 0.0299121 5.686C0.0756721 5.87067 0.17222 6.03885 0.308626 6.17148L2.79963 8.59748C2.85216 8.64858 2.89146 8.7117 2.91411 8.7814C2.93676 8.8511 2.94209 8.92527 2.92963 8.99748L2.33963 12.4235C2.30746 12.6109 2.32841 12.8036 2.40008 12.9798C2.47176 13.156 2.59131 13.3086 2.7452 13.4203C2.8991 13.5321 3.0812 13.5985 3.2709 13.6122C3.4606 13.6258 3.65033 13.5861 3.81863 13.4975L6.89963 11.8795C6.96423 11.8455 7.03613 11.8277 7.10913 11.8277C7.18212 11.8277 7.25402 11.8455 7.31863 11.8795L10.3966 13.4975C10.5649 13.5861 10.7547 13.6258 10.9444 13.6122C11.1341 13.5985 11.3162 13.5321 11.4701 13.4203C11.6239 13.3086 11.7435 13.156 11.8152 12.9798C11.8868 12.8036 11.9078 12.6109 11.8756 12.4235L11.2876 8.99648C11.2751 8.92426 11.2804 8.85007 11.303 8.78036C11.3257 8.71065 11.365 8.64753 11.4176 8.59648L13.8996 6.17148ZM10.7196 9.09348L11.3076 12.5205C11.322 12.6033 11.3128 12.6885 11.2813 12.7664C11.2497 12.8443 11.1969 12.9117 11.1289 12.9612C11.061 13.0106 10.9805 13.04 10.8967 13.0461C10.8129 13.0522 10.729 13.0346 10.6546 12.9955L7.57963 11.3755C7.43331 11.2985 7.27046 11.2583 7.10513 11.2583C6.93979 11.2583 6.77694 11.2985 6.63063 11.3755L5.48263 10.5945C4.72568 11.4253 3.92452 12.2148 3.08263 12.9595C2.94063 12.8595 3.61363 12.2255 3.64363 12.0525L3.49163 9.09248C3.51923 8.92996 3.50699 8.76316 3.45596 8.6064C3.40493 8.44964 3.31662 8.30761 3.19863 8.19248L0.705626 5.76348C0.645377 5.70492 0.602729 5.63065 0.58251 5.5491C0.562292 5.46754 0.56531 5.38196 0.591224 5.30203C0.617139 5.2221 0.664913 5.15102 0.729138 5.09685C0.793363 5.04267 0.871474 5.00756 0.954626 4.99548L4.39563 4.49548C4.55906 4.47182 4.71429 4.40874 4.84791 4.3117C4.98154 4.21467 5.08955 4.08658 5.16263 3.93848L6.69963 0.820484C6.73679 0.745204 6.79428 0.681823 6.86558 0.637505C6.93689 0.593188 7.01917 0.569701 7.10313 0.569701C7.18708 0.569701 7.26936 0.593188 7.34067 0.637505C7.41197 0.681823 7.46946 0.745204 7.50663 0.820484L9.04763 3.93848C9.12064 4.08663 9.22863 4.21476 9.36226 4.31181C9.4959 4.40886 9.65116 4.4719 9.81463 4.49548L13.2556 4.99548C13.3388 5.00756 13.4169 5.04267 13.4811 5.09685C13.5453 5.15102 13.5931 5.2221 13.619 5.30203C13.6449 5.38196 13.648 5.46754 13.6277 5.5491C13.6075 5.63065 13.5649 5.70492 13.5046 5.76348L11.0146 8.19048C10.8965 8.30591 10.8082 8.44832 10.7573 8.60546C10.7065 8.76259 10.6946 8.92973 10.7226 9.09248L10.7196 9.09348Z" fill="url(#paint1_linear)"/>
<defs>
<linearGradient id="paint0_linear" x1="7.0613" y1="0.269531" x2="7.0613" y2="13.2876" gradientUnits="userSpaceOnUse">
<stop stop-color="#DB6A6A"/>
<stop offset="0.9999" stop-color="#F9A9A9" stop-opacity="0.9375"/>
<stop offset="1" stop-color="#9D8F8F" stop-opacity="0"/>
</linearGradient>
<linearGradient id="paint1_linear" x1="7.10361" y1="0" x2="7.10361" y2="13.6148" gradientUnits="userSpaceOnUse">
<stop stop-color="#DB6A6A"/>
<stop offset="0.9999" stop-color="#F9A9A9" stop-opacity="0.9375"/>
<stop offset="1" stop-color="#9D8F8F" stop-opacity="0"/>
</linearGradient>
</defs>
</svg>
