<svg width="40" height="35" viewBox="0 0 40 35" fill="none" xmlns="http://www.w3.org/2000/svg">
<path d="M28.3333 3.64583C28.3333 2.84042 27.5872 2.1875 26.6667 2.1875C25.7462 2.1875 25 2.84042 25 3.64583V4.375H15V3.64583C15 2.84042 14.2538 2.1875 13.3333 2.1875C12.4129 2.1875 11.6667 2.84042 11.6667 3.64583V4.375H8.33333C6.49238 4.375 5 5.68084 5 7.29167V10.2083H35V7.29167C35 5.68084 33.5077 4.375 31.6667 4.375H28.3333V3.64583Z" fill="#F39494"/>
<path fill-rule="evenodd" clip-rule="evenodd" d="M35 13.125H5V27.7083C5 29.3192 6.49238 30.625 8.33333 30.625H31.6667C33.5077 30.625 35 29.3192 35 27.7083V13.125ZM13.0445 17.1786C11.2074 18.6944 11.2074 21.152 13.0445 22.6679L18.547 27.2078C19.3558 27.8752 20.6442 27.8752 21.453 27.2078L26.9555 22.6679C28.7927 21.152 28.7927 18.6944 26.9555 17.1786C25.1183 15.6626 22.1397 15.6626 20.3023 17.1786L20 17.4281L19.6977 17.1786C17.8603 15.6626 14.8817 15.6626 13.0445 17.1786Z" fill="#F39494"/>
</svg>
