<svg width="22" height="23" viewBox="0 0 22 23" fill="none" xmlns="http://www.w3.org/2000/svg">
<path d="M21.45 20.125H18.7V5.09635C18.7 3.87178 17.9599 2.87496 17.05 2.87496H13.2V5.74997H16.5V23H21.45C21.7539 23 22 22.6784 22 22.2812V20.8437C22 20.4466 21.7539 20.125 21.45 20.125ZM10.7332 0.0453274L4.13325 2.27975C3.64341 2.44551 3.3 3.04117 3.3 3.72489V20.125H0.55C0.246125 20.125 0 20.4466 0 20.8437V22.2812C0 22.6784 0.246125 23 0.55 23H12.1V1.49047C12.1 0.521051 11.4276 -0.190064 10.7332 0.0453274V0.0453274ZM9.075 12.9375C8.61953 12.9375 8.25 12.2937 8.25 11.5C8.25 10.7062 8.61953 10.0625 9.075 10.0625C9.53047 10.0625 9.9 10.7062 9.9 11.5C9.9 12.2937 9.53047 12.9375 9.075 12.9375Z" fill="#6C6969" fill-opacity="0.81"/>
</svg>
