<svg xmlns="http://www.w3.org/2000/svg" width="49.947" height="59.326" viewBox="0 0 49.947 59.326">
  <path id="Path_1" data-name="Path 1" d="M42.666,17.871,26.575,1.308a2.34,2.34,0,0,0-3.2,0L7.281,17.871a24.7,24.7,0,0,0,.073,35.1,25.6,25.6,0,0,0,35.24,0A24.7,24.7,0,0,0,42.666,17.871ZM40.992,35.209c0,7.823-7.281,15.223-14.926,15.223a2.112,2.112,0,0,1-2.184-2.114A2.074,2.074,0,0,1,25.92,46.2h.146c5.242,0,10.557-5.568,10.557-10.995a2.112,2.112,0,0,1,2.184-2.114,2.086,2.086,0,0,1,2.184,1.973Z" transform="translate(0 -0.674)" fill="rgba(255,185,185,0.81)"/>
</svg>
