<svg xmlns="http://www.w3.org/2000/svg" width="26.808" height="26.287" viewBox="0 0 26.808 26.287">
  <g id="Group_4" data-name="Group 4" transform="translate(0 -0.524)">
    <path id="Path_7" data-name="Path 7" d="M13.4,26.812a13.276,13.276,0,0,0,13.4-13.144A13.276,13.276,0,0,0,13.4.524,13.276,13.276,0,0,0,0,13.668,13.276,13.276,0,0,0,13.4,26.812Z" fill="#fff9f9"/>
    <path id="Path_8" data-name="Path 8" d="M16.774,14.183H14.382v8.592H10.758V14.183H9.035v-3.02h1.723V9.209a3.36,3.36,0,0,1,3.656-3.585l2.684.011V8.566H15.151a.73.73,0,0,0-.769.823v1.777H17.09Z" fill="#817e7e"/>
  </g>
</svg>
