<svg width="375" height="234" viewBox="0 0 375 234" fill="none" xmlns="http://www.w3.org/2000/svg">
<path opacity="0.5" d="M13.087 82.0565C-5.68116 93.0809 -24.2705 110.306 -40 126.843V437H404V12.4656C395.42 1.44125 382.908 -0.396131 377.725 0.0632151C345.551 2.81929 367.447 53.8401 325.204 57.9817C290.787 61.3559 291.287 71.2613 286.833 79.5177C277.717 100.877 271.759 98.5688 267.648 99.9711C237.083 99.9711 223.933 57.8031 200.768 62.764C177.603 67.7249 168.594 66.2091 166.449 64.142C159.299 58.8596 138.516 44.0821 120.87 49.6726C103.356 55.2211 90.7909 106.783 69.3913 99.9711C24.8841 66.6116 23.2754 77.2334 13.087 82.0565Z" fill="url(#paint0_linear)"/>
<path d="M18.2065 101.864C-0.603863 114.34 -19.2351 133.835 -35 152.549V375H410V23.1074C401.401 10.6311 388.861 8.55169 383.665 9.07154C351.419 12.1906 373.365 69.9314 331.026 74.6184C296.532 78.4371 297.033 89.647 292.569 98.9909C283.433 123.164 277.461 120.551 273.341 122.138C242.707 122.138 229.528 74.4163 206.31 80.0306C183.093 85.6449 174.064 83.9294 171.914 81.5901C164.748 75.6119 143.918 58.8881 126.232 65.215C108.679 71.4943 96.0854 129.847 74.6377 122.138C30.0302 84.3849 28.4179 96.4058 18.2065 101.864Z" fill="url(#paint1_linear)"/>
<defs>
<linearGradient id="paint0_linear" x1="182.592" y1="-15.1084" x2="183.074" y2="182.81" gradientUnits="userSpaceOnUse">
<stop stop-color="#FF0606"/>
<stop offset="0.255208" stop-color="#F80C0C" stop-opacity="0.67"/>
<stop offset="1" stop-color="#F3B7B7" stop-opacity="0"/>
<stop offset="1" stop-color="#CF3E3E" stop-opacity="0"/>
</linearGradient>
<linearGradient id="paint1_linear" x1="188.093" y1="-8.09827" x2="189.077" y2="349.589" gradientUnits="userSpaceOnUse">
<stop stop-color="#EC2727" stop-opacity="0.65"/>
<stop offset="0.291667" stop-color="#EC2727" stop-opacity="0.59"/>
<stop offset="1" stop-color="#F44141" stop-opacity="0"/>
</linearGradient>
</defs>
</svg>
