<svg width="375" height="497" viewBox="0 0 375 497" fill="none" xmlns="http://www.w3.org/2000/svg">
<path fill-rule="evenodd" clip-rule="evenodd" d="M-1.62222 268.645L-4 0C10.3273 0 25.7684 96.9095 45.2694 128.062C82.3866 187.356 158.216 189.027 182.299 203.78C236.796 237.164 238.507 304.78 296.626 308.194C350.208 311.342 379.469 370.572 393 378.36L353.376 377.678H327.905H314.374C300.843 377.678 272.984 377.678 245.921 377.678C218.063 377.678 191 377.678 163.142 377.678C136.079 377.678 108.22 377.678 81.1577 377.678C53.2991 377.678 26.2364 377.678 11.9091 377.678H-1.62222V268.645Z" fill="#EC7676"/>
<ellipse cx="5.5" cy="278" rx="48.5" ry="55" fill="#F3B4B4" fill-opacity="0.25"/>
<ellipse cx="18" cy="219.5" rx="61" ry="61.5" fill="#E85555" fill-opacity="0.24"/>
<ellipse cx="285" cy="405" rx="101" ry="92" fill="#F38A8A" fill-opacity="0.45"/>
</svg>
