<svg width="375" height="752" viewBox="0 0 375 752" fill="none" xmlns="http://www.w3.org/2000/svg">
<path fill-rule="evenodd" clip-rule="evenodd" d="M-1.62222 268.645L-4 0C10.3273 0 25.7684 96.9095 45.2694 128.062C82.3866 187.356 158.216 189.027 182.299 203.78C236.796 237.164 238.507 304.78 296.626 308.194C350.208 311.342 379.469 370.572 393 378.36L353.376 377.678H327.905H314.374C300.843 377.678 272.984 377.678 245.921 377.678C218.063 377.678 191 377.678 163.142 377.678C136.079 377.678 108.22 377.678 81.1577 377.678C53.2991 377.678 26.2364 377.678 11.9091 377.678H-1.62222V268.645Z" fill="#EC7676"/>
<ellipse cx="5.5" cy="278" rx="48.5" ry="55" fill="#F3B4B4" fill-opacity="0.25"/>
<ellipse cx="18" cy="219.5" rx="61" ry="61.5" fill="#E85555" fill-opacity="0.24"/>
<path fill-rule="evenodd" clip-rule="evenodd" d="M388.066 482.366L389.999 751.014C375.672 750.991 360.391 654.056 340.942 622.872C303.923 563.517 228.096 561.72 204.037 546.927C149.596 513.453 147.996 445.835 89.8828 442.325C36.3069 439.088 7.14368 379.81 -6.37476 372L33.2481 372.747L72.2501 372.812C85.7814 372.834 113.64 372.88 140.703 372.925C168.561 372.971 195.106 372.333 222.965 372.379C250.028 372.424 278.403 373.152 305.466 373.197C333.325 373.243 360.387 373.288 374.714 373.311L388.246 373.334L388.066 482.366Z" fill="#EC7676"/>
<ellipse cx="380.5" cy="453" rx="63.5" ry="60" fill="#E85555" fill-opacity="0.32"/>
<ellipse cx="285" cy="405" rx="101" ry="92" fill="#F38A8A" fill-opacity="0.45"/>
<path d="M26.33 200.904C27.2393 201.168 27.936 201.63 28.42 202.29C28.9187 202.95 29.168 203.764 29.168 204.732C29.168 206.067 28.6913 207.115 27.738 207.878C26.7993 208.626 25.4867 209 23.8 209H16.694V193.336H23.58C25.1933 193.336 26.462 193.703 27.386 194.436C28.31 195.155 28.772 196.152 28.772 197.428C28.772 198.249 28.552 198.968 28.112 199.584C27.6867 200.185 27.0927 200.625 26.33 200.904ZM19.466 199.936H23.118C25.0833 199.936 26.066 199.203 26.066 197.736C26.066 197.003 25.824 196.453 25.34 196.086C24.856 195.719 24.1153 195.536 23.118 195.536H19.466V199.936ZM23.492 206.8C24.5187 206.8 25.2667 206.617 25.736 206.25C26.22 205.883 26.462 205.304 26.462 204.512C26.462 203.705 26.22 203.111 25.736 202.73C25.2667 202.349 24.5187 202.158 23.492 202.158H19.466V206.8H23.492ZM31.6855 192.808H34.4135V209H31.6855V192.808ZM42.4598 209.176C41.3304 209.176 40.3331 208.941 39.4678 208.472C38.6171 208.003 37.9571 207.335 37.4878 206.47C37.0331 205.59 36.8058 204.563 36.8058 203.39C36.8058 202.217 37.0331 201.197 37.4878 200.332C37.9571 199.452 38.6171 198.777 39.4678 198.308C40.3331 197.839 41.3304 197.604 42.4598 197.604C43.5744 197.604 44.5571 197.839 45.4078 198.308C46.2584 198.777 46.9111 199.452 47.3658 200.332C47.8351 201.197 48.0698 202.217 48.0698 203.39C48.0698 204.563 47.8351 205.59 47.3658 206.47C46.9111 207.335 46.2584 208.003 45.4078 208.472C44.5571 208.941 43.5744 209.176 42.4598 209.176ZM42.4378 207.02C43.3764 207.02 44.0878 206.719 44.5718 206.118C45.0704 205.502 45.3198 204.593 45.3198 203.39C45.3198 202.202 45.0704 201.3 44.5718 200.684C44.0731 200.053 43.3691 199.738 42.4598 199.738C41.5358 199.738 40.8244 200.053 40.3258 200.684C39.8271 201.3 39.5778 202.202 39.5778 203.39C39.5778 204.593 39.8198 205.502 40.3038 206.118C40.8024 206.719 41.5138 207.02 42.4378 207.02ZM55.4793 209.176C54.35 209.176 53.3526 208.941 52.4873 208.472C51.6366 208.003 50.9766 207.335 50.5073 206.47C50.0526 205.59 49.8253 204.563 49.8253 203.39C49.8253 202.217 50.0526 201.197 50.5073 200.332C50.9766 199.452 51.6366 198.777 52.4873 198.308C53.3526 197.839 54.35 197.604 55.4793 197.604C56.594 197.604 57.5766 197.839 58.4273 198.308C59.278 198.777 59.9306 199.452 60.3853 200.332C60.8546 201.197 61.0893 202.217 61.0893 203.39C61.0893 204.563 60.8546 205.59 60.3853 206.47C59.9306 207.335 59.278 208.003 58.4273 208.472C57.5766 208.941 56.594 209.176 55.4793 209.176ZM55.4573 207.02C56.396 207.02 57.1073 206.719 57.5913 206.118C58.09 205.502 58.3393 204.593 58.3393 203.39C58.3393 202.202 58.09 201.3 57.5913 200.684C57.0926 200.053 56.3886 199.738 55.4793 199.738C54.5553 199.738 53.844 200.053 53.3453 200.684C52.8466 201.3 52.5973 202.202 52.5973 203.39C52.5973 204.593 52.8393 205.502 53.3233 206.118C53.822 206.719 54.5333 207.02 55.4573 207.02ZM74.0868 192.808V209H71.3808V207.218C71.0435 207.834 70.5595 208.318 69.9288 208.67C69.2982 209.007 68.5795 209.176 67.7728 209.176C66.8195 209.176 65.9688 208.934 65.2208 208.45C64.4728 207.966 63.8862 207.284 63.4608 206.404C63.0502 205.509 62.8448 204.49 62.8448 203.346C62.8448 202.202 63.0502 201.197 63.4608 200.332C63.8715 199.467 64.4508 198.799 65.1988 198.33C65.9468 197.846 66.8048 197.604 67.7728 197.604C68.5648 197.604 69.2688 197.773 69.8848 198.11C70.5155 198.433 70.9995 198.895 71.3368 199.496V192.808H74.0868ZM68.4988 207.02C69.4082 207.02 70.1122 206.705 70.6108 206.074C71.1242 205.443 71.3808 204.549 71.3808 203.39C71.3808 202.231 71.1315 201.337 70.6328 200.706C70.1342 200.075 69.4302 199.76 68.5208 199.76C67.5968 199.76 66.8782 200.075 66.3648 200.706C65.8662 201.322 65.6168 202.202 65.6168 203.346C65.6168 204.505 65.8662 205.407 66.3648 206.052C66.8782 206.697 67.5895 207.02 68.4988 207.02ZM35.8742 236.198C34.3342 236.198 32.9849 235.868 31.8262 235.208C30.6822 234.548 29.8022 233.617 29.1862 232.414C28.5702 231.197 28.2622 229.774 28.2622 228.146C28.2622 226.533 28.5702 225.125 29.1862 223.922C29.8022 222.705 30.6822 221.773 31.8262 221.128C32.9849 220.468 34.3342 220.138 35.8742 220.138C36.9302 220.138 37.9202 220.307 38.8442 220.644C39.7829 220.967 40.5602 221.421 41.1762 222.008L40.2522 224.076C39.5482 223.504 38.8442 223.093 38.1402 222.844C37.4509 222.58 36.7102 222.448 35.9182 222.448C34.4076 222.448 33.2342 222.939 32.3982 223.922C31.5769 224.905 31.1662 226.313 31.1662 228.146C31.1662 229.994 31.5769 231.417 32.3982 232.414C33.2196 233.397 34.3929 233.888 35.9182 233.888C36.7102 233.888 37.4509 233.763 38.1402 233.514C38.8442 233.25 39.5482 232.832 40.2522 232.26L41.1762 234.328C40.5602 234.915 39.7829 235.377 38.8442 235.714C37.9202 236.037 36.9302 236.198 35.8742 236.198ZM53.1399 230.588H45.4839C45.5426 231.776 45.8359 232.656 46.3639 233.228C46.9066 233.785 47.7059 234.064 48.7619 234.064C49.9793 234.064 51.1086 233.668 52.1499 232.876L52.9419 234.768C52.4139 235.193 51.7613 235.538 50.9839 235.802C50.2213 236.051 49.4439 236.176 48.6519 236.176C46.8333 236.176 45.4033 235.663 44.3619 234.636C43.3206 233.609 42.7999 232.201 42.7999 230.412C42.7999 229.283 43.0273 228.278 43.4819 227.398C43.9366 226.518 44.5746 225.836 45.3959 225.352C46.2173 224.853 47.1486 224.604 48.1899 224.604C49.7153 224.604 50.9179 225.103 51.7979 226.1C52.6926 227.083 53.1399 228.439 53.1399 230.17V230.588ZM48.2559 226.584C47.5226 226.584 46.9213 226.804 46.4519 227.244C45.9973 227.669 45.7039 228.293 45.5719 229.114H50.7419C50.6539 228.278 50.3973 227.647 49.9719 227.222C49.5613 226.797 48.9893 226.584 48.2559 226.584ZM61.8267 224.604C64.4813 224.604 65.8087 226.129 65.8087 229.18V236H63.0587V229.312C63.0587 228.432 62.89 227.794 62.5527 227.398C62.2153 226.987 61.6947 226.782 60.9907 226.782C60.1547 226.782 59.48 227.053 58.9667 227.596C58.4533 228.124 58.1967 228.828 58.1967 229.708V236H55.4687V228.036C55.4687 226.863 55.41 225.814 55.2927 224.89H57.8667L58.0647 226.716C58.446 226.041 58.9593 225.521 59.6047 225.154C60.2647 224.787 61.0053 224.604 61.8267 224.604ZM72.2225 226.958V231.93C72.2225 233.235 72.8312 233.888 74.0485 233.888C74.3858 233.888 74.7525 233.829 75.1485 233.712V235.89C74.6645 236.066 74.0778 236.154 73.3885 236.154C72.1272 236.154 71.1592 235.802 70.4845 235.098C69.8098 234.394 69.4725 233.382 69.4725 232.062V226.958H67.3385V224.89H69.4725V222.184L72.2225 221.26V224.89H75.1705V226.958H72.2225ZM83.0445 224.626C83.4698 224.626 83.8365 224.685 84.1445 224.802L84.1225 227.31C83.6531 227.119 83.1691 227.024 82.6705 227.024C81.7318 227.024 81.0131 227.295 80.5145 227.838C80.0305 228.381 79.7885 229.099 79.7885 229.994V236H77.0605V228.036C77.0605 226.863 77.0018 225.814 76.8845 224.89H79.4585L79.6785 226.848C79.9571 226.129 80.3971 225.579 80.9985 225.198C81.5998 224.817 82.2818 224.626 83.0445 224.626ZM95.1848 230.588H87.5288C87.5875 231.776 87.8808 232.656 88.4088 233.228C88.9515 233.785 89.7508 234.064 90.8068 234.064C92.0242 234.064 93.1535 233.668 94.1948 232.876L94.9868 234.768C94.4588 235.193 93.8062 235.538 93.0288 235.802C92.2662 236.051 91.4888 236.176 90.6968 236.176C88.8782 236.176 87.4482 235.663 86.4068 234.636C85.3655 233.609 84.8448 232.201 84.8448 230.412C84.8448 229.283 85.0722 228.278 85.5268 227.398C85.9815 226.518 86.6195 225.836 87.4408 225.352C88.2622 224.853 89.1935 224.604 90.2348 224.604C91.7602 224.604 92.9628 225.103 93.8428 226.1C94.7375 227.083 95.1848 228.439 95.1848 230.17V230.588ZM90.3008 226.584C89.5675 226.584 88.9662 226.804 88.4968 227.244C88.0422 227.669 87.7488 228.293 87.6168 229.114H92.7868C92.6988 228.278 92.4422 227.647 92.0168 227.222C91.6062 226.797 91.0342 226.584 90.3008 226.584Z" fill="#FFF9F9"/>
<path d="M241 395.166L241.072 413.678L238.108 413.689L238.064 402.197L233.194 413.708L230.984 413.717L226 402.374L226.044 413.736L223.08 413.747L223.008 395.236L225.66 395.225L232.086 409.682L238.348 395.176L241 395.166ZM245.046 395.15L257.422 395.102L257.432 397.754L248.332 397.789L248.352 402.911L256.906 402.878L256.916 405.53L248.362 405.563L248.384 410.997L257.483 410.962L257.494 413.614L245.118 413.662L245.046 395.15ZM260.509 395.09L272.885 395.042L272.895 397.694L263.795 397.73L263.815 402.852L272.369 402.818L272.379 405.47L263.825 405.504L263.846 410.937L272.946 410.902L272.956 413.554L260.581 413.602L260.509 395.09ZM280.35 397.769L274.318 397.793L274.307 395.037L289.777 394.977L289.788 397.733L283.73 397.756L283.791 413.512L280.411 413.525L280.35 397.769ZM307.518 413.654C305.733 413.661 304.171 413.286 302.833 412.529C301.513 411.754 300.486 410.657 299.753 409.238C299.036 407.803 298.675 406.114 298.667 404.173C298.66 402.249 299.008 400.575 299.714 399.151C300.419 397.709 301.428 396.605 302.743 395.837C304.075 395.069 305.642 394.682 307.444 394.675C309.247 394.668 310.808 395.043 312.129 395.8C313.466 396.558 314.485 397.655 315.184 399.091C315.9 400.509 316.261 402.18 316.269 404.104C316.276 406.046 315.928 407.737 315.223 409.179C314.517 410.603 313.508 411.707 312.193 412.492C310.879 413.26 309.321 413.647 307.518 413.654ZM307.507 410.976C309.223 410.97 310.556 410.375 311.505 409.193C312.453 408.011 312.923 406.319 312.915 404.117C312.907 401.933 312.423 400.263 311.466 399.105C310.508 397.93 309.171 397.346 307.455 397.353C305.739 397.359 304.406 397.945 303.457 399.11C302.509 400.275 302.039 401.958 302.047 404.16C302.056 406.361 302.539 408.049 303.497 409.224C304.455 410.399 305.791 410.983 307.507 410.976ZM327.385 413.577C324.837 413.587 322.902 412.945 321.58 411.65C320.275 410.338 319.617 408.416 319.607 405.886L319.565 394.862L322.867 394.849L322.91 406.055C322.916 407.649 323.294 408.861 324.042 409.69C324.791 410.502 325.901 410.905 327.375 410.899C328.813 410.894 329.904 410.474 330.646 409.639C331.405 408.804 331.782 407.598 331.776 406.02L331.733 394.814L335.035 394.802L335.077 405.826C335.087 408.339 334.436 410.257 333.123 411.579C331.811 412.902 329.898 413.568 327.385 413.577ZM354.222 413.24L350.686 413.253L348.296 407.1C348.086 406.529 347.764 406.132 347.33 405.908C346.895 405.685 346.332 405.574 345.638 405.577L342.284 405.59L342.314 413.286L338.986 413.299L338.915 394.787L346.845 394.756C348.942 394.748 350.538 395.201 351.634 396.115C352.729 397.03 353.28 398.345 353.287 400.061C353.292 401.292 352.967 402.342 352.311 403.211C351.673 404.063 350.757 404.673 349.562 405.042C350.655 405.263 351.447 406.022 351.937 407.32L354.222 413.24ZM346.408 402.974C347.674 402.969 348.609 402.731 349.214 402.261C349.818 401.791 350.119 401.079 350.115 400.125C350.112 399.189 349.806 398.497 349.197 398.049C348.606 397.583 347.669 397.353 346.387 397.358L342.201 397.374L342.222 402.99L346.408 402.974Z" fill="#F3EFEF"/>
<path d="M253.466 426.118L253.537 444.63L250.21 444.643L250.178 436.609L240.688 436.645L240.72 444.679L237.418 444.692L237.346 426.18L240.648 426.167L240.678 433.915L250.168 433.879L250.138 426.131L253.466 426.118ZM257.481 426.102L269.856 426.054L269.867 428.706L260.767 428.742L260.787 433.864L269.341 433.83L269.351 436.482L260.797 436.515L260.818 441.949L269.918 441.914L269.928 444.566L257.552 444.614L257.481 426.102ZM288.251 444.495L284.715 444.509L282.325 438.356C282.115 437.785 281.793 437.388 281.358 437.164C280.924 436.94 280.36 436.83 279.667 436.832L276.313 436.845L276.343 444.541L273.015 444.554L272.943 426.042L280.873 426.012C282.971 426.004 284.567 426.457 285.663 427.371C286.758 428.286 287.309 429.601 287.316 431.317C287.321 432.547 286.995 433.597 286.34 434.467C285.702 435.318 284.786 435.929 283.591 436.297C284.684 436.518 285.476 437.278 285.966 438.576L288.251 444.495ZM280.437 434.229C281.702 434.225 282.637 433.987 283.242 433.517C283.847 433.046 284.148 432.334 284.144 431.381C284.14 430.445 283.834 429.753 283.226 429.305C282.635 428.839 281.698 428.608 280.415 428.613L276.229 428.63L276.251 434.246L280.437 434.229ZM299.361 444.686C297.575 444.693 296.014 444.318 294.676 443.56C293.356 442.785 292.329 441.689 291.595 440.27C290.879 438.834 290.517 437.146 290.51 435.204C290.502 433.28 290.851 431.606 291.556 430.182C292.261 428.741 293.271 427.636 294.586 426.869C295.917 426.101 297.484 425.713 299.287 425.706C301.09 425.699 302.651 426.075 303.972 426.832C305.309 427.59 306.327 428.686 307.026 430.122C307.742 431.541 308.104 433.212 308.112 435.136C308.119 437.078 307.77 438.769 307.065 440.21C306.36 441.634 305.35 442.739 304.036 443.524C302.722 444.292 301.163 444.679 299.361 444.686ZM299.35 442.008C301.066 442.002 302.399 441.407 303.347 440.225C304.296 439.042 304.766 437.351 304.758 435.149C304.749 432.965 304.266 431.294 303.308 430.137C302.35 428.962 301.013 428.378 299.297 428.384C297.581 428.391 296.249 428.977 295.3 430.142C294.351 431.307 293.881 432.99 293.89 435.191C293.898 437.393 294.382 439.081 295.339 440.256C296.297 441.431 297.634 442.015 299.35 442.008ZM311.511 425.893L323.887 425.845L323.898 428.497L314.798 428.532L314.817 433.654L323.371 433.621L323.382 436.273L314.828 436.306L314.849 441.74L323.949 441.705L323.959 444.357L311.583 444.405L311.511 425.893ZM333.059 444.556C331.637 444.561 330.302 444.376 329.053 443.999C327.82 443.623 326.77 443.081 325.9 442.373L327.035 439.925C327.939 440.598 328.877 441.097 329.849 441.422C330.838 441.73 331.913 441.882 333.074 441.878C334.357 441.873 335.344 441.644 336.036 441.19C336.745 440.737 337.098 440.103 337.094 439.288C337.092 438.595 336.76 438.067 336.1 437.706C335.457 437.327 334.39 436.976 332.898 436.652C330.574 436.159 328.881 435.515 327.821 434.722C326.76 433.929 326.227 432.769 326.221 431.244C326.217 430.152 326.508 429.18 327.094 428.329C327.68 427.477 328.509 426.807 329.582 426.317C330.672 425.827 331.928 425.58 333.349 425.574C334.649 425.569 335.881 425.764 337.044 426.158C338.224 426.535 339.188 427.069 339.936 427.759L338.827 430.207C337.176 428.896 335.353 428.245 333.36 428.252C332.164 428.257 331.22 428.512 330.529 429.017C329.837 429.505 329.493 430.174 329.496 431.023C329.499 431.751 329.805 432.305 330.413 432.684C331.038 433.063 332.097 433.414 333.589 433.738C335.133 434.096 336.391 434.489 337.364 434.919C338.336 435.331 339.083 435.874 339.606 436.548C340.128 437.205 340.392 438.036 340.395 439.041C340.4 440.151 340.109 441.122 339.523 441.957C338.937 442.774 338.09 443.41 336.982 443.865C335.875 444.319 334.567 444.55 333.059 444.556Z" fill="#604E4E"/>
</svg>
