<svg width="50" height="47" viewBox="0 0 50 47" fill="none" xmlns="http://www.w3.org/2000/svg">
<path d="M25.0314 25.9961L7.97165 45.9649C6.79252 47.345 4.88585 47.345 3.71927 45.9649L0.884345 42.6465C-0.294782 41.2663 -0.294782 39.0345 0.884345 37.669L12.9767 23.5147L0.884345 9.36036C-0.294782 7.98016 -0.294782 5.74836 0.884345 4.38285L3.70672 1.03515C4.88585 -0.345048 6.79252 -0.345048 7.95911 1.03515L25.0188 21.0039C26.2105 22.3841 26.2105 24.6159 25.0314 25.9961ZM49.1157 21.0039L32.0559 1.03515C30.8768 -0.345048 28.9701 -0.345048 27.8036 1.03515L24.9686 4.35348C23.7895 5.73368 23.7895 7.96548 24.9686 9.33099L37.061 23.4853L24.9686 37.6396C23.7895 39.0198 23.7895 41.2516 24.9686 42.6171L27.8036 45.9355C28.9827 47.3157 30.8894 47.3157 32.0559 45.9355L49.1157 25.9667C50.2948 24.6159 50.2948 22.3841 49.1157 21.0039Z" fill="url(#paint0_linear)"/>
<defs>
<linearGradient id="paint0_linear" x1="25" y1="0" x2="25" y2="47" gradientUnits="userSpaceOnUse">
<stop offset="0.161458" stop-color="#9F9999"/>
<stop offset="1" stop-color="#FD9696" stop-opacity="0.79"/>
</linearGradient>
</defs>
</svg>
