<svg xmlns="http://www.w3.org/2000/svg" width="26.808" height="26.287" viewBox="0 0 26.808 26.287">
  <g id="Group_3" data-name="Group 3" transform="translate(0 -0.017)">
    <path id="Path_5" data-name="Path 5" d="M13.4,26.3a13.276,13.276,0,0,0,13.4-13.144A13.276,13.276,0,0,0,13.4.017,13.276,13.276,0,0,0,0,13.16,13.276,13.276,0,0,0,13.4,26.3Z" fill="#fff"/>
    <path id="Path_6" data-name="Path 6" d="M10.355,19.3c0,.079-.088.141-.2.141-.126.012-.214-.051-.214-.141s.088-.141.2-.141S10.355,19.208,10.355,19.3Zm-1.191-.177c-.027.079.05.169.165.193a.178.178,0,0,0,.238-.079c.023-.079-.05-.169-.165-.2A.2.2,0,0,0,9.164,19.122Zm1.693-.067c-.111.028-.188.1-.176.192s.111.13.226.1.188-.1.176-.181S10.968,19.043,10.857,19.055ZM13.377,4A9.3,9.3,0,0,0,4,13.586a9.835,9.835,0,0,0,6.493,9.4c.49.09.663-.22.663-.475s-.011-1.587-.011-2.412c0,0-2.682.589-3.245-1.171,0,0-.437-1.143-1.065-1.438,0,0-.877-.617.061-.6A2.014,2.014,0,0,1,8.375,17.9a2,2,0,0,0,2.792.821,2.205,2.205,0,0,1,.613-1.324c-2.141-.244-4.3-.562-4.3-4.341a3.017,3.017,0,0,1,.9-2.314,3.8,3.8,0,0,1,.1-2.668c.8-.255,2.643,1.061,2.643,1.061a8.832,8.832,0,0,1,4.811,0s1.842-1.32,2.643-1.061a3.8,3.8,0,0,1,.1,2.668,3.09,3.09,0,0,1,.988,2.314c0,3.791-2.256,4.094-4.4,4.341a2.356,2.356,0,0,1,.651,1.823c0,1.324-.011,2.962-.011,3.284,0,.255.176.566.663.475A9.747,9.747,0,0,0,23,13.586,9.508,9.508,0,0,0,13.377,4ZM7.723,17.551c-.05.039-.038.13.027.2s.149.09.2.039.038-.13-.027-.2S7.773,17.5,7.723,17.551Zm-.414-.318c-.027.051.011.114.088.153a.112.112,0,0,0,.165-.028c.027-.051-.011-.114-.088-.153C7.4,17.181,7.336,17.193,7.31,17.232Zm1.241,1.4c-.061.051-.038.169.05.244.088.09.2.1.249.039s.027-.169-.05-.243C8.716,18.58,8.6,18.568,8.551,18.631Zm-.437-.578c-.061.039-.061.141,0,.232s.165.13.215.09a.183.183,0,0,0,0-.244C8.275,18.042,8.175,18,8.114,18.053Z" fill="#858080"/>
  </g>
</svg>
