<svg width="132" height="121" viewBox="0 0 132 121" fill="none" xmlns="http://www.w3.org/2000/svg">
<path d="M88.1312 0.741591L130.855 47.9783L45.4074 47.9783L88.1312 0.741591Z" fill="#FFF9F9" stroke="#6A6868"/>
<path d="M43.9793 0.741591L86.703 47.9783L1.25558 47.9783L43.9793 0.741591Z" fill="#FFF9F9" stroke="#737171"/>
<path d="M89.398 49.4604L130.864 49.4604L89.398 94.7445L89.398 49.4604Z" fill="#FFF9F9" stroke="#737171"/>
<path d="M1 48.5933L19.8571 27.9999L19.8571 48.5933L1 48.5933Z" fill="#1CCDE6" fill-opacity="0.43"/>
<path d="M44.0341 96.2638L1.31039 49.0271L86.7578 49.0271L44.0341 96.2638Z" fill="#F49A9A" stroke="#737171"/>
<rect width="32.6994" height="32.6994" transform="matrix(0.670791 -0.741647 0.670791 0.741647 44.2136 96.7485)" fill="#44A2FA" fill-opacity="0.53"/>
<path d="M88.3979 94.7446L68.0249 72.4958L88.3979 50.2469L88.3979 94.7446Z" fill="white" fill-opacity="0.53" stroke="#737171"/>
<rect x="20" y="28" width="24.2449" height="20.5933" fill="#1CCDE5" fill-opacity="0.43"/>
<path d="M64.8571 28L43.8481 48.59L43.8481 28L64.8571 28Z" fill="#F5BDBD" fill-opacity="0.46"/>
</svg>
