<svg width="274" height="376" viewBox="0 0 274 376" fill="none" xmlns="http://www.w3.org/2000/svg">
<path d="M211 25.75L240.25 3L269.5 25.75V61.5C269.5 63.2239 268.815 64.8772 267.596 66.0962C266.377 67.3152 264.724 68 263 68H217.5C215.776 68 214.123 67.3152 212.904 66.0962C211.685 64.8772 211 63.2239 211 61.5V25.75Z" stroke="#7E7878" stroke-opacity="0.81" stroke-width="5" stroke-linecap="round" stroke-linejoin="round"/>
<path d="M230.231 68.5053V36.0053H249.731V68.5053" stroke="#827F80" stroke-width="5" stroke-linecap="round" stroke-linejoin="round"/>
<rect y="316" width="72" height="60" rx="20" fill="#FEFEFE" fill-opacity="0.83"/>
<path fill-rule="evenodd" clip-rule="evenodd" d="M17.8832 324.281C17.7633 324.142 17.5706 324.057 17.3667 324.057C17.1602 324.057 16.9669 324.14 16.8476 324.281C15.5678 325.77 12.3574 329.686 12.3574 331.534C12.3574 333.839 14.6 335.707 17.3648 335.707C20.1333 335.707 22.374 333.839 22.374 331.534C22.3759 329.686 19.163 325.77 17.8832 324.281ZM15.1963 333.215C15.1096 333.304 14.9854 333.347 14.8605 333.347C14.7626 333.347 14.6615 333.317 14.5793 333.26C13.3372 332.387 13.764 331.101 13.7853 331.047C13.8506 330.853 14.0929 330.742 14.3251 330.798C14.5573 330.853 14.6916 331.054 14.6239 331.246C14.6113 331.287 14.3445 332.141 15.1448 332.702C15.3256 332.834 15.3513 333.063 15.1963 333.215Z" fill="#E48888"/>
<path fill-rule="evenodd" clip-rule="evenodd" d="M29.1959 334.014C28.8482 333.603 28.2802 333.358 27.6764 333.358C27.0682 333.358 26.5046 333.599 26.1499 334.014C22.3853 338.39 12.9512 349.906 12.9512 355.335C12.9512 362.112 19.5458 367.6 27.6695 367.6C35.8069 367.6 42.3947 362.112 42.3947 355.335C42.3997 349.906 32.9605 338.39 29.1959 334.014ZM21.2957 360.278C21.0447 360.533 20.6781 360.66 20.3122 360.66C20.0203 360.66 19.7272 360.576 19.4831 360.408C15.8358 357.847 17.0918 354.065 17.1507 353.902C17.3459 353.333 18.0546 353.006 18.7381 353.169C19.4216 353.333 19.8139 353.923 19.6187 354.489C19.581 354.613 18.792 357.122 21.1432 358.77C21.6811 359.152 21.7514 359.828 21.2957 360.278Z" fill="#E48888"/>
<path fill-rule="evenodd" clip-rule="evenodd" d="M50.0398 325.707C49.807 325.432 49.4247 325.265 49.0205 325.265C48.6094 325.265 48.2284 325.427 47.9937 325.707C45.4599 328.651 39.1094 336.401 39.1094 340.056C39.1094 344.614 43.5456 348.309 49.013 348.309C54.4898 348.309 58.9216 344.614 58.9216 340.056C58.9267 336.401 52.5761 328.651 50.0398 325.707ZM44.7249 343.381C44.5555 343.553 44.3088 343.637 44.0621 343.637C43.865 343.637 43.6673 343.582 43.5029 343.468C41.0488 341.744 41.8942 339.2 41.9344 339.091C42.0656 338.707 42.5426 338.488 43.0027 338.596C43.4627 338.707 43.7257 339.105 43.597 339.484C43.5707 339.568 43.0378 341.257 44.6207 342.365C44.9854 342.624 45.0325 343.079 44.7249 343.381Z" fill="#E48888"/>
<path d="M239.099 71.3902C238.692 77.0405 239.015 92.7092 243.557 110.181C249.236 132.022 251.107 164.487 225.43 166.842C199.752 169.197 175.976 127.392 166.338 123.514C156.699 119.637 129.314 112.32 128.119 141.966C126.925 171.612 165.048 187.034 178.935 168.751C192.822 150.468 197.866 112.413 168.696 99.0932C139.527 85.7731 98.6801 102.639 104.237 138.701C109.793 174.762 170.283 248.251 168.032 275.886C165.78 303.521 144.738 324.881 117.282 298.81C87.3437 270.382 72.7844 276.417 62.6783 285.3C51.1284 295.453 39.9141 311.731 38.2925 314.602" stroke="#676666" stroke-width="2" stroke-linecap="round" stroke-linejoin="round" stroke-dasharray="2 5"/>
<circle cx="150.375" cy="94.3752" r="9.60352" transform="rotate(83.6109 150.375 94.3752)" fill="#F9FBFF" stroke="#A8A2A2" stroke-width="5"/>
<circle cx="150.386" cy="228.386" r="6.8989" transform="rotate(83.6109 150.386 228.386)" fill="#F9FBFF" stroke="#A8A2A2" stroke-width="5"/>
<path d="M112 165.316C109.476 165.316 107.684 163.472 107.684 161.5C107.684 159.528 109.476 157.684 112 157.684C114.524 157.684 116.316 159.528 116.316 161.5C116.316 163.472 114.524 165.316 112 165.316Z" fill="#FFF9F9" stroke="#9D9B9B" stroke-width="3.36864"/>
<path d="M168 281.316C165.476 281.316 163.684 279.472 163.684 277.5C163.684 275.528 165.476 273.684 168 273.684C170.524 273.684 172.316 275.528 172.316 277.5C172.316 279.472 170.524 281.316 168 281.316Z" fill="#FFF9F9" stroke="#9B9596" stroke-width="3.36864"/>
</svg>
