<svg width="104" height="103" viewBox="0 0 104 103" fill="none" xmlns="http://www.w3.org/2000/svg">
<ellipse cx="7.5" cy="15.5" rx="96.5" ry="87.5" fill="#FF8484" fill-opacity="0.26"/>
<path d="M63 31.4348H29.766L46.383 15L63 31.4348Z" fill="#F19C9C"/>
<path d="M46.2758 31.4348H13.0418L29.6588 15L46.2758 31.4348Z" fill="#E61C1C" fill-opacity="0.43"/>
<path d="M63 31.5898L46.6735 47.5393L46.6735 31.5898L63 31.5898Z" fill="#F17979"/>
<path d="M36.4694 24.6119L29.3265 31.5898V24.6119L36.4694 24.6119Z" fill="#1CCDE6" fill-opacity="0.43"/>
<path d="M13 31.5898L20.1429 24.6119L20.1429 31.5898H13Z" fill="#1CCDE6" fill-opacity="0.43"/>
<path d="M22.1837 31.5898L28.3062 24.6119V31.5898H22.1837Z" fill="#1CCDE6" fill-opacity="0.43"/>
<path d="M13.0626 31.4348H46.2966L29.6796 47.8696L13.0626 31.4348Z" fill="#E61C1C" fill-opacity="0.43"/>
<rect width="11.6858" height="11.6858" transform="matrix(0.710993 -0.703199 0.710993 0.703199 29.7476 47.7826)" fill="#C29D9D" fill-opacity="0.5"/>
<path d="M38.5103 39.5647L46.6735 31.5899V47.5394L38.5103 39.5647Z" fill="#44A2FA" fill-opacity="0.53"/>
<rect x="20.1428" y="24.6119" width="9.18367" height="6.97791" fill="#8EDAE5"/>
</svg>
