<svg width="375" height="439" viewBox="0 0 375 439" fill="none" xmlns="http://www.w3.org/2000/svg">
<path fill-rule="evenodd" clip-rule="evenodd" d="M388.066 169.366L389.999 438.014C375.672 437.991 360.391 341.056 340.942 309.872C303.923 250.517 228.096 248.72 204.037 233.927C149.596 200.453 147.996 132.835 89.8828 129.325C36.3069 126.088 7.14368 66.8104 -6.37476 59L33.2481 59.7471L72.2501 59.8116C85.7814 59.834 113.64 59.88 140.703 59.9247C168.561 59.9708 195.106 59.333 222.965 59.379C250.028 59.4237 278.403 60.1523 305.466 60.197C333.325 60.243 360.387 60.2878 374.714 60.3114L388.246 60.3338L388.066 169.366Z" fill="#EC7676"/>
<ellipse cx="380.5" cy="140" rx="63.5" ry="60" fill="#E85555" fill-opacity="0.32"/>
<ellipse cx="285" cy="92" rx="101" ry="92" fill="#F38A8A" fill-opacity="0.45"/>
</svg>
