<svg width="18" height="18" viewBox="0 0 18 18" fill="none" xmlns="http://www.w3.org/2000/svg">
<path d="M9 0C10.1935 0 11.3381 0.45478 12.1819 1.2643C13.0259 2.07381 13.5 3.17175 13.5 4.31657C13.5 5.46139 13.0259 6.55933 12.1819 7.36884C11.3381 8.17836 10.1935 8.63314 9 8.63314C7.80653 8.63314 6.66193 8.17836 5.81802 7.36884C4.9741 6.55933 4.5 5.46139 4.5 4.31657C4.5 3.17175 4.9741 2.07381 5.81802 1.2643C6.66193 0.45478 7.80653 0 9 0ZM9 10.7914C13.9725 10.7914 18 12.7231 18 15.108V17.2663H0V15.108C0 12.7231 4.0275 10.7914 9 10.7914Z" fill="#6A6868" fill-opacity="0.5"/>
</svg>
