<svg width="23" height="20" viewBox="0 0 23 20" fill="none" xmlns="http://www.w3.org/2000/svg">
<path d="M12.9898 18.2151L11.8702 19.2075C11.3961 19.6278 10.6294 19.6278 10.1604 19.2075L0.355633 10.5214C-0.118465 10.1011 -0.118465 9.42161 0.355633 9.00585L10.1604 0.315201C10.6345 -0.105026 11.4011 -0.105026 11.8702 0.315201L12.9898 1.30765C13.469 1.73235 13.4589 2.42528 12.9697 2.84103L6.89214 7.97317L21.3874 7.97317C22.0582 7.97317 22.5979 8.45151 22.5979 9.04609V10.4766C22.5979 11.0712 22.0582 11.5496 21.3874 11.5496L6.89214 11.5496L12.9697 16.6817C13.4639 17.0975 13.474 17.7904 12.9898 18.2151Z" fill="#FFF2F2" fill-opacity="0.78"/>
</svg>
