<svg width="375" height="1999" viewBox="0 0 375 1999" fill="none" xmlns="http://www.w3.org/2000/svg">
<g clip-path="url(#clip0)">
<rect width="375" height="1999" fill="#FFF9F9"/>
<path fill-rule="evenodd" clip-rule="evenodd" d="M388.066 794.366L389.999 1063.01C375.672 1062.99 360.391 966.056 340.942 934.872C303.923 875.517 228.096 873.72 204.037 858.927C149.596 825.453 147.996 757.835 89.8828 754.325C36.3069 751.088 7.14368 691.81 -6.37476 684L33.2481 684.747L72.2501 684.812C85.7814 684.834 113.64 684.88 140.703 684.925C168.561 684.971 195.106 684.333 222.965 684.379C250.028 684.424 278.403 685.152 305.466 685.197C333.325 685.243 360.387 685.288 374.714 685.311L388.246 685.334L388.066 794.366Z" fill="#EC7676"/>
<ellipse cx="380.5" cy="765" rx="63.5" ry="60" fill="#E85555" fill-opacity="0.32"/>
<path fill-rule="evenodd" clip-rule="evenodd" d="M-1.62222 580.645L-4 312C10.3273 312 25.7684 408.91 45.2694 440.062C82.3866 499.356 158.216 501.027 182.299 515.78C236.796 549.164 238.507 616.78 296.626 620.194C350.208 623.342 379.469 682.572 393 690.36L353.376 689.678H327.905H314.374C300.843 689.678 272.984 689.678 245.921 689.678C218.063 689.678 191 689.678 163.142 689.678C136.079 689.678 108.22 689.678 81.1577 689.678C53.2991 689.678 26.2364 689.678 11.9091 689.678H-1.62222V580.645Z" fill="#EC7676"/>
<ellipse cx="399" cy="52.5" rx="151" ry="136.5" fill="#FCB0B0" fill-opacity="0.85"/>
<ellipse cx="4.5" cy="7.5" rx="100.5" ry="94.5" fill="#FF8484" fill-opacity="0.26"/>
<path d="M56 26.4348H22.766L39.383 10L56 26.4348Z" fill="#F19C9C"/>
<path d="M39.2758 26.4348H6.04179L22.6588 10L39.2758 26.4348Z" fill="#E61C1C" fill-opacity="0.43"/>
<path d="M56 26.5899L39.6735 42.5394V26.5899L56 26.5899Z" fill="#F17979"/>
<path d="M29.4694 19.612L22.3265 26.5899V19.612L29.4694 19.612Z" fill="#1CCDE6" fill-opacity="0.43"/>
<path d="M6 26.5899L13.1429 19.612L13.1429 26.5899H6Z" fill="#1CCDE6" fill-opacity="0.43"/>
<path d="M15.1837 26.5899L21.3062 19.612L21.3062 26.5899H15.1837Z" fill="#1CCDE6" fill-opacity="0.43"/>
<path d="M6.06262 26.4348H39.2966L22.6796 42.8696L6.06262 26.4348Z" fill="#E61C1C" fill-opacity="0.43"/>
<rect width="11.6858" height="11.6858" transform="matrix(0.710993 -0.703199 0.710993 0.703199 22.7476 42.7826)" fill="#C29D9D" fill-opacity="0.5"/>
<path d="M31.5103 34.5647L39.6735 26.5899V42.5394L31.5103 34.5647Z" fill="#44A2FA" fill-opacity="0.53"/>
<rect x="13.1428" y="19.612" width="9.18367" height="6.97791" fill="#8EDAE5"/>
<ellipse cx="248.5" cy="150.5" rx="109.5" ry="101.5" fill="#FF6F6F" fill-opacity="0.18"/>
<ellipse cx="5.5" cy="590" rx="48.5" ry="55" fill="#F3B4B4" fill-opacity="0.25"/>
<ellipse cx="18" cy="531.5" rx="61" ry="61.5" fill="#E85555" fill-opacity="0.24"/>
<ellipse cx="285" cy="717" rx="101" ry="92" fill="#F38A8A" fill-opacity="0.45"/>
<path d="M428 513.762C428 539.556 411.658 560.467 391.5 560.467C371.342 560.467 355 539.556 355 513.762C355 487.967 371.342 467.056 391.5 467.056C411.658 467.056 428 487.967 428 513.762Z" fill="#FF8484" fill-opacity="0.26"/>
<path fill-rule="evenodd" clip-rule="evenodd" d="M-6.53285 1305.84L-7.00003 1239.4C0.858404 1239.39 20.0863 1276.76 30.795 1283.72C51.1775 1296.95 73.6274 1280.49 86.8428 1283.77C116.747 1291.19 127.774 1316.11 160.535 1315.71C237.035 1329.71 219.035 1305.84 209.959 1330.01L188.226 1329.9L166.833 1329.94C159.411 1329.95 144.131 1329.98 129.287 1330C114.007 1330.03 99.4481 1330.21 84.1678 1330.24C69.3241 1330.26 53.7592 1330.14 38.9155 1330.17C23.6352 1330.19 8.79147 1330.22 0.933041 1330.23L-6.48884 1330.25L-6.53285 1305.84Z" fill="#EC7676"/>
<path fill-rule="evenodd" clip-rule="evenodd" d="M-2.12869 1349.24L-2.46509 1423.71C5.14474 1423.71 27.1771 1391.53 37.5349 1383.71C57.2495 1368.83 90.2433 1378.91 103.035 1375.21C131.98 1366.83 131.868 1359.38 162.035 1354.21C217.535 1344.71 199.119 1359.82 210.535 1321.88H186.426H165.71C158.523 1321.88 143.726 1321.88 129.352 1321.88C114.555 1321.88 100.457 1321.71 85.6598 1321.71C71.2856 1321.71 56.2134 1321.88 41.8393 1321.88C27.0424 1321.88 12.6682 1321.88 5.05838 1321.88H-2.12869V1349.24Z" fill="#EC7676"/>
<path fill-rule="evenodd" clip-rule="evenodd" d="M376.187 1352.13L376.535 1431.71C368.675 1431.71 346.733 1394.07 336.035 1385.71C315.672 1369.81 277.747 1380.17 264.535 1376.21C234.638 1367.26 246.888 1361.54 209.212 1354.38C171.535 1347.21 168.326 1363.44 156.535 1322.89H181.436H202.832C210.256 1322.89 225.539 1322.89 240.385 1322.89C255.669 1322.89 270.231 1322.71 285.514 1322.71C300.36 1322.71 315.928 1322.89 330.775 1322.89C346.058 1322.89 360.904 1322.89 368.764 1322.89H376.187V1352.13Z" fill="#EC7676"/>
<path fill-rule="evenodd" clip-rule="evenodd" d="M382.235 1308.7L383.135 1243.84C375.328 1243.77 355.981 1280.13 345.296 1286.85C324.96 1299.64 294.752 1283.39 281.602 1286.51C251.844 1293.55 250.024 1312.54 217.48 1311.93C154.52 1323.34 180.02 1326.34 167 1330.85L188.592 1330.88L209.845 1331.07C217.218 1331.13 232.398 1331.26 247.145 1331.38C262.325 1331.51 276.787 1331.79 291.968 1331.92C306.714 1332.04 322.178 1332.03 336.924 1332.15C352.105 1332.28 366.851 1332.41 374.658 1332.47L382.031 1332.54L382.235 1308.7Z" fill="#EC7676"/>
<ellipse cx="186.378" cy="1348.14" rx="4.2187" ry="4.07571" transform="rotate(117.106 186.378 1348.14)" fill="#FECDCD"/>
<ellipse cx="173.879" cy="1332.93" rx="7.38274" ry="7.13249" transform="rotate(117.106 173.879 1332.93)" fill="#FFE6E6"/>
<ellipse cx="199.543" cy="1323.26" rx="11.0741" ry="10.6987" transform="rotate(117.106 199.543 1323.26)" fill="#F9ADAD" fill-opacity="0.99"/>
<path d="M41 1330.5C41 1356.18 18.6142 1377 -9 1377C-36.6142 1377 -59 1356.18 -59 1330.5C-59 1304.82 -36.6142 1284 -9 1284C18.6142 1284 41 1304.82 41 1330.5Z" fill="#F5CECE" fill-opacity="0.16"/>
<ellipse cx="52.1811" cy="977.198" rx="5.1397" ry="5.15657" transform="rotate(-0.46165 52.1811 977.198)" fill="#8ED0FF"/>
<ellipse cx="25.8003" cy="1175.84" rx="12.6981" ry="12.7398" transform="rotate(-0.46165 25.8003 1175.84)" fill="#F9ADAD" fill-opacity="0.99"/>
<ellipse cx="324.534" cy="842.561" rx="8.46539" ry="8.49317" transform="rotate(-0.46165 324.534 842.561)" fill="#FFE6E6"/>
<ellipse cx="186.034" cy="790.472" rx="11.028" ry="11.4663" transform="rotate(-0.0301993 186.034 790.472)" fill="#FFE6E6"/>
<ellipse cx="256.335" cy="1235.51" rx="4.33245" ry="4.50461" transform="rotate(-0.0301993 256.335 1235.51)" fill="#86D2FD"/>
<ellipse cx="221.352" cy="881.363" rx="3.32568" ry="3.33659" transform="rotate(-0.46165 221.352 881.363)" fill="#F58F8F"/>
</g>
<defs>
<clipPath id="clip0">
<rect width="375" height="1999" fill="white"/>
</clipPath>
</defs>
</svg>
