<svg width="17" height="17" viewBox="0 0 17 17" fill="none" xmlns="http://www.w3.org/2000/svg">
<path fill-rule="evenodd" clip-rule="evenodd" d="M8.5 17C13.1944 17 17 13.1944 17 8.5C17 3.80558 13.1944 0 8.5 0C3.80558 0 0 3.80558 0 8.5C0 13.1944 3.80558 17 8.5 17ZM7.03231 15.4311C5.71339 13.3714 4.98142 11.2955 4.84633 9.20833H1.45164C1.75834 12.2974 4.04955 14.8026 7.03231 15.4311ZM4.84633 7.79167C4.98142 5.70448 5.71339 3.62859 7.03231 1.56891C4.04955 2.19738 1.75834 4.70263 1.45164 7.79167H4.84633ZM12.1537 7.79167C12.0186 5.70448 11.2866 3.62859 9.96768 1.56891C12.9504 2.19738 15.2417 4.70263 15.5484 7.79167H12.1537ZM9.96768 15.4311C11.2866 13.3714 12.0186 11.2955 12.1537 9.20833H15.5484C15.2417 12.2974 12.9504 14.8026 9.96768 15.4311ZM6.26646 7.79167C6.41119 5.84822 7.15181 3.89212 8.5 1.91758C9.84819 3.89212 10.5888 5.84822 10.7335 7.79167H6.26646ZM8.5 15.0824C7.15181 13.1079 6.41119 11.1518 6.26646 9.20833H10.7335C10.5888 11.1518 9.84819 13.1079 8.5 15.0824Z" fill="#F39494"/>
</svg>
