<svg width="265" height="218" viewBox="0 0 265 218" fill="none" xmlns="http://www.w3.org/2000/svg">
<path d="M265 87.3853H88.86L176.93 0.000162013L265 87.3853Z" fill="#EC2727" fill-opacity="0.5"/>
<path d="M176.362 87.3853H0.221778L88.2918 0.000153616L176.362 87.3853Z" fill="#EC2727" fill-opacity="0.69"/>
<path d="M265 88.21L178.469 173.015L178.469 88.21L265 88.21Z" fill="#F17979"/>
<path d="M124.388 51.1079L86.5307 88.21V51.1079L124.388 51.1079Z" fill="#F7FDFE" fill-opacity="0.57"/>
<path d="M0 88.21L37.8571 51.1079L37.8571 88.21L0 88.21Z" fill="#1CCDE6" fill-opacity="0.43"/>
<path d="M48.6734 88.21L81.1224 51.1079L81.1224 88.21H48.6734Z" fill="#1CCDE6" fill-opacity="0.43"/>
<path d="M0.331848 87.3853H176.472L88.4019 174.77L0.331848 87.3853Z" fill="#E61C1C" fill-opacity="0.43"/>
<rect width="62.0332" height="62.0332" transform="matrix(0.709862 -0.704341 0.709862 0.704341 88.762 174.308)" fill="#44A2FA" fill-opacity="0.53"/>
<path d="M135.204 130.612L178.469 88.21L178.469 173.015L135.204 130.612Z" fill="white" fill-opacity="0.53"/>
<rect x="37.8572" y="51.1079" width="48.6735" height="37.1021" fill="#8EDAE5"/>
</svg>
