<svg width="18" height="19" viewBox="0 0 18 19" fill="none" xmlns="http://www.w3.org/2000/svg">
<path d="M18 9.48205C18.0092 14.7163 13.9652 18.9963 9.00652 19C6.86485 19.0016 4.89763 18.2136 3.3517 16.8965C2.94971 16.5541 2.91966 15.9182 3.28496 15.5326L3.69384 15.101C4.00627 14.7712 4.50504 14.7351 4.85118 15.025C5.99015 15.979 7.43156 16.5484 8.99999 16.5484C12.6909 16.5484 15.6774 13.3954 15.6774 9.50002C15.6774 5.60405 12.6903 2.45162 8.99999 2.45162C7.22852 2.45162 5.61959 3.17825 4.42495 4.36434L6.26683 6.30855C6.63263 6.69468 6.37356 7.35485 5.85627 7.35485H0.580645C0.259947 7.35485 0 7.08046 0 6.74195V1.17321C0 0.627193 0.625427 0.353722 0.991233 0.739814L2.78296 2.63108C4.39871 1.00118 6.58857 0 8.99999 0C13.9649 0 17.9908 4.2436 18 9.48205ZM11.4346 12.5L11.7911 12.0162C12.0864 11.6154 12.018 11.0378 11.6383 10.7261L10.1613 9.51339V5.51614C10.1613 5.00839 9.77134 4.59678 9.29031 4.59678H8.70967C8.22864 4.59678 7.8387 5.00839 7.8387 5.51614V10.7125L10.2124 12.6613C10.5921 12.973 11.1393 12.9008 11.4346 12.5Z" fill="#F39494"/>
</svg>
