<svg width="18" height="20" viewBox="0 0 18 20" fill="none" xmlns="http://www.w3.org/2000/svg">
<path d="M14.3333 6.33333C14.3333 4.91885 13.7714 3.56229 12.7712 2.5621C11.771 1.5619 10.4145 1 9 1C7.58551 1 6.22896 1.5619 5.22876 2.5621C4.22857 3.56229 3.66667 4.91885 3.66667 6.33333C3.66667 12.5556 1 14.3333 1 14.3333H17C17 14.3333 14.3333 12.5556 14.3333 6.33333Z" fill="#F39494" stroke="#F39494" stroke-width="1.5" stroke-linecap="round" stroke-linejoin="round"/>
<path d="M11.0756 17.8889C10.9193 18.1583 10.695 18.3819 10.4251 18.5374C10.1552 18.6928 9.84923 18.7747 9.53778 18.7747C9.22633 18.7747 8.92035 18.6928 8.65047 18.5374C8.38058 18.3819 8.15628 18.1583 8 17.8889" fill="#F39494"/>
<path d="M11.0756 17.8889C10.9193 18.1583 10.695 18.3819 10.4251 18.5374C10.1552 18.6928 9.84923 18.7747 9.53778 18.7747C9.22633 18.7747 8.92035 18.6928 8.65047 18.5374C8.38058 18.3819 8.15628 18.1583 8 17.8889" stroke="#F39494" stroke-width="1.5" stroke-linecap="round" stroke-linejoin="round"/>
</svg>
