<svg id="Group_1" data-name="Group 1" xmlns="http://www.w3.org/2000/svg" xmlns:xlink="http://www.w3.org/1999/xlink" width="198" height="134" viewBox="0 0 198 134">
  <defs>
    <linearGradient id="linear-gradient" x1="0.5" y1="-0.038" x2="0.5" y2="0.807" gradientUnits="objectBoundingBox">
      <stop offset="0.133" stop-color="#ffe7e7"/>
      <stop offset="0.313" stop-color="#fee3e3"/>
      <stop offset="0.476" stop-color="#fbd8d8"/>
      <stop offset="0.632" stop-color="#f6c6c6"/>
      <stop offset="0.783" stop-color="#efacac"/>
      <stop offset="0.879" stop-color="#ea9898"/>
    </linearGradient>
  </defs>
  <path id="Path_2" data-name="Path 2" d="M82.9.75c-8.274,1.6-16.325,6.619-19.207,14.332C61.483,21,62.278,28.243,57.889,32.871c-2.743,2.893-6.872,4.005-10.673,5.353-13.649,4.84-25.7,14.682-31.389,27.689s-4.273,29.116,4.93,40.051c8.162,9.7,21.431,14.456,34.314,14.468,12.4.012,24.665-3.936,37.014-2.841,14.266,1.266,27.213,9.137,41.458,10.605,20.777,2.14,42.141-11.444,48.467-30.817,1.655-5.069,2.359-10.565,1.011-15.719-2.3-8.814-10.186-15.256-18.542-19.335s-17.527-6.41-25.829-10.589c-2.316-1.166-4.638-2.545-6.066-4.668-3.07-4.563-1.019-10.543-.1-15.923.977-5.744.451-11.87-2.392-16.994-3.583-6.459-10.971-10.514-18.225-11.71C102.371.879,92.5-1.107,82.9.75Z" fill="url(#linear-gradient)"/>
  <path id="Path_3" data-name="Path 3" d="M158.887,35.055a41.52,41.52,0,0,1-3.031,11c-.1.225-.206.45-.317.67-.168.343-.346.685-.531,1.017l0,0a46.674,46.674,0,0,1-7.5,9.649,46.176,46.176,0,0,1-11.119,9.055.313.313,0,0,1-.252.022c-.217-.059-.456-.323-.7-.729-1.508-2.479-3.4-10.376-3.494-11.665a52.433,52.433,0,0,1,1.28-14.318,62.352,62.352,0,0,1,3.14-10.3v0c.171-.422.342-.845.521-1.262a63.925,63.925,0,0,1,8.455-14.33,62.14,62.14,0,0,1,4.273-4.919l.1-.093.781-.788a59.939,59.939,0,0,1,6.563-5.671c.044-.036.093-.067.137-.1.141.489.272.982.4,1.475A72.706,72.706,0,0,1,159.8,18.554c.018.346.03.7.043,1.046A82.006,82.006,0,0,1,158.887,35.055Z" fill="#fff"/>
  <path id="Path_4" data-name="Path 4" d="M136.363,29.449v0q2.947,9,5.08,18.223a.416.416,0,0,0,.163.244q-1.628,4.74-3.276,9.469c-.11.065-.221.135-.336.2a.475.475,0,0,0-.012.807q-1.275,3.671-2.546,7.342c.244.406.482.67.7.729q1.472-4.25,2.954-8.5,8.177-4.8,15.912-10.222l.006,0c.185-.333.362-.675.53-1.018.111-.22.214-.445.317-.67Q147.94,51.7,139.541,56.675c2.372-6.836,4.735-13.678,7.014-20.544,1.15-3.472,2.229-6.96,3.3-10.452.045-.04.089-.076.129-.117a.394.394,0,0,0,.134-.218,91.241,91.241,0,0,0,9.73-5.745c-.013-.35-.026-.7-.044-1.046a89.591,89.591,0,0,1-9.512,5.7q.81-2.626,1.634-5.258c1.62-5.149,4.069-10.088,5.662-15.239l-.4-1.475c-1.536,5.408-4.284,10.634-5.982,16-.3.95-.6,1.9-.893,2.85a127.05,127.05,0,0,0,.175-13.078l-.782.788-.1.093a104.868,104.868,0,0,1-.524,15.556.371.371,0,0,0,.094.309.14.14,0,0,0-.012.039.034.034,0,0,1-.019.007.445.445,0,0,0-.182.642c-1.063,3.453-2.124,6.9-3.261,10.332q-1.779,5.356-3.617,10.693-2.191-9.278-5.206-18.327Z" fill="#ffe6e8"/>
  <path id="Path_5" data-name="Path 5" d="M131.384,33.571a32.158,32.158,0,0,1,3.9,7.859c.056.181.113.362.161.543.079.281.153.566.217.849v0a34.714,34.714,0,0,1,.619,9.254A33.807,33.807,0,0,1,134.5,62.756a.231.231,0,0,1-.135.135,1.217,1.217,0,0,1-.782-.082c-2.151-.7-7.317-4.363-8.035-5.066a41.326,41.326,0,0,1-6.632-8.933,48.272,48.272,0,0,1-3.484-7.509l0,0c-.118-.329-.236-.657-.347-.986A48.183,48.183,0,0,1,112.6,27.875a45.947,45.947,0,0,1-.054-4.938l.007-.1.048-.838a43.969,43.969,0,0,1,.887-6.491c.007-.042.019-.084.027-.126.333.216.664.438.991.662a58.408,58.408,0,0,1,8.906,7.5c.188.192.376.389.564.586A64.713,64.713,0,0,1,131.384,33.571Z" fill="#fff"/>
  <path id="Path_6" data-name="Path 6" d="M115.427,41.3v0q6.346,3.785,12.334,8.1a.34.34,0,0,0,.22.062q1.5,3.543,2.977,7.091c-.031.092-.059.186-.093.28a.374.374,0,0,0,.41.474q1.149,2.752,2.3,5.5a1.214,1.214,0,0,0,.781.082q-1.335-3.184-2.665-6.374,2.274-6.77,3.969-13.69v0c-.065-.283-.138-.568-.217-.85-.048-.182-.105-.362-.161-.543q-1.685,7.137-3.995,14.119c-2.144-5.123-4.3-10.246-6.511-15.341-1.121-2.575-2.291-5.125-3.469-7.674,0-.045.013-.087.015-.131a.3.3,0,0,0-.034-.192,66.487,66.487,0,0,0,2.686-8.077c-.188-.2-.375-.394-.564-.586a65.1,65.1,0,0,1-2.583,7.947c-.588-1.279-1.178-2.56-1.76-3.848-1.712-3.778-2.835-7.838-4.563-11.6l-.991-.662c1.9,3.887,2.991,8.259,4.77,12.2.314.7.633,1.393.95,2.089A100.857,100.857,0,0,0,112.605,22l-.047.839-.008.1a83.02,83.02,0,0,1,7.708,9.282.3.3,0,0,0,.214.133.2.2,0,0,0,.012.028.019.019,0,0,1-.007.013.344.344,0,0,0,.225.462c1.162,2.522,2.323,5.041,3.429,7.585q1.727,3.976,3.409,7.968-6.051-4.315-12.461-8.1Z" fill="#ffe6e8"/>
  <path id="Path_7" data-name="Path 7" d="M198,31.7a26.036,26.036,0,0,0-2.887,2.674,43.283,43.283,0,0,0-6.121,8.776q-.277.5-.543,1c-.2.367-.39.734-.583,1.1-1.388,2.661-2.694,5.377-4.129,8.007q-.24.449-.492.884a47.322,47.322,0,0,1-3.8,5.849c-.31.4-.633.8-.965,1.191h0c-.383.452-.782.89-1.191,1.322h0a21.31,21.31,0,0,1-11.887,6.681,24.075,24.075,0,0,1-7.448-.18,19.486,19.486,0,0,1-6.691-2.105,15.521,15.521,0,0,1-2.992-2.194c-.22-.214-.427-.427-.625-.647-6.628-7.317.75-18.031,9.056-23.61.654-.441,1.319-.851,1.981-1.221a21.619,21.619,0,0,1,4.476-1.946,36.426,36.426,0,0,1,7.657-1.294h0c.677-.055,1.357-.092,2.041-.121a0,0,0,0,1,.005,0c2.662-.118,5.345-.111,8-.186a.629.629,0,0,1,.091,0v0c.423-.011.851-.022,1.28-.046,4.831-.2,9.761-.822,14-2.93.01,0,.015-.012.025-.016A18.516,18.516,0,0,0,198,31.7Z" fill="#fff"/>
  <path id="Path_8" data-name="Path 8" d="M147.637,64.052q1.23-1.5,2.551-2.911a35.324,35.324,0,0,1,5.089-18.5c.43-.718.9-1.457,1.417-2.2l1.98-1.221a41.682,41.682,0,0,0-3.015,4.531,34.445,34.445,0,0,0-4.565,16.44,63.148,63.148,0,0,1,5.463-4.938.482.482,0,0,1,0-.181A30.917,30.917,0,0,1,170.808,35.98h.005c.677-.055,1.357-.092,2.041-.121a30.219,30.219,0,0,0-15.178,18.512,81.574,81.574,0,0,1,10.346-6.716c2.715-1.5,5.452-2.955,8.2-4.4a.175.175,0,0,1,.011-.065,23.856,23.856,0,0,1,4.72-7.526v0l1.28-.046a22.98,22.98,0,0,0-4.784,7q3.487-1.826,6.979-3.651c3.872-2.044,8.034-3.92,11.8-6.278.009,0,1.758-.989,1.767-.992l-2.887,2.674c-2.868,1.638-5.884,3.063-8.768,4.584q-4.248,2.236-8.5,4.462c1.143.79,3.057.57,4.318.535a37.083,37.083,0,0,0,5.024-.471c.609-.1,1.21-.211,1.807-.335l-.543,1q-1.721.339-3.47.506c-2.209.216-6.188.965-8-.776-2.157,1.135-4.306,2.27-6.453,3.424q-2.458,1.32-4.8,2.743a48.325,48.325,0,0,0,18.016,3.211l-.492.884a49.2,49.2,0,0,1-18.224-3.41.418.418,0,0,1-.191-.149,73.528,73.528,0,0,0-10.5,7.784c2.486.361,4.681,1.456,7.035,2.357a26.557,26.557,0,0,0,7.594,1.726,22.773,22.773,0,0,0,9.517-1.267h0l-.147.164L177.286,62.5h0a23.259,23.259,0,0,1-6.416.891,27.107,27.107,0,0,1-7.639-1.1c-3.3-.972-6.267-2.859-9.76-3.136a56.1,56.1,0,0,0-5.2,5.548Z" fill="#ffe6e8"/>
  <path id="Path_9" data-name="Path 9" d="M23.6,90.53a32.376,32.376,0,0,1,6.868,5.229c.129.134.257.268.38.407.193.212.382.431.563.651v0a34.4,34.4,0,0,1,4.616,7.815,33,33,0,0,1,3.142,10.058.22.22,0,0,1-.058.175,1.172,1.172,0,0,1-.718.253c-2.187.284-8.305-.755-9.241-1.069a41.678,41.678,0,0,1-9.72-5.028,48.459,48.459,0,0,1-6.347-5.1h0c-.248-.237-.5-.474-.737-.716A48.066,48.066,0,0,1,4.7,93.39a45.37,45.37,0,0,1-2.222-4.285l-.038-.09-.327-.751A42.933,42.933,0,0,1,.033,82.231C.02,82.191.012,82.15,0,82.11c.386.049.772.105,1.156.164a58.5,58.5,0,0,1,11.075,2.834c.249.089.5.183.75.276A65.264,65.264,0,0,1,23.6,90.53Z" fill="#fff"/>
  <path id="Path_10" data-name="Path 10" d="M13.079,103.924h0q7.2.658,14.326,1.923a.322.322,0,0,0,.22-.038q2.867,2.468,5.719,4.946c.014.093.031.187.043.283a.371.371,0,0,0,.566.243q2.216,1.922,4.433,3.839a1.165,1.165,0,0,0,.718-.254q-2.567-2.22-5.133-4.449-1-6.855-2.567-13.6v0c-.18-.22-.37-.439-.563-.651-.122-.138-.251-.272-.38-.407q1.675,6.927,2.733,13.982c-4.127-3.576-8.261-7.147-12.437-10.669-2.112-1.779-4.256-3.515-6.406-5.248-.015-.042-.028-.082-.045-.12a.3.3,0,0,0-.114-.153,64.107,64.107,0,0,0-1.214-8.167c-.25-.093-.5-.187-.75-.276a63.124,63.124,0,0,1,1.247,8.009q-1.614-1.306-3.23-2.623c-3.157-2.581-5.925-5.655-9.092-8.22L.033,82.231c3.365,2.6,6.215,5.837,9.5,8.534.582.479,1.166.951,1.749,1.426-2.974-1.486-6.056-2.74-9.167-3.929l.328.751.038.09A83.675,83.675,0,0,1,13.3,93.989a.3.3,0,0,0,.245.028.12.12,0,0,0,.024.02.026.026,0,0,1,0,.015.345.345,0,0,0,.4.309c2.125,1.715,4.246,3.429,6.332,5.187q3.256,2.748,6.483,5.53-7.179-1.242-14.437-1.869Z" fill="#ffe6e8"/>
  <path id="Path_11" data-name="Path 11" d="M46.728,44.752a31.223,31.223,0,0,1,3.76,7.655c.054.175.108.351.154.529.076.274.146.55.207.826v0a33.744,33.744,0,0,1,.562,9,32.832,32.832,0,0,1-1.785,10.368.223.223,0,0,1-.132.131,1.179,1.179,0,0,1-.759-.083c-2.088-.692-7.093-4.271-7.788-4.957a40.151,40.151,0,0,1-6.406-8.709A46.836,46.836,0,0,1,31.187,52.2l0,0c-.113-.32-.227-.639-.333-.96a46.768,46.768,0,0,1-2.35-12.1,44.718,44.718,0,0,1-.031-4.8l.007-.1.05-.815a42.7,42.7,0,0,1,.891-6.3c.007-.041.019-.081.026-.123.323.211.643.428.96.648a56.714,56.714,0,0,1,8.623,7.331c.183.187.364.38.546.572A63.045,63.045,0,0,1,46.728,44.752Z" fill="#fff"/>
  <path id="Path_12" data-name="Path 12" d="M31.184,52.2l0,0q6.151,3.705,11.952,7.922a.326.326,0,0,0,.214.061q1.44,3.45,2.862,6.9c-.03.089-.058.181-.091.271a.362.362,0,0,0,.4.463q1.106,2.68,2.215,5.357a1.172,1.172,0,0,0,.759.083q-1.283-3.1-2.562-6.206,2.24-6.571,3.918-13.289v0c-.061-.276-.131-.553-.207-.826-.047-.177-.1-.353-.154-.529q-1.668,6.93-3.944,13.705c-2.062-4.988-4.132-9.976-6.262-14.937-1.078-2.508-2.2-4.99-3.338-7.472.005-.044.012-.085.015-.127a.288.288,0,0,0-.033-.187,64.557,64.557,0,0,0,2.647-7.839c-.181-.192-.363-.384-.546-.572a63.4,63.4,0,0,1-2.545,7.713c-.566-1.245-1.134-2.493-1.693-3.747-1.648-3.679-2.721-7.629-4.385-11.3l-.986-.525c1.825,3.785,2.9,7.917,4.609,11.756.3.68.61,1.356.914,2.034a97.975,97.975,0,0,0-6.414-7.486l-.05.815-.007.1a80.809,80.809,0,0,1,7.451,9.054.288.288,0,0,0,.207.13.092.092,0,0,0,.012.028.026.026,0,0,1-.007.013.335.335,0,0,0,.217.45c1.119,2.456,2.236,4.909,3.3,7.386q1.66,3.871,3.278,7.758-5.862-4.219-12.076-7.921Z" fill="#ffe6e8"/>
  <path id="Path_13" data-name="Path 13" d="M7.431,33.117a28.665,28.665,0,0,0,2.486,3.632,49.521,49.521,0,0,0,8.811,8.3q.514.4,1.033.779c.38.284.761.564,1.141.843,2.762,2.013,5.6,3.949,8.32,6.006q.466.345.912.7a54.433,54.433,0,0,1,5.926,5.233c.4.412.79.838,1.17,1.271v0c.441.5.861,1.016,1.275,1.54v0c3.194,4.121,5.392,9,5.305,14.115a25.053,25.053,0,0,1-1.65,8,20.748,20.748,0,0,1-3.7,6.808,17.338,17.338,0,0,1-3.081,2.8c-.286.2-.569.378-.858.549C24.9,99.433,14.123,89.4,9.379,79.357,9,78.565,8.665,77.77,8.372,76.984a22.828,22.828,0,0,1-1.348-5.205,37.867,37.867,0,0,1,.011-8.509v0c.069-.741.158-1.482.259-2.224a0,0,0,0,1,0-.006c.382-2.894.91-5.786,1.341-8.667a.71.71,0,0,1,.017-.1h0c.069-.458.14-.922.2-1.389.714-5.248.958-10.686-.622-15.664,0-.011-.01-.019-.013-.029A20.093,20.093,0,0,0,7.431,33.117Z" fill="#fff"/>
  <path id="Path_14" data-name="Path 14" d="M34.521,93.706Q33.049,92.088,31.7,90.39a42.245,42.245,0,0,1-20.085-9.077c-.734-.6-1.485-1.256-2.235-1.956L8.372,76.985a47.7,47.7,0,0,0,4.577,4.131,41.2,41.2,0,0,0,17.844,8.113,69.582,69.582,0,0,1-4.566-6.85.567.567,0,0,1-.205-.039A35.168,35.168,0,0,1,7.035,63.271v0c.069-.741.158-1.482.259-2.224A34.141,34.141,0,0,0,25.44,81,87.865,87.865,0,0,1,19.8,68.541c-1.183-3.218-2.309-6.452-3.417-9.7a.211.211,0,0,1-.072-.024,27.519,27.519,0,0,1-7.658-6.55h0l.2-1.389A26.336,26.336,0,0,0,15.885,57.4q-1.4-4.114-2.806-8.234C11.5,44.59,10.172,39.739,8.218,35.215c0-.011-.011-.019-.013-.029l1.711,1.562c1.309,3.41,2.348,6.939,3.522,10.345q1.723,5.014,3.434,10.035c1.122-1.08,1.243-3.186,1.448-4.552a38.58,38.58,0,0,0,.439-5.51c.008-.675-.006-1.345-.032-2.014l1.033.779a37.185,37.185,0,0,1-.1,3.841c-.183,2.424-.1,6.86-2.437,8.477.874,2.548,1.751,5.085,2.648,7.624q1.027,2.907,2.193,5.714a50.776,50.776,0,0,0,7.154-18.805l.912.7a51.717,51.717,0,0,1-7.422,18.991.463.463,0,0,1-.207.176,79.913,79.913,0,0,0,6.831,12.835c.893-2.611,2.567-4.766,4.05-7.13a28.022,28.022,0,0,0,3.44-7.854,23.669,23.669,0,0,0,.4-10.508v0l.158.191L38.5,61.433v0a24.207,24.207,0,0,1-.229,7.093,28.394,28.394,0,0,1-2.738,8.023c-1.749,3.376-4.473,6.2-5.467,9.916a62.828,62.828,0,0,0,5.312,6.688Z" fill="#ffe6e8"/>
  <path id="Path_15" data-name="Path 15" d="M180.818,71.338a85.094,85.094,0,0,1-3.961,13.783,15.233,15.233,0,0,1-1.7,3.48c-.99,1.4-2.392,2.481-3.378,3.88a26.543,26.543,0,0,0-2.017,4.012c-3.726,7.831-11.743,12.978-16.093,20.491-1.551,2.684-2.631,5.654-4.621,8.047a5.425,5.425,0,0,1-2.188,1.729c-1.669.629-3.5-.088-5.115-.893-.14-.066-.28-.137-.416-.207q-4.1-2.1-8.2-4.21l-11.589-5.943a10.42,10.42,0,0,1-2.4-1.523c-.61-.567-1.071-1.267-1.646-1.86a13.5,13.5,0,0,0-3.861-2.486L93.571,99.766c-3.739-1.839-9.405-4.241-11.25-8.218-.873-1.892-.059-3.607.981-5.253,1.528-2.424,3.179-4.782,4.77-7.171q2.618-3.939,5.245-7.883,2.652-3.992,5.308-7.985c3.152-4.738,6.321-9.507,8.537-14.724,1.194-2.807,2.207-5.873,4.594-7.831,1.7,3.26,3.672,6.77,7.153,8.134,1.334.519,2.795.677,4.1,1.254a16.2,16.2,0,0,1,3.866,2.829c6.489,5.609,14.583,9.168,22.786,11.935,7.7,2.6,15.812,4.6,23.919,4.412q2.028-.046,4.047-.282c1.194-.141,2.754-.141,3.192.95A2.454,2.454,0,0,1,180.818,71.338Z" fill="#d8e7ec"/>
  <path id="Path_16" data-name="Path 16" d="M99.661,80.528a8.04,8.04,0,0,1-2.149.366c-.585.047,1.12,1.507,1.34,2.037a4.079,4.079,0,0,0,.383.821.917.917,0,0,0,.771.427,1.308,1.308,0,0,0,.692-.357l1.827-1.479c.94-.761,1.656-2.241.307-3.111C101.795,78.563,100.6,80.1,99.661,80.528Z" fill="#e54c4c"/>
  <path id="Path_17" data-name="Path 17" d="M94.024,81.245c-2.39.365-4.693,1.154-7.083,1.521-3.122.479-6.335.229-9.437.819-.753.143-1.627.459-1.793,1.188a2.07,2.07,0,0,0,.754,1.693l2.554,2.842a3.941,3.941,0,0,1,.956,1.446c.093.319.146.715.459.845a.906.906,0,0,0,.408.036c5.493-.369,10.651-2.585,15.678-4.769l3.237-1.406a2.361,2.361,0,0,0,1.441-1.169c.355-1.039-1-2.663-1.95-3.08C97.848,80.6,95.481,81.023,94.024,81.245Z" fill="#fe6361"/>
  <path id="Path_18" data-name="Path 18" d="M86.869,125.1a37.308,37.308,0,0,1-6.627.694,49.746,49.746,0,0,1-11.1-.5c-3.09-.578-6.185-1.673-9.3-1.23-.623-8.651,2.115-17.16,4.82-25.423a1.132,1.132,0,0,1,1.428-.97,40.128,40.128,0,0,1,6.783,1.419,41.337,41.337,0,0,0,12.573,1.033,7.648,7.648,0,0,1,2.818.117,6.3,6.3,0,0,1,2.369,1.607,40.59,40.59,0,0,1,5.8,6.929c1.427,2.153,3.6,5.178,3.981,7.761.374,2.5-3.305,3.933-5.194,5.049A28.877,28.877,0,0,1,86.869,125.1Z" fill="#1e1240"/>
  <path id="Path_19" data-name="Path 19" d="M154,78.333c.059,2.728-1.655,5.151-3.3,7.359q-1.677,2.257-3.356,4.514a4.027,4.027,0,0,1-2.315,1.857c-.809-1.87-3.427-2.415-5.376-1.707s-3.392,2.31-4.789,3.814c-3.753,4.056-7.759,7.879-11.761,11.7-.068.066-.135.132-.2.193-2.4,2.288-4.8,4.572-7.384,6.665a57.785,57.785,0,0,1-11.205,7.184c-1.51.735-3.21,1.408-4.847.99a7.356,7.356,0,0,1-2.853-1.76,64.223,64.223,0,0,1-7.6-7.712v0c-4.5-5.481-7.786-11.768-8.243-18.688A129.982,129.982,0,0,0,101,82.3c.556-.352,1.162-.783,1.262-1.421a.222.222,0,0,0,0-.057,4.274,4.274,0,0,0-.276-1.382c-.389-1.72.954-3.387,2.491-4.32s3.342-1.421,4.8-2.468c2.89-2.072,3.853-5.833,6.145-8.521a13.009,13.009,0,0,1,3.952-3.053,20.1,20.1,0,0,1,2.04-.915c2.1-.805,4.323-1.091,6.439-1.795a8.632,8.632,0,0,1,5.557-.123c4.937,1.21,9.482,3.537,13.958,5.833a9.522,9.522,0,0,1,2.487,1.619,9.278,9.278,0,0,1,1.981,4.118q.772,2.706,1.551,5.407A12.286,12.286,0,0,1,154,78.333Z" fill="#fff"/>
  <path id="Path_20" data-name="Path 20" d="M139.023,73.541a2.64,2.64,0,0,0-2.539.235,11.881,11.881,0,0,0-1.98,1.74,4.419,4.419,0,0,1-2.258,1.316,15.52,15.52,0,0,1-2.6-.16,6.111,6.111,0,0,0-3.745,1.52c-1.071.849-1.987,1.87-3.066,2.709-.934.727-1.983,1.309-2.893,2.065a4.861,4.861,0,0,0-1.864,2.894,2.172,2.172,0,0,0,.324,1.589,2.3,2.3,0,0,0,1.942.824,5.93,5.93,0,0,0,2.113-.575,28.48,28.48,0,0,0,7.674-4.847,15.841,15.841,0,0,0,2.659-2.928,14.286,14.286,0,0,1,2.863-2.454A16.533,16.533,0,0,0,139.023,73.541Z" fill="#11b5fb"/>
  <path id="Path_21" data-name="Path 21" d="M119.377,61.079a26.96,26.96,0,0,1-3.631,6.352q-1.092,1.57-2.189,3.137c-.637.911-1.275,1.821-1.98,2.684a32.717,32.717,0,0,1-6.136,5.569,14.412,14.412,0,0,1-3.178,2,4.274,4.274,0,0,0-.276-1.382c-.389-1.72.954-3.387,2.491-4.319s3.342-1.421,4.8-2.468c2.89-2.072,3.853-5.833,6.145-8.521A12.979,12.979,0,0,1,119.377,61.079Z" fill="#11b5fb"/>
  <path id="Path_22" data-name="Path 22" d="M124.952,101.842v29.576a2.653,2.653,0,0,1-5.3,0V101.842a2.62,2.62,0,0,1,2.654-2.577,2.685,2.685,0,0,1,1.877.756A2.528,2.528,0,0,1,124.952,101.842Z" fill="#2e215e"/>
  <path id="Path_23" data-name="Path 23" d="M124.952,107.389v9.705c-.231-.066-.462-.14-.688-.215a30.068,30.068,0,0,1-4.616-2.024v-8.174A37.535,37.535,0,0,1,124.952,107.389Z" fill="#03010c"/>
  <path id="Path_24" data-name="Path 24" d="M156.007,97.469a1.079,1.079,0,0,1-.47.5c-3.984,2.754-8.551,4.632-12.561,7.351-3.314,2.244-6.425,5.138-10.4,5.842a20.715,20.715,0,0,1-7.362-.475q-6.937-1.287-13.876-2.578c-5.621-1.047-11.277-2.1-16.586-4.174a1,1,0,0,1-.52-.353c-.262-.44.276-.915.733-1.152,6.679-3.489,13.787-6.049,19.9-10.488a8.95,8.95,0,0,1,2.572-1.487,8.025,8.025,0,0,1,2.2-.242,68.023,68.023,0,0,1,18.145,2.279l.394.106c3.961,1.082,7.872,2.494,11.883,3.282a31.224,31.224,0,0,0,4.481.563C155.243,96.479,156.22,96.823,156.007,97.469Z" fill="#afccd2"/>
  <path id="Path_25" data-name="Path 25" d="M156.394,97.145c-.13-.009-.259-.011-.389-.019a.508.508,0,0,1,0,.345,1.094,1.094,0,0,1-.467.5c-3.988,2.753-8.553,4.63-12.565,7.349-3.315,2.245-6.422,5.138-10.4,5.841a20.753,20.753,0,0,1-7.359-.474l-13.879-2.58c-5.618-1.044-11.276-2.1-16.583-4.175a1.433,1.433,0,0,1-.4-.21c-.671,1.016.618,2.5,1.473,3.04a10.252,10.252,0,0,0,4.152,1.164,159.812,159.812,0,0,1,18.13,3.564c5.342,1.375,11,3.029,16.279,1.45a21.14,21.14,0,0,0,5.06-2.426c4.355-2.711,8.244-6.159,12.908-8.328a11.486,11.486,0,0,0,3.16-1.8A2.892,2.892,0,0,0,156.394,97.145Z" fill="#659296"/>
  <path id="Path_26" data-name="Path 26" d="M150.066,95.881a3.74,3.74,0,0,1-.656.721A30.608,30.608,0,0,1,145,99.687q-2.835,1.748-5.67,3.489a40.319,40.319,0,0,1-7.339,3.836,13.665,13.665,0,0,1-8.184.567,48.657,48.657,0,0,1-5.607-2.49c-1.262-.536-5.082-.387-5.512-1.755-.488-1.557,2.641-3.149,3.717-3.761q3.1-1.762,6.294-3.352a31.119,31.119,0,0,1,4.63-1.975,35.681,35.681,0,0,1,6.3-1.157c1.505-.185,3.034-.37,4.562-.488C142.143,93.682,146.055,95.094,150.066,95.881Z" fill="#9abcc1"/>
  <path id="Path_27" data-name="Path 27" d="M105.236,98.628c-.389.247-.809.561-.853,1.011-.071.74.858,1.137,1.6,1.3l18.148,4.044a23.564,23.564,0,0,0,2.873.517,14.53,14.53,0,0,0,6.427-.965,37.132,37.132,0,0,0,6.488-3.468,43.308,43.308,0,0,0,5.268-3.657,21.725,21.725,0,0,1,3.379-2.694c.834-.464,1.908-.968,1.919-1.9a40.645,40.645,0,0,0-8.3-2.6l-3.83-.9-4.51-1.065a63.775,63.775,0,0,0-8.781-1.643,10.177,10.177,0,0,0-4.914.485c-2.946,1.253-4.23,4.492-6.618,6.434C111.013,95.574,107.974,96.887,105.236,98.628Z" fill="#fff"/>
  <path id="Path_28" data-name="Path 28" d="M145.363,91.975a1.166,1.166,0,0,1-.4.792,2.252,2.252,0,0,1-1.8.185,19.6,19.6,0,0,0-3.97-.25,3.328,3.328,0,0,0-1.569.348,8.077,8.077,0,0,0-1.289,1.3,5.141,5.141,0,0,1-2.744,1.175,10.788,10.788,0,0,0-3.5.981c-1.383.823-2.1,2.354-2.98,3.674s-2.288,2.6-3.893,2.384c-1.347-.185-2.59-1.077-3.911-1.557.584-.211,1.162-.427,1.745-.638a16.086,16.086,0,0,0,4.26-2.045c1.162-.875,2.053-2.041,3.142-3a11.393,11.393,0,0,1,3.474-2.1c.027-.009.031-.035.027-.075a.89.89,0,0,0,.407-.027,7.092,7.092,0,0,0,2.106-1.258,5.59,5.59,0,0,1,3.324-.924c.027,0,.054,0,.082,0,.212-.013.42-.022.633-.031.569-.035,1.139-.062,1.708-.088,1.194-.053,2.4-.092,3.6-.119,0-.181,1.578.2,1.9.4C145.829,91.078,145.533,91.557,145.363,91.975Z" fill="#f4f2f2"/>
  <path id="Path_29" data-name="Path 29" d="M143.839,90.695q-1.812.04-3.618.119c-.781.035-1.559.075-2.342.119-.027,0-.054,0-.081,0a5.584,5.584,0,0,0-3.324.924,7.086,7.086,0,0,1-2.107,1.258c-.633.172-.732-.2-1.171-.678a11.116,11.116,0,0,1-1.067-1.614c-1.57-2.406-4.7-3.519-7.628-3.445-.362.009-.828-.035-.918-.378a.707.707,0,0,1,.122-.51c1.221-2.217,3.59-3.568,5.883-4.729,1.483-.748,2.98-1.474,4.5-2.147.145-.066.29-.132.434-.194a4.375,4.375,0,0,1,.529-.193,3.769,3.769,0,0,1,3.184.6c2.414,1.324,4.16,3.572,5.733,5.732C143.075,87.092,144.21,88.86,143.839,90.695Z" fill="#e54c4c"/>
  <path id="Path_30" data-name="Path 30" d="M112.819,94.946a5.792,5.792,0,0,1-.981,1.688,4.983,4.983,0,0,1-1.387.892l-1.958.972c-1.767.877-3.688,1.921-4.331,3.747a2.1,2.1,0,0,1-.5.992,2.182,2.182,0,0,1-.931.33,4.177,4.177,0,0,0-2.9,2.534,5.819,5.819,0,0,0-.154,3.165l4.069,1.3a5.8,5.8,0,0,0,2.521.41c.5-.069.982-.27,1.486-.344.68-.1,1.388.034,2.055-.131,1.8-.444,2.336-2.642,3.564-4a16.858,16.858,0,0,0,1.7-1.73,1.6,1.6,0,0,0-.149-2.168l6.132-2.243a16.221,16.221,0,0,0,4.264-2.048c1.161-.873,2.052-2.039,3.139-3a11.332,11.332,0,0,1,3.475-2.1c.355-.135-2.51-3.493-2.8-3.741a11.487,11.487,0,0,0-4.465-2.31c-3.007-.807-6.309,1.3-8.45,3.226A14.236,14.236,0,0,0,112.819,94.946Z" fill="#fe6361"/>
  <path id="Path_31" data-name="Path 31" d="M147.574,58.831a54.234,54.234,0,0,0,.3,5.539,29.77,29.77,0,0,1-6,1.544c-1.063.167-2.139.29-3.215.383-.773.066-1.868-.092-2.039-1.016-.118-.651.506-1.284.818-1.8a28.592,28.592,0,0,1,3.188-4.949,11.964,11.964,0,0,1,4.481-3.014,8.745,8.745,0,0,1,.945-.3,4.159,4.159,0,0,1,1.931-.07A12.61,12.61,0,0,0,147.574,58.831Z" fill="#db4646"/>
  <path id="Path_32" data-name="Path 32" d="M145.019,57.388a16.255,16.255,0,0,0-3.12,8.178c-.009.114-.017.229-.027.348-1.062.167-2.138.29-3.215.383-.773.066-1.867-.092-2.039-1.016-.118-.651.506-1.285.819-1.8a28.534,28.534,0,0,1,3.188-4.949,11.956,11.956,0,0,1,4.481-3.014,8.7,8.7,0,0,1,.945-.3C146.43,55.765,145.711,56.451,145.019,57.388Z" fill="#c13636"/>
  <path id="Path_33" data-name="Path 33" d="M151.463,49.518a9.514,9.514,0,0,1-2.514,5.613,1.985,1.985,0,0,1-1.045.691c-.439.084-.909-.1-1.329.044a1.792,1.792,0,0,0-.7.554,35.279,35.279,0,0,0-3.314,4.452,9.483,9.483,0,0,1-1.723,2.279,8.807,8.807,0,0,1-4.4,1.562,9.639,9.639,0,0,1-1.971.176,3.747,3.747,0,0,1-1.081-.2,6.062,6.062,0,0,1-2.433-2.006,10.159,10.159,0,0,1-1.551-2.2,9.654,9.654,0,0,1-.62-2.076,44.274,44.274,0,0,1-1.352-9.608,22.736,22.736,0,0,1,.688-5.429c.258-1.038,1.434-2.67.244-3.348a61.773,61.773,0,0,0,6.6-.655c.845-.123,1.691-.268,2.55-.422,3.047-.55,6.208-1.016,9.269-.3a2.686,2.686,0,0,1,1.213.528,2.859,2.859,0,0,1,.668,2.138,29.84,29.84,0,0,1-.067,4.219,5.425,5.425,0,0,0,.185,3.242,3.5,3.5,0,0,1,1.384-.559,1.2,1.2,0,0,1,1.248.629A1.582,1.582,0,0,1,151.463,49.518Z" fill="#db4646"/>
  <path id="Path_34" data-name="Path 34" d="M151.463,49.518a9.514,9.514,0,0,1-2.514,5.613,1.985,1.985,0,0,1-1.045.691c-.439.084-.909-.1-1.329.044a1.792,1.792,0,0,0-.7.554,35.279,35.279,0,0,0-3.314,4.452,9.483,9.483,0,0,1-1.723,2.279,8.807,8.807,0,0,1-4.4,1.562,9.639,9.639,0,0,1-1.971.176,1.851,1.851,0,0,1,1.067-1.694,18.813,18.813,0,0,1,2.233-.8,4.856,4.856,0,0,0,2.989-4.843c-.127-1.276-.76-2.644-.113-3.757.5-.871,1.632-1.245,2.179-2.09a4,4,0,0,0,.072-3.163,5.323,5.323,0,0,0-1.289-2.719c-1.271-1.17-3.3-.919-4.991-.475-1.126.3-3.351,1.205-4.306.154-.908-1,.037-2.53.615-3.414a27.886,27.886,0,0,1,2.035-2.728c.846-.123,1.691-.268,2.55-.422,3.048-.55,6.209-1.016,9.27-.3a2.678,2.678,0,0,1,1.212.528,2.86,2.86,0,0,1,.669,2.138,29.842,29.842,0,0,1-.067,4.219,5.425,5.425,0,0,0,.185,3.242,3.489,3.489,0,0,1,1.384-.559,1.2,1.2,0,0,1,1.248.629A1.567,1.567,0,0,1,151.463,49.518Z" fill="#db4646"/>
  <path id="Path_35" data-name="Path 35" d="M143.775,32.228a14.71,14.71,0,0,0-5.375-.7,21.324,21.324,0,0,0-2.928.138,10.465,10.465,0,0,0-5.538,2.514,8.9,8.9,0,0,0-2.879,5.218,6.044,6.044,0,0,1-.392,1.789c-.218.447-.584.816-.78,1.272a2.487,2.487,0,0,0,.961,2.84,5.194,5.194,0,0,0,3.128.843,14.749,14.749,0,0,0,6.287-1.65c1.962-.946,3.786-2.139,5.673-3.219a2.781,2.781,0,0,1,1.691-.515A2.145,2.145,0,0,1,145.1,41.95c.815,1.47.713,3.235.707,4.9a3.088,3.088,0,0,0,.414,1.868A1.793,1.793,0,0,0,149,48.656a3.471,3.471,0,0,1,.344-.528,3.216,3.216,0,0,1,.452-.338,3.411,3.411,0,0,0,1.092-2.255,24.03,24.03,0,0,0,.222-7.017c-.226-1.947-1.066-2.829-2.821-3.659C146.7,34.11,145.424,32.874,143.775,32.228Z" fill="#fff"/>
  <path id="Path_36" data-name="Path 36" d="M31.244,113.394c-2.232,4.045-3.963,8.608-3.3,13.153q21.043,0,42.037,1.722a26.744,26.744,0,0,0-.06-15.295,1.828,1.828,0,0,0-.644-1.073,1.989,1.989,0,0,0-.953-.226L47.443,110.3,37,109.607c-.812-.054-4.031-.709-4.58-.153-.192.194-.144,1.583-.226,1.891A9.463,9.463,0,0,1,31.244,113.394Z" fill="#fff"/>
  <path id="Path_37" data-name="Path 37" d="M80.015,72.305a37.38,37.38,0,0,1,.561,10.485,9.549,9.549,0,0,0,.007,2.944,6.828,6.828,0,0,0,3.461,4.042c1.584.936,3.344,1.582,4.862,2.616a11.306,11.306,0,0,0-3.626,4.917,32.96,32.96,0,0,0-1.606,5.915A36.707,36.707,0,0,1,71.852,98.1q.728-7.49,1.456-14.979.339-3.486.678-6.973.364-3.742.728-7.484.187-1.931.375-3.863c.077-.789-.114-2.641.411-3.235,1.467-1.659,2.369,3.059,2.615,3.809A58.843,58.843,0,0,1,80.015,72.305Z" fill="#becfd3"/>
  <path id="Path_38" data-name="Path 38" d="M77.868,73.428a29.33,29.33,0,0,1-.529,4.342c-1.578,9.146-3.165,18.327-6.059,27.165a2.721,2.721,0,0,1-.728,1.3,2.859,2.859,0,0,1-1.668.466,123.1,123.1,0,0,1-22.807-.646,5.786,5.786,0,0,0-2.442.039,5.112,5.112,0,0,0-2.392,2.042,34.044,34.044,0,0,0-4.332,7.821c-4.314-1.289-7.257-5.059-9.9-8.618a4.506,4.506,0,0,1-.76-1.306,4.364,4.364,0,0,1-.045-1.747,147.089,147.089,0,0,1,6.986-31.112A9.1,9.1,0,0,1,34.4,70.6a11.773,11.773,0,0,1,2.686-2.266,30.01,30.01,0,0,0,6.118-5.82c.538-.691.927-1.575,1.519-2.208a5.735,5.735,0,0,1,2.623-1.232,69.108,69.108,0,0,1,7.886-1.944c.036-.009.072-.013.109-.022,5.317-1,10.721-1.5,16.111-2a5,5,0,0,1,2.216.132c1.56.59,2.03,2.472,2.284,4.078q.705,4.408,1.4,8.807A29.465,29.465,0,0,1,77.868,73.428Z" fill="#fff"/>
  <path id="Path_39" data-name="Path 39" d="M76.471,84.036s0-.007,0-.01.027-.031.039-.048a.383.383,0,0,0-.122-.572c1.3-1.327,2.6-2.88,2.622-4.412a.314.314,0,0,0-.468-.261c-.079.043-.156.09-.233.138.014-.082.031-.163.042-.246a.465.465,0,0,0-.784-.316c-1.57,1.948-2.628,4.188-4.308,6.1-1.63,1.854-3.35,4.51-5.667,5.525-.011,0,0,.023.008.019a12.274,12.274,0,0,0,1.828-.79,7.738,7.738,0,0,0,2.544-1.405s.009.007.01,0a.094.094,0,0,1,0-.012,17.887,17.887,0,0,0,1.638-1.525,3.527,3.527,0,0,1,1.305-.311,12.592,12.592,0,0,1,2.577.76.556.556,0,0,0,.438-1.01C77.3,85.206,76.613,84.877,76.471,84.036Z" fill="#becfd3"/>
  <path id="Path_40" data-name="Path 40" d="M48.081,104.947c-.172-1.894-2.1-2.622-3.17-3.966-1.277-1.611-1.108-3.862-.878-5.884l.845-7.413a14.871,14.871,0,0,0-.168-6.064,23.565,23.565,0,0,0-.267-2.7c-.032-.211-.074-.418-.119-.626a6.029,6.029,0,0,0-1.179-2.9,7.448,7.448,0,0,0-2.069-2.151,5.054,5.054,0,0,0-1.985-.967.022.022,0,0,0-.018.04c1.994,1.234,2.768,3.964,3.37,6.122a7.411,7.411,0,0,1-.023,3.514A8.706,8.706,0,0,0,42,82.954c-1.543,4.35-1.959,8.989-2.364,13.573a12.912,12.912,0,0,0-.037,2.907c.379,2.729,3.165,7.074,6.184,7.657A1.808,1.808,0,0,0,48.081,104.947Z" fill="#becfd3"/>
  <path id="Path_41" data-name="Path 41" d="M100.622,93.087a12.489,12.489,0,0,0,.743,3.075c.3.916.766,1.975,1.737,2.165a2.891,2.891,0,0,0,1.036-.051l2.311-.4a10.553,10.553,0,0,0,5.112-1.83,18.823,18.823,0,0,0,2.692-3.565c1.669-2.262,4.155-3.8,6.578-5.283a5.354,5.354,0,0,1,2.534-1c.6-.018,1.37.071,1.611-.459.058-.127.074-.281.179-.375a1.263,1.263,0,0,1,.353-.149.654.654,0,0,0,.276-.845,1.352,1.352,0,0,0-.727-.644,1.088,1.088,0,0,1-.485-.309c-.074-.108-.1-.245-.167-.356a1.016,1.016,0,0,0-.827-.324l-4.282-.292a4.787,4.787,0,0,0-1.747.1c-1.6.5-2.288,2.5-3.873,3.043-.508.174-1.068.179-1.568.376-1,.394-1.521,1.431-2.124,2.3a9.329,9.329,0,0,1-4.518,3.394,9.615,9.615,0,0,1-2.856.56C101.786,92.253,100.538,91.837,100.622,93.087Z" fill="#4cb4d5"/>
  <path id="Path_42" data-name="Path 42" d="M123.272,86.247a.683.683,0,0,0-.846-.44c-3.016.89-6.11,1.673-9.2,2.324a.659.659,0,0,0-.519.785.674.674,0,0,0,.662.52.721.721,0,0,0,.145-.015c3.122-.659,6.252-1.45,9.3-2.351A.658.658,0,0,0,123.272,86.247Z" fill="#ae273e"/>
  <path id="Path_43" data-name="Path 43" d="M57.1,106.879a16.1,16.1,0,0,1-1.253,5.561,1.929,1.929,0,0,1-.592.963,2.068,2.068,0,0,1-1.017.282,74.214,74.214,0,0,1-8.266.457,29.63,29.63,0,0,1-3.545-.264,17.728,17.728,0,0,0-4.508-.378q1.519-2.467,3.043-4.931c.7-1.131,1.384-2.182,2.654-2.49a3.539,3.539,0,0,1,.543-.08C48.477,105.727,52.768,107.055,57.1,106.879Z" fill="#fe6361"/>
  <path id="Path_44" data-name="Path 44" d="M60.658,67.779A3.343,3.343,0,0,1,58.727,67a15.637,15.637,0,0,0-15.509-.669,5.266,5.266,0,0,1-1.831.743,1.445,1.445,0,0,1-1.587-.88.092.092,0,0,1,0-.035,29.143,29.143,0,0,0,3.4-3.638c.538-.691.927-1.575,1.519-2.208a5.735,5.735,0,0,1,2.623-1.232,69.114,69.114,0,0,1,7.886-1.944c.036-.009.072-.013.109-.022a16.482,16.482,0,0,1,2.4,2.908,31.327,31.327,0,0,1,2.315,4.043A4.942,4.942,0,0,1,60.658,67.779Z" fill="#fff"/>
  <path id="Path_45" data-name="Path 45" d="M72.247,55.607a1.989,1.989,0,0,1-1.013,1.417c-1.32.946-2.989,1.808-3.314,3.37a5.175,5.175,0,0,0-.059,1.183,60.377,60.377,0,0,1-.28,7.619q-.2,2.026-.543,4.034c-.018.119-.05.255-.163.3-.145.065-.3-.053-.407-.163a49.313,49.313,0,0,1-3.274-4.395c-3.265-4.228-8.351-6.682-12.557-10.035a1.786,1.786,0,0,1-.534-.581,1.557,1.557,0,0,1,.335-1.474c1.18-1.711,3.066-2.807,4.784-4.008A33.888,33.888,0,0,0,61.3,47.42c.674-.774,1.388-2.23,2.591-1.791a8.768,8.768,0,0,1,2.6,2.186c.289.3.556.581.8.8a21.115,21.115,0,0,1,2.6,2.609,20.536,20.536,0,0,1,2.039,3.418A2.094,2.094,0,0,1,72.247,55.607Z" fill="#db4646"/>
  <path id="Path_46" data-name="Path 46" d="M72.247,55.607a1.99,1.99,0,0,1-1.013,1.417c-1.32.946-2.989,1.808-3.314,3.37a5.174,5.174,0,0,0-.059,1.183,60.358,60.358,0,0,1-.28,7.619,3.733,3.733,0,0,1-.909-1.469,9.485,9.485,0,0,1-.366-2.767c-.054-1.575-.1-3.154-.158-4.733a5.96,5.96,0,0,0-.33-2.134c-.534-1.3-1.958-2.283-1.935-3.682.014-.968.737-1.773,1.139-2.662A6.994,6.994,0,0,0,65.3,48.99c.05-.7.579-1.016,1.2-1.175.289.3.556.581.8.8a21.115,21.115,0,0,1,2.6,2.609,20.527,20.527,0,0,1,2.039,3.418A2.1,2.1,0,0,1,72.247,55.607Z" fill="#c13636"/>
  <path id="Path_47" data-name="Path 47" d="M85.916,50.855a1.716,1.716,0,0,1-1.718.664,8.674,8.674,0,0,0-1.953-.185,2.717,2.717,0,0,1-.393,2.314,2.038,2.038,0,0,0-.466.5,4.493,4.493,0,0,0-.136.6c-.226.7-1.284.8-1.628,1.447-.113.22-.131.471-.231.7a1.294,1.294,0,0,1-.927.713,3.874,3.874,0,0,1-1.637,0,37.172,37.172,0,0,1-6.267-1.9c-.425-.158-.846-.326-1.266-.488a16.526,16.526,0,0,1-2.831-1.21,2.562,2.562,0,0,1-1.049-1.153,3.847,3.847,0,0,1-.05-2,1.249,1.249,0,0,0-.063-.814c-.249-.436-.692-.172-1.058-.1a1.392,1.392,0,0,1-1.207-.339c-1.1-1.012-.9-2.741-.7-4.034a3.481,3.481,0,0,1,.375-1.271c.606-1.038,2-1.012,3-.642.375.141.746.277,1.117.431.271.114.543.238.814.361.357-.669.755-1.337,1.189-1.988a31.413,31.413,0,0,1,3.2-4.056,10.946,10.946,0,0,1,2.293-1.984,13.982,13.982,0,0,1,4.956-1.5,10.8,10.8,0,0,1,3.378-.224,3.573,3.573,0,0,1,2.731,1.751,4.329,4.329,0,0,1,.353,1.623c.19,2.8-1.65,5.165-1.506,7.967a4.736,4.736,0,0,0,.818,2.415C85.568,49.193,86.332,50.055,85.916,50.855Z" fill="#db4646"/>
  <path id="Path_48" data-name="Path 48" d="M78.465,57.608a3.874,3.874,0,0,1-1.637,0,37.181,37.181,0,0,1-6.267-1.9c-.425-.158-.846-.326-1.266-.488a16.533,16.533,0,0,1-2.831-1.21,2.563,2.563,0,0,1-1.049-1.153,3.846,3.846,0,0,1-.05-2,1.25,1.25,0,0,0-.063-.814c-.249-.435-.692-.171-1.058-.1a1.392,1.392,0,0,1-1.207-.339c-1.1-1.012-.9-2.741-.7-4.034a3.48,3.48,0,0,1,.375-1.271c.606-1.038,2-1.012,3-.642.375.141.746.277,1.117.431.271.114.543.238.814.361.357-.669.755-1.337,1.189-1.988,1.008.084,2.55-.1,2.93.722.534,1.153-.687,3.2-1.1,4.254-.547,1.395-.877,3.071,0,4.294A5.419,5.419,0,0,0,73,53.3c1.035.462,2.071.928,3.106,1.39,1.067.475,2.283,1.139,2.415,2.274A1.613,1.613,0,0,1,78.465,57.608Z" fill="#db4646"/>
  <path id="Path_49" data-name="Path 49" d="M78.234,44.548a11.352,11.352,0,0,0,3.832-2.3c1.8-1.827,2.258-4.5,3.361-6.792a4.1,4.1,0,0,0,.5-1.4,3.054,3.054,0,0,0-.739-1.962,21.8,21.8,0,0,0-5-4.5c-2.212-1.613-4.568-3.284-7.316-3.581-3.772-.407-7.245,1.845-10.333,3.993l-3.688,2.566a4.552,4.552,0,0,0-2.215,2.6c-.216,1.225.63,2.407.624,3.65a6.549,6.549,0,0,1-.518,2.061,9.067,9.067,0,0,0-.41,5.3,5.1,5.1,0,0,0,3.648,3.7,2.125,2.125,0,0,0,2.421-.872c.369-.841-.135-2.051.625-2.59a4.544,4.544,0,0,1,3.72-.007c.967.641,1.19,1.419,2.5,1.714C72.24,46.814,75.521,45.677,78.234,44.548Z" fill="#fff"/>
  <path id="Path_50" data-name="Path 50" d="M55.767,31.254a1.993,1.993,0,0,0-.913,1.24,5.745,5.745,0,0,0-.145,1.555,2.011,2.011,0,0,0,.183,1.033,2.048,2.048,0,0,0,1.845.694,1.97,1.97,0,0,0,.677-.085c.657-.242.867-1.034.94-1.714.076-.709.43-2.308-.242-2.8A3.268,3.268,0,0,0,55.767,31.254Z" fill="#fe6361"/>
  <path id="Path_51" data-name="Path 51" d="M51.015,30.27a7.183,7.183,0,0,0-2.169.82,13.619,13.619,0,0,0-6.482,7.878,31.513,31.513,0,0,0-.932,5.98c-.464,4.456-1.471,9.167-4.717,12.342a7.282,7.282,0,0,0-1.333,1.476,4.052,4.052,0,0,0-.3,2.779,4.161,4.161,0,0,0,.871,1.991,3.713,3.713,0,0,0,3.724.916,6.761,6.761,0,0,0,3.242-2.274,6.28,6.28,0,0,1,1.208-1.244,1.644,1.644,0,0,1,1.662-.186c.512.286.714.892,1.063,1.355a3.292,3.292,0,0,0,2.389,1.165,8.381,8.381,0,0,0,2.719-.355,8.116,8.116,0,0,0,2.571-1.026,5.936,5.936,0,0,0,2.312-4.862,19.076,19.076,0,0,0-1.02-5.452,14.6,14.6,0,0,1-.772-5.478c.259-2.387,1.623-4.744.99-7.065-.261-.957-.86-1.9-.649-2.865.309-1.424,1.206-3.24.275-4.673C54.84,30.22,52.346,30.037,51.015,30.27Z" fill="#fff"/>
  <path id="Path_52" data-name="Path 52" d="M82.367,119.263a8.31,8.31,0,0,0-2.957.6c-.036.013-.068.027-.1.044a23.408,23.408,0,0,1-3.8,1.535c-2.41.5-4.915-.594-7.357-.264a12.443,12.443,0,0,0-2.478.687c.09-1.813,2.414-2.89,2.641-4.695a3.113,3.113,0,0,0-1.411-2.736,11.692,11.692,0,0,0-2.971-1.359,7.1,7.1,0,0,1-2.822-1.6c-.393-.417-.687-.919-1.044-1.368a6.469,6.469,0,0,0-1.868-1.6c.018-.875,1.081-1.293,1.94-1.558,1.668-.51,3.143-1.513,4.811-1.984,1.8-.505,3.69-.54,5.489-1.139.642-.211,1.465-.422,1.917.07a1.161,1.161,0,0,1,.267.673,5.331,5.331,0,0,1,.027.537,11.124,11.124,0,0,0,2.243,6c.375.533.787,1.052,1.194,1.567.5.62.99,1.245,1.488,1.865A18.653,18.653,0,0,0,82.367,119.263Z" fill="#ae273e"/>
  <path id="Path_53" data-name="Path 53" d="M82.367,119.263a8.31,8.31,0,0,0-2.957.6c-.036.013-.068.027-.1.044a8.725,8.725,0,0,1-.922-.523c-1.266-.8-2.5-1.923-2.668-3.383a1.944,1.944,0,0,0-.271-1.1,2.492,2.492,0,0,0-.954-.5,2.148,2.148,0,0,1-1.139-1.241,11.327,11.327,0,0,0-.4-1.662,3.539,3.539,0,0,0-2.17-1.36c-.837-.285-1.755-.765-1.9-1.609a1.987,1.987,0,0,1,.782-1.725c.633-.572,1.424-.924,2.1-1.443.312-.242.583-.528.868-.792a5.331,5.331,0,0,1,.027.537,11.124,11.124,0,0,0,2.243,6c.375.533.787,1.052,1.194,1.567.5.62.99,1.245,1.488,1.865A18.665,18.665,0,0,0,82.367,119.263Z" fill="#9b1e39"/>
  <path id="Path_54" data-name="Path 54" d="M76.832,109.107a3.813,3.813,0,0,1-.415-.622c-.086-.183-.132-.382-.217-.565a2.064,2.064,0,0,0-.467-.618,3.432,3.432,0,0,0-3.162-.8c-.484.127-1.006.47-.978.958a.991.991,0,0,0,.7.774.419.419,0,0,1,.232.149.4.4,0,0,1,.026.22,1.727,1.727,0,0,0,.721,1.467c.5.353,1.2.468,1.52.978a5.282,5.282,0,0,1,.253.572,1.656,1.656,0,0,0,1.567.9C78.93,112.371,77.572,110.113,76.832,109.107Z" fill="#2f88c0"/>
  <path id="Path_55" data-name="Path 55" d="M55.387,106.336a5.365,5.365,0,0,1-.951,3.3,5.6,5.6,0,0,0-.958,1.548,3.63,3.63,0,0,0,.269,2.117,2.608,2.608,0,0,0,1.014,1.567,2.708,2.708,0,0,0,1.127.25,11.952,11.952,0,0,0,3.707-.1,3.05,3.05,0,0,1,1.529-.166c.931.27,1.233,1.526,2.145,1.848a11.3,11.3,0,0,0,1.187.174c1.065.251,1.792,1.535,2.879,1.4a1.5,1.5,0,0,0,1.159-1.657,3.054,3.054,0,0,0-1.141-1.863,7.037,7.037,0,0,0-1.711-1.112c-1.561-.719-3.478-.936-4.576-2.233-.649-.766-.944-1.852-1.824-2.356-.375-.214-.9-.392-.918-.814a.679.679,0,0,1,.425-.6,3.41,3.41,0,0,1,.759-.2c.282-.062,1.311-.322,1.376-.672.087-.467-1.082-.241-1.382-.239A38.461,38.461,0,0,1,55.387,106.336Z" fill="#4cb4d5"/>
  <path id="Path_56" data-name="Path 56" d="M79.458,114.9a5.976,5.976,0,0,0-.658-2.576,2.681,2.681,0,0,0-2.192-1.408.956.956,0,0,0-.7.231,1.073,1.073,0,0,0-.178.91,2.958,2.958,0,0,0,.708,1.692c.431.444,1.1.711,1.315,1.284.067.175.085.364.145.542.132.391.771,1.148,1.277,1.047C79.787,116.5,79.493,115.359,79.458,114.9Z" fill="#4cb4d5"/>
  <path id="Path_57" data-name="Path 57" d="M102.859,98.046c-2.053.519-4.11,1.043-6.19,1.439-2.907.555-5.851.871-8.79,1.166-.235.022-.47.048-.705.07l-2.885.291a4.332,4.332,0,0,1,.316-1.945,19.352,19.352,0,0,1,1.262-3.2,16.878,16.878,0,0,1,1.84-2.6c.2-.251.389-.616.7-.74a4.611,4.611,0,0,1,1.569.035c.836.035,1.673.062,2.509.088q2.265.059,4.54.075a27.669,27.669,0,0,1,3.9-.022Q102.014,95.336,102.859,98.046Z" fill="#fe6361"/>
  <path id="Path_58" data-name="Path 58" d="M45.967,114.142a29.63,29.63,0,0,1-3.545-.264,17.728,17.728,0,0,0-4.508-.378q1.519-2.467,3.043-4.931c.7-1.131,1.384-2.182,2.654-2.49a1.463,1.463,0,0,1,.751.462,2.118,2.118,0,0,1,.371,1.4,8.878,8.878,0,0,1-.339,2.336,3.1,3.1,0,0,0-.2,1.68c.185.621.8,1.012,1.248,1.483A3.364,3.364,0,0,1,45.967,114.142Z" fill="#f45b5b"/>
  <path id="Path_59" data-name="Path 59" d="M180.818,71.338a85.092,85.092,0,0,1-3.961,13.783,15.233,15.233,0,0,1-1.7,3.48c-.99,1.4-2.392,2.481-3.378,3.88a26.543,26.543,0,0,0-2.017,4.012c-3.726,7.831-11.743,12.978-16.093,20.491-1.551,2.684-2.631,5.654-4.621,8.047a5.425,5.425,0,0,1-2.188,1.729c-1.669.629-3.5-.088-5.115-.893.507-1.742,1.678-3.493,1.592-5.323a7.346,7.346,0,0,1-.072-1.857c.212-.959,1.108-1.6,1.8-2.305,1.849-1.865,2.528-4.54,4.051-6.661,1.99-2.767,5.232-4.377,7.837-6.611a38.983,38.983,0,0,0,5.927-6.987,6.456,6.456,0,0,0,1.5-3.18c.082-1.192-.516-2.389-.276-3.559.3-1.457,1.737-2.358,2.786-3.436,1.786-1.83,2.541-4.377,3.02-6.854s.76-5.037,1.827-7.338a7.546,7.546,0,0,1,1.849-2.49q2.028-.045,4.047-.281c1.194-.141,2.754-.141,3.193.95A2.475,2.475,0,0,1,180.818,71.338Z" fill="#b6cbd1"/>
  <path id="Path_60" data-name="Path 60" d="M112.9,88.533c-5.413,1.105-8.785,5.042-10,10.112A5.774,5.774,0,0,1,99.37,103a8.889,8.889,0,0,0-3.06,1.962c-1.729,1.9-1.9,4.417-2.232,6.8-.366,2.618-1.839,3.514-4.228,4.245a11.031,11.031,0,0,0-3.886,1.85c-2.109,1.717-2.555,4.2-3.189,6.663-.51,1.987-1.76,5.781-4.623,5.361-2.553-.375-3.044-2.652-3.41-4.714-.415-2.343-.943-4.688-3.519-5.509a.441.441,0,0,0-.241.849c3.74,1.192,2.232,6.259,4.276,8.806a3.985,3.985,0,0,0,5.529.558c2.384-1.669,2.658-4.706,3.373-7.24a7.348,7.348,0,0,1,3.75-4.963c1.424-.722,3.049-.888,4.472-1.593,2.308-1.143,2.461-3.3,2.736-5.552.232-1.911.745-4.03,2.27-5.383,1.285-1.141,3.092-1.4,4.416-2.474,2.215-1.795,1.894-5,3.152-7.344a11.867,11.867,0,0,1,8.189-5.938C113.715,89.266,113.474,88.417,112.9,88.533Z" fill="#ff605d"/>
  <path id="Path_61" data-name="Path 61" d="M143.839,90.695q-1.812.04-3.618.119c.005-.132.014-.264.023-.388a8.231,8.231,0,0,0-1.569-5.142,18.754,18.754,0,0,0-3.88-3.915,20.893,20.893,0,0,1-2.708-1.75c.145-.066.29-.132.434-.194a4.375,4.375,0,0,1,.529-.193,3.769,3.769,0,0,1,3.184.6c2.414,1.324,4.16,3.572,5.733,5.732C143.075,87.092,144.21,88.86,143.839,90.695Z" fill="#6b6565"/>
  <path id="Path_62" data-name="Path 62" d="M92.486,92.657a5.3,5.3,0,0,1-1.008,2.472c-1.2,1.839-2.4,3.682-3.6,5.521-.235.022-.47.048-.705.07l-2.885.291a4.332,4.332,0,0,1,.316-1.945,19.36,19.36,0,0,1,1.262-3.2,16.878,16.878,0,0,1,1.84-2.6c.2-.251.389-.616.7-.74a4.611,4.611,0,0,1,1.569.035C90.813,92.6,91.65,92.63,92.486,92.657Z" fill="#db4646"/>
</svg>
