<svg width="20" height="25" viewBox="0 0 20 25" fill="none" xmlns="http://www.w3.org/2000/svg">
<path d="M0 0H10H20V20C20 22.7614 17.7614 25 15 25H5C2.23858 25 0 22.7614 0 20V0Z" fill="#F39494"/>
<path d="M0.5 0.5H10H19.5V20C19.5 22.4853 17.4853 24.5 15 24.5H5C2.51472 24.5 0.5 22.4853 0.5 20V0.5Z" stroke="#7A7A7A" stroke-opacity="0.5"/>
<path d="M15.5 2L15.5 24" stroke="white" stroke-opacity="0.8"/>
<line x1="15" y1="2.5" x2="10" y2="2.5" stroke="white" stroke-opacity="0.8"/>
<line x1="15" y1="6.5" x2="13" y2="6.5" stroke="white" stroke-opacity="0.8"/>
<line x1="15" y1="9.5" x2="13" y2="9.5" stroke="white" stroke-opacity="0.8"/>
<line x1="10" y1="13.5" x2="15" y2="13.5" stroke="white" stroke-opacity="0.8"/>
<line x1="15" y1="17.5" x2="13" y2="17.5" stroke="white" stroke-opacity="0.8"/>
<line x1="15" y1="21.5" x2="13" y2="21.5" stroke="white" stroke-opacity="0.8"/>
</svg>
