<svg width="29" height="47" viewBox="0 0 29 47" fill="none" xmlns="http://www.w3.org/2000/svg">
<rect x="0.5" y="4.29541" width="28" height="32.7487" rx="4.5" fill="#FEDA1E" fill-opacity="0.4" stroke="#F7D750"/>
<rect x="6.03931" y="0.5" width="16.9213" height="3.24809" fill="#FEDA1E" fill-opacity="0.4" stroke="#F7D750"/>
<rect x="9.94946" y="37.5918" width="8.77528" height="1.12405" fill="#FEDA1E" fill-opacity="0.4" stroke="#F7D750"/>
<rect x="11.5506" y="1.63265" width="5.57283" height="0.94402" rx="0.47201" fill="#FEDA1E" fill-opacity="0.4" stroke="#F7D750" stroke-width="0.94402"/>
<line x1="14.3257" y1="47" x2="14.3257" y2="38.9447" stroke="#F7D750"/>
<line x1="0.793213" y1="10.6113" x2="7.31007" y2="10.6113" stroke="#F7D750"/>
<line x1="0.793213" y1="16.2759" x2="7.31007" y2="16.2759" stroke="#F7D750"/>
<line x1="0.793213" y1="22.4121" x2="7.31007" y2="22.4121" stroke="#F7D750"/>
<line x1="0.793213" y1="28.5479" x2="7.31007" y2="28.5479" stroke="#F7D750"/>
<rect x="25.4158" y="25.5078" width="0.977529" height="0.708016" rx="0.354008" fill="#FEDA1E" fill-opacity="0.4"/>
<rect x="25.4158" y="27.8682" width="0.977529" height="0.708014" rx="0.354007" fill="#FEDA1E" fill-opacity="0.4"/>
<rect x="25.4158" y="30.228" width="0.977529" height="0.708018" rx="0.354009" fill="#FEDA1E" fill-opacity="0.4"/>
<rect x="25.4158" y="32.5879" width="0.977529" height="0.708014" rx="0.354007" fill="#FEDA1E" fill-opacity="0.4"/>
<rect x="25.4158" y="34.9482" width="0.977529" height="0.708014" rx="0.354007" fill="#FEDA1E" fill-opacity="0.4"/>
<rect x="2.60693" y="25.5078" width="0.977528" height="0.708016" rx="0.354008" fill="#FEDA1E" fill-opacity="0.4"/>
<rect x="2.60693" y="27.8682" width="0.977528" height="0.708014" rx="0.354007" fill="#FEDA1E" fill-opacity="0.4"/>
<rect x="2.60693" y="30.228" width="0.977528" height="0.708018" rx="0.354009" fill="#FEDA1E" fill-opacity="0.4"/>
<rect x="2.60693" y="32.5879" width="0.977528" height="0.708014" rx="0.354007" fill="#FEDA1E" fill-opacity="0.4"/>
<rect x="2.60693" y="34.9482" width="0.977528" height="0.708014" rx="0.354007" fill="#FEDA1E" fill-opacity="0.4"/>
<rect x="18.899" y="25.5078" width="0.977529" height="0.708016" rx="0.354008" fill="#FEDA1E" fill-opacity="0.4"/>
<rect x="18.899" y="27.8682" width="0.977529" height="0.708014" rx="0.354007" fill="#FEDA1E" fill-opacity="0.4"/>
<rect x="18.899" y="30.228" width="0.977529" height="0.708018" rx="0.354009" fill="#FEDA1E" fill-opacity="0.4"/>
<rect x="18.899" y="32.5879" width="0.977529" height="0.708014" rx="0.354007" fill="#FEDA1E" fill-opacity="0.4"/>
<rect x="18.899" y="34.9482" width="0.977529" height="0.708014" rx="0.354007" fill="#FEDA1E" fill-opacity="0.4"/>
<rect x="15.6405" y="25.5078" width="0.977529" height="0.708016" rx="0.354008" fill="#FEDA1E" fill-opacity="0.4"/>
<rect x="15.6405" y="27.8682" width="0.977529" height="0.708014" rx="0.354007" fill="#FEDA1E" fill-opacity="0.4"/>
<rect x="15.6405" y="30.228" width="0.977529" height="0.708018" rx="0.354009" fill="#FEDA1E" fill-opacity="0.4"/>
<rect x="15.6405" y="32.5879" width="0.977529" height="0.708014" rx="0.354007" fill="#FEDA1E" fill-opacity="0.4"/>
<rect x="15.6405" y="34.9482" width="0.977529" height="0.708014" rx="0.354007" fill="#FEDA1E" fill-opacity="0.4"/>
<rect x="12.382" y="25.5078" width="0.977529" height="0.708016" rx="0.354008" fill="#FEDA1E" fill-opacity="0.4"/>
<rect x="12.382" y="27.8682" width="0.977529" height="0.708014" rx="0.354007" fill="#FEDA1E" fill-opacity="0.4"/>
<rect x="12.382" y="30.228" width="0.977529" height="0.708018" rx="0.354009" fill="#FEDA1E" fill-opacity="0.4"/>
<rect x="12.382" y="32.5879" width="0.977529" height="0.708014" rx="0.354007" fill="#FEDA1E" fill-opacity="0.4"/>
<rect x="12.382" y="34.9482" width="0.977529" height="0.708014" rx="0.354007" fill="#FEDA1E" fill-opacity="0.4"/>
<rect x="9.12366" y="25.5078" width="0.977529" height="0.708016" rx="0.354008" fill="#FEDA1E" fill-opacity="0.4"/>
<rect x="9.12366" y="27.8682" width="0.977529" height="0.708014" rx="0.354007" fill="#FEDA1E" fill-opacity="0.4"/>
<rect x="9.12366" y="32.5879" width="0.977529" height="0.708014" rx="0.354007" fill="#FEDA1E" fill-opacity="0.4"/>
<rect x="9.12366" y="34.9482" width="0.977529" height="0.708014" rx="0.354007" fill="#FEDA1E" fill-opacity="0.4"/>
<rect x="9.12366" y="30.228" width="0.977529" height="0.708018" rx="0.354009" fill="#FEDA1E" fill-opacity="0.4"/>
<rect x="5.86511" y="25.5078" width="0.977526" height="0.708016" rx="0.354008" fill="#FEDA1E" fill-opacity="0.4"/>
<rect x="5.86511" y="27.8682" width="0.977526" height="0.708014" rx="0.354007" fill="#FEDA1E" fill-opacity="0.4"/>
<rect x="5.86511" y="30.228" width="0.977526" height="0.708018" rx="0.354009" fill="#FEDA1E" fill-opacity="0.4"/>
<rect x="5.86511" y="32.5879" width="0.977526" height="0.708014" rx="0.354007" fill="#FEDA1E" fill-opacity="0.4"/>
<rect x="5.86511" y="34.9482" width="0.977526" height="0.708014" rx="0.354007" fill="#FEDA1E" fill-opacity="0.4"/>
<rect x="22.1572" y="25.5078" width="0.977529" height="0.708016" rx="0.354008" fill="#FEDA1E" fill-opacity="0.4"/>
<rect x="22.1572" y="27.8682" width="0.977529" height="0.708014" rx="0.354007" fill="#FEDA1E" fill-opacity="0.4"/>
<rect x="22.1572" y="30.228" width="0.977529" height="0.708018" rx="0.354009" fill="#FEDA1E" fill-opacity="0.4"/>
<rect x="22.1572" y="32.5879" width="0.977529" height="0.708014" rx="0.354007" fill="#FEDA1E" fill-opacity="0.4"/>
<rect x="22.1572" y="34.9482" width="0.977529" height="0.708014" rx="0.354007" fill="#FEDA1E" fill-opacity="0.4"/>
</svg>
