<svg width="38" height="66" viewBox="0 0 38 66" fill="none" xmlns="http://www.w3.org/2000/svg">
<rect x="0.5" y="5.82983" width="37" height="46.3918" rx="4.5" fill="#FEDA1E" fill-opacity="0.4" stroke="#F7D750"/>
<rect x="7.75836" y="0.5" width="22.4831" height="4.9654" fill="#FEDA1E" fill-opacity="0.4" stroke="#F7D750"/>
<rect x="12.8821" y="52.5862" width="11.809" height="1.9827" fill="#FEDA1E" fill-opacity="0.4" stroke="#F7D750"/>
<rect x="15.0168" y="2.12988" width="7.53932" height="1.65129" rx="0.825645" fill="#FEDA1E" fill-opacity="0.4" stroke="#F7D750"/>
<line x1="18.9269" y1="66" x2="18.9269" y2="54.6882" stroke="#F7D750"/>
<line x1="1.03937" y1="15.1035" x2="9.57869" y2="15.1035" stroke="#F7D750"/>
<line x1="1.03937" y1="23.0576" x2="9.57869" y2="23.0576" stroke="#F7D750"/>
<line x1="1.03937" y1="31.6743" x2="9.57869" y2="31.6743" stroke="#F7D750"/>
<line x1="1.03937" y1="40.291" x2="9.57869" y2="40.291" stroke="#F7D750"/>
<rect x="33.3033" y="35.8198" width="1.2809" height="0.994235" rx="0.497118" fill="#FEDA1E" fill-opacity="0.4"/>
<rect x="33.3033" y="39.1338" width="1.2809" height="0.994232" rx="0.497116" fill="#FEDA1E" fill-opacity="0.4"/>
<rect x="33.3033" y="42.4478" width="1.2809" height="0.994238" rx="0.497119" fill="#FEDA1E" fill-opacity="0.4"/>
<rect x="33.3033" y="45.7622" width="1.2809" height="0.994232" rx="0.497116" fill="#FEDA1E" fill-opacity="0.4"/>
<rect x="33.3033" y="49.0762" width="1.2809" height="0.994232" rx="0.497116" fill="#FEDA1E" fill-opacity="0.4"/>
<rect x="3.41577" y="35.8198" width="1.2809" height="0.994235" rx="0.497118" fill="#FEDA1E" fill-opacity="0.4"/>
<rect x="3.41577" y="39.1338" width="1.2809" height="0.994232" rx="0.497116" fill="#FEDA1E" fill-opacity="0.4"/>
<rect x="3.41577" y="42.4478" width="1.2809" height="0.994238" rx="0.497119" fill="#FEDA1E" fill-opacity="0.4"/>
<rect x="3.41577" y="45.7622" width="1.2809" height="0.994232" rx="0.497116" fill="#FEDA1E" fill-opacity="0.4"/>
<rect x="3.41577" y="49.0762" width="1.2809" height="0.994232" rx="0.497116" fill="#FEDA1E" fill-opacity="0.4"/>
<rect x="24.7642" y="35.8198" width="1.2809" height="0.994235" rx="0.497118" fill="#FEDA1E" fill-opacity="0.4"/>
<rect x="24.7642" y="39.1338" width="1.2809" height="0.994232" rx="0.497116" fill="#FEDA1E" fill-opacity="0.4"/>
<rect x="24.7642" y="42.4478" width="1.2809" height="0.994238" rx="0.497119" fill="#FEDA1E" fill-opacity="0.4"/>
<rect x="24.7642" y="45.7622" width="1.2809" height="0.994232" rx="0.497116" fill="#FEDA1E" fill-opacity="0.4"/>
<rect x="24.7642" y="49.0762" width="1.2809" height="0.994232" rx="0.497116" fill="#FEDA1E" fill-opacity="0.4"/>
<rect x="20.4944" y="35.8198" width="1.2809" height="0.994235" rx="0.497118" fill="#FEDA1E" fill-opacity="0.4"/>
<rect x="20.4944" y="39.1338" width="1.2809" height="0.994232" rx="0.497116" fill="#FEDA1E" fill-opacity="0.4"/>
<rect x="20.4944" y="42.4478" width="1.2809" height="0.994238" rx="0.497119" fill="#FEDA1E" fill-opacity="0.4"/>
<rect x="20.4944" y="45.7622" width="1.2809" height="0.994232" rx="0.497116" fill="#FEDA1E" fill-opacity="0.4"/>
<rect x="20.4944" y="49.0762" width="1.2809" height="0.994232" rx="0.497116" fill="#FEDA1E" fill-opacity="0.4"/>
<rect x="16.2246" y="35.8198" width="1.2809" height="0.994235" rx="0.497118" fill="#FEDA1E" fill-opacity="0.4"/>
<rect x="16.2246" y="39.1338" width="1.2809" height="0.994232" rx="0.497116" fill="#FEDA1E" fill-opacity="0.4"/>
<rect x="16.2246" y="42.4478" width="1.2809" height="0.994238" rx="0.497119" fill="#FEDA1E" fill-opacity="0.4"/>
<rect x="16.2246" y="45.7622" width="1.2809" height="0.994232" rx="0.497116" fill="#FEDA1E" fill-opacity="0.4"/>
<rect x="16.2246" y="49.0762" width="1.2809" height="0.994232" rx="0.497116" fill="#FEDA1E" fill-opacity="0.4"/>
<rect x="11.955" y="35.8198" width="1.2809" height="0.994235" rx="0.497118" fill="#FEDA1E" fill-opacity="0.4"/>
<rect x="11.955" y="39.1338" width="1.2809" height="0.994232" rx="0.497116" fill="#FEDA1E" fill-opacity="0.4"/>
<rect x="11.955" y="45.7622" width="1.2809" height="0.994232" rx="0.497116" fill="#FEDA1E" fill-opacity="0.4"/>
<rect x="11.955" y="49.0762" width="1.2809" height="0.994232" rx="0.497116" fill="#FEDA1E" fill-opacity="0.4"/>
<rect x="11.955" y="42.4478" width="1.2809" height="0.994238" rx="0.497119" fill="#FEDA1E" fill-opacity="0.4"/>
<rect x="7.68542" y="35.8198" width="1.2809" height="0.994235" rx="0.497118" fill="#FEDA1E" fill-opacity="0.4"/>
<rect x="7.68542" y="39.1338" width="1.2809" height="0.994232" rx="0.497116" fill="#FEDA1E" fill-opacity="0.4"/>
<rect x="7.68542" y="42.4478" width="1.2809" height="0.994238" rx="0.497119" fill="#FEDA1E" fill-opacity="0.4"/>
<rect x="7.68542" y="45.7622" width="1.2809" height="0.994232" rx="0.497116" fill="#FEDA1E" fill-opacity="0.4"/>
<rect x="7.68542" y="49.0762" width="1.2809" height="0.994232" rx="0.497116" fill="#FEDA1E" fill-opacity="0.4"/>
<rect x="29.0338" y="35.8198" width="1.2809" height="0.994235" rx="0.497118" fill="#FEDA1E" fill-opacity="0.4"/>
<rect x="29.0338" y="39.1338" width="1.2809" height="0.994232" rx="0.497116" fill="#FEDA1E" fill-opacity="0.4"/>
<rect x="29.0338" y="42.4478" width="1.2809" height="0.994238" rx="0.497119" fill="#FEDA1E" fill-opacity="0.4"/>
<rect x="29.0338" y="45.7622" width="1.2809" height="0.994232" rx="0.497116" fill="#FEDA1E" fill-opacity="0.4"/>
<rect x="29.0338" y="49.0762" width="1.2809" height="0.994232" rx="0.497116" fill="#FEDA1E" fill-opacity="0.4"/>
</svg>
