<svg width="14" height="26" viewBox="0 0 14 26" fill="none" xmlns="http://www.w3.org/2000/svg">
<path d="M0.979414 2.165C2.47275 1.255 4.21108 0.799999 6.19441 0.799999C7.64108 0.799999 8.92441 1.045 10.0444 1.535C11.1644 2.025 12.0277 2.70167 12.6344 3.565C13.2644 4.42833 13.5794 5.43167 13.5794 6.575C13.5794 7.81167 13.2877 8.87333 12.7044 9.76C12.1444 10.6467 11.2927 11.6733 10.1494 12.84C9.19275 13.82 8.46941 14.66 7.97941 15.36C7.48941 16.0367 7.18608 16.8067 7.06941 17.67L6.92941 18.65H4.33941V17.215C4.33941 15.9083 4.57275 14.8117 5.03941 13.925C5.50608 13.015 6.18275 12.035 7.06941 10.985C7.74608 10.1917 8.24775 9.50333 8.57441 8.92C8.92441 8.33667 9.09941 7.68333 9.09941 6.96C9.09941 6.14333 8.80775 5.51333 8.22441 5.07C7.66441 4.60333 6.88275 4.37 5.87941 4.37C4.24608 4.37 2.61275 4.87167 0.979414 5.875V2.165ZM3.21941 21.1H8.15441V26H3.21941V21.1Z" fill="#6A6868" fill-opacity="0.5"/>
</svg>
