<svg width="66" height="72" viewBox="0 0 66 72" fill="none" xmlns="http://www.w3.org/2000/svg">
<g filter="url(#filter0_d)">
<path d="M30.1728 63.1014C33.8626 63.0978 37.4 61.8772 40.0091 59.7074C42.6181 57.5375 44.0858 54.5956 44.0901 51.527V49.2037C44.0901 49.0748 44.0286 48.9512 43.919 48.8601C43.8094 48.769 43.6608 48.7178 43.5059 48.7178C43.3509 48.7178 43.2023 48.769 43.0927 48.8601C42.9831 48.9512 42.9216 49.0748 42.9216 49.2037V51.527C42.9216 54.339 41.5784 57.0359 39.1875 59.0243C36.7966 61.0127 33.5538 62.1298 30.1725 62.1298C26.7913 62.1298 23.5485 61.0127 21.1576 59.0243C18.7667 57.0359 17.4235 54.339 17.4235 51.527V26.0504C17.4235 24.57 16.7164 23.1502 15.4577 22.1034C14.199 21.0566 12.4918 20.4685 10.7117 20.4685C8.93165 20.4685 7.22449 21.0566 5.96578 22.1034C4.70708 23.1502 3.99994 24.57 3.99994 26.0504V56.4699C3.99994 56.5988 4.06151 56.7224 4.17108 56.8135C4.28066 56.9046 4.42927 56.9558 4.58423 56.9558C4.7392 56.9558 4.88782 56.9046 4.99739 56.8135C5.10697 56.7224 5.16853 56.5988 5.16853 56.4699V26.0504C5.16853 24.8278 5.75254 23.6552 6.7921 22.7906C7.83165 21.9261 9.24158 21.4404 10.7117 21.4404C12.1819 21.4404 13.5918 21.9261 14.6314 22.7906C15.6709 23.6552 16.2549 24.8278 16.2549 26.0504V51.527C16.2593 54.5957 17.727 57.5377 20.3362 59.7075C22.9454 61.8774 26.483 63.098 30.1728 63.1014Z" fill="#2F3A5A"/>
<path d="M31.0371 7.10664H39.6198V4.46607C39.6198 3.64892 40.0101 2.86524 40.7049 2.28743C41.3996 1.70962 42.3419 1.38501 43.3245 1.38501C44.307 1.38501 45.2494 1.70962 45.9441 2.28743C46.6389 2.86524 47.0292 3.64892 47.0292 4.46607V7.10712H55.9753C56.6895 7.10642 57.3968 7.2228 58.0568 7.44959C58.7168 7.67639 59.3166 8.00916 59.8219 8.42887C60.3271 8.84859 60.728 9.34702 61.0015 9.89566C61.2749 10.4443 61.4157 11.0324 61.4157 11.6263V44.6786C61.4154 45.8785 60.8421 47.0292 59.822 47.8778C58.8018 48.7263 57.4182 49.2032 55.9753 49.2036H31.0371C29.5942 49.2033 28.2106 48.7266 27.1903 47.8781C26.17 47.0297 25.5966 45.879 25.5961 44.679V11.6258C25.5961 11.0319 25.7369 10.4437 26.0104 9.89506C26.2839 9.34639 26.6848 8.84793 27.1902 8.42821C27.6955 8.00849 28.2953 7.67573 28.9554 7.44897C29.6155 7.2222 30.3229 7.10587 31.0371 7.10664V7.10664ZM43.2804 3.39508C42.9566 3.39431 42.6398 3.47345 42.3702 3.62249C42.1005 3.77153 41.8901 3.98375 41.7656 4.23231C41.641 4.48086 41.6079 4.75455 41.6705 5.01874C41.7331 5.28293 41.8886 5.52573 42.1172 5.71641C42.3458 5.90708 42.6373 6.03705 42.9548 6.08987C43.2723 6.14269 43.6015 6.11597 43.9007 6.0131C44.1999 5.91024 44.4557 5.73584 44.6357 5.51201C44.8157 5.28817 44.9117 5.02496 44.9117 4.75569C44.9107 4.39578 44.7386 4.05081 44.433 3.79595C44.1274 3.54109 43.7131 3.397 43.2804 3.39508V3.39508Z" fill="#D9E2E9"/>
<path d="M31.0376 49.6894H55.9753C57.5727 49.6878 59.1041 49.1594 60.2336 48.2199C61.363 47.2805 61.9983 46.0069 62 44.6784V11.6257C61.9974 10.298 61.3616 9.02537 60.2321 8.08704C59.1027 7.14872 57.5718 6.62132 55.9753 6.62055H47.6135V4.46543C47.6135 3.51941 47.1616 2.61213 46.3573 1.94319C45.5529 1.27425 44.462 0.898438 43.3245 0.898438C42.187 0.898438 41.096 1.27425 40.2917 1.94319C39.4873 2.61213 39.0355 3.51941 39.0355 4.46543V6.62055H31.0376C29.4412 6.62132 27.9102 7.14871 26.7807 8.08701C25.6511 9.02532 25.0152 10.2979 25.0124 11.6257V44.6784C25.0143 46.0069 25.6497 47.2806 26.7792 48.22C27.9088 49.1594 29.4402 49.6878 31.0376 49.6894V49.6894ZM55.9753 7.59242C57.2619 7.59293 58.4958 8.01786 59.4061 8.77397C60.3165 9.53009 60.8291 10.5557 60.8314 11.6257V44.6784C60.83 45.7492 60.318 46.7758 59.4076 47.533C58.4972 48.2902 57.2629 48.7162 55.9753 48.7175H31.0376C29.75 48.7163 28.5155 48.2904 27.605 47.5332C26.6945 46.776 26.1824 45.7493 26.181 44.6784V11.6257C26.1833 10.5556 26.696 9.52993 27.6065 8.7738C28.517 8.01767 29.7509 7.5928 31.0376 7.59242H39.6198C39.7747 7.59242 39.9233 7.54122 40.0329 7.45009C40.1425 7.35896 40.2041 7.23536 40.2041 7.10649V4.46543C40.2041 3.77716 40.5328 3.11708 41.118 2.6304C41.7032 2.14372 42.4969 1.87031 43.3245 1.87031C44.1521 1.87031 44.9458 2.14372 45.531 2.6304C46.1162 3.11708 46.4449 3.77716 46.4449 4.46543V7.10649C46.4449 7.23536 46.5065 7.35896 46.616 7.45009C46.7256 7.54122 46.8742 7.59242 47.0292 7.59242H55.9753ZM43.2798 6.60014C43.7191 6.60014 44.1486 6.49174 44.5138 6.28867C44.879 6.0856 45.1636 5.79698 45.3315 5.45934C45.4995 5.1217 45.5431 4.75022 45.4571 4.39192C45.371 4.03362 45.1591 3.7046 44.8481 3.44651C44.5371 3.18842 44.1411 3.01286 43.7101 2.94205C43.2791 2.87124 42.8325 2.90837 42.4269 3.04872C42.0212 3.18908 41.6748 3.42636 41.4314 3.73054C41.188 4.03471 41.0585 4.3921 41.0595 4.75748C41.0607 5.24663 41.2953 5.71538 41.7116 6.06085C42.128 6.40632 42.6922 6.60027 43.2804 6.60014H43.2798ZM43.2798 3.87891C43.4878 3.87891 43.6911 3.93021 43.8641 4.02632C44.0371 4.12243 44.1719 4.25904 44.2515 4.41887C44.3311 4.57869 44.3519 4.75456 44.3113 4.92424C44.2707 5.09391 44.1706 5.24976 44.0235 5.37209C43.8764 5.49441 43.689 5.57772 43.485 5.61147C43.281 5.64522 43.0695 5.6279 42.8773 5.56169C42.6851 5.49549 42.5209 5.38338 42.4053 5.23954C42.2897 5.0957 42.2281 4.92659 42.2281 4.75359C42.2287 4.52187 42.3398 4.29981 42.5371 4.13619C42.7344 3.97256 43.0017 3.88073 43.2804 3.88086L43.2798 3.87891Z" fill="#2F3A5A"/>
<path d="M56.3598 9.91919H30.6508C30.4612 9.91919 30.2735 9.95025 30.0983 10.0106C29.9231 10.0709 29.764 10.1594 29.6299 10.2709C29.4959 10.3824 29.3895 10.5147 29.3169 10.6604C29.2444 10.8061 29.207 10.9622 29.207 11.1199V45.1839C29.207 45.5024 29.3591 45.8079 29.6299 46.0331C29.9006 46.2584 30.2679 46.385 30.6508 46.3851H56.3598C56.7427 46.3851 57.1099 46.2586 57.3807 46.0334C57.6515 45.8083 57.8036 45.5028 57.8036 45.1844V11.1204C57.8036 10.8019 57.6515 10.4965 57.3807 10.2712C57.11 10.0459 56.7428 9.91932 56.3598 9.91919V9.91919Z" fill="#C1CDD3"/>
<path d="M30.6509 46.8712H56.3598C56.8976 46.8708 57.4133 46.693 57.7936 46.3767C58.1739 46.0605 58.3879 45.6317 58.3885 45.1845V11.1205C58.3879 10.6733 58.1739 10.2445 57.7936 9.92825C57.4133 9.61203 56.8976 9.43422 56.3598 9.43384H30.6509C30.1131 9.43422 29.5974 9.61203 29.2171 9.92825C28.8368 10.2445 28.6228 10.6733 28.6222 11.1205V45.1845C28.6228 45.6317 28.8368 46.0605 29.2171 46.3767C29.5974 46.693 30.1131 46.8708 30.6509 46.8712V46.8712ZM56.3598 10.4038C56.5878 10.4039 56.8064 10.4792 56.9676 10.6132C57.1289 10.7472 57.2196 10.929 57.2199 11.1186V45.1825C57.2201 45.2766 57.1979 45.3697 57.1548 45.4566C57.1116 45.5436 57.0483 45.6226 56.9684 45.6891C56.8886 45.7557 56.7937 45.8085 56.6893 45.8446C56.5848 45.8806 56.4729 45.8992 56.3598 45.8993H30.6509C30.4229 45.8992 30.2043 45.8238 30.0431 45.6898C29.8818 45.5558 29.7911 45.3741 29.7908 45.1845V11.1205C29.7911 10.9309 29.8818 10.7492 30.0431 10.6152C30.2043 10.4812 30.4229 10.4058 30.6509 10.4057L56.3598 10.4038Z" fill="#2F3A5A"/>
<path d="M46.4116 21.6809H57.8054V45.186C57.8044 45.5044 57.6517 45.8094 57.3807 46.0342C57.1097 46.259 56.7426 46.3853 56.3598 46.3853H45.7648V49.2037H41.9499V46.3853H30.6508C30.268 46.385 29.9009 46.2585 29.6301 46.0334C29.3593 45.8082 29.2069 45.503 29.2065 45.1846V21.6809H39.2803" fill="#EC2727" fill-opacity="0.69"/>
<path d="M41.3651 49.6895H46.3491V46.8711H56.3598C56.8976 46.8707 57.4133 46.6929 57.7936 46.3767C58.1739 46.0605 58.3879 45.6317 58.3885 45.1844V21.1948H46.4105C46.2555 21.1948 46.1069 21.246 45.9973 21.3372C45.8877 21.4283 45.8262 21.5519 45.8262 21.6808C45.8262 21.8096 45.8877 21.9332 45.9973 22.0244C46.1069 22.1155 46.2555 22.1667 46.4105 22.1667H57.2199V45.1859C57.2191 45.3752 57.1282 45.5566 56.967 45.6903C56.8058 45.824 56.5875 45.8991 56.3598 45.8992H45.1805V48.7176H42.5342V45.8992H30.6509C30.4229 45.8991 30.2043 45.8238 30.0431 45.6897C29.8818 45.5557 29.7911 45.374 29.7908 45.1844V22.1667H39.2803C39.4353 22.1667 39.5839 22.1155 39.6935 22.0244C39.803 21.9332 39.8646 21.8096 39.8646 21.6808C39.8646 21.5519 39.803 21.4283 39.6935 21.3372C39.5839 21.246 39.4353 21.1948 39.2803 21.1948H28.6228V45.1859C28.6239 45.6328 28.8379 46.0611 29.2181 46.377C29.5982 46.6929 30.1135 46.8706 30.6509 46.8711H41.3651V49.6895Z" fill="#2F3A5A"/>
<path d="M41.9312 22.1667H43.0502C43.2051 22.1667 43.3537 22.1155 43.4633 22.0244C43.5729 21.9332 43.6345 21.8096 43.6345 21.6808C43.6345 21.5519 43.5729 21.4283 43.4633 21.3372C43.3537 21.246 43.2051 21.1948 43.0502 21.1948H41.9307C41.7757 21.1948 41.6271 21.246 41.5175 21.3372C41.4079 21.4283 41.3464 21.5519 41.3464 21.6808C41.3464 21.8096 41.4079 21.9332 41.5175 22.0244C41.6271 22.1155 41.7757 22.1667 41.9307 22.1667H41.9312Z" fill="#2F3A5A"/>
<g opacity="0.35">
<path opacity="0.35" d="M55.8163 12.6201H53.6498V43.8501H55.8163V12.6201Z" fill="white"/>
</g>
</g>
<defs>
<filter id="filter0_d" x="-6.10352e-05" y="0.898438" width="66" height="70.203" filterUnits="userSpaceOnUse" color-interpolation-filters="sRGB">
<feFlood flood-opacity="0" result="BackgroundImageFix"/>
<feColorMatrix in="SourceAlpha" type="matrix" values="0 0 0 0 0 0 0 0 0 0 0 0 0 0 0 0 0 0 127 0"/>
<feOffset dy="4"/>
<feGaussianBlur stdDeviation="2"/>
<feColorMatrix type="matrix" values="0 0 0 0 0 0 0 0 0 0 0 0 0 0 0 0 0 0 0.25 0"/>
<feBlend mode="normal" in2="BackgroundImageFix" result="effect1_dropShadow"/>
<feBlend mode="normal" in="SourceGraphic" in2="effect1_dropShadow" result="shape"/>
</filter>
</defs>
</svg>
