<svg width="72" height="60" viewBox="0 0 72 60" fill="none" xmlns="http://www.w3.org/2000/svg">
<rect width="72" height="60" rx="20" fill="#FEFEFE" fill-opacity="0.83"/>
<path d="M17.796 23.162C16.836 23.162 15.888 23.036 14.952 22.784C14.016 22.532 13.254 22.19 12.666 21.758L13.728 19.364C14.352 19.76 15.012 20.066 15.708 20.282C16.416 20.486 17.124 20.588 17.832 20.588C18.552 20.588 19.104 20.492 19.488 20.3C19.872 20.096 20.064 19.814 20.064 19.454C20.064 19.13 19.89 18.866 19.542 18.662C19.194 18.446 18.54 18.236 17.58 18.032C16.368 17.792 15.426 17.498 14.754 17.15C14.082 16.79 13.608 16.37 13.332 15.89C13.068 15.41 12.936 14.828 12.936 14.144C12.936 13.364 13.158 12.662 13.602 12.038C14.046 11.402 14.67 10.91 15.474 10.562C16.278 10.202 17.196 10.022 18.228 10.022C19.152 10.022 20.046 10.154 20.91 10.418C21.786 10.67 22.47 11.006 22.962 11.426L21.918 13.82C21.354 13.424 20.76 13.124 20.136 12.92C19.512 12.704 18.888 12.596 18.264 12.596C17.652 12.596 17.16 12.716 16.788 12.956C16.416 13.184 16.23 13.496 16.23 13.892C16.23 14.108 16.296 14.288 16.428 14.432C16.56 14.576 16.806 14.72 17.166 14.864C17.526 14.996 18.066 15.14 18.786 15.296C19.95 15.548 20.862 15.854 21.522 16.214C22.194 16.562 22.668 16.976 22.944 17.456C23.22 17.924 23.358 18.488 23.358 19.148C23.358 20.396 22.872 21.38 21.9 22.1C20.928 22.808 19.56 23.162 17.796 23.162ZM34.6958 13.856V23H31.4918V21.758C31.2278 22.19 30.8438 22.532 30.3398 22.784C29.8358 23.024 29.2838 23.144 28.6838 23.144C27.9038 23.144 27.2078 22.952 26.5958 22.568C25.9838 22.184 25.5038 21.638 25.1558 20.93C24.8198 20.21 24.6518 19.382 24.6518 18.446C24.6518 17.498 24.8258 16.658 25.1738 15.926C25.5218 15.194 26.0018 14.624 26.6138 14.216C27.2258 13.808 27.9158 13.604 28.6838 13.604C29.2838 13.604 29.8298 13.736 30.3218 14C30.8258 14.252 31.2158 14.594 31.4918 15.026V13.856H34.6958ZM29.6918 20.714C30.2678 20.714 30.7118 20.516 31.0238 20.12C31.3358 19.724 31.4918 19.154 31.4918 18.41C31.4918 17.654 31.3358 17.078 31.0238 16.682C30.7118 16.274 30.2678 16.07 29.6918 16.07C29.1278 16.07 28.6838 16.28 28.3598 16.7C28.0358 17.108 27.8738 17.69 27.8738 18.446C27.8738 19.178 28.0298 19.742 28.3418 20.138C28.6538 20.522 29.1038 20.714 29.6918 20.714ZM46.0822 13.874L42.0142 23H39.3322L35.3182 13.874H38.7022L40.7542 19.13L42.8782 13.874H46.0822ZM54.9355 18.752H49.1935C49.2535 19.46 49.4575 19.97 49.8055 20.282C50.1535 20.594 50.6635 20.75 51.3355 20.75C51.7915 20.75 52.2475 20.678 52.7035 20.534C53.1595 20.378 53.5735 20.168 53.9455 19.904L54.7735 22.064C54.3175 22.4 53.7655 22.664 53.1175 22.856C52.4695 23.048 51.8215 23.144 51.1735 23.144C50.1295 23.144 49.2235 22.952 48.4555 22.568C47.6875 22.184 47.0995 21.638 46.6915 20.93C46.2835 20.21 46.0795 19.364 46.0795 18.392C46.0795 17.468 46.2715 16.646 46.6555 15.926C47.0515 15.194 47.5915 14.624 48.2755 14.216C48.9715 13.808 49.7635 13.604 50.6515 13.604C51.5155 13.604 52.2715 13.796 52.9195 14.18C53.5675 14.564 54.0655 15.116 54.4135 15.836C54.7615 16.544 54.9355 17.372 54.9355 18.32V18.752ZM50.7415 15.836C49.9375 15.836 49.4335 16.304 49.2295 17.24H52.1455C52.0255 16.304 51.5575 15.836 50.7415 15.836ZM21.792 44.354H16.104L14.97 47H11.586L17.58 34.184H20.244L26.256 47H22.926L21.792 44.354ZM20.694 41.816L18.948 37.766L17.202 41.816H20.694ZM32.2067 34.184H35.5907V44.264H41.0087V47H32.2067V34.184ZM42.4505 37.856H45.7085V47H42.4505V37.856ZM45.7625 33.374V36.308H42.3605V33.374H45.7625ZM52.9996 36.29C52.6156 36.29 52.2976 36.404 52.0456 36.632C51.7936 36.848 51.6676 37.184 51.6676 37.64V37.856H53.4496V40.25H51.6676V47H48.4096V40.25H46.7356V37.856H48.4096V37.604C48.4096 36.368 48.7276 35.402 49.3636 34.706C50.0116 34.01 50.9476 33.662 52.1716 33.662C52.8676 33.662 53.4316 33.746 53.8636 33.914V36.416C53.5156 36.332 53.2276 36.29 52.9996 36.29ZM63.3027 42.752H57.5607C57.6207 43.46 57.8247 43.97 58.1727 44.282C58.5207 44.594 59.0307 44.75 59.7027 44.75C60.1587 44.75 60.6147 44.678 61.0707 44.534C61.5267 44.378 61.9407 44.168 62.3127 43.904L63.1407 46.064C62.6847 46.4 62.1327 46.664 61.4847 46.856C60.8367 47.048 60.1887 47.144 59.5407 47.144C58.4967 47.144 57.5907 46.952 56.8227 46.568C56.0547 46.184 55.4667 45.638 55.0587 44.93C54.6507 44.21 54.4467 43.364 54.4467 42.392C54.4467 41.468 54.6387 40.646 55.0227 39.926C55.4187 39.194 55.9587 38.624 56.6427 38.216C57.3387 37.808 58.1307 37.604 59.0187 37.604C59.8827 37.604 60.6387 37.796 61.2867 38.18C61.9347 38.564 62.4327 39.116 62.7807 39.836C63.1287 40.544 63.3027 41.372 63.3027 42.32V42.752ZM59.1087 39.836C58.3047 39.836 57.8007 40.304 57.5967 41.24H60.5127C60.3927 40.304 59.9247 39.836 59.1087 39.836Z" fill="#E48888"/>
</svg>
