<svg width="91" height="91" viewBox="0 0 91 91" fill="none" xmlns="http://www.w3.org/2000/svg">
<path d="M90.1322 69.3885C89.4895 67.6604 88.233 66.2288 86.6022 65.3665C84.9713 64.5043 83.08 64.2716 81.2886 64.7128L69.3655 67.728C69.3655 67.728 69.3655 67.728 69.3655 67.5772C69.3803 67.4268 69.3803 67.2753 69.3655 67.1248C69.3952 66.8239 69.3953 66.5209 69.3656 66.22C69.3797 66.0292 69.3797 65.8377 69.3657 65.6469C69.3769 65.456 69.3769 65.2647 69.3657 65.0738L69.1846 64.6515L69.1847 64.4404C68.6223 63.1185 67.6894 61.9872 66.4985 61.1827L65.8345 60.7906L64.9592 60.3381L63.9933 59.9459L63.7518 59.9459L62.7256 59.7045L62.1822 59.7045L61.5484 59.7044L59.7977 59.7043C59.4656 59.7043 59.1638 59.7042 58.8318 59.7042L56.6887 59.7041L56.085 59.704L54.3343 59.1911C52.4019 58.7335 50.5132 58.1076 48.69 57.3207L42.9552 54.7866C41.448 54.1181 39.7662 53.9488 38.1559 54.3037L28.4665 56.3841C28.1525 55.1203 27.6105 53.9244 26.867 52.855C25.5192 50.9061 23.4602 49.5632 21.1323 49.1146L3.56517 46.4891C3.12841 46.4092 2.67938 46.4266 2.2501 46.54C1.82082 46.6534 1.42187 46.86 1.08168 47.1452C0.7415 47.4303 0.468463 47.787 0.282041 48.1897C0.0956194 48.5923 0.000404044 49.0312 0.00318367 49.4749L0.000394817 85.6689C0.000333179 86.4689 0.318287 87.2361 0.884311 87.8018C1.45033 88.3674 2.21806 88.6853 3.0186 88.6853L16.2997 88.6864C18.4493 88.5927 20.4998 87.7569 22.1017 86.3215C23.7035 84.8861 24.7576 82.9399 25.084 80.8148L46.8765 89.2015C49.0464 90.0659 51.3621 90.5064 53.6981 90.4989C56.0879 90.4979 58.4552 90.0373 60.6708 89.1422L85.6944 79.0098C87.5178 78.2681 88.9908 76.8615 89.8148 75.0749C90.6389 73.2884 90.7524 71.2556 90.1322 69.3885ZM16.3002 82.654L6.0375 82.6532L6.03979 52.9741L20.1357 55.0865C20.8891 55.2578 21.5481 55.7112 21.9769 56.3534C22.7235 57.4699 23.005 58.8333 22.7614 60.1539L22.7614 60.4856L19.9228 75.8679L19.9228 76.079L19.2887 79.3968C18.866 81.4477 17.6283 82.6541 16.3002 82.654ZM83.4008 73.4297L58.4074 83.5319C55.4023 84.724 52.055 84.7238 49.0502 83.5312L26.2616 74.8127L27.8318 67.4836L28.5264 62.5371L39.4232 60.1552C39.7751 60.0334 40.1579 60.0334 40.5098 60.1552L46.2446 62.6591L47.2105 63.0814C49.1513 63.9226 51.1745 64.5595 53.2473 64.9821C53.9415 65.133 54.6357 65.1933 55.3601 65.2839L56.1147 65.2839C56.9493 65.3284 57.7855 65.3284 58.6201 65.2841L61.3366 65.2843C61.5469 65.255 61.7602 65.255 61.9705 65.2844V65.2844L62.4836 65.4955L62.6346 65.4956L62.8458 65.6765C63.0625 65.925 63.2085 66.2271 63.2683 66.5513C63.2683 66.7021 63.2683 66.8227 63.2683 66.9434L63.2683 67.3958C63.2683 67.3958 63.2683 67.3958 63.2683 67.5768C63.1928 67.7429 63.0908 67.8956 62.9664 68.0292C62.9138 68.0968 62.853 68.1576 62.7853 68.2101C62.469 68.4889 62.0599 68.6395 61.6382 68.6323L40.1469 68.6306C39.3464 68.6306 38.5786 68.9483 38.0125 69.5139C37.4464 70.0795 37.1283 70.8466 37.1283 71.6466C37.1282 72.4465 37.4462 73.2137 38.0122 73.7794C38.5782 74.3451 39.3459 74.6629 40.1465 74.663V74.663L61.6378 74.6646C62.8228 74.6636 63.9911 74.3847 65.0487 73.8505L65.8938 73.8506C66.3019 73.936 66.7233 73.9361 67.1314 73.8507L82.7974 69.9309C83.1535 69.8372 83.532 69.8856 83.853 70.0657C84.1741 70.2459 84.4125 70.5437 84.5178 70.8962V70.8962C84.6589 71.1285 84.7419 71.3913 84.7596 71.6625C84.7774 71.9336 84.7294 72.205 84.6198 72.4537C84.5101 72.7024 84.3421 72.9209 84.1299 73.0908C83.9177 73.2607 83.6676 73.377 83.4008 73.4297V73.4297Z" fill="url(#paint0_linear)"/>
<path d="M61.1871 48.2729C65.9903 48.2733 70.5969 46.367 73.9936 42.9734C77.3903 39.5798 79.2987 34.9769 79.2991 30.1773C79.3002 15.3378 63.8771 1.3717 63.2131 0.768411C62.6603 0.276542 61.946 0.00474957 61.2059 0.00469254C60.4657 0.00463551 59.7514 0.276318 59.1985 0.768101C58.5344 1.37128 43.079 15.335 43.0778 30.1745C43.0774 34.9741 44.9852 39.5773 48.3813 42.9715C51.7774 46.3656 56.3838 48.2726 61.1871 48.2729V48.2729ZM61.1902 7.25302C65.0837 11.295 73.2629 20.887 73.2622 30.1768C73.262 33.3766 71.9897 36.4452 69.7252 38.7076C67.4608 40.97 64.3897 42.2408 61.1875 42.2406C57.9854 42.2403 54.9144 40.969 52.6504 38.7063C50.3863 36.4435 49.1144 33.3747 49.1147 30.175C49.1154 20.8852 57.3565 11.2944 61.1902 7.25302V7.25302Z" fill="url(#paint1_linear)"/>
<defs>
<linearGradient id="paint0_linear" x1="-18.6481" y1="14.8478" x2="76.8677" y2="109.182" gradientUnits="userSpaceOnUse">
<stop stop-color="#FD6364"/>
<stop offset="1" stop-color="#F7ACAC"/>
</linearGradient>
<linearGradient id="paint1_linear" x1="254.27" y1="-252.906" x2="1716.47" y2="829.973" gradientUnits="userSpaceOnUse">
<stop stop-color="#FF8A8B"/>
<stop offset="1" stop-color="#D8BDBD"/>
</linearGradient>
</defs>
</svg>
