<svg width="92" height="91" viewBox="0 0 92 91" fill="none" xmlns="http://www.w3.org/2000/svg">
<path d="M90.6678 69.3887C90.0251 67.6605 88.7686 66.2289 87.1377 65.3667C85.5069 64.5044 83.6156 64.2717 81.8242 64.7129L69.9011 67.7282C69.9011 67.7282 69.9011 67.7282 69.9011 67.5774C69.9158 67.4269 69.9159 67.2754 69.9011 67.1249C69.9308 66.824 69.9308 66.521 69.9012 66.2201C69.9153 66.0293 69.9153 65.8378 69.9012 65.647C69.9125 65.4562 69.9125 65.2648 69.9013 65.0739L69.7202 64.6517L69.7202 64.4405C69.1579 63.1186 68.225 61.9873 67.0341 61.1829L66.37 60.7907L65.4947 60.3382L64.5289 59.946L64.2874 59.946L63.2611 59.7046L62.7178 59.7046L62.0839 59.7046L60.3333 59.7044C60.0012 59.7044 59.6994 59.7044 59.3674 59.7043L57.2243 59.7042L56.6206 59.7041L54.8699 59.1912C52.9374 58.7336 51.0488 58.1077 49.2256 57.3208L43.4907 54.7868C41.9835 54.1182 40.3018 53.9489 38.6915 54.3038L29.0021 56.3842C28.6881 55.1205 28.1461 53.9245 27.4026 52.8552C26.0548 50.9063 23.9958 49.5633 21.6679 49.1147L4.10075 46.4892C3.66399 46.4093 3.21496 46.4267 2.78568 46.5401C2.35641 46.6535 1.95745 46.8601 1.61727 47.1453C1.27708 47.4305 1.00405 47.7871 0.817625 48.1898C0.631203 48.5925 0.535988 49.0313 0.538767 49.475L0.535978 85.669C0.535917 86.469 0.853871 87.2362 1.41989 87.8019C1.98592 88.3676 2.75364 88.6854 3.55418 88.6855L16.8353 88.6865C18.9849 88.5928 21.0354 87.7571 22.6373 86.3216C24.2391 84.8862 25.2931 82.9401 25.6196 80.8149L47.4121 89.2016C49.5819 90.0661 51.8977 90.5065 54.2336 90.4991C56.6235 90.498 58.9907 90.0374 61.2063 89.1423L86.23 79.0099C88.0534 78.2683 89.5264 76.8616 90.3504 75.0751C91.1745 73.2885 91.2879 71.2557 90.6678 69.3887ZM16.8358 82.6541L6.57309 82.6533L6.57538 52.9742L20.6713 55.0866C21.4247 55.2579 22.0836 55.7113 22.5125 56.3535C23.2591 57.47 23.5405 58.8334 23.297 60.154L23.2969 60.4858L20.4584 75.868L20.4584 76.0792L19.8243 79.3969C19.4015 81.4479 18.1639 82.6542 16.8358 82.6541ZM83.9364 73.4298L58.9429 83.5321C55.9379 84.7241 52.5906 84.7239 49.5858 83.5313L26.7972 74.8128L28.3674 67.4837L29.062 62.5372L39.9588 60.1553C40.3107 60.0335 40.6934 60.0335 41.0454 60.1554L46.7802 62.6592L47.7461 63.0816C49.6869 63.9227 51.71 64.5597 53.7828 64.9822C54.4771 65.1331 55.1713 65.1934 55.8957 65.284L56.6503 65.284C57.4848 65.3285 58.3211 65.3285 59.1556 65.2842L61.8722 65.2845C62.0825 65.2552 62.2958 65.2552 62.5061 65.2845L63.0192 65.4957L63.1701 65.4957L63.3814 65.6767C63.5981 65.9252 63.744 66.2273 63.8039 66.5514C63.8039 66.7022 63.8039 66.8228 63.8039 66.9435L63.8039 67.3959C63.8039 67.3959 63.8039 67.3959 63.8038 67.5769C63.7283 67.743 63.6264 67.8958 63.502 68.0293C63.4494 68.0969 63.3886 68.1577 63.3209 68.2103C63.0046 68.489 62.5955 68.6396 62.1738 68.6324L40.6825 68.6308C39.882 68.6307 39.1142 68.9484 38.5481 69.514C37.982 70.0796 37.6639 70.8468 37.6639 71.6467C37.6638 72.4466 37.9818 73.2138 38.5478 73.7795C39.1138 74.3452 39.8815 74.6631 40.6821 74.6631L62.1734 74.6648C63.3584 74.6637 64.5266 74.3849 65.5842 73.8507L66.4294 73.8507C66.8375 73.9362 67.2589 73.9362 67.667 73.8508L83.333 69.931C83.689 69.8374 84.0676 69.8857 84.3886 70.0659C84.7097 70.246 84.9481 70.5438 85.0534 70.8963C85.1945 71.1286 85.2775 71.3915 85.2952 71.6626C85.313 71.9337 85.265 72.2052 85.1554 72.4538C85.0457 72.7025 84.8777 72.921 84.6655 73.091C84.4532 73.2609 84.2031 73.3771 83.9364 73.4298Z" fill="url(#paint0_linear)"/>
<path d="M61.7226 48.2732C66.5258 48.2736 71.1325 46.3673 74.5292 42.9737C77.9258 39.5801 79.8343 34.9772 79.8346 30.1776C79.8358 15.338 64.4126 1.37194 63.7486 0.768655C63.1959 0.276786 62.4816 0.00499371 61.7414 0.00493668C61.0013 0.00487965 60.2869 0.276562 59.7341 0.768346C59.07 1.37153 43.6145 15.3352 43.6134 30.1748C43.613 34.9744 45.5207 39.5776 48.9169 42.9717C52.313 46.3658 56.9194 48.2728 61.7226 48.2732ZM61.7258 7.25327C65.6192 11.2952 73.7985 20.8873 73.7978 30.1771C73.7975 33.3768 72.5252 36.4454 70.2608 38.7078C67.9963 40.9702 64.9252 42.2411 61.7231 42.2408C58.5209 42.2406 55.45 40.9693 53.1859 38.7065C50.9218 36.4438 49.65 33.375 49.6502 30.1752C49.651 20.8854 57.892 11.2946 61.7258 7.25327Z" fill="url(#paint1_linear)"/>
<defs>
<linearGradient id="paint0_linear" x1="-18.1125" y1="14.8479" x2="77.4033" y2="109.182" gradientUnits="userSpaceOnUse">
<stop stop-color="#FD6364"/>
<stop offset="1" stop-color="#F7ACAC"/>
</linearGradient>
<linearGradient id="paint1_linear" x1="254.805" y1="-252.906" x2="1717" y2="829.974" gradientUnits="userSpaceOnUse">
<stop stop-color="#FF8A8B"/>
<stop offset="1" stop-color="#D8BDBD"/>
</linearGradient>
</defs>
</svg>
