<svg width="20" height="23" viewBox="0 0 20 23" fill="none" xmlns="http://www.w3.org/2000/svg">
<path fill-rule="evenodd" clip-rule="evenodd" d="M4.75863 0.146995C4.69958 0.0549785 4.60312 0 4.50059 0C4.39731 0 4.30159 0.0540408 4.24137 0.146995C3.60208 1.12776 2 3.70842 2 4.92526C2 6.44405 3.11989 7.6739 4.49941 7.6739C5.88129 7.6739 7 6.44405 7 4.92526C7.00085 3.70842 5.39792 1.12776 4.75863 0.146995ZM3.41705 6.03309C3.37441 6.09005 3.31217 6.11854 3.25003 6.11854C3.20046 6.11854 3.15069 6.09978 3.10923 6.06204C2.48986 5.48814 2.70314 4.64054 2.71316 4.60409C2.74631 4.47655 2.86664 4.40329 2.98271 4.43974C3.09878 4.47655 3.1654 4.60889 3.13225 4.73572C3.12585 4.76338 2.99188 5.32568 3.39114 5.69503C3.48249 5.78072 3.49443 5.93204 3.41705 6.03309Z" fill="#FFF5F5"/>
<path fill-rule="evenodd" clip-rule="evenodd" d="M4.4138 12.2021C4.31933 12.0756 4.16499 12 4.00094 12C3.83569 12 3.68255 12.0743 3.58619 12.2021C2.56332 13.5507 0 17.0991 0 18.7722C0 20.8606 1.79182 22.5516 3.99906 22.5516C6.21006 22.5516 8 20.8606 8 18.7722C8.00136 17.0991 5.43668 13.5507 4.4138 12.2021ZM2.26727 20.2955C2.19906 20.3738 2.09946 20.413 2.00004 20.413C1.92074 20.413 1.8411 20.3872 1.77476 20.3353C0.783782 19.5462 1.12502 18.3807 1.14105 18.3306C1.19409 18.1553 1.38663 18.0545 1.57234 18.1046C1.75805 18.1553 1.86464 18.3372 1.8116 18.5116C1.80137 18.5497 1.587 19.3228 2.22583 19.8307C2.37198 19.9485 2.39108 20.1566 2.26727 20.2955Z" fill="#FFF5F5"/>
<path fill-rule="evenodd" clip-rule="evenodd" d="M15.5173 4.25724C15.3992 4.09621 15.2062 4 15.0012 4C14.7946 4 14.6032 4.09457 14.4827 4.25724C13.2042 5.97357 10 10.4897 10 12.6192C10 15.2771 12.2398 17.4293 14.9988 17.4293C17.7626 17.4293 20 15.2771 20 12.6192C20.0017 10.4897 16.7958 5.97357 15.5173 4.25724ZM12.8341 14.5579C12.7488 14.6576 12.6243 14.7074 12.5001 14.7074C12.4009 14.7074 12.3014 14.6746 12.2185 14.6086C10.9797 13.6042 11.4063 12.1209 11.4263 12.0571C11.4926 11.834 11.7333 11.7058 11.9654 11.7695C12.1976 11.834 12.3308 12.0656 12.2645 12.2875C12.2517 12.3359 11.9838 13.3199 12.7823 13.9663C12.965 14.1163 12.9889 14.3811 12.8341 14.5579Z" fill="#FFF5F5"/>
</svg>
