<svg width="80" height="77" viewBox="0 0 80 77" fill="none" xmlns="http://www.w3.org/2000/svg">
<path d="M40.0502 42.5893L12.7546 75.3041C10.868 77.5653 7.81736 77.5653 5.95083 75.3041L1.41495 69.8677C-0.471651 67.6065 -0.471651 63.9502 1.41495 61.7131L20.7627 38.5241L1.41495 15.3351C-0.471651 13.0739 -0.471651 9.41753 1.41495 7.18041L5.93076 1.69588C7.81736 -0.565292 10.868 -0.565292 12.7346 1.69588L40.0301 34.4107C41.9368 36.6718 41.9368 40.3282 40.0502 42.5893ZM78.585 34.4107L51.2895 1.69588C49.4029 -0.565292 46.3522 -0.565292 44.4857 1.69588L39.9498 7.1323C38.0632 9.39347 38.0632 13.0498 39.9498 15.2869L59.2975 38.4759L39.9498 61.6649C38.0632 63.9261 38.0632 67.5825 39.9498 69.8196L44.4857 75.256C46.3723 77.5172 49.423 77.5172 51.2895 75.256L78.585 42.5412C80.4716 40.3282 80.4716 36.6718 78.585 34.4107Z" fill="url(#paint0_linear)"/>
<defs>
<linearGradient id="paint0_linear" x1="40" y1="0" x2="40" y2="77" gradientUnits="userSpaceOnUse">
<stop offset="0.161458" stop-color="#FFF8F8"/>
<stop offset="1" stop-color="#FFB5B5" stop-opacity="0.79"/>
</linearGradient>
</defs>
</svg>
