<svg id="Group_2" data-name="Group 2" xmlns="http://www.w3.org/2000/svg" width="26.808" height="26.287" viewBox="0 0 26.808 26.287">
  <path id="Path_3" data-name="Path 3" d="M13.4,26.287a13.276,13.276,0,0,0,13.4-13.144A13.276,13.276,0,0,0,13.4,0,13.276,13.276,0,0,0,0,13.144,13.276,13.276,0,0,0,13.4,26.287Z" fill="#fffcfc"/>
  <path id="Path_4" data-name="Path 4" d="M22.367,9.416a6.491,6.491,0,0,1-1.84.494,3.162,3.162,0,0,0,1.409-1.738,6.491,6.491,0,0,1-2.035.762,3.231,3.231,0,0,0-2.339-.992,3.174,3.174,0,0,0-3.2,3.142,3.082,3.082,0,0,0,.083.716,9.156,9.156,0,0,1-6.6-3.283A3.082,3.082,0,0,0,7.4,10.1a3.126,3.126,0,0,0,1.425,2.615,3.23,3.23,0,0,1-1.451-.393c0,.013,0,.027,0,.04a3.16,3.16,0,0,0,2.57,3.08,3.277,3.277,0,0,1-1.447.054,3.2,3.2,0,0,0,2.993,2.182,6.574,6.574,0,0,1-4.743,1.3,9.194,9.194,0,0,0,4.911,1.412,8.961,8.961,0,0,0,9.116-8.939q0-.2-.009-.406A6.429,6.429,0,0,0,22.367,9.416Z" fill="#858080"/>
</svg>
