<svg xmlns="http://www.w3.org/2000/svg" width="56.191" height="53.47" viewBox="0 0 56.191 53.47">
  <g id="Group_6" data-name="Group 6" transform="translate(-0.16 -0.574)">
    <path id="Path_29" data-name="Path 29" d="M47.8,42.274H8.708V23.107C8.708,13.382,17.423,5.5,28.173,5.5h.165C39.088,5.5,47.8,13.382,47.8,23.107V42.274Z" fill="#ff5e57"/>
    <path id="Path_30" data-name="Path 30" d="M28.338,5.5h-.165c-.564,0-1.123.023-1.675.066,9.966.768,17.79,8.328,17.79,17.542V42.274H47.8V23.106C47.8,13.382,39.088,5.5,28.338,5.5Z" fill="#f7372f"/>
    <path id="Path_31" data-name="Path 31" d="M22.3,42.274v-17.3a5.629,5.629,0,0,1,5.882-5.321h.148a5.629,5.629,0,0,1,5.882,5.321v17.3Z" fill="#de2a2e"/>
    <path id="Path_32" data-name="Path 32" d="M28.329,19.65h-.148a6.435,6.435,0,0,0-1.683.223,5.431,5.431,0,0,1,4.2,5.1v17.3h3.515v-17.3A5.63,5.63,0,0,0,28.329,19.65Z" fill="#cf1d21"/>
    <path id="Path_33" data-name="Path 33" d="M54.472,54.043H2.039a1.367,1.367,0,0,1-1.371-1.89l4.906-10.16A3.434,3.434,0,0,1,8.7,40.154H47.815a3.434,3.434,0,0,1,3.122,1.839l4.906,10.16A1.367,1.367,0,0,1,54.472,54.043Z" fill="#c2d8ed"/>
    <path id="Path_34" data-name="Path 34" d="M55.842,52.154l-4.905-10.16a3.435,3.435,0,0,0-3.122-1.839H44.3a3.435,3.435,0,0,1,3.122,1.839l4.906,10.16a1.367,1.367,0,0,1-1.371,1.89h3.515A1.367,1.367,0,0,0,55.842,52.154Z" fill="#b4cae0"/>
    <path id="Path_35" data-name="Path 35" d="M41.789,23.826a.84.84,0,0,1-.879-.795c0-6.255-5.677-11.344-12.655-11.344a.8.8,0,1,1,0-1.59c7.947,0,14.412,5.8,14.412,12.934A.84.84,0,0,1,41.789,23.826Z" fill="#fff"/>
    <path id="Path_36" data-name="Path 36" d="M2.463,1.811a.945.945,0,0,0-1.243,0,.742.742,0,0,0,0,1.124L8.389,9.409a.946.946,0,0,0,1.243,0,.742.742,0,0,0,0-1.124Z" fill="#ffeebd"/>
    <path id="Path_37" data-name="Path 37" d="M11.315,1.09A.908.908,0,0,0,10.184.625.775.775,0,0,0,9.67,1.649l1.854,4.464a.881.881,0,0,0,.823.516.96.96,0,0,0,.309-.051.775.775,0,0,0,.514-1.024Z" fill="#ffeebd"/>
    <path id="Path_38" data-name="Path 38" d="M6.533,11.5l-5.19-1.73a.907.907,0,0,0-1.128.471.776.776,0,0,0,.521,1.021L5.926,13a.96.96,0,0,0,.3.049.881.881,0,0,0,.825-.52A.776.776,0,0,0,6.533,11.5Z" fill="#ffeebd"/>
    <path id="Path_39" data-name="Path 39" d="M55.29,1.812a.945.945,0,0,0-1.243,0L46.88,8.284a.742.742,0,0,0,0,1.124.946.946,0,0,0,1.243,0l7.167-6.473A.742.742,0,0,0,55.29,1.812Z" fill="#ffeebd"/>
    <path id="Path_40" data-name="Path 40" d="M46.327.625A.908.908,0,0,0,45.2,1.09L43.342,5.553a.775.775,0,0,0,.514,1.024.96.96,0,0,0,.309.051.881.881,0,0,0,.823-.516l1.854-4.464A.775.775,0,0,0,46.327.625Z" fill="#ffeebd"/>
    <path id="Path_41" data-name="Path 41" d="M56.3,10.245a.907.907,0,0,0-1.128-.471l-5.19,1.73a.776.776,0,0,0-.521,1.021.88.88,0,0,0,.825.52.957.957,0,0,0,.3-.049l5.19-1.73A.776.776,0,0,0,56.3,10.245Z" fill="#ffeebd"/>
  </g>
</svg>
