<svg width="33" height="27" viewBox="0 0 33 27" fill="none" xmlns="http://www.w3.org/2000/svg">
<path d="M27.1744 21.0578H4.87567V11.3787C4.87567 6.46828 9.84624 2.48761 15.9778 2.48761H16.0722C22.2037 2.48761 27.1743 6.46828 27.1743 11.3787V21.0578H27.1744Z" fill="#FF5E57"/>
<path d="M16.0722 2.4866H15.9779C15.656 2.4866 15.3375 2.49822 15.0226 2.51973C20.7069 2.90774 25.1695 6.72507 25.1695 11.3778V21.0568H27.1744V11.3777C27.1744 6.46733 22.2038 2.4866 16.0722 2.4866Z" fill="#F7372F"/>
<path d="M12.6276 21.0568V12.3195C12.6276 10.8379 14.1327 9.63248 15.9828 9.63248H16.0672C17.9173 9.63248 19.4224 10.8379 19.4224 12.3195V21.0568H12.6276Z" fill="#DE2A2E"/>
<path d="M16.0672 9.63248H15.9828C15.6491 9.63248 15.327 9.67224 15.0226 9.74519C16.4062 10.0768 17.4177 11.1051 17.4177 12.3195V21.0568H19.4225V12.3195C19.4224 10.8379 17.9173 9.63248 16.0672 9.63248Z" fill="#CF1D21"/>
<path d="M30.9785 27H1.07148C0.45694 27 0.044084 26.496 0.289739 26.0457L3.08778 20.915C3.39518 20.3513 4.09485 19.9865 4.86844 19.9865H27.1816C27.9551 19.9865 28.6548 20.3513 28.9622 20.915L31.7603 26.0457C32.0058 26.4961 31.593 27 30.9785 27Z" fill="#C2D8ED"/>
<path d="M31.7602 26.0457L28.9622 20.915C28.6548 20.3513 27.9551 19.9865 27.1815 19.9865H25.1767C25.9503 19.9865 26.65 20.3513 26.9574 20.915L29.7554 26.0457C30.001 26.4961 29.5882 27 28.9737 27H30.9785C31.593 27 32.0058 26.4961 31.7602 26.0457Z" fill="#B4CAE0"/>
<path d="M23.7442 11.7415C23.4674 11.7415 23.243 11.5619 23.243 11.3401C23.243 8.18145 20.005 5.61173 16.0249 5.61173C15.7481 5.61173 15.5237 5.43207 15.5237 5.21035C15.5237 4.98862 15.7481 4.80896 16.0249 4.80896C20.5577 4.80896 24.2454 7.73886 24.2454 11.3401C24.2454 11.5619 24.021 11.7415 23.7442 11.7415Z" fill="white"/>
<path d="M1.3136 0.624649C1.11767 0.468002 0.800307 0.46827 0.604839 0.625131C0.409237 0.782046 0.409505 1.03615 0.605441 1.19274L4.6935 4.46125C4.79134 4.53949 4.91944 4.57856 5.04762 4.57856C5.17599 4.57856 5.30443 4.53928 5.40233 4.46077C5.59793 4.30385 5.59767 4.04975 5.40173 3.89315L1.3136 0.624649Z" fill="#FFEEBD"/>
<path d="M6.36254 0.26041C6.26518 0.052921 5.97602 -0.052349 5.71713 0.0258409C5.45797 0.103763 5.32686 0.335175 5.42416 0.542718L6.48143 2.79679C6.55694 2.95783 6.74787 3.0571 6.95069 3.0571C7.00923 3.0571 7.06884 3.04886 7.12684 3.03141C7.386 2.95344 7.51711 2.72203 7.41981 2.51448L6.36254 0.26041Z" fill="#FFEEBD"/>
<path d="M3.63494 5.51932L0.674581 4.64585C0.414759 4.569 0.126736 4.67577 0.0310399 4.88368C-0.0646559 5.09171 0.0683292 5.32242 0.328085 5.39906L3.28844 6.27253C3.34558 6.28939 3.40412 6.29742 3.46166 6.29742C3.66568 6.29742 3.85734 6.19691 3.93205 6.0347C4.02768 5.82667 3.89469 5.59596 3.63494 5.51932Z" fill="#FFEEBD"/>
<path d="M31.4452 0.625141C31.2496 0.468172 30.9323 0.468012 30.7365 0.624659L26.6483 3.89317C26.4524 4.04981 26.4521 4.30392 26.6477 4.46078C26.7456 4.53934 26.874 4.57857 27.0025 4.57857C27.1306 4.57857 27.2587 4.5395 27.3566 4.46126L31.4447 1.19281C31.6406 1.03616 31.6408 0.782055 31.4452 0.625141Z" fill="#FFEEBD"/>
<path d="M26.3329 0.0258432C26.0739 -0.0521861 25.7848 0.0528698 25.6874 0.260413L24.6302 2.51448C24.5328 2.72203 24.664 2.95344 24.9231 3.03142C24.9812 3.04886 25.0408 3.0571 25.0993 3.0571C25.3021 3.0571 25.493 2.95783 25.5686 2.79679L26.6258 0.54272C26.7232 0.335177 26.592 0.103765 26.3329 0.0258432Z" fill="#FFEEBD"/>
<path d="M32.019 4.88367C31.9233 4.67559 31.6352 4.56899 31.3755 4.64584L28.4151 5.5193C28.1554 5.59594 28.0224 5.82666 28.1181 6.03468C28.1927 6.19695 28.3844 6.2974 28.5885 6.2974C28.646 6.2974 28.7045 6.28943 28.7617 6.27252L31.722 5.39905C31.9817 5.32247 32.1147 5.0917 32.019 4.88367Z" fill="#FFEEBD"/>
</svg>
