<svg width="36" height="30" viewBox="0 0 36 30" fill="none" xmlns="http://www.w3.org/2000/svg">
<g clip-path="url(#clip0)">
<path d="M36 15C36 16.0886 35.8611 17.1502 35.5959 18.1733C34.9104 20.8255 33.3845 23.2163 31.2597 25.1437C30.8403 25.5245 30.3972 25.8876 29.9329 26.2304C27.6877 27.8884 24.9421 29.0859 21.9085 29.6443C21.7822 29.6682 21.6544 29.6902 21.5265 29.7116C21.287 29.7514 21.0459 29.7869 20.8028 29.8188C20.1923 29.8983 19.5722 29.9528 18.9433 29.9798C18.6311 29.9933 18.3167 30 18 30C16.5975 30 15.2331 29.8665 13.9232 29.6137C13.2789 29.49 12.6485 29.337 12.0329 29.1564C10.0375 28.5723 8.20216 27.7035 6.59904 26.6076C5.75782 26.0339 4.98052 25.3972 4.27739 24.7072C4.24287 24.6735 4.20834 24.6392 4.17382 24.6049C3.93947 24.3717 3.71391 24.1317 3.49713 23.8862C1.29895 21.3992 0 18.3257 0 15C0 13.0218 0.459211 11.133 1.29452 9.40406C1.49801 8.98225 1.72357 8.57016 1.97121 8.16856C2.52 7.27529 3.17391 6.43406 3.91816 5.65652C4.09085 5.47529 4.26937 5.29775 4.45226 5.12385C5.25895 4.35609 6.15825 3.65689 7.13538 3.03979C7.29113 2.94123 7.44912 2.84508 7.60852 2.7508C8.54086 2.20037 9.5393 1.72225 10.5906 1.32551C12.8505 0.473906 15.3588 0 18 0C20.9043 0 23.6476 0.573047 26.0765 1.59059C26.9537 1.95855 27.7898 2.38465 28.5782 2.86225C28.8574 3.03182 29.1314 3.20754 29.3981 3.39059C30.3341 4.02914 31.1915 4.74486 31.9556 5.52609C34.2008 7.81893 35.6467 10.6757 35.9435 13.8018C35.9809 14.1973 36 14.5965 36 15Z" fill="#EC2727" fill-opacity="0.69"/>
<path d="M13.9232 21.2528V29.6136C13.2789 29.49 12.6485 29.3369 12.0329 29.1563C10.0375 28.5723 8.20216 27.7035 6.59904 26.6075C5.75782 26.0339 4.98051 25.3971 4.27739 24.7071V21.2528H13.9232Z" fill="#DEAB85"/>
<path d="M6.59904 21.2528V26.6075C5.75782 26.0339 4.98051 25.3971 4.27739 24.7071V21.2528H6.59904Z" fill="#BD8062"/>
<path d="M17.4259 16.1164C16.997 16.761 16.9963 18.2079 16.9963 18.2162C16.9963 18.2162 16.9647 23.7926 12.1314 23.7926C10.3244 23.7926 7.78051 23.7926 7.78051 23.7926C4.21363 23.7926 2.19868 20.7503 2.19868 18.1328V12.3194C2.19868 11.6474 2.85301 11.1022 3.65936 11.1022C4.06288 11.1022 4.42787 11.2388 4.69232 11.4586C4.95676 11.679 5.12003 11.9837 5.12003 12.3193V9.85442C5.12003 9.18194 5.77436 8.63719 6.5807 8.63719C6.98422 8.63719 7.34922 8.77325 7.61359 8.99356C7.87804 9.21399 8.0413 9.51815 8.0413 9.85436V7.95639C8.0413 7.28391 8.69563 6.73917 9.50261 6.73917C9.90543 6.73917 10.2711 6.87522 10.5355 7.09559C10.7993 7.31602 10.9631 7.62018 10.9631 7.95639V9.48915C10.9631 8.81667 11.6168 8.27192 12.4232 8.27192C12.8267 8.27192 13.1917 8.40797 13.4561 8.62835C13.7206 8.84872 13.8838 9.15288 13.8838 9.48909V16.0189C14.0333 15.5885 14.242 15.1695 14.5095 14.7681C14.9558 14.0967 15.9707 13.8546 16.7765 14.227C17.5824 14.5997 17.8728 15.4455 17.4259 16.1164Z" fill="#DEAB85"/>
<path d="M8.77375 23.7926C8.17968 23.7926 7.78051 23.7926 7.78051 23.7926C4.21363 23.7926 2.19868 20.7504 2.19868 18.1329V12.3195C2.19868 11.6476 2.85301 11.1023 3.65936 11.1023C3.8338 11.1023 4.00079 11.1277 4.1559 11.1747C3.59411 11.3439 3.19185 11.7929 3.19185 12.3195V18.1329C3.19192 20.7504 5.20686 23.7926 8.77375 23.7926Z" fill="#BD8062"/>
<path d="M5.12004 15.5471V9.88289C5.12004 9.21785 5.74575 8.65412 6.54352 8.63771C6.73146 8.63385 6.91118 8.65933 7.07733 8.70978C6.51553 8.87894 6.11328 9.32795 6.11328 9.85453V15.5472C6.11328 15.7758 5.89095 15.961 5.61673 15.961C5.34237 15.961 5.12004 15.7757 5.12004 15.5471Z" fill="#BD8062"/>
<path d="M8.04121 15.0376V7.95656C8.04121 7.29152 8.66692 6.72779 9.46469 6.71138C9.65263 6.70751 9.83235 6.733 9.9985 6.78345C9.43671 6.95261 9.03445 7.40162 9.03445 7.92826V15.0377C9.03445 15.2663 8.81212 15.4515 8.5379 15.4515C8.26361 15.4515 8.04121 15.2662 8.04121 15.0376Z" fill="#BD8062"/>
<path d="M10.9632 15.4339V9.4893C10.9632 8.82426 11.5889 8.26053 12.3867 8.24413C12.5746 8.24026 12.7544 8.26575 12.9205 8.3162C12.3587 8.48536 11.9565 8.93436 11.9565 9.461V15.434C11.9565 15.6626 11.7341 15.8478 11.4599 15.8478C11.1856 15.8478 10.9632 15.6625 10.9632 15.4339Z" fill="#BD8062"/>
<path d="M17.0622 14.3939C16.3626 14.2686 15.619 14.5304 15.2545 15.0788C14.6394 16.0021 14.3339 17.0207 14.3489 18.0491C12.4628 18.0491 10.8943 19.1796 10.5657 20.6715C10.531 20.8291 10.3682 20.9443 10.1761 20.9443C9.9389 20.9443 9.75532 20.7717 9.78232 20.5754C10.0018 18.9785 11.6288 17.7387 13.6039 17.7387C13.589 16.7103 13.8945 15.6917 14.5096 14.7684C14.9559 14.097 15.9708 13.8549 16.7766 14.2273C16.8803 14.2754 16.9758 14.3313 17.0622 14.3939Z" fill="#BD8062"/>
<path d="M31.2597 18.5675V25.1436C30.8402 25.5244 30.3972 25.8875 29.9328 26.2304C27.6876 27.8883 24.9421 29.0859 21.9085 29.6443C21.7822 29.6682 21.6543 29.6902 21.5264 29.7116C21.2869 29.7514 21.0459 29.7869 20.8028 29.8188C20.1922 29.8983 19.5722 29.9528 18.9433 29.9798L18.944 18.5675H31.2597Z" fill="#FFCDA8"/>
<path d="M21.9086 18.5675V29.6443C21.7822 29.6682 21.6544 29.6902 21.5265 29.7116C21.287 29.7514 21.046 29.7869 20.8029 29.8188C20.1923 29.8983 19.5722 29.9528 18.9434 29.9798L18.9441 18.5675H21.9086Z" fill="#EFB691"/>
<path d="M35.7321 12.0092C35.1845 12.8322 35.1836 14.6795 35.1836 14.6901C35.1836 14.6901 35.1432 21.8102 28.972 21.8102C26.6648 21.8102 23.4167 21.8102 23.4167 21.8102C18.8624 21.8102 16.2897 17.9258 16.2897 14.5838V7.16099C16.2897 6.303 17.1251 5.60685 18.1547 5.60685C18.6699 5.60685 19.136 5.78122 19.4736 6.06194C19.8113 6.34325 20.0198 6.73237 20.0198 7.16099V4.01374C20.0198 3.15505 20.8552 2.4596 21.8848 2.4596C22.4 2.4596 22.8661 2.63327 23.2036 2.9147C23.5413 3.19607 23.7498 3.58442 23.7498 4.0138V1.59036C23.7498 0.731671 24.5852 0.0361633 25.6155 0.0361633C26.1298 0.0361633 26.5968 0.209894 26.9344 0.491261C27.2712 0.772628 27.4805 1.16099 27.4805 1.59036V3.54739C27.4805 2.6887 28.3151 1.99325 29.3447 1.99325C29.8598 1.99325 30.3259 2.16692 30.6636 2.44835C31.0012 2.72966 31.2097 3.11808 31.2097 3.54739V11.8849C31.4007 11.3353 31.667 10.8004 32.0087 10.2878C32.5785 9.4305 33.8744 9.12142 34.9032 9.5969C35.9318 10.0725 36.3028 11.1524 35.7321 12.0092Z" fill="#FFCDA8"/>
<path d="M24.6848 21.8102C23.9263 21.8102 23.4167 21.8102 23.4167 21.8102C18.8624 21.8102 16.2897 17.9258 16.2897 14.5838V7.16098C16.2897 6.30299 17.1251 5.60684 18.1547 5.60684C18.3775 5.60684 18.5906 5.63919 18.7889 5.6993C18.0716 5.91528 17.558 6.48862 17.558 7.16098V14.5836C17.5578 17.9258 20.1306 21.8102 24.6848 21.8102Z" fill="#EFB691"/>
<path d="M20.0197 11.2822V4.05001C20.0197 3.20092 20.8186 2.48104 21.8372 2.46012C22.0772 2.45514 22.3066 2.48772 22.5188 2.55206C21.8015 2.76803 21.2879 3.34137 21.2879 4.01374V11.2822C21.2879 11.5741 21.0041 11.8107 20.6538 11.8107C20.3036 11.8106 20.0197 11.5741 20.0197 11.2822Z" fill="#EFB691"/>
<path d="M23.7496 10.6317V1.59035C23.7496 0.741267 24.5485 0.0213845 25.5671 0.000466514C25.8071 -0.00451396 26.0365 0.0280642 26.2488 0.0924001C25.5315 0.308377 25.0179 0.881717 25.0179 1.55408V10.6316C25.0179 10.9235 24.7339 11.1601 24.3837 11.1601C24.0335 11.16 23.7496 10.9235 23.7496 10.6317Z" fill="#EFB691"/>
<path d="M27.4804 11.1377V3.54738C27.4804 2.6983 28.2793 1.97842 29.2979 1.9575C29.5379 1.95252 29.7673 1.9851 29.9795 2.04943C29.2623 2.26541 28.7486 2.83875 28.7486 3.51111V11.1376C28.7486 11.4294 28.4648 11.666 28.1145 11.666C27.7643 11.666 27.4804 11.4295 27.4804 11.1377Z" fill="#EFB691"/>
<path d="M35.2677 9.80964C34.3744 9.6498 33.4249 9.98402 32.9596 10.6842C32.1741 11.8631 31.7842 13.1636 31.8032 14.4767C29.395 14.4767 27.3923 15.9201 26.9727 17.8252C26.9284 18.0263 26.7206 18.1735 26.4752 18.1735C26.1724 18.1735 25.9381 17.9531 25.9725 17.7024C26.2528 15.6635 28.3302 14.0804 30.8521 14.0804C30.833 12.7673 31.223 11.4668 32.0085 10.2879C32.5784 9.43054 33.8742 9.12146 34.903 9.59695C35.0354 9.65835 35.1574 9.72966 35.2677 9.80964Z" fill="#EFB691"/>
</g>
<defs>
<clipPath id="clip0">
<rect width="36" height="30" fill="white"/>
</clipPath>
</defs>
</svg>
