<svg xmlns="http://www.w3.org/2000/svg" xmlns:xlink="http://www.w3.org/1999/xlink" width="55" height="53" viewBox="0 0 55 53">
  <defs>
    <clipPath id="clip-path">
      <rect id="Rectangle_3" data-name="Rectangle 3" width="55" height="53" fill="#fff"/>
    </clipPath>
  </defs>
  <g id="Group_7" data-name="Group 7" clip-path="url(#clip-path)">
    <path id="Path_42" data-name="Path 42" d="M55,26.5a25.6,25.6,0,0,1-.617,5.606,26.1,26.1,0,0,1-6.625,12.314,27.1,27.1,0,0,1-2.027,1.92,27.775,27.775,0,0,1-12.259,6.031c-.193.042-.388.081-.584.119q-.549.105-1.105.189a28.521,28.521,0,0,1-2.841.285Q28.226,53,27.5,53a28.565,28.565,0,0,1-6.228-.682,27.852,27.852,0,0,1-11.19-5.311,27.08,27.08,0,0,1-3.547-3.358l-.158-.181q-.537-.618-1.034-1.27A25.722,25.722,0,0,1,1.978,16.614q.466-1.118,1.034-2.183A26.356,26.356,0,0,1,5.986,9.993q.4-.48.816-.941A27.273,27.273,0,0,1,10.9,5.37q.357-.261.723-.511A27.8,27.8,0,0,1,16.18,2.342a28.513,28.513,0,0,1,23.659.468,27.83,27.83,0,0,1,3.822,2.247q.64.449,1.253.933a27.1,27.1,0,0,1,3.907,3.773,25.852,25.852,0,0,1,6.093,14.62Q55,25.431,55,26.5Z" fill="rgba(236,39,39,0.69)"/>
    <path id="Path_43" data-name="Path 43" d="M21.272,37.547V52.317a27.856,27.856,0,0,1-11.19-5.311,27.073,27.073,0,0,1-3.547-3.357v-6.1Z" fill="#deab85"/>
    <path id="Path_44" data-name="Path 44" d="M10.082,37.547v9.46a27.073,27.073,0,0,1-3.547-3.357v-6.1Z" fill="#bd8062"/>
    <path id="Path_45" data-name="Path 45" d="M26.623,28.472a10,10,0,0,0-.656,3.709s-.048,9.852-7.432,9.852H11.887c-5.449,0-8.528-5.375-8.528-10V21.764a2.193,2.193,0,0,1,2.232-2.15,2.271,2.271,0,0,1,1.578.63,2.106,2.106,0,0,1,.653,1.521V17.41a2.192,2.192,0,0,1,2.232-2.15,2.267,2.267,0,0,1,1.578.63,2.1,2.1,0,0,1,.654,1.521V14.056a2.192,2.192,0,0,1,2.233-2.15,2.268,2.268,0,0,1,1.578.63,2.109,2.109,0,0,1,.653,1.521v2.708a2.191,2.191,0,0,1,2.231-2.15,2.266,2.266,0,0,1,1.578.63,2.1,2.1,0,0,1,.653,1.521V28.3a10.432,10.432,0,0,1,.956-2.21,2.6,2.6,0,0,1,3.464-.956A2.409,2.409,0,0,1,26.623,28.472Z" fill="#deab85"/>
    <path id="Path_46" data-name="Path 46" d="M47.758,32.8V44.421a27.116,27.116,0,0,1-2.027,1.92,27.776,27.776,0,0,1-12.259,6.031c-.193.042-.388.081-.584.119q-.549.105-1.106.189a28.52,28.52,0,0,1-2.841.285V32.8Z" fill="#ffcda8"/>
    <path id="Path_47" data-name="Path 47" d="M33.472,32.8V52.372c-.193.042-.388.081-.584.119q-.549.105-1.105.189a28.522,28.522,0,0,1-2.841.285V32.8Z" fill="#efb691"/>
    <path id="Path_48" data-name="Path 48" d="M54.591,21.216c-.837,1.454-.838,4.718-.838,4.736,0,0-.062,12.579-9.49,12.579H35.776c-6.958,0-10.889-6.863-10.889-12.767V12.651a2.8,2.8,0,0,1,2.849-2.746,2.9,2.9,0,0,1,2.015.8,2.689,2.689,0,0,1,.834,1.942V7.091a2.8,2.8,0,0,1,2.849-2.746,2.894,2.894,0,0,1,2.015.8,2.687,2.687,0,0,1,.834,1.942V2.81A2.8,2.8,0,0,1,39.135.064a2.9,2.9,0,0,1,2.015.8,2.692,2.692,0,0,1,.834,1.942V6.267a2.8,2.8,0,0,1,2.848-2.746,2.894,2.894,0,0,1,2.015.8,2.687,2.687,0,0,1,.834,1.942V21A13.319,13.319,0,0,1,48.9,18.175a3.316,3.316,0,0,1,4.422-1.221A3.075,3.075,0,0,1,54.591,21.216Z" fill="#ffcda8"/>
    <path id="Path_49" data-name="Path 49" d="M12.535,42.665H11.14c-5.01,0-7.84-4.9-7.84-9.119V24.179a2.008,2.008,0,0,1,2.052-1.961,2.12,2.12,0,0,1,.7.117A1.97,1.97,0,0,0,4.7,24.179v9.367C4.7,37.764,7.525,42.665,12.535,42.665Z" fill="#efb691"/>
    <path id="Path_50" data-name="Path 50" d="M7.4,29.38V20.253a2.033,2.033,0,0,1,2-2.006,2.122,2.122,0,0,1,.75.116A1.97,1.97,0,0,0,8.8,20.208V29.38a.7.7,0,0,1-1.4,0Z" fill="#efb691"/>
    <path id="Path_51" data-name="Path 51" d="M11.506,28.559V17.15a2.033,2.033,0,0,1,2-2.006,2.124,2.124,0,0,1,.75.116A1.97,1.97,0,0,0,12.9,17.1V28.559a.7.7,0,0,1-1.4,0Z" fill="#efb691"/>
    <path id="Path_52" data-name="Path 52" d="M15.61,29.2V19.619a2.033,2.033,0,0,1,2-2.006,2.124,2.124,0,0,1,.75.116A1.97,1.97,0,0,0,17,19.573V29.2a.7.7,0,0,1-1.395,0Z" fill="#efb691"/>
    <path id="Path_53" data-name="Path 53" d="M24.176,27.522a2.381,2.381,0,0,0-2.539,1.1,9.264,9.264,0,0,0-1.272,4.786,5.343,5.343,0,0,0-5.314,4.226.551.551,0,0,1-.547.439.542.542,0,0,1-.553-.594,5.322,5.322,0,0,1,5.368-4.571,9.264,9.264,0,0,1,1.272-4.786,2.4,2.4,0,0,1,3.184-.872A2.361,2.361,0,0,1,24.176,27.522Z" fill="#efb691"/>
  </g>
</svg>
