<svg width="10" height="10" viewBox="0 0 10 10" fill="none" xmlns="http://www.w3.org/2000/svg">
<path d="M4.60706 0H5.3896V1.40689H4.60706V0Z" fill="#EC2727" fill-opacity="0.69"/>
<path d="M6.5144 1.51654L7.21338 0.210943L7.93958 0.428911L7.24061 1.73451L6.5144 1.51654Z" fill="#EC2727" fill-opacity="0.69"/>
<path d="M8.15527 2.19757L9.4217 1.15788L10 1.5528L8.73357 2.59249L8.15527 2.19757Z" fill="#EC2727" fill-opacity="0.69"/>
<path d="M2.05777 0.425293L2.78397 0.207324L3.48295 1.51292L2.75675 1.73089L2.05777 0.425293Z" fill="#EC2727" fill-opacity="0.69"/>
<path d="M0 1.55255L0.578301 1.15763L1.84473 2.19732L1.26643 2.59225L0 1.55255Z" fill="#EC2727" fill-opacity="0.69"/>
<path d="M1.45081 7.10938H8.54588V7.8125H1.45081V7.10938Z" fill="#EC2727" fill-opacity="0.69"/>
<path d="M8.73282 8.39844H1.26385C0.864122 8.55252 0.589996 8.86447 0.589996 9.22363V10H9.40667V9.22363C9.40667 8.86447 9.13255 8.55252 8.73282 8.39844Z" fill="#EC2727" fill-opacity="0.69"/>
<path d="M8.54588 5C8.54588 3.53535 6.95447 2.34375 4.99834 2.34375C3.04222 2.34375 1.45081 3.53535 1.45081 5V6.52344H8.54588V5ZM5.38962 5.78736H4.60707V5.20143H5.38962V5.78736ZM5.38962 4.79777H4.60707V3.20924H5.38962V4.79777Z" fill="#EC2727" fill-opacity="0.69"/>
</svg>
