<svg width="375" height="257" viewBox="0 0 375 257" fill="none" xmlns="http://www.w3.org/2000/svg">
<g clip-path="url(#clip0)">
<path opacity="0.5" d="M13.087 82.0565C-5.68116 93.0809 -24.2705 110.306 -40 126.843V437H404V12.4656C395.42 1.44125 382.908 -0.396131 377.725 0.0632151C345.551 2.81929 367.447 53.8401 325.204 57.9817C290.787 61.3559 291.287 71.2613 286.833 79.5177C277.717 100.877 271.759 98.5688 267.648 99.9711C237.083 99.9711 223.933 57.8031 200.768 62.764C177.603 67.7249 168.594 66.2091 166.449 64.142C159.299 58.8596 138.516 44.0821 120.87 49.6726C103.356 55.2211 90.7909 106.783 69.3913 99.9711C24.8841 66.6116 23.2754 77.2334 13.087 82.0565Z" fill="url(#paint0_linear)"/>
<path d="M18.2065 109.569C-0.603867 121.739 -19.2351 140.756 -35 159.012V376.01H410V32.7427C401.401 20.5722 388.861 18.5438 383.665 19.0509C351.419 22.0935 373.365 78.4189 331.026 82.991C296.532 86.7161 297.033 97.6512 292.569 106.766C283.433 130.346 277.461 127.798 273.341 129.346C242.707 129.346 229.528 82.7938 206.31 88.2705C183.093 93.7473 174.064 92.0738 171.914 89.7918C164.748 83.9602 143.918 67.6463 126.232 73.8181C108.679 79.9434 96.0854 136.866 74.6377 129.346C30.0302 92.5182 28.4179 104.244 18.2065 109.569Z" fill="url(#paint1_linear)"/>
</g>
<defs>
<linearGradient id="paint0_linear" x1="182.592" y1="-15.1084" x2="183.074" y2="182.81" gradientUnits="userSpaceOnUse">
<stop stop-color="#FF0606"/>
<stop offset="0.255208" stop-color="#F80C0C" stop-opacity="0.67"/>
<stop offset="1" stop-color="#CF3E3E" stop-opacity="0"/>
</linearGradient>
<linearGradient id="paint1_linear" x1="188.093" y1="2.30193" x2="189.029" y2="351.221" gradientUnits="userSpaceOnUse">
<stop stop-color="#EC2727" stop-opacity="0.65"/>
<stop offset="0.291667" stop-color="#EC2727" stop-opacity="0.59"/>
<stop offset="1" stop-color="#F44141" stop-opacity="0"/>
</linearGradient>
<clipPath id="clip0">
<rect width="375" height="257" fill="white"/>
</clipPath>
</defs>
</svg>
