<svg width="306" height="376" viewBox="0 0 306 376" fill="none" xmlns="http://www.w3.org/2000/svg">
<path d="M241 25.75L270.25 3L299.5 25.75V61.5C299.5 63.2239 298.815 64.8772 297.596 66.0962C296.377 67.3152 294.724 68 293 68H247.5C245.776 68 244.123 67.3152 242.904 66.0962C241.685 64.8772 241 63.2239 241 61.5V25.75Z" stroke="#7E7878" stroke-opacity="0.81" stroke-width="5" stroke-linecap="round" stroke-linejoin="round"/>
<path d="M260.231 68.5053V36.0053H279.731V68.5053" stroke="#827F80" stroke-width="5" stroke-linecap="round" stroke-linejoin="round"/>
<path d="M269.099 71.3902C268.692 77.0405 269.015 92.7092 273.557 110.181C279.236 132.022 281.107 164.487 255.43 166.842C229.752 169.197 205.976 127.392 196.338 123.514C186.699 119.637 159.314 112.32 158.119 141.966C156.925 171.612 195.048 187.034 208.935 168.751C222.822 150.468 227.866 112.413 198.696 99.0932C169.527 85.7731 128.68 102.639 134.237 138.701C139.793 174.762 200.283 248.251 198.032 275.886C195.78 303.521 174.738 324.881 147.282 298.81C117.344 270.382 102.784 276.417 92.6783 285.3C81.1284 295.453 69.9141 311.731 68.2925 314.602" stroke="#676666" stroke-width="2" stroke-linecap="round" stroke-linejoin="round" stroke-dasharray="2 5"/>
<circle cx="180.375" cy="94.3752" r="9.60352" transform="rotate(83.6109 180.375 94.3752)" fill="#F9FBFF" stroke="#A8A2A2" stroke-width="5"/>
<circle cx="180.386" cy="228.386" r="6.8989" transform="rotate(83.6109 180.386 228.386)" fill="#F9FBFF" stroke="#A8A2A2" stroke-width="5"/>
<path d="M142 165.316C139.476 165.316 137.684 163.472 137.684 161.5C137.684 159.528 139.476 157.684 142 157.684C144.524 157.684 146.316 159.528 146.316 161.5C146.316 163.472 144.524 165.316 142 165.316Z" fill="#FFF9F9" stroke="#9D9B9B" stroke-width="3.36864"/>
<path d="M198 281.316C195.476 281.316 193.684 279.472 193.684 277.5C193.684 275.528 195.476 273.684 198 273.684C200.524 273.684 202.316 275.528 202.316 277.5C202.316 279.472 200.524 281.316 198 281.316Z" fill="#FFF9F9" stroke="#9B9596" stroke-width="3.36864"/>
</svg>
